<svg width="348" height="118" viewBox="0 0 348 118" fill="none" xmlns="http://www.w3.org/2000/svg">
<g clip-path="url(#clip0_85:985)">
<path d="M139.494 47.2295C138.891 48.2217 138.045 49.0458 137.035 49.6253C136.025 50.2047 134.884 50.5206 133.718 50.5434C132.623 50.5652 131.536 50.3617 130.524 49.9457C129.512 49.5298 128.597 48.9104 127.838 48.1264C127.078 47.3424 126.489 46.4108 126.109 45.39C125.729 44.3691 125.565 43.2812 125.627 42.1943C125.562 41.1062 125.725 40.0164 126.104 38.9937C126.483 37.9709 127.071 37.0373 127.831 36.2516C128.591 35.4658 129.507 34.845 130.52 34.4281C131.533 34.0112 132.622 33.8072 133.718 33.8291C134.887 33.8382 136.033 34.1482 137.045 34.729C138.058 35.3098 138.901 36.1415 139.494 37.143L139.737 37.5774L144.332 35.1804L144.041 34.7139C142.997 32.9247 141.487 31.4484 139.671 30.4406C137.854 29.4327 135.797 28.9306 133.718 28.987C131.944 28.9135 130.175 29.2034 128.519 29.8387C126.863 30.4739 125.356 31.4408 124.092 32.6794C122.828 33.9181 121.834 35.4019 121.171 37.0387C120.508 38.6756 120.191 40.4304 120.239 42.1943C120.191 43.9582 120.508 45.7131 121.171 47.3499C121.834 48.9867 122.828 50.4706 124.092 51.7092C125.356 52.9478 126.863 53.9148 128.519 54.55C130.175 55.1852 131.944 55.4751 133.718 55.4017C135.806 55.442 137.868 54.9264 139.689 53.9081C141.51 52.8898 143.023 51.406 144.073 49.6104L144.381 49.1278L139.737 46.8113L139.494 47.2295Z" fill="#0077B6"/>
<path d="M164.267 39.3952H152.456V29.3892H147.083V54.9673H152.456V44.2213H164.267V54.9673H169.623V29.3892H164.267V39.3952Z" fill="#0077B6"/>
<path d="M181.678 29.3892L171.565 54.9512H177.6L179.413 50.2056H190.027L191.791 54.9512H197.826L187.713 29.3892H181.678ZM188.425 45.4761H181.031L184.72 35.7274L188.425 45.4761Z" fill="#0077B6"/>
<path d="M205.156 29.3892H199.8V54.9673H205.156V29.3892Z" fill="#0077B6"/>
<path d="M226.45 45.3474L214.606 29.3892H209.396V54.9673H214.751V38.4622L226.855 54.9673H231.822V29.3892H226.45V45.3474Z" fill="#0077B6"/>
<path d="M255.268 39.1539C252.598 38.4782 250.284 37.883 250.284 36.3708C250.284 34.8587 251.74 33.8291 253.925 33.8291C255.18 33.8018 256.429 34.0224 257.598 34.478C258.768 34.9336 259.834 35.6152 260.737 36.4834L261.158 36.9017L264.232 32.8639L263.908 32.5582C262.631 31.3573 261.127 30.4204 259.482 29.8018C257.838 29.1833 256.086 28.8954 254.329 28.9548C248.731 28.9548 244.815 32.1722 244.815 36.6765C244.815 42.2104 249.831 43.4652 253.876 44.4947C256.724 45.2025 259.184 45.8138 259.184 47.7121C259.184 49.0956 258.019 50.5756 254.766 50.5756C253.372 50.5753 251.994 50.2894 250.716 49.7359C249.438 49.1823 248.289 48.3729 247.339 47.3582L246.919 46.8917L243.844 50.9617L244.152 51.2834C245.519 52.6342 247.151 53.6911 248.946 54.3885C250.742 55.0859 252.662 55.4088 254.588 55.3373C261.999 55.3373 264.653 51.1386 264.653 47.1973C264.604 41.5347 259.442 40.2156 255.268 39.1539Z" fill="#0077B6"/>
<path d="M285.947 29.3892H265.624V34.1991H273.099V54.9673H278.471V34.1991H285.947V29.3892Z" fill="#0077B6"/>
<path d="M293.471 29.3892L283.374 54.9512H289.409L291.222 50.2056H301.82L303.632 54.9512H309.668L299.571 29.3892H293.471ZM300.234 45.4761H292.84L296.529 35.7274L300.234 45.4761Z" fill="#0077B6"/>
<path d="M307.095 34.1991H314.571V54.9673H319.927V34.1991H327.402V29.3892H307.095V34.1991Z" fill="#0077B6"/>
<path d="M348 34.1991V29.3892H330.039V54.9673H348V50.1573H335.411V44.3339H347.741V39.5078H335.411V34.1991H348Z" fill="#0077B6"/>
<path d="M123.832 88.5889V64.0403H126.906V85.8702H138.394V88.5889H123.832Z" fill="#03045E"/>
<path d="M161.16 88.5889L158.976 83.1355H146.679L144.494 88.6211H140.983L150.934 64.0725H154.753L164.672 88.6211L161.16 88.5889ZM152.827 67.1612L147.617 80.4168H158.086L152.827 67.1612Z" fill="#03045E"/>
<path d="M167.892 88.5889V64.0403H178.846C183.134 64.0403 185.771 66.6142 185.771 70.2981C185.817 71.5908 185.409 72.8589 184.618 73.8859C183.827 74.9128 182.702 75.6348 181.435 75.9285C182.817 76.2276 184.055 76.9903 184.938 78.0887C185.822 79.1872 186.299 80.5545 186.289 81.9611C186.289 85.9024 183.652 88.5889 179.137 88.5889H167.892ZM182.632 70.7325C182.651 70.1834 182.552 69.6366 182.341 69.1288C182.13 68.6209 181.812 68.1637 181.41 67.7876C181.007 67.4115 180.528 67.1251 180.005 66.9478C179.482 66.7704 178.927 66.706 178.377 66.759H170.966V74.6738H178.377C178.926 74.7344 179.481 74.6765 180.005 74.504C180.53 74.3315 181.01 74.0484 181.414 73.6742C181.819 73.2999 182.137 72.8434 182.347 72.3356C182.557 71.8279 182.654 71.2811 182.632 70.7325ZM183.118 81.6394C183.131 81.0529 183.02 80.4702 182.792 79.9293C182.564 79.3885 182.223 78.9016 181.792 78.5007C181.361 78.0998 180.85 77.7939 180.292 77.6029C179.735 77.4119 179.142 77.3402 178.555 77.3924H170.966V85.8702H178.555C179.145 85.9413 179.743 85.8833 180.309 85.7003C180.874 85.5172 181.392 85.2135 181.827 84.8105C182.261 84.4074 182.602 83.9147 182.825 83.367C183.048 82.8192 183.148 82.2296 183.118 81.6394Z" fill="#03045E"/>
<path d="M188.668 85.1303L190.529 82.7816C191.481 83.8976 192.666 84.7949 194.002 85.4114C195.337 86.028 196.791 86.3492 198.263 86.3529C202.664 86.3529 204.072 84.0042 204.072 82.0898C204.072 75.7516 189.509 79.2907 189.509 70.5234C189.509 66.4855 193.15 63.6864 198.037 63.6864C199.655 63.6246 201.269 63.9004 202.774 64.4961C204.279 65.0917 205.641 65.9941 206.774 67.1451L204.913 69.3812C204.006 68.4101 202.899 67.6446 201.668 67.1366C200.437 66.6286 199.11 66.3901 197.778 66.4373C194.849 66.4373 192.697 68.046 192.697 70.3464C192.697 75.8642 207.26 72.6951 207.26 81.8646C207.26 85.4037 204.816 89.0716 198.15 89.0716C196.377 89.1334 194.612 88.8132 192.975 88.1329C191.338 87.4526 189.869 86.4283 188.668 85.1303Z" fill="#03045E"/>
<path opacity="0.3" d="M101.664 29.3087C99.827 27.0988 97.3716 25.4808 94.6089 24.6596C93.2533 24.21 91.8542 23.9027 90.4343 23.7427C89.0291 23.5555 87.6127 23.4641 86.1949 23.4692C83.3627 23.5053 80.538 23.7689 77.7486 24.2575C76.3408 24.4827 74.9655 24.8044 73.5739 25.094L72.1015 25.464C71.4184 23.0512 70.6027 20.6775 69.6582 18.3536C68.6187 15.705 67.3349 13.1578 65.8233 10.7445C64.3245 8.40232 62.4369 6.3299 60.2409 4.61536C60.2409 4.84057 60.3542 5.0497 60.3866 5.27492C62.3653 6.92474 64.0644 8.88012 65.4188 11.0662C66.914 13.4305 68.1817 15.9297 69.2051 18.5305C70.1312 20.8343 70.9306 23.1865 71.5999 25.5766C70.8879 25.7535 70.1759 25.9466 69.4802 26.1557L68.1533 26.5418L67.0531 26.8796C66.0659 23.2347 64.7218 19.6948 63.0402 16.3105C62.0687 14.3602 60.8625 12.5344 59.4481 10.8732L59.2054 11.2753C60.5648 12.8724 61.7323 14.6216 62.6842 16.4875C64.382 19.8385 65.7476 23.3459 66.7618 26.9601L65.6777 27.314C61.5696 28.6647 57.5352 30.2272 53.5906 31.9953L52.2476 32.5905L50.7267 31.9148C46.7802 30.1476 42.7398 28.5956 38.6234 27.2657L37.6364 26.944C38.634 23.3468 39.9835 19.8554 41.6654 16.5197C42.6001 14.65 43.7514 12.8954 45.0957 11.2914C44.9947 11.1471 44.9028 10.9967 44.8207 10.841C43.4016 12.5054 42.185 14.3305 41.1962 16.2784C39.5093 19.6584 38.1546 23.1925 37.151 26.8314L36.164 26.5257L34.8371 26.1074C34.109 25.8983 33.3647 25.7053 32.6204 25.5283C33.3161 23.1475 34.109 20.7988 35.0313 18.4983C36.0637 15.8986 37.3367 13.3998 38.8338 11.034C40.2164 8.84953 41.9365 6.89516 43.9307 5.24275C43.9307 5.0497 43.9307 4.84057 44.0602 4.64753C41.8734 6.38269 40.0017 8.47747 38.5263 10.841C37.0141 13.2233 35.7353 15.7444 34.7077 18.3697C33.7763 20.6841 32.9715 23.047 32.2967 25.4479L30.6787 25.0618C29.2871 24.7722 27.9118 24.4666 26.504 24.2414C23.714 23.7588 20.8894 23.5006 18.0577 23.4692C16.6345 23.4781 15.2132 23.5748 13.8021 23.7588C12.3944 23.9283 11.0069 24.2354 9.65984 24.6757C6.8989 25.4988 4.45162 27.1302 2.63738 29.357C0.886785 31.6308 -0.0423295 34.4247 -8.54093e-05 37.2878C0.0905517 40.1275 0.762233 42.9191 1.97397 45.4922C3.17377 48.0477 4.64371 50.469 6.35896 52.7152C7.168 53.8573 8.0903 54.9191 8.98025 56.0291L10.388 57.6378L11.8281 59.2465L12.4429 59.8899L11.8766 60.4691C9.92491 62.4981 8.10366 64.6472 6.42368 66.9038C4.74047 69.1593 3.2929 71.5795 2.10342 74.1268C1.52155 75.4092 1.0506 76.7385 0.695688 78.1003C0.501519 78.7759 0.404434 79.4838 0.274988 80.1594C0.274988 80.5133 0.274988 80.8672 0.177903 81.2212V81.7359C0.177903 81.9129 0.177903 82.0898 0.177903 82.2668C0.141244 85.1045 1.07073 87.8711 2.81537 90.1172C4.61278 92.3156 7.03893 93.9199 9.7731 94.7181C11.1167 95.1509 12.4981 95.4579 13.8992 95.635C15.3005 95.8062 16.7106 95.8975 18.1224 95.9085C20.9483 95.8824 23.7676 95.6296 26.5526 95.1524C27.9441 94.9433 29.3357 94.6376 30.711 94.3481L32.3291 93.9459C33.0457 96.356 33.8828 98.7291 34.8371 101.056C35.8805 103.667 37.1643 106.177 38.672 108.553C40.1586 110.951 42.0657 113.065 44.3029 114.795C45.4409 115.624 46.6876 116.295 48.0083 116.789C49.3539 117.241 50.7626 117.48 52.1829 117.497C53.5963 117.477 54.9983 117.243 56.3414 116.805C57.6687 116.315 58.9212 115.643 60.063 114.811C62.3058 113.078 64.223 110.965 65.7262 108.569C67.2455 106.197 68.535 103.687 69.5773 101.072C70.5265 98.7022 71.3571 96.2946 72.0691 93.8494L73.6872 94.2355C75.0625 94.525 76.4379 94.8307 77.8295 95.0398C80.6136 95.5276 83.4328 95.7912 86.2596 95.8281C86.826 95.8281 87.3923 95.8281 87.8777 95.8281H86.2596C83.4373 95.7938 80.6228 95.5247 77.8456 95.0237C76.4541 94.8146 75.0787 94.4928 73.7034 94.2033L72.0853 93.8172L72.2794 93.1415C72.5545 92.1442 72.8134 91.1468 73.0561 90.1333C73.1532 89.7472 73.2341 89.3611 73.3312 88.9589C77.006 89.9262 80.767 90.535 84.5607 90.7768H84.7548C84.7548 90.7768 84.7548 90.6481 84.7548 90.5998H84.6092C80.8222 90.3865 77.0659 89.7991 73.3959 88.8463C73.4768 88.4603 73.5739 88.0581 73.6548 87.672C74.4477 84.0203 75.0464 80.3203 75.4994 76.6203C75.6289 75.5425 75.7421 74.4647 75.8392 73.4029C77.2146 72.4377 78.5738 71.4725 79.9168 70.459C82.4248 68.5286 84.9005 66.5338 87.2628 64.4104C87.5541 64.169 87.8292 63.9117 88.1042 63.6543C90.7434 66.3096 93.117 69.2135 95.1914 72.3251C96.5791 74.3716 97.6686 76.603 98.4276 78.9529C98.7576 80.1257 98.9209 81.3386 98.913 82.5564C98.9024 83.1314 98.8264 83.7035 98.6865 84.2616C98.7486 84.3126 98.8031 84.3722 98.8483 84.4385C99.0264 83.8098 99.1243 83.1612 99.1395 82.5081C99.1512 81.2573 98.9822 80.0113 98.6379 78.8081C97.8827 76.4315 96.7932 74.1731 95.4018 72.0999C93.301 68.9654 90.9005 66.04 88.2337 63.3647L89.0751 62.5925C89.9489 61.7721 90.8064 60.9838 91.664 60.0669L92.1494 60.5656C94.1033 62.5972 95.9297 64.7461 97.6185 67.0003C99.3087 69.2371 100.762 71.6414 101.955 74.1751C102.539 75.4416 103.016 76.7546 103.379 78.1003C103.573 78.7759 103.67 79.4677 103.8 80.1594C103.8 80.4972 103.8 80.8512 103.897 81.189V81.7198C103.897 81.8807 103.897 82.0577 103.897 82.2346C103.938 85.0454 103.026 87.788 101.308 90.0207C100.967 90.4505 100.599 90.8589 100.207 91.2433C100.207 91.3398 100.207 91.4202 100.207 91.5168C100.672 91.0816 101.105 90.6139 101.502 90.1172C103.261 87.8633 104.207 85.0872 104.188 82.2346V81.7038V81.1729C104.188 80.819 104.188 80.4812 104.091 80.1273C103.961 79.4355 103.881 78.7277 103.686 78.052C103.327 76.6864 102.856 75.3522 102.279 74.0625C101.087 71.4875 99.6341 69.0403 97.9422 66.759C96.2569 64.5066 94.436 62.3577 92.4892 60.3243L91.9876 59.8095L92.5378 59.2465C94.4901 57.2135 96.3165 55.0647 98.0069 52.8117C99.7059 50.5462 101.17 48.1154 102.376 45.5565C102.958 44.2631 103.429 42.9231 103.783 41.5509C103.966 40.8628 104.106 40.1644 104.204 39.4596C104.204 39.1057 104.204 38.7517 104.301 38.3978V37.867V37.2878C104.344 34.4097 103.416 31.6004 101.664 29.3087ZM68.2504 26.8314L69.5773 26.4453C70.2892 26.2361 71.0012 26.0592 71.7131 25.8822L71.8587 26.4131C72.1338 27.4105 72.3927 28.4079 72.6192 29.4053C72.7163 29.7431 72.7811 30.0809 72.862 30.4187C71.8426 30.6761 70.8394 30.9335 69.8523 31.2392L69.3993 31.3679L68.2828 31.7057C68.2828 31.3679 68.1372 31.03 68.0563 30.6922L67.9592 30.2418C67.7003 29.2122 67.4414 28.1827 67.1501 27.1531L68.2504 26.8314ZM85.1432 58.7638L84.3018 59.536C81.7452 57.2088 79.0808 55.0049 76.3085 52.9243C76.2114 50.8813 76.0819 48.8543 75.9039 46.8113C77.1337 47.6961 78.3472 48.5808 79.5446 49.4817C82.0526 51.38 84.5283 53.3747 86.8907 55.466L87.7321 56.2221C87.0039 56.9782 86.2596 57.7182 85.5153 58.4421L85.1432 58.7638ZM84.0429 59.7612L83.2177 60.5173C80.9847 62.5121 78.6709 64.4103 76.2761 66.2121C76.3894 64.0564 76.4379 61.9008 76.4541 59.7773C76.4703 57.6539 76.4541 55.5465 76.3085 53.4391C78.9837 55.4553 81.5618 57.6002 84.0429 59.8738V59.7612ZM87.1819 55.1443C84.8195 53.0208 82.3277 51.01 79.8359 49.0795C78.5252 48.0661 77.1822 47.1008 75.823 46.1356C75.726 45.0632 75.6127 43.9907 75.4832 42.9183C75.0625 39.2075 74.4638 35.5236 73.6872 31.8666C73.6872 31.5287 73.5415 31.1909 73.4606 30.8531C77.087 29.9017 80.8002 29.3143 84.5445 29.0996C87.003 28.945 89.4712 29.14 91.8744 29.6787C93.0573 29.9689 94.1912 30.4296 95.24 31.0461C96.2867 31.6506 97.1566 32.5161 97.7639 33.5572C98.3711 34.5982 98.6947 35.7788 98.7027 36.9822C98.7152 38.1939 98.5573 39.4014 98.2334 40.5696C97.4785 42.9161 96.3887 45.1427 94.9973 47.1813C92.939 50.3157 90.5761 53.2414 87.9424 55.9165L87.1819 55.1443ZM70.7099 48.9187C70.5643 46.94 70.3863 44.9452 70.1436 42.9665L71.4704 43.8191C72.7649 44.6717 74.0593 45.5404 75.3376 46.4413C75.5156 48.4682 75.6612 50.4952 75.7583 52.5221C74.5124 51.5891 73.2665 50.6882 72.0044 49.8034L70.7099 48.9187ZM68.4446 86.1437C68.3475 86.5459 68.2666 86.9481 68.1695 87.3503C64.9334 86.3046 61.6163 85.0981 58.4611 83.7629L59.885 83.0229C61.8752 81.9772 63.8331 80.8833 65.7748 79.8055L68.574 78.1968L69.9656 77.3442C69.5449 80.2077 69.0595 83.1355 68.4446 86.1437ZM12.7827 59.713C13.6565 58.8282 14.5303 57.9595 15.4364 57.123L16.2616 56.3508L18.6563 58.6352L18.9961 58.9569L19.8537 59.713L18.98 60.5012L18.624 60.823C17.8473 61.563 17.0059 62.319 16.3263 63.1073L15.4202 62.3351C14.5464 61.4825 13.6565 60.6138 12.7827 59.713ZM51.6166 38.4944C48.5422 39.9851 45.5272 41.5938 42.5715 43.3204C39.6158 45.0471 36.7141 46.8595 33.8663 48.7578C33.8663 48.2913 33.9472 47.8248 33.9957 47.3582C34.1252 45.7495 34.3032 44.1409 34.4973 42.6287C35.8889 41.7439 37.2804 40.8913 38.7043 40.0548C41.0991 38.6391 43.5586 37.3039 46.018 36.017C47.4851 36.6283 48.9414 37.2718 50.3869 37.9474L51.6166 38.4944ZM33.8177 70.5716C36.6979 72.4913 39.6428 74.3092 42.6524 76.0251C45.7106 77.7946 48.8497 79.4355 52.0373 80.9799L50.581 81.6716C49.1086 82.3633 47.6199 83.0068 46.1151 83.6503C43.5909 82.3312 41.1045 80.9477 38.6558 79.4999C37.2319 78.6633 35.8242 77.7946 34.4326 76.8938C34.2384 75.2851 34.0766 73.6764 33.931 72.0677C33.9148 71.6012 33.8825 71.0864 33.8501 70.5716H33.8177ZM56.4708 84.3742C54.9984 85.1142 53.5097 85.8381 52.0049 86.5298C50.0632 85.629 48.1215 84.6798 46.2122 83.6985C47.717 83.0551 49.2057 82.3955 50.6781 81.7038L52.1182 81.0281C54.0113 81.9451 55.953 82.8138 57.8947 83.6503L56.4708 84.3742ZM16.5205 63.3164C17.2648 62.5443 18.0415 61.8043 18.8182 61.0643C18.9344 60.9434 19.0587 60.8305 19.1903 60.7264C19.4654 60.453 19.7728 60.1956 20.0479 59.9382L20.8893 60.6782C23.2193 62.7373 25.6464 64.6838 28.1383 66.5499C28.1383 67.0647 28.1383 67.5956 28.2354 68.1586C28.2354 69.7673 28.4457 71.376 28.5913 72.9847C27.2645 72.0516 25.9539 71.1025 24.6594 70.1212C22.1514 68.1908 19.7081 66.196 17.3457 64.0886L16.5205 63.3164ZM18.7858 58.4904C18.0091 57.7343 17.2486 56.9782 16.4881 56.1899L17.3457 55.4339C19.7081 53.3426 22.1999 51.3478 24.6756 49.4334C25.9539 48.4682 27.2322 47.5352 28.5428 46.6343C28.3972 48.243 28.2839 49.8517 28.203 51.4604C28.203 51.943 28.203 52.4256 28.203 52.9082C25.6896 54.7957 23.2625 56.7744 20.9217 58.8443L20.0803 59.6165L19.2389 58.8604L18.7858 58.4904ZM33.3485 68.6412C33.3485 69.156 33.4294 69.6708 33.4618 70.2499C31.7466 69.0756 30.0638 67.8529 28.3972 66.5982V65.086C28.3972 63.3486 28.3001 61.5951 28.3001 59.8417C28.3001 58.0882 28.3001 56.3508 28.4134 54.5973V53.1978C30.0314 51.9752 31.6495 50.7687 33.4132 49.6265C33.4132 50.093 33.4132 50.5595 33.3323 51.0261C33.1543 53.97 33.0734 56.9139 33.0734 59.8417C33.0734 62.7695 33.219 65.649 33.3161 68.6573L33.3485 68.6412ZM20.2744 59.7612L21.132 59.0052C23.3973 57.0104 25.7327 55.1068 28.1383 53.2943C28.1383 53.7608 28.1383 54.2273 28.1383 54.6939C28.1383 56.3026 28.0574 58.056 28.0574 59.7291C28.0574 61.4021 28.0574 63.1073 28.1706 64.7964C28.1706 65.2951 28.1706 65.8099 28.1706 66.3086C25.7273 64.4747 23.3164 62.5443 21.0996 60.5012L20.2744 59.7612ZM28.3648 52.5704C28.3648 52.0878 28.3648 51.6052 28.3648 51.1226C28.4457 49.5139 28.5752 47.9052 28.7208 46.2965C30.4198 45.1222 32.1349 43.9639 33.8663 42.8539C33.6883 44.4626 33.5265 46.0713 33.397 47.5835L33.2838 48.9669C31.7142 50.1895 29.9829 51.38 28.3648 52.5704ZM28.3648 68.2229C28.3648 67.7082 28.3648 67.1934 28.3648 66.6143C29.9829 67.8369 31.6981 69.0434 33.4294 70.1855C33.4294 70.7164 33.5103 71.2151 33.5427 71.7942C33.6883 73.4029 33.8501 75.0116 34.0443 76.6203C32.2644 75.4942 30.5169 74.3038 28.7855 73.0973C28.6561 71.5047 28.5428 69.896 28.4619 68.2712L28.3648 68.2229ZM38.5587 39.7009C37.2157 40.5052 35.8889 41.3096 34.5621 42.1622C34.9288 39.2022 35.425 36.2583 36.0507 33.3305C36.0507 32.9926 36.1801 32.6548 36.261 32.317C39.4972 33.3305 42.5715 34.4887 45.6621 35.7596C43.2673 37.0787 40.8887 38.3978 38.5587 39.7009ZM35.5653 33.2661C34.918 36.3548 34.4326 39.4596 34.0443 42.5804C32.2967 43.6904 30.5816 44.8487 28.8826 46.0391C28.9797 45.0096 29.0768 43.9961 29.2062 42.9665C29.6431 39.2826 30.2256 35.6148 31.0185 31.9792C31.0185 31.6413 31.1479 31.3035 31.2288 30.9657C32.2644 31.2231 33.2838 31.4966 34.3032 31.8022L35.7756 32.2526C35.7109 32.5744 35.63 32.9122 35.5653 33.2661ZM30.711 31.8987C29.9829 35.5344 29.3357 39.2183 28.915 42.9183C28.7855 44.0122 28.6723 45.1061 28.5752 46.1356C27.1998 47.1008 25.8568 48.0821 24.5138 49.0795C22.0058 51.01 19.5463 53.0208 17.1839 55.1443L16.3425 55.9004C13.6736 53.2063 11.2831 50.253 9.20678 47.0848C7.84159 45.0449 6.78403 42.8174 6.06771 40.473C5.72814 39.3081 5.56989 38.0983 5.59846 36.8857C5.61262 35.6827 5.93566 34.5032 6.53695 33.4592C7.15346 32.4309 8.01474 31.5691 9.04497 30.9496C10.0938 30.3331 11.2276 29.8724 12.4106 29.5822C14.8137 29.0434 17.2819 28.8484 19.7405 29.0031C23.512 29.2219 27.2522 29.8147 30.9052 30.7726C30.8405 31.207 30.7596 31.5448 30.6948 31.8826L30.711 31.8987ZM16.3101 63.5256L17.1515 64.2817C19.5139 66.389 22.0058 68.3838 24.5138 70.2982C25.8568 71.3116 27.2322 72.309 28.6237 73.2742C28.7208 74.3681 28.8341 75.446 28.9635 76.4916C29.4004 80.1916 29.9991 83.8755 30.7919 87.5272C30.8728 87.9133 30.9537 88.3155 31.0508 88.7177C27.343 89.6764 23.5491 90.2691 19.7243 90.4872C17.2542 90.6446 14.7741 90.4441 12.362 89.892C11.1674 89.5908 10.0229 89.1194 8.96407 88.4924C7.9136 87.8614 7.03557 86.9829 6.4075 85.9346C5.80744 84.8667 5.48487 83.6669 5.46902 82.4438C5.46108 81.226 5.62447 80.0131 5.95444 78.8403C6.71344 76.4904 7.80295 74.259 9.1906 72.2125C11.271 69.0914 13.6557 66.1817 16.3101 63.5256ZM30.8728 87.5433C30.0962 83.8916 29.5137 80.2238 29.093 76.5238C28.9797 75.4942 28.8826 74.4486 28.7855 73.419C30.5169 74.6094 32.2644 75.7838 34.0443 76.9099C34.4326 80.0307 34.972 83.1301 35.6623 86.2081C35.7433 86.6103 35.8242 87.0124 35.9212 87.4146L34.3032 87.8811C33.2514 88.1868 32.1997 88.4763 31.067 88.7337C31.0832 88.3316 31.0023 87.9616 30.9214 87.5433H30.8728ZM34.4488 77.1673C35.7918 78.0199 37.1672 78.7759 38.5425 79.6446C40.9696 81.0817 43.4345 82.4384 45.9371 83.7146C42.701 85.0498 39.4648 86.2564 36.2287 87.302C36.1316 86.9159 36.0507 86.5137 35.9698 86.1116C35.3549 83.1516 34.8641 80.1701 34.4973 77.1673H34.4488ZM36.4552 87.9616C36.446 87.8706 36.446 87.779 36.4552 87.6881C36.4552 87.5755 36.4552 87.4629 36.3743 87.3663C39.5781 86.3529 42.9275 85.1303 46.1637 83.7629C48.073 84.7603 50.0147 85.6933 51.9887 86.5942L50.6619 87.2055C46.7339 88.9735 42.7156 90.5361 38.6234 91.8868L37.5393 92.2407C37.2481 91.195 36.973 90.1494 36.7141 89.0233L36.4552 88.6211C36.4552 88.412 36.4552 88.2029 36.4552 87.9616ZM38.6558 92.0315C42.7675 90.6946 46.8072 89.1483 50.759 87.3985L52.3771 86.7068L53.7525 87.3342C57.7058 89.0849 61.7453 90.6366 65.8557 91.9833L67.0207 92.3533C66.0032 96.0227 64.6266 99.5841 62.9108 102.987C61.8016 105.19 60.3853 107.226 58.7038 109.035C57.8374 109.909 56.8514 110.656 55.7751 111.255C54.7077 111.852 53.5046 112.168 52.28 112.172C51.0497 112.157 49.8429 111.836 48.7688 111.239C47.6989 110.645 46.7229 109.897 45.8724 109.019C44.1957 107.204 42.7849 105.162 41.6816 102.955C39.9937 99.5638 38.639 96.019 37.6364 92.3694L38.6558 92.0315ZM65.8071 91.8868C61.6995 90.5557 57.6696 88.9983 53.7363 87.2216L52.458 86.6424C53.9628 85.9668 55.4676 85.2429 56.9401 84.5029L58.3963 83.7629C61.6325 85.1142 64.8687 86.3368 68.2181 87.3985C68.1372 87.8007 68.0401 88.2029 67.943 88.589C67.8459 88.975 67.8621 88.9268 67.8297 89.0716C67.5708 90.1494 67.2796 91.2111 66.9722 92.2889L65.8071 91.8868ZM68.6711 77.489C67.6679 78.1164 66.6485 78.7599 65.613 79.3551C63.6065 80.5455 61.5678 81.7038 59.4966 82.7977L58.0889 83.5537C56.131 82.7172 54.2055 81.8485 52.2962 80.9316L53.7201 80.2399C56.4223 78.8886 59.0597 77.4729 61.681 75.9768C64.3023 74.4807 66.8265 72.9364 69.3345 71.2955L70.6776 70.4108C70.5157 72.486 70.3216 74.5451 70.0627 76.6042L68.6711 77.489ZM69.3507 71.1508C66.8265 72.8238 64.2592 74.4325 61.6487 75.9768C59.0382 77.5212 56.3414 78.9368 53.5583 80.2238L52.1344 80.9316C48.8982 79.3873 45.7484 77.7357 42.6848 75.9768C39.6752 74.2073 36.7141 72.3573 33.8177 70.3947L33.7207 68.786C33.5265 65.7456 33.4456 62.7051 33.4294 59.6486C33.4132 56.5921 33.5427 53.5517 33.7368 50.5113L33.8339 49.1278C36.7465 47.1652 39.7399 45.3152 42.7819 43.5617C45.8239 41.8083 48.9629 40.1835 52.1344 38.6552L53.3479 39.2504C56.0987 40.6017 58.817 42.0496 61.4383 43.5617C64.0596 45.0739 66.6971 46.6826 69.2536 48.3878C69.6905 48.6774 70.1274 48.9508 70.5481 49.2565C70.8232 52.7152 70.9526 56.206 70.9688 59.6647C70.985 63.1234 70.8394 66.7108 70.5805 70.2338L69.3507 71.1508ZM67.0854 32.6548L68.2019 32.3009C68.2828 32.6387 68.3637 32.9926 68.4284 33.3305C69.0433 36.2368 69.5449 39.17 69.9332 42.13L68.5255 41.3096L65.7748 39.7009C63.8654 38.5909 61.9237 37.497 59.9659 36.4835L58.7523 35.8239C61.4707 34.6657 64.2268 33.6254 67.0207 32.7031L67.0854 32.6548ZM59.4319 36.6283C61.503 37.7383 63.558 38.8804 65.5806 40.0709C66.6593 40.6822 67.6949 41.3096 68.6873 41.953L70.0141 42.7896C70.273 44.7843 70.4672 46.7791 70.629 48.79C70.1975 48.479 69.7606 48.1894 69.3184 47.9213C66.8265 46.3126 64.2861 44.7682 61.6972 43.2882C59.1407 41.8083 56.5355 40.4248 53.8819 39.1057C53.4774 38.8965 53.0729 38.6874 52.6522 38.4944C54.4644 37.6257 56.2928 36.8052 58.1374 36.0331L59.4319 36.6283ZM74.9816 42.9183L75.2891 45.7817C74.0108 44.8809 72.7163 44.0122 71.4057 43.1596L70.0789 42.307C69.7067 39.2987 69.2375 36.2905 68.6226 33.2983C68.6226 32.9605 68.477 32.6066 68.4122 32.2687L69.5287 31.9309L69.998 31.7861C71.0012 31.4966 71.9882 31.2231 72.9914 30.9818C72.9914 31.3196 73.137 31.6574 73.2017 31.9953C73.9622 35.6148 74.5609 39.2987 74.9816 42.9183ZM53.7201 32.3009C57.6514 30.5417 61.6755 28.9951 65.7748 27.6679L66.8751 27.314C67.1501 28.3274 67.4252 29.357 67.6841 30.3705C67.6841 30.5313 67.765 30.6922 67.7974 30.8531C67.8297 31.014 67.9592 31.5126 68.0239 31.8505L66.9074 32.2205C63.9787 33.2018 61.0662 34.2957 58.2022 35.4378L56.9886 34.8748C55.5485 34.1509 54.1084 33.4592 52.6522 32.7835L53.7201 32.3009ZM56.3737 35.1483L57.6035 35.7596C55.7589 36.5478 53.9466 37.3683 52.1506 38.237L50.9208 37.6578C49.4807 36.9822 48.0406 36.3387 46.5844 35.7113C48.3804 34.7944 50.1927 33.9096 52.0373 33.057C53.4936 33.7166 54.9337 34.4244 56.3737 35.1483ZM38.5749 27.7161C42.6651 29.0516 46.6785 30.609 50.5972 32.3813L51.7137 32.88C49.8853 33.7326 48.073 34.6174 46.2769 35.5505C42.9653 34.1884 39.6914 32.9712 36.4552 31.8987C36.4552 31.577 36.6008 31.2392 36.6817 30.9013C36.7626 30.5635 36.7626 30.5796 36.795 30.4187C37.0539 29.4053 37.3128 28.4079 37.5879 27.4105L38.0247 27.5553L38.5749 27.7161ZM32.4262 26.4614L32.5718 25.9627C33.3 26.1396 34.0443 26.3327 34.7724 26.5579L36.1154 26.944L36.3905 27.0244L37.1024 27.2496C36.8274 28.247 36.5523 29.2605 36.2934 30.274L36.1963 30.7405C36.1154 31.0783 36.0345 31.4161 35.9698 31.7379L34.5297 31.3035C33.4941 30.9979 32.4586 30.7244 31.423 30.4509L31.6495 29.4535C31.8437 28.4561 32.0756 27.4587 32.3453 26.4614H32.4262ZM12.0384 59.0052L10.566 57.3965L9.1906 55.7878C8.30065 54.6939 7.37835 53.6321 6.56931 52.49C4.88079 50.2552 3.43278 47.8504 2.24904 45.3152C1.06035 42.7933 0.404983 40.0557 0.323531 37.2718C0.304359 34.4861 1.23393 31.7759 2.961 29.5822C4.73257 27.4211 7.11757 25.8403 9.80546 25.0457C11.1381 24.6167 12.5089 24.315 13.8992 24.1448C15.2892 23.9705 16.689 23.8845 18.09 23.8875C20.9012 23.9162 23.7049 24.1799 26.4717 24.6757C27.8632 24.8848 29.2386 25.2066 30.6139 25.4961L32.1511 25.8822C32.1511 26.0431 32.054 26.204 32.0217 26.3809C31.7412 27.3783 31.4823 28.3757 31.245 29.3731L31.0185 30.3705C27.3105 29.4096 23.517 28.8115 19.6919 28.5848C17.1843 28.4293 14.6672 28.6297 12.2164 29.18C10.9882 29.4877 9.81107 29.9699 8.72135 30.6118C7.63921 31.2715 6.73418 32.1823 6.08389 33.2661C5.45075 34.3863 5.11653 35.649 5.11304 36.9339C5.12055 38.2063 5.32241 39.4701 5.71173 40.6822C6.4622 43.0606 7.55202 45.3197 8.94788 47.3904C11.0648 50.5602 13.493 53.5133 16.1969 56.206L15.3717 56.9621C14.4817 57.8147 13.5918 58.6834 12.7342 59.5682C12.4429 59.3591 12.184 59.166 12.0384 59.0052ZM30.6463 94.1872C29.2709 94.4928 27.8956 94.7985 26.504 95.0237C23.7263 95.5229 20.9124 95.7973 18.09 95.8441C16.6829 95.8363 15.2778 95.7396 13.883 95.5546C12.4853 95.3885 11.1082 95.0812 9.7731 94.6376C7.05056 93.8426 4.63536 92.2437 2.84773 90.0529C1.10901 87.8231 0.184647 85.0718 0.226446 82.2507V81.7359V81.2051C0.226446 80.8512 0.226446 80.5133 0.323531 80.1594C0.452977 79.4677 0.550061 78.7759 0.74423 78.1003C1.10184 76.7497 1.57274 75.4313 2.15196 74.159C3.34662 71.6177 4.80544 69.2076 6.50459 66.9682C8.18788 64.7142 10.009 62.5652 11.9575 60.5334L12.5238 59.9704C13.3976 60.8551 14.3037 61.7399 15.2098 62.5925L16.0351 63.3486C13.3869 66.0251 11.0128 68.9566 8.94788 72.0999C7.55046 74.1697 6.46053 76.429 5.71173 78.8081C5.36487 80.0104 5.20124 81.2576 5.22631 82.5081C5.22625 83.7732 5.56117 85.0161 6.1974 86.1118C6.83364 87.2074 7.74876 88.1173 8.8508 88.7498C9.93806 89.3775 11.1093 89.8487 12.3297 90.1494C14.7646 90.6956 17.2659 90.8907 19.7566 90.7285C23.5826 90.4802 27.3757 89.8661 31.0832 88.8946C31.1641 89.2807 31.2612 89.6829 31.3583 90.0689C31.601 91.0824 31.8599 92.0798 32.1188 93.0772L32.3129 93.7207L30.6463 94.1872ZM32.2644 93.1094C31.9893 92.112 31.7466 91.1146 31.5039 90.1011C31.4068 89.715 31.3259 89.3129 31.2288 88.9268C32.2967 88.6533 33.3647 88.3637 34.465 88.042L36.083 87.5755C36.083 87.9776 36.261 88.3798 36.3581 88.782L36.4714 89.2485C36.7303 90.2942 37.0215 91.3559 37.3128 92.4659L36.2287 92.8037L34.9019 93.1898C34.1414 93.4311 33.2838 93.6242 32.5718 93.8172C32.3615 93.4794 32.2806 93.2542 32.232 93.045L32.2644 93.1094ZM69.3345 100.992C68.3216 103.602 67.0648 106.112 65.5806 108.488C64.1111 110.88 62.2201 112.989 59.9982 114.714C58.8729 115.558 57.6302 116.236 56.309 116.725C54.981 117.182 53.5882 117.427 52.1829 117.449C50.7738 117.426 49.3767 117.187 48.0406 116.741C46.7194 116.241 45.4728 115.565 44.3352 114.73C42.1126 113.001 40.2169 110.893 38.7367 108.505C37.1961 106.143 35.8901 103.637 34.8371 101.024C33.8948 98.672 33.0792 96.2717 32.3938 93.8333C33.1705 93.6402 34.0119 93.4472 34.7239 93.222L36.0507 92.8359L37.1348 92.5142C38.1755 96.1851 39.5736 99.7464 41.3094 103.148C42.4295 105.371 43.8624 107.423 45.565 109.245C46.4359 110.151 47.4397 110.921 48.5422 111.529C49.6434 112.155 50.89 112.485 52.1587 112.485C53.4273 112.485 54.6739 112.155 55.7751 111.529C56.8748 110.917 57.878 110.147 58.7523 109.245C60.4401 107.416 61.8567 105.358 62.9593 103.132C64.6638 99.7127 66.0242 96.1347 67.0207 92.4498L68.2019 92.8037C68.6388 92.9485 69.0918 93.0772 69.5287 93.1898C70.273 93.415 71.0173 93.6081 71.7778 93.785C71.1043 96.2323 70.2885 98.6387 69.3345 100.992ZM71.972 92.9485C71.972 93.1898 71.8426 93.415 71.794 93.6402C71.0335 93.4472 70.273 93.2542 69.5287 93.0289L68.2181 92.7876L67.0369 92.4176C67.3281 91.3559 67.6032 90.2942 67.8783 89.2003L67.9754 88.7337C68.0724 88.3316 68.1695 87.9294 68.2504 87.5272L69.8685 88.0259C70.8879 88.3316 71.9235 88.6211 72.9752 88.8785C72.8781 89.2807 72.7972 89.6668 72.7001 90.0689C72.4898 91.0181 72.2471 92.0155 72.0529 93.0128L71.972 92.9485ZM75.0302 76.4433C74.6257 80.1272 74.0431 83.8111 73.2826 87.4468C73.2826 87.849 73.1208 88.2511 73.0238 88.6533C71.9882 88.3959 70.9526 88.1063 69.9332 87.8168L68.3152 87.3181C68.3152 86.8998 68.4931 86.5137 68.5579 86.0955C69.1889 83.1194 69.6743 80.1112 70.0465 77.0868L71.4219 76.202C72.7487 75.3494 74.0593 74.4808 75.3538 73.5799C75.2891 74.5934 75.1434 75.5586 75.0302 76.5077V76.4433ZM75.3862 72.9525C74.0917 73.8694 72.7811 74.7703 71.4542 75.639L70.095 76.5238C70.3431 74.4647 70.5373 72.4055 70.6776 70.3464C71.1306 70.0568 71.5675 69.7512 72.0044 69.4455C73.288 68.5769 74.5501 67.676 75.7907 66.743C75.6936 68.8825 75.5641 70.9577 75.3862 73.0168V72.9525ZM72.0529 69.3329L70.7261 70.2499C70.985 66.759 71.0982 63.236 71.0982 59.7291C71.0982 56.2221 71.0012 52.8439 70.7746 49.4013L72.0691 50.2861C73.3312 51.1762 74.5771 52.0771 75.8069 52.9886C75.9201 55.2408 75.9687 57.493 75.9687 59.7291C75.9687 61.9651 75.9687 64.2977 75.8392 66.5821C74.5609 67.5151 73.2988 68.4482 72.0529 69.3329ZM86.8745 63.976C84.5283 66.0834 82.0203 68.0782 79.5608 69.9925C78.3472 70.9095 77.1175 71.8264 75.8716 72.7112C76.0658 70.6199 76.1952 68.5447 76.3085 66.4534C78.7518 64.6195 81.1627 62.7051 83.428 60.6782L84.2694 59.9382C84.6739 60.3082 85.1108 60.6782 85.5153 61.0643C86.2596 61.7721 86.9878 62.496 87.7159 63.2199C87.4085 63.4773 87.1334 63.7347 86.8421 63.976H86.8745ZM88.7677 62.2225L87.9263 62.9947C87.1981 62.2547 86.4538 61.5147 85.7095 60.8069L84.4959 59.6969L85.3373 58.9247L85.6771 58.6191C86.4538 57.8952 87.1981 57.1712 87.9424 56.4152L88.1042 56.576L88.622 57.0425L88.7677 57.1873C89.6576 58.0078 90.499 58.796 91.3404 59.6808C90.499 60.6138 89.6414 61.4021 88.7677 62.2225ZM103.816 38.3013C103.816 38.6391 103.816 38.9931 103.719 39.3309C103.617 39.998 103.477 40.6587 103.298 41.3096C102.949 42.6554 102.483 43.9687 101.906 45.2348C100.728 47.7644 99.2856 50.1639 97.6024 52.3934C95.9243 54.647 94.1086 56.7959 92.1656 58.8282L91.6317 59.3751C90.7903 58.5225 90.0136 57.7665 89.0751 56.8656L88.2337 56.1256C90.9023 53.4519 93.303 50.5264 95.4018 47.3904C96.8036 45.3231 97.8938 43.0631 98.6379 40.6822C98.9808 39.4729 99.1551 38.2225 99.1557 36.9661C99.1544 35.6804 98.8146 34.4174 98.1703 33.3027C97.5259 32.1879 96.5994 31.2602 95.4827 30.6118C94.3859 29.9725 93.2038 29.4905 91.9715 29.18C89.5207 28.6297 87.0036 28.4293 84.4959 28.5848C80.7199 28.8115 76.9752 29.4042 73.315 30.3544L73.0885 29.357C72.8458 28.3435 72.6031 27.3461 72.328 26.3488C72.328 26.1718 72.2309 25.9948 72.1662 25.8179L73.6386 25.464C75.014 25.1744 76.3894 24.8688 77.7647 24.6596C80.5374 24.1699 83.3465 23.9116 86.1626 23.8875C87.5642 23.8824 88.9644 23.9738 90.3534 24.1609C91.7397 24.3233 93.1059 24.6251 94.4309 25.0618C97.1083 25.8692 99.4846 27.4479 101.259 29.5983C102.969 31.7974 103.876 34.5088 103.832 37.2878V37.8026L103.816 38.3013Z" fill="#0077B6"/>
<path d="M69.1726 89.0555C68.8813 90.3103 68.5577 91.5168 68.2179 92.7072L67.8781 93.9298C64.1727 106.059 58.5418 113.701 52.1504 113.701C45.759 113.701 40.1281 106.124 36.455 94.0746C36.3256 93.6885 36.2285 93.2864 36.1152 92.9003V92.7233L37.1993 92.4016L37.5068 92.3051L38.5747 91.9511C38.5817 92.0153 38.5817 92.08 38.5747 92.1442C38.6718 92.5303 38.8012 92.9164 38.9145 93.3024C42.1507 104.161 46.924 111.143 52.1342 111.143C57.3444 111.143 62.1177 104.048 65.3701 93.2381C65.4833 92.8359 65.6128 92.4337 65.7261 92.0316C65.7245 92.0048 65.7245 91.9779 65.7261 91.9511C66.0659 90.7607 66.3733 89.5381 66.6645 88.2833L67.8619 88.6533H67.959L69.1726 89.0555Z" fill="#0077B6"/>
<path d="M84.7226 90.7285C84.7926 91.1382 84.8954 91.5416 85.03 91.935C82.5549 91.8679 80.0884 91.6152 77.6516 91.1789C76.5027 90.9698 75.3377 90.7124 74.1565 90.4389L73.0239 90.1494H72.7488C71.5838 89.8598 70.4026 89.5381 69.189 89.1842L67.9917 88.8142H67.8946L66.6972 88.4603C65.0791 87.9294 63.461 87.3503 61.843 86.7229C60.6618 86.2724 59.4806 85.8059 58.267 85.3072L56.924 84.7281L56.5518 84.5672C55.1118 83.9398 53.6555 83.2964 52.2154 82.6046L50.7753 81.8968L49.3514 81.2051C47.4421 80.2399 45.5166 79.2103 43.591 78.1325L42.2157 77.3603L40.8727 76.572C38.9795 75.4621 37.1187 74.3199 35.3065 73.1455L34.1415 72.3573L33.5751 71.8747L32.4101 71.0864C31.0671 70.1695 29.7565 69.2364 28.4782 68.3034C28.3964 68.2591 28.3203 68.2051 28.2517 68.1425L27.0058 67.2256C25.9702 66.4373 24.9508 65.6169 23.9638 64.8447C22.6046 63.7347 21.2778 62.6247 20.0157 61.4986L19.2066 60.7586L18.9477 60.5334L18.1225 59.7612C17.184 58.8926 16.3103 58.0239 15.4527 57.1552L15.3232 57.0104L14.498 56.1578C13.6566 55.273 12.8799 54.3882 12.1033 53.5195C4.85427 45.0257 2.39479 37.69 5.22643 32.8318C8.05806 27.9735 15.663 26.397 26.6821 28.4079C27.8148 28.617 28.9798 28.8744 30.1772 29.1479L31.2775 29.4214L31.5849 29.5018C32.7337 29.7914 33.9149 30.1131 35.1123 30.467L36.1155 30.7887L36.6009 30.9335C36.52 31.2714 36.4391 31.6092 36.3744 31.9309L36.2612 32.4135C36.1802 32.7514 36.1155 33.0892 36.0508 33.427L35.5654 33.2822L34.546 32.9605C33.3486 32.6066 32.1674 32.2848 31.0186 31.9953L30.695 31.9148L29.5785 31.6574C28.4297 31.384 27.297 31.1587 26.1805 30.9496C23.5138 30.4382 20.8059 30.169 18.0901 30.1453C12.6858 30.1453 8.93183 31.4966 7.41083 34.1348C5.21025 37.9152 7.62118 44.3822 14.0126 51.8304C14.7353 52.6884 15.512 53.541 16.3426 54.3882C16.6015 54.6778 16.8928 54.9673 17.1678 55.2569L17.3296 55.4017C18.171 56.2865 19.061 57.1552 19.9833 58.0239L20.8247 58.7799L21.0674 59.0052L21.8764 59.7291C23.1547 60.8552 24.4654 61.9651 25.8569 63.0751L26.8439 63.8634L28.0413 64.7964L28.284 64.9734C29.53 65.9225 30.8244 66.8556 32.1351 67.7886L33.2839 68.5769L33.6884 68.8503C34.0606 69.1238 34.4489 69.3812 34.8372 69.6386C36.6009 70.829 38.4294 71.9873 40.3063 73.1134C41.2934 73.7086 42.2804 74.3038 43.2998 74.8829C44.3192 75.4621 45.3224 76.0251 46.3418 76.5881C48.2673 77.6338 50.1928 78.6151 52.1021 79.5481C52.5714 79.7894 53.0406 79.9986 53.526 80.2238H53.6069L55.047 80.8994C56.5033 81.559 57.9434 82.1864 59.3835 82.7655L59.788 82.9264L61.131 83.4733L62.2637 83.9077C63.8817 84.5511 65.4998 85.1303 67.1179 85.6611L68.2991 86.0311H68.3962L69.6097 86.4172C70.8071 86.7872 71.9883 87.0929 73.1533 87.3824L73.4446 87.4629L74.5772 87.7364C75.7261 88.0098 76.8587 88.2511 77.959 88.4442C80.0978 88.838 82.2596 89.0959 84.4313 89.2163C84.426 89.6147 84.4531 90.0128 84.5122 90.4068C84.5122 90.4068 84.7064 90.6642 84.7226 90.7285Z" fill="#03045E"/>
<path d="M99.5604 85.6611C99.3269 85.231 99.0562 84.8219 98.7514 84.4385C98.7063 84.3721 98.6518 84.3125 98.5896 84.2615C98.2989 83.9135 97.9736 83.5955 97.6187 83.3124C98.3145 78.7598 94.6253 72.1964 87.9103 65.1664C87.6837 64.909 87.441 64.6677 87.1821 64.4103L86.8262 64.0403C86.0009 63.2199 85.2081 62.4316 84.2534 61.5468L83.3796 60.6138L83.2017 60.4529L84.0431 59.7129L84.2858 59.4877L85.1272 58.7155L85.3213 58.8925L86.1789 59.6808C87.0689 60.5173 87.9265 61.2895 88.7355 62.1742L89.0753 62.5281C89.318 62.7855 89.5445 63.0429 89.7872 63.2842C97.9424 71.9872 101.826 80.1433 99.5604 85.6611Z" fill="#03045E"/>
<path d="M92.2141 53.4712C91.4698 54.356 90.5961 55.2247 89.8356 56.1095L89.0751 56.8977L88.7676 57.2034L87.9424 56.4312L87.7159 56.2221L86.8745 55.4821C86.9685 55.3672 87.0713 55.2596 87.1819 55.1603L87.9424 54.3721C88.7514 53.5195 89.5605 52.6669 90.2563 51.8143C96.7286 44.3178 99.0748 37.8508 96.8742 34.1187C95.2561 31.3839 91.5184 30.097 86.3243 30.097C82.4077 30.1876 78.5148 30.7274 74.7227 31.7057L73.671 31.963L73.1855 32.0917C72.0529 32.3813 70.9202 32.687 69.7552 33.0409L68.6064 33.3948L68.3637 33.4752L67.2472 33.8291C65.6291 34.36 64.011 34.9552 62.393 35.5826L61.2603 36.0169L60.0144 36.5317L59.3995 36.7891C58.008 37.3682 56.6002 37.9635 55.1602 38.623L53.9304 39.2021L53.4126 39.4274L52.1991 40.0065C50.2897 40.9395 48.3642 41.9208 46.4387 42.9665C45.4193 43.5295 44.3999 44.0926 43.3967 44.6717C42.3935 45.2508 41.3903 45.846 40.4033 46.4412C38.5263 47.5673 36.6979 48.7256 34.9342 49.916L33.8177 50.6882L33.3485 50.9938L32.2158 51.766C30.9052 52.6991 29.6269 53.6321 28.381 54.5812L28.1059 54.7903L26.9247 55.7073L25.9377 56.4956C24.5461 57.6056 23.2355 58.7155 21.9572 59.8255L21.1158 60.5977L20.9378 60.7586L20.0479 61.5629C19.1256 62.4316 18.2518 63.3003 17.4104 64.169L17.2162 64.3621L16.4072 65.1986C15.5982 66.0512 14.7891 66.9038 14.0772 67.7564C7.60485 75.2529 5.27482 81.7198 7.4754 85.452C9.67599 89.1841 16.5043 90.4067 26.2289 88.6693C27.3454 88.4763 28.4781 88.235 29.6269 87.9615L30.8404 87.6559H30.9699C32.1673 87.3502 33.3646 87.0285 34.5944 86.6585C34.9665 86.562 35.3225 86.4333 35.6947 86.3207L36.0183 86.2081C36.1154 86.6263 36.1801 87.0285 36.2772 87.4146V87.5272C36.3581 87.9294 36.4552 88.3315 36.5523 88.7337L36.2286 88.8302L35.1445 89.168C33.9148 89.538 32.7012 89.8598 31.5039 90.1493H31.3906L30.177 90.455C28.9797 90.7285 27.8146 90.9859 26.682 91.195C23.8756 91.7245 21.0273 92.0045 18.1709 92.0315C11.6986 92.0315 7.24887 90.2459 5.22627 86.7711C2.41082 81.945 4.85411 74.5772 12.1031 66.0834C12.8474 65.2147 13.7212 64.3299 14.4979 63.4451L15.3069 62.6086L15.5011 62.4155C16.3425 61.5468 17.2162 60.6782 18.1385 59.8095L18.9961 59.0373L19.1903 58.8603L20.0317 58.0882C21.2938 56.9621 22.6206 55.8521 23.9798 54.7421C24.9668 53.9377 25.9862 53.1334 27.0218 52.3612L28.2353 51.4604L28.5266 51.2512C29.7887 50.3182 31.0832 49.4012 32.4262 48.4843L33.575 47.7282L34.0442 47.4065C34.4326 47.1652 34.8047 46.9078 35.1769 46.6504C36.9891 45.476 38.8499 44.3339 40.7431 43.2239L42.0861 42.4356L43.4615 41.6634C45.387 40.5856 47.3125 39.5561 49.2218 38.5908L50.4192 37.9956L50.9531 37.7382L52.1667 37.143C53.5906 36.4674 54.9983 35.84 56.4061 35.2287L57.0209 34.9713L58.2507 34.4243C59.4642 33.9256 60.6454 33.4591 61.8266 33.0087C63.4447 32.3652 65.0628 31.8022 66.6809 31.2713L67.7973 30.9335L68.0562 30.853L69.1727 30.4991C70.3539 30.1452 71.4866 29.8396 72.6192 29.55L73.1208 29.4374L74.1564 29.1639C86.4861 26.3165 95.8872 27.3622 99.091 32.8639C101.923 37.6417 99.4631 44.9773 92.2141 53.4712Z" fill="#F9AD48"/>
<path d="M45.0959 11.2914C45.2901 11.5809 45.4842 11.8544 45.6946 12.1118C42.5397 16.3412 40.2375 21.1374 38.9148 26.2361L38.6236 27.2657C38.6236 27.4265 38.5427 27.5713 38.4941 27.7161L37.944 27.5391L37.5071 27.3944L37.0217 27.2335L36.3097 27.0244L36.0347 26.9439C36.0704 26.7971 36.1136 26.6521 36.1641 26.5096C36.2612 26.1718 36.3421 25.8339 36.4554 25.4961C38.5265 18.6592 41.2287 13.2701 44.3516 9.87573C44.4972 10.2136 44.6428 10.5353 44.8208 10.857C44.9035 11.0073 44.9954 11.1523 45.0959 11.2914Z" fill="#0077B6"/>
<path d="M72.3278 59.729V61.3377C72.3278 63.5416 72.2307 65.7134 72.1175 67.7725L72.0204 69.2846C72.0204 69.2846 72.0204 69.3973 72.0204 69.4455L71.9233 71.0542C71.7938 72.6629 71.6482 74.159 71.4702 75.6711C71.4702 75.8481 71.4702 76.0411 71.4702 76.2342C71.4702 76.7007 71.3731 77.1672 71.3084 77.6337C71.1466 78.9207 70.9686 80.1916 70.7583 81.4463C70.4832 83.1837 70.1758 84.8728 69.8198 86.5137L68.6062 86.1276H68.5091L67.1985 85.7576C67.5383 84.1489 67.8457 82.4116 68.1208 80.6742L68.315 79.4516C68.315 79.0011 68.4282 78.5185 68.493 78.0681C68.493 77.8911 68.493 77.7142 68.493 77.5372C68.7033 76.0251 68.8813 74.4968 69.0269 72.9203C69.0269 72.4055 69.0269 71.8746 69.1564 71.3116C69.1643 71.2691 69.1643 71.2254 69.1564 71.1829C69.1564 70.6681 69.2535 70.1694 69.2858 69.5742C69.4315 67.4668 69.5285 65.3112 69.5933 63.1395C69.5933 61.9812 69.5933 60.8229 69.5933 59.6486C69.5933 58.4743 69.5933 57.3482 69.5933 56.206C69.5933 54.0182 69.4315 51.8625 69.2858 49.7712C69.2858 49.3208 69.2858 48.8543 69.1726 48.4039V47.9212C69.1726 47.4547 69.1726 46.9721 69.0593 46.5217C68.9137 44.913 68.7357 43.4491 68.5415 41.953L68.5253 41.3095C68.5253 40.8591 68.4121 40.4248 68.3635 39.9904L68.1693 38.8C67.8943 37.0626 67.5868 35.3574 67.247 33.7004C67.1661 33.3626 67.1014 33.0248 67.0205 32.687C67.0205 32.5261 67.0205 32.3652 66.9072 32.2043C66.9072 31.8665 66.7616 31.5126 66.6807 31.1748C66.4056 29.9683 66.0982 28.7939 65.7746 27.6518L65.6775 27.2978C65.5804 26.9278 65.4672 26.5578 65.3539 26.1879C64.0404 21.0987 61.7431 16.3123 58.5903 12.0957C58.8095 11.8275 59.0148 11.5483 59.2052 11.2592L59.4479 10.857C59.642 10.5355 59.8045 10.1961 59.9333 9.84357C63.0562 13.2218 65.7584 18.6109 67.8296 25.4318C67.9428 25.7857 68.0399 26.1557 68.1532 26.5257L68.2503 26.8796C68.5739 28.0218 68.8813 29.18 69.1726 30.4026C69.2535 30.7244 69.3344 31.0783 69.3991 31.4161L69.5124 31.8987C69.5124 32.2365 69.6742 32.5583 69.7551 32.9122C70.0949 34.5209 70.4023 36.2422 70.6774 37.9956C70.8877 39.2343 71.0657 40.5052 71.2275 41.7761C71.2275 42.2265 71.3408 42.6769 71.3893 43.1273C71.3893 43.3526 71.3893 43.5617 71.3893 43.7869C71.5511 45.283 71.6968 46.7952 71.8262 48.3556C71.8262 48.8221 71.8262 49.2886 71.9233 49.7551C71.9153 49.9106 71.9153 50.0663 71.9233 50.2217C71.9233 50.6882 71.9233 51.1386 71.9233 51.6051C72.0366 53.7447 72.1013 55.9164 72.1336 58.0399L72.3278 59.729Z" fill="#0077B6"/>
<path d="M58.4609 6.78706C58.4596 7.29089 58.3998 7.79289 58.283 8.28314C58.196 8.64158 58.0769 8.99153 57.927 9.32879C57.927 9.47357 57.7975 9.61835 57.7166 9.76314C57.5581 10.0625 57.3741 10.3477 57.1665 10.6157C56.5756 11.38 55.816 11.999 54.9463 12.4249C54.0765 12.8509 53.12 13.0724 52.1504 13.0724C51.1809 13.0724 50.2243 12.8509 49.3546 12.4249C48.4849 11.999 47.7253 11.38 47.1344 10.6157C46.9234 10.3559 46.7391 10.0756 46.5843 9.77922C46.4991 9.62854 46.4234 9.47273 46.3577 9.3127C46.2078 8.98098 46.0887 8.63637 46.0018 8.28314C45.8849 7.79289 45.8251 7.29089 45.8238 6.78706C45.82 5.60022 46.1629 4.43781 46.8108 3.44099C46.9469 3.20751 47.1039 2.98675 47.28 2.78142C47.8754 2.07764 48.6184 1.51183 49.457 1.12366C50.2955 0.735496 51.2093 0.534363 52.1343 0.534363C53.0592 0.534363 53.973 0.735496 54.8116 1.12366C55.6501 1.51183 56.3931 2.07764 56.9885 2.78142C57.1739 3.0041 57.3416 3.24075 57.4901 3.48925C58.125 4.47324 58.462 5.61799 58.4609 6.78706Z" fill="#0077B6"/>
<path d="M58.4935 49.9161C57.1335 49.7813 55.7752 50.1882 54.7165 51.0477C53.6579 51.9072 52.9853 53.149 52.8464 54.5009L52.6846 56.1095L49.1572 55.7878C48.2315 55.6921 47.2959 55.7791 46.4041 56.0436C45.5123 56.3082 44.6818 56.7452 43.9602 57.3296C43.2387 57.914 42.6402 58.6342 42.1992 59.449C41.7582 60.2638 41.4834 61.1571 41.3904 62.0778C41.2148 63.9379 41.7895 65.7912 42.988 67.2302C44.1866 68.6692 45.9109 69.576 47.7818 69.7512C49.6505 69.9401 51.5182 69.3837 52.9745 68.2043C54.4308 67.0248 55.3567 65.3189 55.5486 63.4613L55.8722 59.9543L57.4903 60.1152C58.1817 60.2191 58.8872 60.1822 59.5639 60.0068C60.2405 59.8314 60.8743 59.5211 61.4267 59.0948C61.9791 58.6685 62.4386 58.135 62.7773 57.5268C63.116 56.9185 63.3269 56.2482 63.3972 55.5565C63.4674 54.8648 63.3955 54.1661 63.1859 53.5028C62.9763 52.8395 62.6333 52.2255 62.1777 51.6981C61.7222 51.1706 61.1636 50.7406 60.5358 50.4343C59.9081 50.128 59.2242 49.9517 58.5259 49.9161H58.4935Z" fill="#0077B6"/>
<path d="M98.4277 89.9724C98.2717 91.4194 97.5865 92.759 96.5022 93.7367L96.3566 93.8493C96.2343 93.9599 96.1046 94.062 95.9682 94.155C94.9734 94.8519 93.7872 95.2282 92.5703 95.2328H91.9554C90.9628 95.1367 90.0112 94.7908 89.1903 94.228C88.3693 93.6651 87.7061 92.9036 87.263 92.0154C87.0769 91.64 86.9305 91.2465 86.8261 90.8411C86.8339 90.777 86.8339 90.7121 86.8261 90.648C86.7422 90.2621 86.6988 89.8685 86.6966 89.4737C86.6966 89.2806 86.6966 89.0715 86.6966 88.8624L87.0041 85.9506L85.6611 85.8059C84.5849 85.6759 83.5982 85.1455 82.8995 84.3214C82.2008 83.4974 81.842 82.4408 81.8953 81.3643C81.9486 80.2878 82.4101 79.2713 83.1869 78.5195C83.9636 77.7676 84.998 77.3362 86.0818 77.312H86.6157C87.7464 77.4296 88.7838 77.9888 89.4999 78.8666C90.216 79.7445 90.5521 80.8691 90.4344 81.9933L90.3049 83.3285L93.2337 83.618C94.665 83.7602 95.9945 84.4183 96.9714 85.468C97.2499 85.7674 97.4941 86.0965 97.6996 86.4493C97.754 86.5261 97.8027 86.6068 97.8452 86.6906C98.0593 87.0888 98.2276 87.5097 98.3468 87.9454C98.4945 88.611 98.5219 89.2973 98.4277 89.9724Z" fill="#03045E"/>
</g>
<defs>
<clipPath id="clip0_85:985">
<rect width="348" height="117" fill="white" transform="translate(0 0.513184)"/>
</clipPath>
</defs>
</svg>
