<svg width="226" height="256" viewBox="0 0 226 256" fill="none" xmlns="http://www.w3.org/2000/svg">
<g clip-path="url(#clip0_140:3323)">
<path opacity="0.3" d="M220.172 63.0397C216.297 58.0922 210.758 54.7121 204.886 52.8401C201.954 51.8766 198.935 51.2048 195.872 50.8344C192.821 50.4424 189.748 50.2464 186.672 50.2475C180.536 50.3274 174.417 50.9088 168.376 51.9858C165.336 52.4687 162.364 53.1521 159.361 53.8058C158.289 54.0733 157.231 54.3258 156.159 54.6007C154.671 49.3262 152.909 44.1338 150.879 39.045C148.632 33.3019 145.854 27.783 142.581 22.5608C139.275 17.487 135.371 12.6732 130.497 9.00342C130.623 9.47143 130.734 9.95429 130.823 10.4446C135.101 14.0481 138.782 18.3107 141.731 23.0734C144.968 28.2511 147.714 33.7228 149.932 39.4165C151.925 44.4653 153.652 49.6155 155.109 54.8459C153.563 55.2396 152.018 55.6407 150.494 56.1013L147.625 56.9482L145.258 57.691C143.105 49.7203 140.187 41.9781 136.547 34.573C134.444 30.3116 131.836 26.3208 128.782 22.6871C128.619 22.9916 128.434 23.2814 128.256 23.5711C131.198 27.0713 133.724 30.9029 135.785 34.989C139.464 42.3218 142.424 49.9972 144.622 57.9065C143.831 58.1516 143.054 58.4116 142.271 58.6493C133.368 61.5892 124.629 65.0064 116.091 68.8861C115.115 69.3169 114.161 69.7701 113.2 70.2084L109.909 68.7226C101.351 64.8703 92.5946 61.478 83.6777 58.5602C82.9381 58.315 82.2504 58.0922 81.5404 57.8693C83.6977 49.9932 86.6155 42.3475 90.2521 35.041C92.2869 30.9571 94.7886 27.1252 97.7065 23.6231C97.4921 23.2962 97.2924 22.9619 97.1001 22.6128C94.0187 26.2421 91.3865 30.2332 89.2611 34.4987C85.5983 41.8716 82.656 49.584 80.4755 57.5276C79.736 57.3047 79.0482 57.0967 78.3383 56.8813C77.3769 56.5916 76.4081 56.3093 75.4393 56.0419C73.8493 55.559 72.2593 55.143 70.6472 54.7493C72.1196 49.5405 73.8624 44.4126 75.8682 39.3868C78.1026 33.6923 80.8632 28.2207 84.114 23.0436C87.0872 18.2622 90.7963 13.9846 95.1034 10.3703C95.1921 9.932 95.2809 9.49371 95.4066 9.07028C90.5553 12.7846 86.7023 17.539 83.4114 22.6128C80.1496 27.835 77.3792 33.3511 75.1361 39.0896C73.1325 44.1534 71.3923 49.3183 69.9224 54.5636C68.7909 54.2813 67.6521 54.0138 66.5206 53.7241C63.5255 53.0853 60.5304 52.4167 57.4983 51.9412C51.453 50.8797 45.3317 50.3132 39.195 50.2475C36.1162 50.26 33.0411 50.466 29.9879 50.8641C26.9285 51.2394 23.9137 51.9187 20.9878 52.8921C15.1307 54.779 9.60646 58.1739 5.7683 63.114C1.96091 68.0964 -0.0751288 74.2164 -0.0148107 80.4971C0.0517469 86.7298 1.77485 92.799 4.27446 98.4225C6.85957 104.017 10.0382 109.314 13.7552 114.223C15.5153 116.749 17.5342 119.067 19.457 121.474L22.4743 124.936L25.6025 128.323C26.0462 128.791 26.5047 129.244 26.9484 129.712C26.5343 130.136 26.1275 130.552 25.7134 130.99C21.4912 135.441 17.5469 140.15 13.9031 145.09C10.2475 150.027 7.10767 155.329 4.53329 160.913C3.28375 163.717 2.27914 166.625 1.5308 169.604C1.13617 171.097 0.822635 172.609 0.591603 174.136C0.480673 174.879 0.458488 175.621 0.384536 176.431L0.281002 177.575C0.281002 177.969 0.281002 178.318 0.281002 178.727C0.204591 184.94 2.2189 190.997 5.99756 195.917C9.84311 200.805 15.2934 204.133 21.1209 206.005C24.0276 206.957 27.0195 207.624 30.0544 207.996C33.0883 208.387 36.1437 208.585 39.2024 208.59C45.3209 208.537 51.425 207.983 57.454 206.933C60.4786 206.473 63.4663 205.804 66.454 205.173C67.6595 204.868 68.8649 204.579 70.0703 204.289C71.5694 209.626 73.3467 214.88 75.3949 220.03C77.6424 225.749 80.4153 231.245 83.6777 236.448C87.0129 241.573 90.9546 246.424 95.8873 250.087C98.3465 251.923 101.053 253.399 103.926 254.47C109.76 256.535 116.122 256.535 121.956 254.47C124.833 253.406 127.545 251.935 130.009 250.101C134.957 246.447 138.883 241.603 142.256 236.47C145.546 231.274 148.339 225.777 150.598 220.052C152.671 214.877 154.471 209.595 155.989 204.229L159.42 205.084C162.378 205.715 165.396 206.399 168.413 206.867C174.439 207.927 180.54 208.495 186.657 208.568C187.885 208.568 189.112 208.523 190.355 208.471C190.299 208.425 190.239 208.383 190.177 208.345C189.009 208.404 187.848 208.434 186.679 208.456C180.571 208.392 174.479 207.821 168.465 206.748C165.447 206.28 162.467 205.596 159.487 204.957L156.063 204.103C156.196 203.613 156.351 203.122 156.484 202.617C157.076 200.433 157.638 198.249 158.17 196.043L158.769 193.465C166.731 195.584 174.88 196.912 183.1 197.432H183.492C183.482 197.298 183.465 197.164 183.44 197.031H183.115C174.92 196.548 166.793 195.256 158.851 193.175C159.05 192.306 159.243 191.437 159.42 190.575C161.136 182.597 162.445 174.515 163.399 166.402C163.68 164.062 163.924 161.708 164.138 159.353C167.096 157.258 170.055 155.126 172.961 152.934C178.411 148.715 183.758 144.324 188.89 139.689C189.504 139.147 190.103 138.597 190.71 138.04C196.425 143.847 201.562 150.201 206.047 157.013C209.021 161.486 211.342 166.364 212.94 171.499C213.674 174.07 214.036 176.735 214.012 179.41C213.981 180.662 213.817 181.907 213.524 183.124C213.642 183.251 213.746 183.384 213.857 183.518L213.968 183.667C214.34 182.287 214.549 180.868 214.589 179.44C214.628 176.706 214.269 173.98 213.524 171.35C211.919 166.152 209.586 161.209 206.595 156.671C202.097 149.818 196.948 143.419 191.22 137.564C191.826 137.007 192.44 136.435 193.032 135.871C194.932 134.058 196.811 132.208 198.637 130.321L199.71 131.421C203.938 135.833 207.89 140.505 211.542 145.409C215.207 150.298 218.357 155.556 220.942 161.098C222.206 163.872 223.23 166.75 224.003 169.701C224.388 171.17 224.696 172.657 224.928 174.158C225.039 174.901 225.068 175.644 225.135 176.431L225.238 177.56C225.238 177.947 225.238 178.303 225.238 178.704C225.342 184.851 223.372 190.853 219.647 195.731C218.914 196.679 218.113 197.573 217.251 198.405C217.207 198.621 217.148 198.821 217.096 199.022C218.121 198.078 219.068 197.051 219.928 195.954C223.732 191.02 225.771 184.944 225.719 178.704C225.719 178.326 225.719 177.962 225.719 177.553L225.623 176.394C225.556 175.651 225.519 174.849 225.408 174.091C225.197 172.562 224.898 171.047 224.514 169.552C223.754 166.561 222.74 163.64 221.481 160.824C218.912 155.228 215.766 149.917 212.097 144.978C208.461 140.019 204.524 135.291 200.309 130.819C199.946 130.44 199.569 130.076 199.214 129.69L200.397 128.472C204.626 124.015 208.578 119.301 212.23 114.357C215.931 109.406 219.108 104.08 221.711 98.4671C222.972 95.6391 223.994 92.7092 224.765 89.7087C225.153 88.2011 225.459 86.6735 225.682 85.1326C225.793 84.3897 225.822 83.5874 225.904 82.8149L225.993 81.6486C225.993 81.2548 225.993 80.9057 225.993 80.4748C226.064 74.1704 224.013 68.0266 220.172 63.0397ZM147.824 57.7356C148.771 57.4533 149.732 57.1785 150.694 56.9036C152.225 56.4504 153.77 56.0419 155.308 55.663C155.419 56.0567 155.545 56.4505 155.649 56.8367C156.225 59.0133 156.78 61.1974 157.298 63.3814C157.475 64.1243 157.645 64.8672 157.808 65.61C155.589 66.1672 153.437 66.7615 151.271 67.4003C150.96 67.4895 150.649 67.5935 150.324 67.6975L147.891 68.4403C147.736 67.6975 147.58 66.9546 147.41 66.2117C147.336 65.8775 147.255 65.5432 147.181 65.2089C146.641 62.9803 146.049 60.7517 145.436 58.4711L147.824 57.7356ZM184.394 127.469C183.795 128.041 183.181 128.605 182.567 129.162C177.014 124.052 171.23 119.245 165.24 114.684C165.043 110.227 164.755 105.77 164.375 101.312C167.032 103.214 169.665 105.155 172.273 107.136C177.701 111.304 183.033 115.65 188.158 120.248C188.772 120.798 189.393 121.333 190 121.897C188.417 123.532 186.815 125.141 185.193 126.726C184.919 127.001 184.66 127.261 184.394 127.469ZM182.02 129.697C181.429 130.247 180.822 130.782 180.223 131.332C175.394 135.692 170.373 139.852 165.218 143.819C165.44 139.102 165.551 134.363 165.588 129.63C165.625 124.898 165.477 120.374 165.285 115.746C171.058 120.149 176.631 124.797 182.005 129.69L182.02 129.697ZM188.824 119.602C183.699 114.951 178.382 110.546 172.924 106.297C170.069 104.113 167.156 101.996 164.212 99.9083C163.998 97.546 163.769 95.1836 163.473 92.8213C162.548 84.7018 161.254 76.6342 159.583 68.6484C159.42 67.9055 159.265 67.1626 159.102 66.4197C166.961 64.3639 175.001 63.0802 183.107 62.5866C188.428 62.2528 193.768 62.678 198.97 63.8494C201.527 64.4999 203.978 65.5156 206.247 66.8655C208.513 68.1821 210.396 70.0712 211.711 72.3453C213.025 74.6193 213.724 77.1991 213.739 79.8285C213.777 82.4836 213.436 85.1305 212.725 87.6881C211.15 92.8153 208.859 97.6924 205.922 102.174C201.454 109.009 196.34 115.395 190.65 121.243C190.051 120.679 189.438 120.122 188.824 119.572V119.602ZM153.134 105.978C152.833 101.624 152.432 97.2785 151.929 92.9402C152.883 93.5568 153.829 94.1733 154.776 94.8122C157.601 96.6743 160.396 98.5835 163.162 100.54C163.557 104.967 163.86 109.402 164.072 113.844C161.387 111.809 158.688 109.84 155.937 107.902C155.013 107.203 154.073 106.587 153.134 105.948V105.978ZM148.224 187.411C148.039 188.295 147.847 189.171 147.662 190.041C140.51 187.767 133.47 185.13 126.541 182.211C127.576 181.668 128.604 181.134 129.632 180.576C133.936 178.288 138.196 175.889 142.404 173.423C144.437 172.227 146.441 170.993 148.453 169.708L151.448 167.836C150.63 174.388 149.555 180.903 148.224 187.381V187.411ZM27.6805 129.571C29.5688 127.649 31.4891 125.76 33.4415 123.903C34.0331 123.346 34.6321 122.781 35.2385 122.224C36.8951 123.918 38.5787 125.584 40.2895 127.224L41.029 127.966C41.6281 128.516 42.2493 129.058 42.8631 129.608C42.2419 130.195 41.6059 130.752 40.9773 131.339C40.7258 131.569 40.467 131.807 40.2377 132.045C38.5516 133.664 36.8803 135.336 35.2533 137.029L33.4784 135.358C31.5113 133.427 29.5811 131.488 27.6879 129.541L27.6805 129.571ZM111.832 83.1492C105.181 86.4178 98.6506 89.9142 92.2414 93.6385C85.8321 97.3627 79.5511 101.325 73.3982 105.524C73.4796 104.514 73.5535 103.496 73.657 102.486C73.9603 99.0243 74.3152 95.5625 74.7515 92.0859C77.7466 90.1618 80.7861 88.275 83.8551 86.4624C89.0318 83.3794 94.3417 80.4303 99.6958 77.6296C102.876 78.9767 106.029 80.3807 109.154 81.8417C110.042 82.2651 110.944 82.6886 111.839 83.1194L111.832 83.1492ZM73.3021 153.343C79.5437 157.547 85.9406 161.514 92.4411 165.288C99.082 169.126 105.854 172.739 112.756 176.127C111.721 176.632 110.67 177.13 109.635 177.612C106.433 179.098 103.209 180.584 99.9473 181.951C94.4797 179.068 89.0885 176.042 83.7738 172.873C80.6973 171.038 77.6579 169.159 74.648 167.19C74.2117 163.706 73.8567 160.214 73.5535 156.715C73.4722 155.557 73.3834 154.435 73.3095 153.313L73.3021 153.343ZM122.362 183.555C119.168 185.175 115.958 186.757 112.749 188.273C108.518 186.292 104.328 184.219 100.177 182.055C103.421 180.663 106.64 179.217 109.835 177.716L112.933 176.231C117.06 178.236 121.231 180.16 125.454 181.966C124.433 182.456 123.405 182.976 122.37 183.526L122.362 183.555ZM35.771 137.497C37.3979 135.819 39.057 134.172 40.748 132.557C41.0142 132.305 41.2805 132.052 41.5467 131.814L43.4325 130.098C44.0241 130.641 44.6305 131.176 45.2296 131.703C50.2879 136.205 55.5287 140.494 60.9519 144.57C61.0037 145.699 61.0629 146.843 61.1368 147.972C61.3365 151.53 61.5953 155.059 61.9207 158.595C59.0513 156.559 56.2165 154.472 53.4161 152.333C47.9954 148.061 42.6856 143.708 37.568 139.095L35.771 137.497ZM40.7036 126.808C39.0027 125.173 37.3462 123.502 35.7118 121.801C36.3256 121.236 36.9394 120.686 37.5532 120.137C42.6782 115.546 47.9954 111.185 53.4383 106.995C56.1968 104.9 58.9996 102.857 61.8098 100.867C61.509 104.373 61.2625 107.879 61.0703 111.386C61.0185 112.426 60.9593 113.48 60.915 114.528C55.4918 118.653 50.2386 122.989 45.1556 127.536L43.3142 129.214C42.7078 128.657 42.094 128.108 41.4949 127.543C41.2657 127.261 40.9625 127.001 40.711 126.756L40.7036 126.808ZM72.1706 149.027C72.2371 150.156 72.3185 151.255 72.3924 152.414C68.68 149.844 65.0292 147.184 61.44 144.436C61.3957 143.336 61.3513 142.207 61.3143 141.13C61.1812 137.304 61.1294 133.471 61.1294 129.653C61.1294 125.834 61.2182 122.001 61.3513 118.175C61.3513 117.158 61.4252 116.125 61.477 115.107C65.0415 112.403 68.6282 109.744 72.3259 107.203C72.2593 108.221 72.1928 109.246 72.141 110.249C71.7565 116.687 71.5691 123.125 71.579 129.564C71.5864 136.064 71.7786 142.534 72.178 148.975L72.1706 149.027ZM43.8466 129.712C44.4604 129.155 45.089 128.59 45.7103 128.041C50.601 123.673 55.652 119.513 60.8632 115.561C60.8188 116.578 60.7818 117.596 60.7449 118.621C60.6339 122.335 60.5674 125.961 60.5674 129.638C60.5674 133.315 60.6561 137.022 60.7966 140.707C60.7966 141.806 60.8706 142.935 60.9297 144.027C55.6643 140.001 50.564 135.764 45.6289 131.317C45.0373 130.752 44.4457 130.232 43.854 129.668L43.8466 129.712ZM61.5288 114.06C61.5879 113.005 61.6397 111.965 61.7063 110.91C61.8985 107.404 62.1648 103.883 62.4458 100.384C66.1188 97.7985 69.8386 95.2901 73.6053 92.8585C73.1961 96.2955 72.8534 99.7424 72.5773 103.199L72.3407 106.223C68.6973 108.719 65.0958 111.316 61.5362 114.015L61.5288 114.06ZM61.6323 148.336C61.5657 147.199 61.5066 146.107 61.4622 144.948C65.0563 147.638 68.7022 150.26 72.4294 152.778C72.5034 153.915 72.5921 155.007 72.6883 156.166C72.9841 159.667 73.344 163.159 73.768 166.64C69.9126 164.164 66.1188 161.591 62.3866 158.922C62.0834 155.341 61.8246 151.82 61.6397 148.291L61.6323 148.336ZM83.515 85.9349C80.6111 87.6881 77.722 89.4784 74.8477 91.3059C75.676 84.8677 76.7483 78.4295 78.0646 71.9913C78.2199 71.2484 78.3678 70.5055 78.5231 69.7627C85.4156 71.9913 92.197 74.5022 98.8676 77.3028C93.6958 80.0415 88.5807 82.909 83.5224 85.9052L83.515 85.9349ZM77.0367 71.6718C75.639 78.4171 74.5667 85.2218 73.731 92.0487C69.9545 94.4853 66.2297 97.0061 62.5567 99.6111C62.7712 97.3825 62.993 95.1539 63.2445 92.9253C64.1837 84.8578 65.4631 76.8125 67.164 68.8564C67.3045 68.1135 67.4672 67.3706 67.6299 66.6277C69.8485 67.1998 72.067 67.8015 74.2856 68.4552C75.3579 68.7672 76.4155 69.1015 77.4878 69.4358C77.3473 70.1638 77.1846 70.9067 77.0441 71.6421L77.0367 71.6718ZM66.4836 68.7004C64.8123 76.6936 63.5206 84.7513 62.6085 92.8733C62.3349 95.2802 62.0982 97.6945 61.869 100.101C58.9108 102.211 55.9527 104.351 53.0907 106.557C47.6626 110.784 42.3232 115.159 37.2205 119.802C36.5919 120.352 35.9928 120.909 35.379 121.474C29.6105 115.57 24.4313 109.114 19.9155 102.196C16.9853 97.6991 14.7116 92.8034 13.1636 87.6584C12.4457 85.1022 12.1044 82.4543 12.1504 79.7988C12.1702 77.1714 12.8706 74.5943 14.1829 72.3214C15.4951 70.0484 17.374 68.1578 19.6345 66.8358C21.904 65.4859 24.3546 64.4702 26.9114 63.8197C32.1037 62.652 37.4341 62.2269 42.7447 62.5568C50.9174 63.0558 59.0218 64.3571 66.9421 66.442C66.8016 67.1849 66.6315 67.9129 66.491 68.6484L66.4836 68.7004ZM35.3495 137.884C35.9559 138.433 36.5549 138.991 37.1687 139.54C42.2862 144.146 47.633 148.529 53.0981 152.726C56.0563 154.955 59.0144 157.102 61.9725 159.219C62.1943 161.604 62.4384 163.988 62.712 166.38C63.6586 174.477 64.9306 182.53 66.6611 190.509C66.8386 191.378 67.0309 192.254 67.2305 193.131C59.2156 195.229 51.0137 196.525 42.7447 197.001C37.3877 197.334 32.0109 196.894 26.7783 195.694C24.2041 195.033 21.7382 194.002 19.457 192.633C17.153 191.288 15.2414 189.359 13.9136 187.038C12.5859 184.717 11.8886 182.087 11.8916 179.41C11.8621 176.735 12.2209 174.07 12.9565 171.499C14.551 166.368 16.8616 161.491 19.8193 157.013C24.3608 150.141 29.5624 143.734 35.3495 137.884ZM66.9717 190.405C65.293 182.441 64.0136 174.396 63.1336 166.306C62.8747 164.077 62.6528 161.767 62.4532 159.501C66.2001 162.141 69.9988 164.689 73.8493 167.145C74.6998 173.972 75.8017 180.762 77.1994 187.485C77.3769 188.369 77.5691 189.253 77.754 190.13L74.4188 191.162C72.1311 191.821 69.8337 192.443 67.5263 193.027C67.3341 192.187 67.1492 191.311 66.9717 190.405ZM74.722 167.717C77.6431 169.575 80.6012 171.395 83.5963 173.148C88.8618 176.253 94.1962 179.224 99.5997 182.062C92.6777 184.989 85.6374 187.634 78.4714 189.922C78.2865 189.045 78.109 188.169 77.9167 187.285C76.5905 180.831 75.5256 174.319 74.722 167.747V167.717ZM78.8042 191.437C78.7524 191.251 78.708 191.043 78.671 190.843C78.6341 190.642 78.5749 190.36 78.5157 190.1C85.7188 187.782 92.8182 185.1 99.7994 182.129C103.946 184.293 108.151 186.356 112.416 188.317C111.462 188.763 110.508 189.216 109.539 189.639C101.037 193.525 92.3356 196.952 83.4706 199.906C82.6867 200.158 81.9176 200.418 81.1337 200.649C80.4977 198.376 79.9011 196.083 79.344 193.77C79.2627 193.421 79.1739 193.064 79.0926 192.715C79.0112 192.366 78.8929 191.89 78.8042 191.467V191.437ZM83.5815 200.352C92.4846 197.439 101.23 194.062 109.783 190.234C110.922 189.736 112.002 189.223 113.163 188.711C114.161 189.171 115.159 189.625 116.158 190.063C124.696 193.924 133.435 197.322 142.337 200.24C143.173 200.522 144.023 200.79 144.866 201.057C142.68 209.091 139.708 216.887 135.992 224.331C133.592 229.151 130.522 233.603 126.874 237.554C125.015 239.478 122.888 241.12 120.558 242.428C118.248 243.761 115.631 244.463 112.967 244.463C110.303 244.463 107.685 243.761 105.375 242.428C103.058 241.115 100.941 239.474 99.0894 237.554C95.4681 233.588 92.4209 229.129 90.0376 224.309C86.3689 216.888 83.429 209.126 81.2594 201.132C82.0211 200.872 82.7976 200.626 83.5815 200.366V200.352ZM142.396 200.062C133.508 197.127 124.782 193.72 116.254 189.855C115.315 189.439 114.39 189.001 113.466 188.577C116.735 187.091 119.976 185.526 123.191 183.882C124.241 183.355 125.291 182.812 126.326 182.278C133.3 185.249 140.377 187.916 147.617 190.219C147.425 191.095 147.225 191.972 147.011 192.841C146.944 193.205 146.856 193.547 146.774 193.896C146.197 196.229 145.584 198.561 144.925 200.879L142.396 200.062ZM148.608 168.527C146.39 169.924 144.171 171.305 141.953 172.643C137.589 175.238 133.179 177.739 128.722 180.146C127.709 180.71 126.681 181.26 125.653 181.795C121.433 179.987 117.242 178.083 113.081 176.082C114.124 175.577 115.145 175.057 116.173 174.544C122.007 171.617 127.724 168.512 133.381 165.244C139.039 161.975 144.548 158.558 149.984 154.977C150.97 154.353 151.934 153.714 152.875 153.061C152.535 157.577 152.096 162.089 151.559 166.596C150.612 167.264 149.614 167.903 148.608 168.542V168.527ZM150.087 154.65C144.59 158.34 139.022 161.839 133.381 165.147C127.687 168.416 121.911 171.536 116.047 174.455C115.019 174.975 113.976 175.48 112.941 175.985C106.004 172.62 99.1856 168.988 92.5076 165.147C85.9702 161.294 79.5609 157.223 73.2799 152.934C73.2059 151.813 73.1246 150.706 73.0728 149.569C72.6587 142.883 72.4664 136.242 72.459 129.578C72.4516 122.915 72.7031 116.207 73.1172 109.566C73.1837 108.555 73.2503 107.538 73.3316 106.527C79.6374 102.248 86.091 98.1947 92.6925 94.3665C99.294 90.5382 106.043 86.9601 112.941 83.632C113.836 84.0703 114.716 84.4937 115.596 84.9469C121.556 87.9184 127.418 91.0582 133.182 94.3665C138.945 97.6747 144.58 101.184 150.087 104.893C151.041 105.51 151.973 106.134 152.912 106.772C153.482 114.357 153.77 121.979 153.815 129.578C153.859 137.178 153.511 145 152.957 152.697C151.995 153.38 151.027 154.041 150.058 154.665L150.087 154.65ZM145.192 70.4535C145.99 70.1787 146.804 69.9112 147.617 69.6587C147.787 70.4015 147.943 71.1444 148.098 71.8873C149.439 78.2561 150.521 84.6745 151.345 91.1424C150.388 90.5283 149.427 89.9192 148.46 89.315C146.486 88.0892 144.497 86.8635 142.492 85.6749C138.351 83.1987 134.16 80.8339 129.92 78.5805C129.04 78.0902 128.168 77.6296 127.288 77.1616C133.14 74.7151 139.098 72.484 145.162 70.4684L145.192 70.4535ZM128.611 79.1377C133.108 81.5446 137.545 84.0505 141.923 86.6555C144.186 87.9852 146.427 89.367 148.645 90.7784C149.621 91.3876 150.575 92.0042 151.537 92.6133C152.084 96.9764 152.525 101.347 152.861 105.725C151.929 105.086 150.982 104.447 150.028 103.831C144.669 100.25 139.211 96.8378 133.655 93.5939C128.099 90.35 122.446 87.3018 116.698 84.4492C115.81 83.9886 114.93 83.5577 114.035 83.1194C117.979 81.2326 121.941 79.4398 125.92 77.7411C126.822 78.2314 127.702 78.6771 128.582 79.1525L128.611 79.1377ZM162.415 92.9105C162.647 94.9459 162.859 96.9888 163.051 99.0391C160.271 97.0581 157.465 95.149 154.635 93.3116C153.689 92.6876 152.742 92.071 151.781 91.4544C150.982 84.8503 149.954 78.2759 148.623 71.7536C148.483 71.0107 148.312 70.2678 148.157 69.5249C148.963 69.2649 149.777 69.0198 150.59 68.7821C150.923 68.6706 151.271 68.5666 151.618 68.4701C153.755 67.8386 155.907 67.2592 158.074 66.6946C158.244 67.4375 158.4 68.1804 158.54 68.9232C160.197 76.8348 161.469 84.8652 162.386 92.9253L162.415 92.9105ZM116.387 69.5547C124.902 65.7087 133.617 62.3238 142.492 59.4145C143.232 59.1545 144.06 58.8945 144.851 58.6716C145.483 60.8953 146.074 63.1239 146.626 65.3574C146.708 65.7066 146.796 66.0557 146.87 66.4049C147.04 67.1478 147.211 67.8906 147.373 68.6335C146.575 68.8861 145.761 69.1609 144.955 69.4284C138.59 71.5678 132.307 73.9624 126.104 76.6119C125.217 76.1513 124.352 75.6908 123.472 75.245C120.373 73.6627 117.237 72.125 114.087 70.6615C114.819 70.2678 115.588 69.9038 116.357 69.5695L116.387 69.5547ZM122.118 75.7725C122.998 76.2108 123.878 76.6713 124.758 77.1171C120.785 78.8455 116.841 80.6581 112.926 82.5549L110.286 81.2771C107.17 79.7914 104.034 78.3725 100.879 77.0205C104.774 74.9999 108.718 73.0635 112.712 71.2113C115.862 72.6821 118.99 74.2124 122.089 75.7873L122.118 75.7725ZM83.4188 59.5408C92.276 62.4709 100.971 65.8756 109.465 69.7404C110.271 70.0969 111.07 70.4832 111.876 70.8324C107.902 72.6945 103.975 74.6458 100.095 76.6862C93.1214 73.7147 86.0442 71.0181 78.8116 68.6855C78.9743 67.9426 79.1443 67.1998 79.3144 66.494C79.3884 66.13 79.4771 65.7512 79.5659 65.4169C80.1057 63.1883 80.6752 61.034 81.289 58.8573L82.2134 59.1619L83.4188 59.5408ZM70.1073 56.7922C70.2108 56.4282 70.3218 56.0493 70.4179 55.7001C72.0227 56.1013 73.6201 56.5173 75.2027 57.0002C76.1788 57.275 77.1328 57.5573 78.0942 57.847L78.7228 58.0402L80.2462 58.5082C79.6349 60.7071 79.0556 62.9184 78.5083 65.142C78.427 65.4763 78.353 65.8032 78.2865 66.1375C78.1164 66.8803 77.9537 67.6232 77.791 68.3661C76.7557 68.0243 75.7055 67.7049 74.6702 67.3855C72.4516 66.7392 70.1961 66.1226 67.9405 65.5506C68.1106 64.8077 68.2807 64.0648 68.4434 63.3666C68.9093 61.1454 69.4565 58.9688 70.0481 56.7922H70.1073ZM26.0832 127.877L22.9697 124.505L19.9673 121.035C18.0741 118.643 16.0699 116.333 14.3246 113.822C10.655 108.939 7.51393 103.677 4.95482 98.1254C2.49219 92.5613 0.813463 86.5664 0.769091 80.4971C0.712518 74.3912 2.7026 68.4437 6.41909 63.6117C10.1167 58.8351 15.5079 55.5367 21.254 53.7018C24.1406 52.7544 27.1131 52.095 30.1284 51.7332C33.1404 51.3477 36.1734 51.1517 39.2098 51.1464C45.2966 51.2207 51.3667 51.8021 57.3578 52.8847C60.3677 53.3527 63.3332 54.0361 66.3135 54.675L69.671 55.5144C69.5748 55.8784 69.4639 56.2573 69.3604 56.6065C68.7688 58.7905 68.2215 60.9745 67.7112 63.1734C67.5411 63.9163 67.371 64.6592 67.2084 65.3574C59.2213 63.2505 51.047 61.9392 42.8039 61.4425C37.3762 61.0988 31.9274 61.5365 26.623 62.7425C23.9501 63.4126 21.389 64.4712 19.0207 65.8849C16.5947 67.2891 14.582 69.3134 13.187 71.752C11.792 74.1906 11.0644 76.9566 11.0781 79.7691C11.057 82.5327 11.4331 85.285 12.1948 87.9407C13.8288 93.1448 16.1946 98.0877 19.2203 102.62C23.8114 109.543 29.0702 115.995 34.9205 121.882C34.3289 122.447 33.7225 123.004 33.1309 123.561C31.1933 125.426 29.2779 127.328 27.4143 129.266C26.9632 128.791 26.5195 128.345 26.0832 127.877ZM66.4097 204.861C63.4515 205.507 60.4565 206.191 57.4392 206.673C51.4266 207.768 45.3345 208.365 39.2246 208.456C36.1731 208.449 33.1251 208.248 30.0988 207.855C27.0705 207.478 24.086 206.807 21.1875 205.849C15.3822 203.984 9.96143 200.649 6.18983 195.805C2.44364 190.912 0.452688 184.891 0.539836 178.719C0.539836 178.34 0.539836 177.976 0.539836 177.575L0.591603 176.439C0.665556 175.696 0.702531 174.916 0.813461 174.158C1.03363 172.644 1.3398 171.143 1.73048 169.664C2.50009 166.699 3.51429 163.804 4.76254 161.009C7.34817 155.455 10.5033 150.187 14.1767 145.29C17.8283 140.371 21.7801 135.685 26.0092 131.257C26.4086 130.834 26.8375 130.418 27.2368 130.002C29.13 131.956 31.075 133.872 33.0495 135.744L34.8244 137.401C29.0314 143.295 23.8296 149.747 19.2943 156.663C16.3036 161.203 13.9681 166.145 12.3575 171.343C11.6221 173.975 11.266 176.699 11.3 179.432C11.3402 182.197 12.0699 184.907 13.4224 187.314C14.835 189.678 16.8061 191.656 19.1612 193.071C21.5081 194.458 24.0409 195.498 26.6822 196.162C31.9624 197.344 37.3834 197.764 42.7817 197.41C51.0637 196.875 59.2743 195.531 67.2971 193.398C67.4894 194.26 67.689 195.122 67.9035 195.984C68.431 198.182 68.9857 200.369 69.5675 202.543C69.7006 203.011 69.8411 203.479 69.9668 203.954L66.4097 204.861ZM69.8337 202.484C69.2569 200.307 68.7096 198.116 68.2067 195.917C67.9996 195.055 67.8 194.193 67.6151 193.317C69.9224 192.722 72.2298 192.098 74.5149 191.415L77.7984 190.405C77.9907 191.281 78.1904 192.165 78.4048 193.034L78.6415 194.045C79.2109 196.355 79.8173 198.665 80.4681 200.961C79.6842 201.213 78.9077 201.444 78.1238 201.704C77.1624 201.986 76.2158 202.276 75.247 202.55C73.5831 203.063 71.897 203.501 70.2182 203.925C70.1073 203.427 69.9372 202.952 69.8115 202.484H69.8337ZM150.191 219.889C147.975 225.598 145.234 231.086 142.004 236.284C138.699 241.403 134.794 246.246 129.913 249.923C127.449 251.748 124.743 253.218 121.874 254.291C116.084 256.406 109.738 256.406 103.948 254.291C101.107 253.226 98.4285 251.765 95.9908 249.953C91.0877 246.291 87.183 241.447 83.8551 236.329C80.5976 231.137 77.8367 225.648 75.6094 219.934C73.5767 214.787 71.8117 209.538 70.3218 204.207C72.0227 203.798 73.7014 203.36 75.3801 202.862L78.2569 202.038L80.6012 201.295C82.7916 209.324 85.7641 217.118 89.4756 224.562C91.8951 229.433 94.99 233.935 98.6679 237.933C100.563 239.9 102.736 241.577 105.117 242.911C107.502 244.291 110.207 245.017 112.959 245.017C115.712 245.017 118.417 244.291 120.802 242.911C123.175 241.567 125.34 239.882 127.229 237.911C130.886 233.911 133.958 229.408 136.354 224.539C140.044 217.061 142.992 209.235 145.155 201.176C146.005 201.444 146.863 201.704 147.713 201.919C148.564 202.134 149.629 202.491 150.59 202.758C152.195 203.241 153.822 203.672 155.464 204.073C153.981 209.436 152.214 214.716 150.169 219.889H150.191ZM155.915 202.432C155.782 202.929 155.634 203.427 155.501 203.917C153.859 203.501 152.232 203.078 150.627 202.595C149.666 202.328 148.719 202.045 147.758 201.756L145.206 200.968C145.847 198.636 146.454 196.298 147.026 193.955C147.1 193.606 147.188 193.257 147.255 192.923C147.469 192.039 147.662 191.162 147.847 190.286C149.03 190.672 150.22 191.029 151.418 191.4C153.637 192.059 155.875 192.678 158.133 193.257C157.941 194.119 157.741 194.981 157.542 195.85C157.009 198.056 156.469 200.24 155.893 202.432H155.915ZM162.571 166.298C161.676 174.381 160.426 182.434 158.777 190.39C158.599 191.266 158.407 192.128 158.222 193.005C156.004 192.447 153.733 191.838 151.515 191.192C150.309 190.828 149.119 190.449 147.935 190.078C148.12 189.194 148.312 188.317 148.483 187.433C149.828 180.903 150.886 174.314 151.707 167.702L154.665 165.786C157.544 163.914 160.384 161.992 163.184 160.021C162.955 162.124 162.755 164.218 162.548 166.298H162.571ZM163.31 158.677C160.505 160.658 157.67 162.609 154.806 164.53L151.847 166.477C152.38 161.985 152.806 157.481 153.127 152.964C154.088 152.318 155.05 151.664 155.996 151.003C158.762 149.076 161.491 147.095 164.183 145.06C163.961 149.621 163.663 154.16 163.288 158.677H163.31ZM156.026 150.609C155.079 151.285 154.118 151.946 153.156 152.607C153.704 144.956 153.975 137.28 153.97 129.578C153.97 122.046 153.723 114.508 153.23 106.966C154.17 107.604 155.109 108.251 156.033 108.904C158.777 110.828 161.476 112.812 164.168 114.847C164.39 119.77 164.506 124.69 164.516 129.608C164.516 134.605 164.414 139.6 164.212 144.592C161.486 146.637 158.742 148.643 155.981 150.609H156.026ZM188.129 138.887C183.041 143.485 177.731 147.853 172.303 152.043C169.67 154.063 167 156.044 164.294 157.986C164.698 153.43 165.014 148.873 165.24 144.317C170.535 140.305 175.677 136.096 180.667 131.688C181.278 131.153 181.885 130.611 182.486 130.061C183.381 130.878 184.291 131.681 185.178 132.52C186.79 134.065 188.388 135.655 189.948 137.26C189.305 137.795 188.698 138.352 188.084 138.887H188.129ZM192.277 135.068L190.473 136.762C188.89 135.138 187.288 133.543 185.666 131.978C184.808 131.146 183.913 130.366 183.033 129.541L184.882 127.877L185.622 127.194C187.286 125.612 188.898 124.007 190.51 122.373L190.865 122.707C191.235 123.041 191.604 123.405 191.982 123.754L192.314 124.052C194.208 125.849 196.064 127.662 197.883 129.519C196.019 131.406 194.136 133.256 192.233 135.068H192.277ZM224.891 82.7331C224.809 83.476 224.787 84.2189 224.676 84.9618C224.455 86.4637 224.149 87.9519 223.759 89.419C223.002 92.3604 221.995 95.231 220.749 97.9991C218.171 103.543 215.023 108.801 211.357 113.688C207.729 118.599 203.799 123.279 199.591 127.699C199.214 128.1 198.852 128.494 198.445 128.895C196.631 127.023 194.784 125.186 192.906 123.383C192.314 122.811 191.73 122.246 191.124 121.689C196.904 115.848 202.105 109.457 206.654 102.605C209.68 98.0729 212.045 93.1299 213.679 87.9258C214.445 85.2709 214.821 82.5181 214.796 79.7542C214.761 76.9469 214.032 74.1923 212.674 71.7387C211.253 69.322 209.248 67.3037 206.846 65.87C204.482 64.459 201.926 63.4005 199.259 62.7277C193.947 61.5219 188.491 61.0841 183.056 61.4277C174.882 61.9291 166.776 63.2253 158.851 65.298C158.681 64.5551 158.511 63.8123 158.348 63.114C157.83 60.8854 157.283 58.7311 156.691 56.547L156.359 55.3956L159.59 54.6081C162.548 53.9841 165.543 53.3007 168.546 52.8401C174.544 51.7799 180.619 51.2135 186.709 51.1464C189.746 51.1596 192.779 51.3631 195.79 51.7555C198.807 52.1211 201.78 52.788 204.665 53.7464C210.396 55.5813 215.757 58.8871 219.455 63.6563C223.115 68.4771 225.046 74.3985 224.935 80.46C224.935 80.8388 224.935 81.2028 224.935 81.5891L224.891 82.7331Z" fill="white"/>
<path d="M149.836 193.762C149.178 196.518 148.475 199.163 147.736 201.748C147.724 201.806 147.709 201.863 147.691 201.919C147.432 202.803 147.203 203.709 146.952 204.586C138.994 230.965 126.822 247.546 112.933 247.546C99.0451 247.546 86.8947 230.965 78.9151 204.586C78.6563 203.746 78.427 202.87 78.1756 202.016L78.0795 201.652C78.819 201.414 79.6473 201.191 80.4312 200.909L81.1041 200.701C81.8806 200.455 82.6498 200.173 83.4189 199.913C83.4632 200.047 83.5002 200.195 83.5446 200.329C83.7812 201.191 84.0253 202.03 84.2841 202.87C91.3318 226.642 101.656 241.915 112.919 241.915C124.182 241.915 134.506 226.627 141.553 202.87C141.812 202.001 142.071 201.124 142.293 200.225C142.293 200.173 142.33 200.106 142.352 200.047C143.091 197.462 143.742 194.78 144.393 192.024C145.258 192.306 146.109 192.566 146.967 192.834L147.188 192.908C148.091 193.213 148.978 193.502 149.836 193.762Z" fill="white"/>
<path d="M183.477 197.417C183.636 198.312 183.863 199.194 184.157 200.054C178.788 199.855 173.441 199.251 168.161 198.249C165.699 197.789 163.162 197.254 160.596 196.645C159.797 196.459 158.969 196.229 158.156 196.021C157.941 195.976 157.756 195.917 157.542 195.865C155.02 195.226 152.461 194.542 149.865 193.755C149.008 193.495 148.12 193.205 147.262 192.938C147.188 192.938 147.122 192.878 147.04 192.856L144.467 192.054C140.986 190.895 137.456 189.632 133.877 188.265C131.311 187.277 128.737 186.244 126.134 185.16L123.22 183.897L122.422 183.54C119.301 182.173 116.18 180.755 113.03 179.239C111.994 178.749 110.966 178.221 109.931 177.716L109.776 177.635H109.739C108.726 177.115 107.698 176.639 106.67 176.112C102.523 173.987 98.3696 171.758 94.2085 169.426C93.2176 168.869 92.2118 168.304 91.2504 167.725C90.289 167.145 89.3203 166.588 88.3515 166.016C84.2348 163.579 80.2142 161.078 76.2898 158.513C75.4319 157.941 74.6036 157.369 73.7606 156.797H73.7236L72.8805 156.24C72.0375 155.66 71.1722 155.096 70.3366 154.524C67.4302 152.518 64.6126 150.483 61.8468 148.432L61.3661 148.083C60.4786 147.422 59.5616 146.761 58.689 146.092C56.426 144.369 54.2518 142.631 52.0998 140.892C49.1417 138.48 46.292 136.041 43.5508 133.575C42.9518 133.04 42.3676 132.49 41.7759 131.941C41.5911 131.77 41.4136 131.606 41.2287 131.45C40.6297 130.886 40.0159 130.336 39.439 129.779C37.4201 127.877 35.5195 125.968 33.6781 124.066L33.1309 123.546C32.5318 122.922 31.918 122.306 31.3264 121.674C29.522 119.735 27.7767 117.811 26.1497 115.887C10.4569 97.3156 5.16927 81.2473 11.2556 70.6317C17.3419 60.0161 33.863 56.5915 57.7202 60.9744C60.1902 61.4202 62.7194 61.9699 65.2856 62.5716C66.0917 62.7647 66.8904 62.9802 67.6964 63.1808C67.9183 63.2476 68.1475 63.2996 68.3768 63.359C70.8838 63.9979 73.4426 64.6813 76.0309 65.4614C76.7704 65.6768 77.51 65.9219 78.2051 66.1448L79.2553 66.4865C79.0852 67.2294 78.9151 67.9723 78.7524 68.678L78.5157 69.7403C78.3604 70.4832 78.2125 71.226 78.0572 71.9689L77.0293 71.642C76.2898 71.4043 75.5502 71.1592 74.8107 70.9363C72.215 70.1489 69.671 69.4506 67.1566 68.8191L66.4836 68.6483C65.6701 68.4477 64.8566 68.2248 64.0506 68.0317C61.5657 67.4374 59.1105 66.9174 56.707 66.4791C50.9418 65.3619 45.0883 64.7677 39.2172 64.7036C27.5252 64.7036 19.3978 67.6751 16.0847 73.4323C11.3295 81.7302 16.5358 95.867 30.3946 112.262C31.9772 114.127 33.6633 115.976 35.4234 117.878C36.0076 118.51 36.6288 119.134 37.2352 119.75L37.5532 120.084C39.4095 122.001 41.3026 123.91 43.3216 125.812C43.928 126.377 44.5418 126.919 45.1556 127.483L45.7028 127.989C46.2945 128.531 46.8639 129.066 47.4555 129.593C50.2312 132.05 53.0981 134.491 56.0563 136.918C56.7958 137.49 57.4614 138.062 58.1861 138.634C59.0439 139.317 59.9018 139.986 60.7892 140.669C60.9667 140.803 61.1368 140.929 61.2995 141.063C64.0062 143.136 66.7868 145.201 69.6562 147.229C70.4697 147.808 71.3201 148.38 72.141 148.952L73.021 149.554C73.8419 150.126 74.6628 150.706 75.4985 151.278C79.3342 153.873 83.2783 156.411 87.3309 158.892C89.4608 160.194 91.6177 161.48 93.8018 162.747C96.0204 164.025 98.239 165.251 100.458 166.462C104.606 168.735 108.77 170.919 112.904 172.947C113.932 173.452 114.96 173.928 115.98 174.433L116.136 174.5C117.171 175.005 118.221 175.51 119.256 175.985C122.399 177.471 125.513 178.786 128.619 180.086C128.907 180.212 129.203 180.324 129.491 180.457C130.453 180.859 131.429 181.275 132.39 181.653C133.219 181.988 134.04 182.3 134.868 182.619C138.462 184.016 141.997 185.294 145.502 186.46C146.36 186.742 147.203 186.995 148.061 187.277C148.127 187.286 148.192 187.304 148.253 187.329C149.133 187.611 149.999 187.901 150.871 188.168C153.46 188.956 156.004 189.654 158.525 190.286L159.161 190.456C159.975 190.642 160.803 190.865 161.602 191.058C164.094 191.652 166.549 192.18 168.945 192.618C173.586 193.495 178.28 194.055 182.996 194.297C182.993 195.167 183.058 196.037 183.189 196.897C183.299 197.062 183.395 197.236 183.477 197.417Z" fill="white"/>
<path d="M215.698 186.349C215.201 185.398 214.614 184.498 213.946 183.659L213.835 183.511C213.724 183.377 213.62 183.243 213.502 183.117C212.864 182.366 212.161 181.672 211.402 181.045C212.881 171.075 204.923 156.716 190.443 141.331C189.926 140.781 189.401 140.246 188.868 139.689L188.129 138.902C186.364 137.099 184.512 135.284 182.575 133.456C181.946 132.862 181.325 132.275 180.674 131.696C180.549 131.577 180.415 131.443 180.282 131.332C180.896 130.797 181.488 130.27 182.087 129.712L182.619 129.215C183.218 128.65 183.832 128.093 184.446 127.528L184.882 127.922L186.738 129.631C188.669 131.458 190.495 133.278 192.255 135.091C192.514 135.351 192.773 135.618 192.995 135.878C193.527 136.428 194.038 136.978 194.563 137.535C212.23 156.426 220.535 174.255 215.698 186.349Z" fill="white"/>
<path d="M199.732 115.887C198.105 117.819 196.374 119.743 194.555 121.674L192.891 123.398C192.677 123.621 192.455 123.843 192.248 124.066C191.641 123.494 191.05 122.922 190.451 122.365L189.97 121.927C189.364 121.37 188.743 120.827 188.129 120.278C188.351 120.047 188.572 119.81 188.794 119.587C189.356 119.015 189.926 118.443 190.451 117.871C192.196 115.999 193.882 114.156 195.465 112.27C209.324 95.8744 214.545 81.7302 209.782 73.4398C206.343 67.4969 198.201 64.6442 186.931 64.6442C179.705 64.6442 171.193 65.8105 161.787 68.0466L159.568 68.6334L158.496 68.9009C156.048 69.5397 153.585 70.2157 151.056 70.9883C150.243 71.2335 149.4 71.5158 148.579 71.7312L148.054 71.9021C147.248 72.1695 146.449 72.4072 145.635 72.6449C142.184 73.8137 138.644 75.0939 135.016 76.4856C134.195 76.7901 133.396 77.117 132.583 77.429C131.769 77.741 130.771 78.1719 129.869 78.5507C129.432 78.7439 128.989 78.9222 128.552 79.1005C125.52 80.3782 122.459 81.6856 119.375 83.112C118.48 83.528 117.585 83.9662 116.698 84.3897L115.588 84.9023C114.708 85.3331 113.836 85.7343 112.956 86.1577C108.822 88.1857 104.643 90.3475 100.472 92.6355C98.2538 93.8464 96.0352 95.0796 93.8684 96.3499C91.7016 97.6202 89.5273 98.9128 87.3975 100.213C83.34 102.689 79.3958 105.227 75.565 107.827C74.7516 108.384 73.9603 108.941 73.1542 109.506L72.1484 110.197C71.3349 110.762 70.5067 111.319 69.708 111.891C66.8534 113.911 64.0826 115.959 61.3957 118.034C61.196 118.19 60.9815 118.339 60.7967 118.495C59.924 119.163 59.0662 119.839 58.2157 120.508C57.4762 121.08 56.7884 121.652 56.0859 122.224C53.0982 124.646 50.2313 127.082 47.4851 129.534C46.8713 130.091 46.2797 130.648 45.6659 131.198L45.2666 131.569C44.6306 132.164 43.9724 132.743 43.3438 133.33C41.3397 135.224 39.4539 137.118 37.6124 139.013C37.4793 139.154 37.3314 139.303 37.1983 139.451C36.6067 140.053 36.0077 140.655 35.4456 141.264C33.6855 143.136 31.9994 144.978 30.4168 146.88C16.5433 163.349 11.337 177.486 16.1217 185.784C20.9065 194.082 35.6971 196.607 56.744 192.737C59.1475 192.299 61.6027 191.779 64.0876 191.184C64.9602 190.976 65.8476 190.731 66.7351 190.508L67.0087 190.442C69.597 189.795 72.1854 189.09 74.8625 188.28C75.6464 188.042 76.4451 187.775 77.2438 187.537L77.9833 187.314C78.1608 188.198 78.3309 189.09 78.5232 189.959L78.5675 190.182C78.7524 191.058 78.9669 191.942 79.1665 192.819L78.464 193.042C77.6801 193.287 76.8888 193.547 76.1123 193.785C73.4426 194.587 70.8321 195.27 68.2437 195.946L67.9923 196.013C67.1048 196.221 66.2174 196.474 65.3448 196.674C62.7786 197.276 60.2494 197.818 57.7794 198.271C51.7019 199.444 45.5313 200.063 39.3429 200.121C25.4102 200.121 15.678 196.199 11.3148 188.607C5.22847 177.991 10.5161 161.908 26.2089 143.344C27.8359 141.427 29.5811 139.488 31.3856 137.564C31.955 136.955 32.5615 136.353 33.1383 135.744L33.5598 135.306C35.3938 133.412 37.2575 131.517 39.2764 129.63C39.8754 129.058 40.5114 128.486 41.1252 127.914L41.5615 127.521C42.1753 126.956 42.7669 126.399 43.3882 125.842C46.1244 123.366 48.9741 120.926 51.9371 118.524C54.0743 116.771 56.2633 115.026 58.5263 113.324C59.3842 112.671 60.279 112.024 61.1516 111.371C61.3587 111.215 61.5732 111.066 61.7728 110.91C64.5313 108.875 67.3341 106.854 70.2109 104.863C71.0243 104.299 71.8674 103.749 72.6957 103.192C73.0433 102.954 73.3908 102.731 73.731 102.493C74.5593 101.951 75.3654 101.387 76.1862 100.837C80.1304 98.2714 84.151 95.7704 88.248 93.3338C89.2167 92.7618 90.1633 92.1898 91.1469 91.6178C92.1305 91.0458 93.1436 90.4812 94.105 89.9241C98.2834 87.5617 102.44 85.3034 106.559 83.2011C107.439 82.7628 108.311 82.3468 109.177 81.9085L110.308 81.3513L112.948 80.0365C116.039 78.5507 119.086 77.169 122.118 75.8393C122.569 75.6461 122.998 75.453 123.45 75.2673C124.337 74.8735 125.247 74.4724 126.127 74.101C128.737 73.0015 131.303 71.9615 133.869 70.9735C137.456 69.5992 140.999 68.3437 144.467 67.1997C145.266 66.9323 146.072 66.6946 146.87 66.4568L147.432 66.2785C148.246 66.0334 149.059 65.7511 149.865 65.5357C152.395 64.7928 154.872 64.1019 157.313 63.4779L158.385 63.2105C159.124 63.0174 159.864 62.8168 160.603 62.6385C187.315 56.3761 207.697 58.6716 214.633 70.7283C220.727 81.2473 215.432 97.323 199.732 115.887Z" fill="white"/>
<path d="M97.6844 23.6157C98.0725 24.2284 98.4947 24.8187 98.949 25.3837C93.2916 32.1661 88.2554 42.8857 84.2767 56.3093C84.0548 57.0522 83.8404 57.7951 83.6259 58.5379C83.5372 58.8574 83.441 59.1842 83.3523 59.5111L82.1469 59.11C81.8363 58.9985 81.533 58.8945 81.2224 58.7979L80.1575 58.4637L78.6341 58.0031L78.0055 57.8248C78.0942 57.4979 78.183 57.1859 78.2865 56.8591C78.4936 56.1162 78.7007 55.3733 78.9225 54.6305C83.4262 39.6839 89.2759 27.8872 96.0426 20.4585C96.3343 21.1915 96.6702 21.906 97.0484 22.598C97.2702 22.9545 97.4699 23.2591 97.6844 23.6157Z" fill="white"/>
<path d="M156.632 129.601C156.632 130.752 156.632 131.911 156.632 133.055C156.588 137.869 156.44 142.601 156.189 147.251C156.129 148.373 156.041 149.48 155.974 150.564V150.609C155.967 150.73 155.967 150.852 155.974 150.973C155.893 152.11 155.826 153.246 155.752 154.368C155.479 157.807 155.146 161.158 154.776 164.478C154.732 164.88 154.68 165.296 154.636 165.712C154.525 166.707 154.414 167.747 154.288 168.75C153.933 171.58 153.548 174.373 153.097 177.107C152.486 180.916 151.808 184.613 151.064 188.198C150.191 187.931 149.326 187.641 148.446 187.359C148.384 187.334 148.319 187.316 148.253 187.307C147.396 187.024 146.552 186.772 145.695 186.49C146.434 182.894 147.1 179.172 147.699 175.347L148.098 172.68C148.246 171.677 148.372 170.652 148.505 169.641C148.557 169.262 148.601 168.898 148.66 168.475C149.082 165.169 149.481 161.789 149.806 158.379C149.91 157.243 149.984 156.091 150.087 154.947C150.087 154.836 150.087 154.747 150.087 154.628C150.176 153.506 150.287 152.399 150.368 151.285C150.686 146.672 150.901 141.962 151.027 137.171C151.078 134.645 151.115 132.112 151.115 129.549C151.115 126.986 151.078 124.505 151.027 122.009C150.908 117.21 150.689 112.505 150.368 107.894C150.302 106.884 150.198 105.888 150.117 104.923C150.117 104.566 150.065 104.18 150.028 103.853C149.94 102.835 149.873 101.795 149.784 100.785C149.459 97.3899 149.045 94.099 148.645 90.8155C148.594 90.3326 148.527 89.8646 148.46 89.3818C148.327 88.4235 148.209 87.4503 148.076 86.5069C147.943 85.5634 147.824 84.7834 147.691 83.9142C147.085 80.081 146.419 76.3519 145.672 72.7712C145.51 72.0284 145.347 71.2855 145.192 70.5426L144.955 69.4729C144.785 68.73 144.63 67.9871 144.467 67.2443C143.841 64.5947 143.183 62.0219 142.492 59.5259C142.426 59.2733 142.352 59.0356 142.278 58.783C142.056 57.9733 141.82 57.171 141.583 56.3687C137.604 42.997 132.583 32.2774 126.94 25.5099C127.414 24.9251 127.856 24.3151 128.264 23.6824C128.441 23.3927 128.626 23.103 128.789 22.7984C129.195 22.0834 129.546 21.3384 129.839 20.5698C136.591 27.9985 142.448 39.7656 146.952 54.6824C147.188 55.4252 147.396 56.2721 147.632 57.0744C147.714 57.3195 147.78 57.5795 147.854 57.8173C148.557 60.3059 149.23 62.8465 149.866 65.506C150.028 66.2488 150.184 66.9917 150.354 67.7346L150.59 68.8043C150.753 69.5472 150.923 70.29 151.093 71.0329C151.833 74.621 152.506 78.3279 153.12 82.1759C153.558 84.8849 153.953 87.6484 154.303 90.4664C154.428 91.4321 154.525 92.4275 154.636 93.4007C154.695 93.8761 154.746 94.3516 154.806 94.8419C155.161 98.1105 155.493 101.431 155.752 104.833C155.834 105.851 155.885 106.899 155.967 107.931C155.967 108.28 156.011 108.629 156.033 108.964C156.085 109.982 156.166 110.977 156.226 112.01C156.477 116.675 156.625 121.427 156.669 126.265C156.632 127.357 156.632 128.479 156.632 129.601Z" fill="white"/>
<path d="M126.63 13.7507C126.632 14.8498 126.5 15.945 126.238 17.0119C126.056 17.8012 125.796 18.5702 125.461 19.3074C125.331 19.6324 125.177 19.9477 125.003 20.2508C124.656 20.9072 124.255 21.5334 123.805 22.1229C122.526 23.7963 120.881 25.1518 118.997 26.0846C117.113 27.0175 115.041 27.5027 112.941 27.5027C110.841 27.5027 108.769 27.0175 106.885 26.0846C105.001 25.1518 103.356 23.7963 102.077 22.1229C101.638 21.5428 101.245 20.9293 100.901 20.288C100.716 19.9462 100.546 19.5897 100.391 19.2331C100.078 18.5141 99.8308 17.7682 99.6515 17.0045C99.214 15.2116 99.1418 13.3483 99.4391 11.5266C99.7365 9.70493 100.397 7.96242 101.382 6.40375C101.687 5.90438 102.031 5.42995 102.41 4.98487C103.693 3.42873 105.302 2.17611 107.122 1.31632C108.943 0.45653 110.929 0.0107422 112.941 0.0107422C114.952 0.0107422 116.939 0.45653 118.759 1.31632C120.58 2.17611 122.189 3.42873 123.472 4.98487C123.871 5.45508 124.239 5.95142 124.574 6.4706C125.922 8.65704 126.634 11.1788 126.63 13.7507Z" fill="white"/>
<path d="M126.704 108.117C123.761 107.818 120.82 108.705 118.528 110.583C116.236 112.46 114.78 115.175 114.479 118.131L114.117 121.637L106.463 120.857C104.458 120.649 102.432 120.841 100.501 121.42C98.5702 121.999 96.7717 122.955 95.2086 124.232C93.6454 125.51 92.3483 127.085 91.3912 128.866C90.4342 130.648 89.836 132.601 89.6309 134.615C89.2176 138.682 90.429 142.746 92.9988 145.916C95.5686 149.085 99.2864 151.099 103.334 151.515C107.383 151.931 111.429 150.714 114.584 148.132C117.739 145.551 119.744 141.816 120.159 137.75L120.943 130.061L124.433 130.425C127.311 130.607 130.147 129.662 132.347 127.789C134.547 125.916 135.94 123.26 136.233 120.379C136.527 117.497 135.699 114.613 133.922 112.331C132.145 110.049 129.559 108.547 126.704 108.139V108.117Z" fill="white"/>
<path d="M213.177 195.753C212.848 198.921 211.362 201.853 209.006 203.984L208.688 204.252C208.422 204.486 208.143 204.704 207.852 204.906C205.692 206.448 203.107 207.273 200.457 207.268H200.198C199.946 207.268 199.688 207.268 199.458 207.231H199.17C197.005 207.008 194.932 206.233 193.149 204.978C191.367 203.723 189.934 202.031 188.987 200.062C188.587 199.241 188.277 198.38 188.062 197.492C188.062 197.351 187.996 197.217 187.966 197.083C187.79 196.235 187.698 195.372 187.692 194.505V194.461C187.691 194.021 187.716 193.582 187.766 193.146L188.425 186.75L185.511 186.445C183.185 186.154 181.056 184.989 179.55 183.185C178.044 181.381 177.273 179.072 177.392 176.721C177.511 174.37 178.511 172.151 180.191 170.51C181.871 168.869 184.107 167.927 186.45 167.874C186.769 167.87 187.087 167.885 187.404 167.918C189.853 168.171 192.103 169.391 193.657 171.309C195.212 173.227 195.944 175.687 195.694 178.147L195.391 181.074L201.766 181.721C204.852 182.033 207.719 183.467 209.827 185.754C210.441 186.417 210.981 187.144 211.439 187.924C211.549 188.09 211.648 188.264 211.735 188.444C212.204 189.299 212.574 190.207 212.836 191.148C213.222 192.65 213.337 194.21 213.177 195.753Z" fill="white"/>
</g>
<defs>
<clipPath id="clip0_140:3323">
<rect width="226" height="256" fill="white"/>
</clipPath>
</defs>
</svg>
