<svg width="112" height="186" viewBox="0 0 112 186" fill="none" xmlns="http://www.w3.org/2000/svg">
<g clip-path="url(#clip0_184:3713)">
<path opacity="0.3" d="M159.771 45.8022C156.959 42.2076 152.94 39.7517 148.679 38.3916C146.551 37.6915 144.36 37.2034 142.137 36.9343C139.923 36.6495 137.693 36.5071 135.461 36.5079C131.009 36.566 126.568 36.9884 122.184 37.7709C119.979 38.1217 117.821 38.6183 115.643 39.0933C114.864 39.2876 114.097 39.4711 113.319 39.6708C112.239 35.8385 110.96 32.0659 109.487 28.3686C107.857 24.1959 105.841 20.186 103.466 16.3918C101.067 12.7053 98.2337 9.20782 94.6971 6.5415C94.7884 6.88154 94.8689 7.23237 94.9333 7.5886C98.0377 10.2068 100.709 13.3038 102.849 16.7642C105.198 20.5261 107.191 24.5017 108.8 28.6385C110.246 32.3068 111.5 36.0487 112.557 39.8489C111.435 40.135 110.314 40.4264 109.208 40.7611L107.126 41.3764L105.409 41.9161C103.846 36.1249 101.729 30.4996 99.0869 25.1194C97.5609 22.0232 95.669 19.1237 93.4521 16.4835C93.3341 16.7048 93.1999 16.9153 93.0711 17.1258C95.2055 19.6689 97.0388 22.4529 98.5342 25.4216C101.204 30.7494 103.352 36.3261 104.947 42.0726C104.373 42.2507 103.809 42.4397 103.241 42.6124C96.7805 44.7484 90.439 47.2311 84.2432 50.05C83.5348 50.363 82.8426 50.6923 82.1449 51.0107L79.7568 49.9313C73.5465 47.1323 67.1926 44.6676 60.7219 42.5476C60.1852 42.3695 59.6862 42.2076 59.171 42.0456C60.7365 36.3231 62.8537 30.768 65.4927 25.4594C66.9693 22.4922 68.7847 19.7081 70.9021 17.1636C70.7465 16.9261 70.6016 16.6832 70.4621 16.4296C68.226 19.0665 66.3159 21.9662 64.7736 25.0654C62.1156 30.4223 59.9805 36.0259 58.3982 41.7974C57.8615 41.6354 57.3625 41.4843 56.8473 41.3278C56.1496 41.1173 55.4466 40.9122 54.7436 40.7179C53.5898 40.3671 52.436 40.0648 51.2661 39.7787C52.3346 35.9942 53.5993 32.2685 55.0549 28.6169C56.6762 24.4795 58.6796 20.504 61.0385 16.7426C63.196 13.2686 65.8877 10.1607 69.0131 7.53463C69.0775 7.21618 69.1419 6.89773 69.2331 6.59008C65.7127 9.28878 62.9168 12.7431 60.5287 16.4296C58.1617 20.2238 56.1513 24.2316 54.5236 28.401C53.0696 32.0801 51.8068 35.8328 50.7402 39.6438C49.9191 39.4387 49.0927 39.2444 48.2716 39.0339C46.0982 38.5697 43.9248 38.0839 41.7245 37.7385C37.3376 36.9672 32.8956 36.5556 28.4424 36.5079C26.2082 36.517 23.9768 36.6666 21.7611 36.9559C19.541 37.2286 17.3533 37.7222 15.2301 38.4294C10.9799 39.8003 6.97109 42.2669 4.18588 45.8562C1.423 49.4762 -0.0544832 53.9228 -0.0107125 58.4861C0.037586 63.0146 1.28798 67.4243 3.10185 71.5101C4.97778 75.5747 7.28442 79.4237 9.9817 82.9904C11.2589 84.8255 12.724 86.5095 14.1193 88.2582L16.3088 90.7734L18.5788 93.2346C18.9008 93.5747 19.2335 93.9039 19.5555 94.244C19.255 94.5516 18.9598 94.8539 18.6593 95.1723C15.5954 98.4062 12.7332 101.827 10.089 105.417C7.43627 109.004 5.15781 112.856 3.28968 116.913C2.38293 118.951 1.65393 121.064 1.11088 123.228C0.82451 124.312 0.596992 125.411 0.42934 126.52C0.348842 127.06 0.332744 127.6 0.279079 128.188L0.203948 129.019C0.203948 129.306 0.203948 129.559 0.203948 129.856C0.1485 134.37 1.61021 138.771 4.35225 142.346C7.14282 145.897 11.0979 148.315 15.3267 149.675C17.436 150.367 19.6071 150.852 21.8094 151.122C24.011 151.406 26.2282 151.55 28.4478 151.554C32.8878 151.515 37.3173 151.112 41.6923 150.35C43.8872 150.015 46.0553 149.53 48.2233 149.071C49.0981 148.85 49.9728 148.639 50.8475 148.429C51.9353 152.306 53.2251 156.124 54.7114 159.866C56.3423 164.021 58.3545 168.014 60.7219 171.794C63.1422 175.518 66.0025 179.043 69.582 181.704C71.3665 183.038 73.3306 184.11 75.4153 184.888C79.6489 186.388 84.2652 186.388 88.4988 184.888C90.5871 184.115 92.555 183.047 94.343 181.714C97.9331 179.059 100.783 175.54 103.23 171.81C105.617 168.035 107.644 164.041 109.283 159.882C110.788 156.122 112.094 152.284 113.195 148.385L115.685 149.006C117.832 149.465 120.022 149.961 122.211 150.301C126.584 151.072 131.011 151.485 135.45 151.537C136.341 151.537 137.232 151.505 138.134 151.467C138.093 151.434 138.05 151.403 138.005 151.376C137.157 151.419 136.314 151.44 135.466 151.456C131.034 151.41 126.613 150.995 122.249 150.215C120.059 149.875 117.896 149.378 115.734 148.914L113.249 148.294C113.346 147.937 113.458 147.581 113.555 147.214C113.984 145.627 114.392 144.04 114.779 142.437L115.213 140.565C120.991 142.104 126.904 143.069 132.869 143.447H133.153C133.146 143.349 133.134 143.252 133.116 143.155H132.88C126.933 142.804 121.036 141.866 115.272 140.354C115.417 139.723 115.557 139.091 115.685 138.465C116.931 132.668 117.88 126.796 118.573 120.902C118.777 119.202 118.954 117.491 119.109 115.78C121.256 114.258 123.403 112.708 125.512 111.116C129.467 108.051 133.347 104.861 137.071 101.493C137.516 101.099 137.951 100.699 138.391 100.294C142.539 104.514 146.267 109.131 149.521 114.079C151.679 117.33 153.364 120.874 154.523 124.604C155.056 126.473 155.318 128.409 155.301 130.353C155.278 131.262 155.159 132.167 154.947 133.051C155.033 133.143 155.108 133.24 155.188 133.337L155.269 133.445C155.539 132.443 155.69 131.412 155.72 130.374C155.748 128.388 155.487 126.407 154.947 124.496C153.782 120.719 152.089 117.128 149.918 113.831C146.654 108.852 142.918 104.203 138.761 99.949C139.201 99.5442 139.647 99.1286 140.076 98.7184C141.455 97.4015 142.818 96.0575 144.144 94.6866L144.922 95.4854C147.99 98.6914 150.858 102.086 153.509 105.649C156.168 109.201 158.454 113.021 160.329 117.048C161.247 119.064 161.99 121.155 162.551 123.298C162.83 124.365 163.054 125.446 163.222 126.537C163.302 127.076 163.324 127.616 163.372 128.188L163.447 129.009C163.447 129.289 163.447 129.548 163.447 129.84C163.523 134.306 162.093 138.666 159.39 142.211C158.858 142.9 158.277 143.549 157.651 144.154C157.619 144.31 157.576 144.456 157.539 144.602C158.283 143.916 158.97 143.17 159.594 142.373C162.354 138.788 163.834 134.373 163.796 129.84C163.796 129.565 163.796 129.3 163.796 129.003L163.726 128.161C163.678 127.622 163.651 127.039 163.571 126.488C163.417 125.377 163.201 124.276 162.921 123.19C162.37 121.017 161.634 118.895 160.721 116.848C158.856 112.783 156.574 108.924 153.911 105.336C151.273 101.733 148.416 98.2972 145.357 95.0482C145.094 94.7729 144.82 94.5084 144.563 94.2278L145.421 93.3426C148.49 90.1047 151.357 86.6799 154.008 83.0875C156.693 79.4899 158.999 75.6207 160.887 71.5425C161.803 69.4877 162.544 67.359 163.104 65.1789C163.385 64.0836 163.607 62.9737 163.769 61.8541C163.85 61.3144 163.871 60.7315 163.93 60.1701L163.995 59.3228C163.995 59.0367 163.995 58.783 163.995 58.47C164.046 53.8894 162.558 49.4255 159.771 45.8022ZM107.271 41.9485C107.958 41.7434 108.655 41.5437 109.353 41.344C110.464 41.0147 111.585 40.7179 112.702 40.4426C112.782 40.7287 112.873 41.0147 112.949 41.2954C113.367 42.8768 113.77 44.4637 114.145 46.0505C114.274 46.5903 114.398 47.13 114.516 47.6697C112.906 48.0745 111.344 48.5063 109.772 48.9705C109.546 49.0353 109.321 49.1108 109.085 49.1864L107.319 49.7262C107.206 49.1864 107.094 48.6467 106.97 48.1069C106.917 47.864 106.858 47.6212 106.804 47.3783C106.412 45.7591 105.983 44.1398 105.537 42.4828L107.271 41.9485ZM133.808 92.614C133.373 93.0295 132.928 93.4398 132.483 93.8446C128.452 90.1311 124.256 86.639 119.909 83.325C119.766 80.0866 119.557 76.8481 119.281 73.6097C121.209 74.9914 123.12 76.4019 125.012 77.8412C128.951 80.8692 132.821 84.0267 136.54 87.3677C136.985 87.7671 137.436 88.1557 137.876 88.5659C136.727 89.7533 135.565 90.9228 134.388 92.0742C134.189 92.2739 134.001 92.4628 133.808 92.614ZM132.085 94.2332C131.656 94.6326 131.216 95.0212 130.781 95.4206C127.277 98.5889 123.633 101.611 119.893 104.494C120.054 101.066 120.134 97.6227 120.161 94.1846C120.188 90.7465 120.081 87.4594 119.941 84.0968C124.131 87.2957 128.175 90.6727 132.075 94.2278L132.085 94.2332ZM137.023 86.8981C133.304 83.5193 129.445 80.3187 125.485 77.2313C123.413 75.6445 121.299 74.1062 119.163 72.5896C119.007 70.8732 118.841 69.1568 118.626 67.4404C117.956 61.5411 117.016 55.6795 115.804 49.8773C115.685 49.3375 115.573 48.7978 115.455 48.2581C121.158 46.7644 126.992 45.8316 132.874 45.473C136.735 45.2305 140.611 45.5394 144.385 46.3906C146.241 46.8632 148.019 47.6012 149.666 48.5819C151.31 49.5385 152.677 50.9111 153.631 52.5633C154.584 54.2156 155.092 56.09 155.102 58.0004C155.13 59.9295 154.883 61.8526 154.367 63.7108C153.224 67.4361 151.562 70.9796 149.43 74.2358C146.188 79.202 142.477 83.8419 138.348 88.0909C137.913 87.6807 137.468 87.2759 137.023 86.8765V86.8981ZM111.124 76.9993C110.906 73.8364 110.614 70.6789 110.249 67.5268C110.942 67.9748 111.628 68.4228 112.315 68.887C114.365 70.2399 116.394 71.627 118.401 73.0484C118.687 76.2652 118.907 79.4875 119.061 82.7151C117.113 81.2362 115.154 79.8059 113.158 78.3972C112.487 77.8898 111.806 77.4418 111.124 76.9777V76.9993ZM107.561 136.166C107.426 136.808 107.287 137.445 107.153 138.076C101.963 136.425 96.8545 134.509 91.8261 132.387C92.5774 131.993 93.3233 131.605 94.0693 131.2C97.1926 129.538 100.284 127.794 103.337 126.002C104.813 125.133 106.267 124.237 107.727 123.304L109.9 121.943C109.307 126.704 108.527 131.437 107.561 136.144V136.166ZM20.0868 94.1414C21.457 92.7453 22.8505 91.3725 24.2673 90.0232C24.6966 89.6184 25.1313 89.2082 25.5714 88.8034C26.7735 90.034 27.9952 91.2448 29.2367 92.4358L29.7733 92.9756C30.208 93.375 30.6588 93.769 31.1042 94.1684C30.6534 94.5948 30.1919 94.9996 29.7358 95.426C29.5533 95.5933 29.3655 95.766 29.1991 95.9388C27.9755 97.1154 26.7627 98.3298 25.5821 99.5604L24.2941 98.346C22.8666 96.9427 21.466 95.534 20.0922 94.1198L20.0868 94.1414ZM81.1521 60.413C76.3259 62.7879 71.5872 65.3283 66.9363 68.0342C62.2853 70.7401 57.7274 73.6187 53.2625 76.67C53.3215 75.936 53.3752 75.1965 53.4503 74.4625C53.6703 71.9473 53.9279 69.4321 54.2445 66.9061C56.418 65.5082 58.6236 64.1372 60.8507 62.8203C64.6072 60.5803 68.4604 58.4376 72.3457 56.4028C74.6533 57.3815 76.9412 58.4016 79.2094 59.4631C79.8534 59.7707 80.5081 60.0784 81.1575 60.3914L81.1521 60.413ZM53.1927 111.413C57.722 114.468 62.364 117.35 67.0812 120.092C71.9003 122.881 76.8142 125.506 81.8229 127.967C81.0716 128.334 80.3096 128.696 79.5583 129.046C77.2346 130.126 74.8948 131.205 72.5282 132.199C68.5605 130.104 64.6484 127.906 60.7916 125.603C58.5592 124.27 56.3536 122.904 54.1694 121.474C53.8528 118.943 53.5952 116.406 53.3752 113.864C53.3161 113.022 53.2517 112.207 53.1981 111.392L53.1927 111.413ZM88.794 133.364C86.4757 134.541 84.1466 135.691 81.8176 136.792C78.7479 135.352 75.7069 133.847 72.6945 132.274C75.0486 131.263 77.3848 130.212 79.7032 129.122L81.9517 128.043C84.9462 129.5 87.9729 130.898 91.0372 132.209C90.2966 132.566 89.5507 132.943 88.7994 133.343L88.794 133.364ZM25.9577 99.9005C27.1384 98.6806 28.3423 97.4842 29.5694 96.3112C29.7626 96.1277 29.9558 95.9442 30.149 95.7714L31.5174 94.5246C31.9467 94.9186 32.3868 95.3073 32.8215 95.6905C36.4922 98.9613 40.2952 102.077 44.2306 105.039C44.2682 105.859 44.3111 106.69 44.3648 107.511C44.5097 110.096 44.6975 112.66 44.9337 115.229C42.8515 113.75 40.7943 112.234 38.7622 110.679C34.8286 107.576 30.9754 104.413 27.2618 101.061L25.9577 99.9005ZM29.5372 92.1336C28.3029 90.9462 27.1008 89.7317 25.9148 88.4957C26.3602 88.0855 26.8057 87.6861 27.2511 87.2867C30.97 83.9511 34.8286 80.7828 38.7783 77.7387C40.78 76.2166 42.8139 74.7323 44.8532 73.2858C44.6349 75.8334 44.456 78.381 44.3165 80.9286C44.2789 81.6842 44.236 82.4506 44.2038 83.2117C40.2684 86.209 36.4564 89.3593 32.7678 92.6625L31.4316 93.8823C30.9915 93.4775 30.5461 93.0781 30.1114 92.6679C29.945 92.4628 29.725 92.2739 29.5426 92.0958L29.5372 92.1336ZM52.3716 108.277C52.4199 109.098 52.4789 109.896 52.5326 110.738C49.8386 108.871 47.1894 106.939 44.5848 104.942C44.5526 104.143 44.5204 103.322 44.4936 102.54C44.397 99.7601 44.3594 96.9751 44.3594 94.2008C44.3594 91.4265 44.4238 88.6415 44.5204 85.8618C44.5204 85.1224 44.5741 84.3721 44.6117 83.6327C47.1983 81.668 49.8011 79.7357 52.4843 77.8898C52.436 78.6293 52.3877 79.3741 52.3502 80.1028C52.0711 84.7805 51.9351 89.4583 51.9423 94.136C51.9477 98.8588 52.0872 103.56 52.377 108.239L52.3716 108.277ZM31.818 94.244C32.2634 93.8392 32.7195 93.429 33.1703 93.0296C36.7194 89.8559 40.3847 86.8333 44.1663 83.9619C44.1341 84.7014 44.1072 85.4408 44.0804 86.1856C43.9999 88.8843 43.9516 91.5183 43.9516 94.19C43.9516 96.8617 44.016 99.555 44.118 102.232C44.118 103.031 44.1716 103.851 44.2146 104.645C40.3936 101.719 36.6925 98.6411 33.1113 95.4098C32.682 94.9996 32.2526 94.6218 31.8233 94.2116L31.818 94.244ZM44.6492 82.8716C44.6922 82.1052 44.7297 81.3496 44.778 80.5831C44.9176 78.0356 45.1108 75.4772 45.3147 72.935C47.98 71.0567 50.6794 69.2342 53.4127 67.4674C53.1158 69.9646 52.8671 72.469 52.6668 74.9806L52.4951 77.1774C49.8512 78.9909 47.2377 80.8782 44.6546 82.8392L44.6492 82.8716ZM44.7244 107.775C44.6761 106.949 44.6331 106.156 44.6009 105.314C47.2091 107.268 49.8547 109.173 52.5594 111.003C52.6131 111.829 52.6775 112.622 52.7473 113.464C52.9619 116.008 53.2231 118.545 53.5308 121.074C50.733 119.275 47.98 117.406 45.2717 115.467C45.0517 112.865 44.8639 110.307 44.7297 107.743L44.7244 107.775ZM60.6038 62.437C58.4966 63.7108 56.4001 65.0116 54.3143 66.3394C54.9153 61.6616 55.6935 56.9839 56.6487 52.3061C56.7614 51.7664 56.8687 51.2266 56.9814 50.6869C61.983 52.3061 66.9041 54.1304 71.7447 56.1653C67.9917 58.1551 64.2799 60.2385 60.6092 62.4155L60.6038 62.437ZM55.9028 52.074C54.8885 56.9749 54.1104 61.9189 53.5039 66.8791C50.7635 68.6495 48.0605 70.481 45.3952 72.3737C45.5508 70.7545 45.7118 69.1352 45.8943 67.516C46.5758 61.6544 47.5042 55.809 48.7385 50.0284C48.8405 49.4887 48.9585 48.9489 49.0766 48.4092C50.6865 48.8248 52.2965 49.262 53.9064 49.7369C54.6846 49.9636 55.452 50.2065 56.2301 50.4494C56.1282 50.9784 56.0101 51.5181 55.9081 52.0524L55.9028 52.074ZM48.2448 49.9151C47.032 55.7227 46.0946 61.5771 45.4327 67.4782C45.2342 69.227 45.0625 70.9811 44.8961 72.7299C42.7495 74.2628 40.6029 75.8172 38.5261 77.4203C34.5871 80.4914 30.7125 83.6705 27.0096 87.0438C26.5534 87.4432 26.1187 87.848 25.6733 88.2582C21.4873 83.969 17.7289 79.2779 14.452 74.252C12.3257 70.9844 10.6757 67.4274 9.55238 63.6893C9.03146 61.8321 8.78377 59.9082 8.81717 57.9788C8.83148 56.0698 9.33978 54.1974 10.292 52.5459C11.2443 50.8945 12.6077 49.5209 14.2481 48.5603C15.895 47.5796 17.6733 46.8416 19.5287 46.369C23.2965 45.5206 27.1646 45.2117 31.0183 45.4514C36.949 45.8139 42.83 46.7594 48.5775 48.2743C48.4755 48.814 48.3521 49.3429 48.2502 49.8773L48.2448 49.9151ZM25.6519 100.181C26.0919 100.581 26.5266 100.985 26.972 101.385C30.6856 104.731 34.5656 107.916 38.5314 110.965C40.678 112.584 42.8246 114.144 44.9712 115.682C45.1322 117.415 45.3093 119.148 45.5079 120.886C46.1948 126.769 47.1178 132.62 48.3736 138.416C48.5024 139.048 48.6419 139.685 48.7868 140.322C42.9706 141.846 37.0189 142.788 31.0183 143.134C27.131 143.376 23.2292 143.056 19.4321 142.184C17.564 141.703 15.7747 140.954 14.1193 139.96C12.4474 138.983 11.0602 137.581 10.0967 135.895C9.13314 134.209 8.62713 132.297 8.62934 130.353C8.60794 128.409 8.86827 126.473 9.40211 124.604C10.5592 120.877 12.2359 117.333 14.3822 114.079C17.6778 109.087 21.4524 104.432 25.6519 100.181ZM48.599 138.341C47.3808 132.555 46.4524 126.709 45.8138 120.832C45.6259 119.212 45.4649 117.534 45.32 115.888C48.0391 117.805 50.7957 119.657 53.5898 121.442C54.207 126.402 55.0066 131.335 56.0208 136.22C56.1496 136.862 56.2892 137.504 56.4233 138.141L54.003 138.891C52.343 139.37 50.6758 139.821 49.0015 140.246C48.8619 139.636 48.7278 138.999 48.599 138.341ZM54.2231 121.857C56.3428 123.206 58.4894 124.529 60.6629 125.803C64.4838 128.059 68.3548 130.218 72.2759 132.279C67.2529 134.406 62.144 136.328 56.9439 137.99C56.8097 137.353 56.6809 136.716 56.5414 136.074C55.579 131.385 54.8062 126.654 54.2231 121.879V121.857ZM57.1854 139.091C57.1478 138.956 57.1156 138.805 57.0888 138.659C57.0619 138.514 57.019 138.308 56.9761 138.119C62.203 136.436 67.3549 134.487 72.4208 132.328C75.4296 133.901 78.4814 135.399 81.5761 136.824C80.8838 137.148 80.1915 137.477 79.4885 137.785C73.3192 140.608 67.0046 143.098 60.5716 145.244C60.0028 145.428 59.4447 145.616 58.8758 145.784C58.4143 144.132 57.9814 142.466 57.5771 140.786C57.5181 140.532 57.4537 140.273 57.3947 140.019C57.3356 139.766 57.2498 139.42 57.1854 139.113V139.091ZM60.6521 145.568C67.1127 143.452 73.4592 140.998 79.6656 138.217C80.492 137.855 81.2755 137.483 82.1181 137.11C82.8426 137.445 83.567 137.774 84.2915 138.092C90.4876 140.898 96.8292 143.367 103.289 145.487C103.895 145.692 104.512 145.886 105.124 146.081C103.538 151.917 101.381 157.582 98.6844 162.991C96.9429 166.493 94.715 169.727 92.0676 172.598C90.7189 173.996 89.1751 175.189 87.4846 176.139C85.8085 177.108 83.9091 177.618 81.9759 177.618C80.0427 177.618 78.1433 177.108 76.4672 176.139C74.7854 175.185 73.2491 173.993 71.9057 172.598C69.2778 169.716 67.0665 166.477 65.3371 162.975C62.6748 157.583 60.5414 151.943 58.967 146.135C59.5198 145.946 60.0833 145.768 60.6521 145.579V145.568ZM103.332 145.357C96.8821 143.225 90.5496 140.75 84.3613 137.941C83.6797 137.639 83.0089 137.321 82.3381 137.013C84.7101 135.934 87.0624 134.796 89.3951 133.602C90.1571 133.219 90.9191 132.825 91.6704 132.436C96.731 134.595 101.867 136.533 107.121 138.206C106.981 138.843 106.836 139.48 106.681 140.111C106.632 140.376 106.568 140.624 106.509 140.878C106.09 142.572 105.645 144.267 105.167 145.951L103.332 145.357ZM107.84 122.445C106.23 123.46 104.62 124.464 103.01 125.436C99.8436 127.321 96.6434 129.138 93.4092 130.887C92.674 131.297 91.928 131.697 91.1821 132.085C88.1196 130.772 85.0786 129.388 82.0591 127.935C82.8157 127.568 83.5563 127.19 84.3022 126.817C88.5364 124.691 92.6847 122.435 96.7901 120.06C100.895 117.685 104.893 115.202 108.838 112.601C109.553 112.147 110.253 111.683 110.936 111.208C110.689 114.49 110.371 117.768 109.981 121.042C109.294 121.528 108.57 121.992 107.84 122.456V122.445ZM108.913 112.363C104.924 115.044 100.883 117.586 96.7901 119.99C92.6579 122.364 88.4666 124.631 84.211 126.753C83.4651 127.13 82.7084 127.497 81.9571 127.864C76.9233 125.419 71.9754 122.78 67.1295 119.99C62.3855 117.19 57.7345 114.232 53.1766 111.116C53.1229 110.301 53.0639 109.497 53.0263 108.671C52.7258 103.814 52.5863 98.9883 52.5809 94.1468C52.5755 89.3053 52.758 84.4315 53.0585 79.6062C53.1068 78.8721 53.1551 78.1327 53.2142 77.3987C57.79 74.2898 62.4731 71.3446 67.2636 68.5631C72.0541 65.7816 76.9519 63.1819 81.9571 60.7639C82.6064 61.0823 83.245 61.3899 83.8837 61.7192C88.2091 63.8782 92.4629 66.1595 96.6452 68.5631C100.827 70.9668 104.917 73.5161 108.913 76.2112C109.605 76.6592 110.281 77.1126 110.963 77.5768C111.376 83.0875 111.585 88.6253 111.618 94.1468C111.65 99.6684 111.398 105.352 110.995 110.944C110.298 111.44 109.595 111.92 108.892 112.374L108.913 112.363ZM105.36 51.1889C105.94 50.9892 106.53 50.7948 107.121 50.6113C107.244 51.1511 107.357 51.6908 107.469 52.2305C108.443 56.8579 109.228 61.5213 109.825 66.2206C109.131 65.7744 108.434 65.3319 107.732 64.8929C106.299 64.0023 104.856 63.1117 103.402 62.2481C100.396 60.449 97.3553 58.7308 94.2786 57.0936C93.6399 56.7374 93.0067 56.4027 92.3681 56.0627C96.6148 54.2852 100.938 52.6641 105.339 51.1996L105.36 51.1889ZM93.3287 57.4984C96.5915 59.2472 99.8114 61.0679 102.988 62.9606C104.631 63.9267 106.257 64.9307 107.867 65.9562C108.575 66.3987 109.267 66.8467 109.965 67.2893C110.362 70.4594 110.682 73.6349 110.925 76.8157C110.249 76.3516 109.562 75.8874 108.87 75.4394C104.981 72.8379 101.021 70.3586 96.9886 68.0018C92.9566 65.6449 88.8548 63.4302 84.6833 61.3576C84.0393 61.0229 83.4007 60.7099 82.7513 60.3914C85.6135 59.0205 88.4881 57.7179 91.3753 56.4837C92.03 56.8399 92.6686 57.1638 93.3072 57.5092L93.3287 57.4984ZM117.859 67.5052C118.027 68.9841 118.181 70.4684 118.32 71.9581C116.303 70.5188 114.267 69.1316 112.213 67.7967C111.526 67.3433 110.84 66.8953 110.142 66.4473C109.562 61.649 108.816 56.8723 107.85 52.1334C107.748 51.5937 107.625 51.0539 107.512 50.5142C108.097 50.3253 108.688 50.1472 109.278 49.9744C109.519 49.8935 109.772 49.8179 110.024 49.7477C111.575 49.289 113.136 48.868 114.709 48.4578C114.832 48.9975 114.945 49.5372 115.047 50.077C116.249 55.8252 117.172 61.6598 117.837 67.516L117.859 67.5052ZM84.4579 50.5358C90.6371 47.7414 96.9607 45.2821 103.402 43.1683C103.938 42.9794 104.539 42.7905 105.114 42.6286C105.571 44.2442 106.001 45.8634 106.401 47.4862C106.46 47.7399 106.525 47.9936 106.579 48.2473C106.702 48.787 106.825 49.3268 106.943 49.8665C106.364 50.05 105.774 50.2497 105.189 50.444C100.57 51.9985 96.0101 53.7382 91.5094 55.6633C90.8655 55.3287 90.2376 54.994 89.599 54.6702C87.3504 53.5205 85.075 52.4033 82.7889 51.34C83.3202 51.0539 83.8783 50.7894 84.4364 50.5466L84.4579 50.5358ZM88.6169 55.0534C89.2555 55.3718 89.8941 55.7065 90.5327 56.0303C87.6491 57.2861 84.787 58.6031 81.9464 59.9812L80.0305 59.0529C77.7694 57.9734 75.494 56.9425 73.2043 55.9602C76.0307 54.4921 78.8928 53.0851 81.7907 51.7394C84.0769 52.8081 86.3469 53.9199 88.5954 55.0642L88.6169 55.0534ZM60.5341 43.2601C66.9614 45.389 73.2707 47.8627 79.4348 50.6707C80.0198 50.9298 80.5994 51.2104 81.1843 51.4641C78.3007 52.8171 75.4511 54.2348 72.6355 55.7173C67.5749 53.5583 62.4392 51.5991 57.1907 49.9043C57.3088 49.3645 57.4322 48.8248 57.5556 48.312C57.6093 48.0476 57.6737 47.7723 57.7381 47.5294C58.1299 45.9102 58.5431 44.3449 58.9885 42.7635L59.6593 42.9848L60.5341 43.2601ZM50.8744 41.263C50.9495 40.9986 51.03 40.7233 51.0998 40.4696C52.2643 40.7611 53.4235 41.0633 54.5719 41.4142C55.2803 41.6139 55.9725 41.819 56.6702 42.0295L57.1263 42.1698L58.2318 42.5098C57.7882 44.1075 57.3678 45.7141 56.9707 47.3297C56.9117 47.5726 56.858 47.8101 56.8097 48.053C56.6863 48.5927 56.5682 49.1324 56.4502 49.6722C55.6988 49.4239 54.9368 49.1918 54.1855 48.9597C52.5755 48.4901 50.9388 48.0422 49.302 47.6266C49.4254 47.0868 49.5488 46.5471 49.6669 46.0397C50.005 44.4259 50.4021 42.8445 50.8314 41.263H50.8744ZM18.9276 92.9108L16.6683 90.4604L14.4895 87.9398C13.1157 86.2018 11.6614 84.5232 10.3949 82.6989C7.73195 79.1512 5.45262 75.328 3.59557 71.2942C1.80853 67.2515 0.590335 62.8958 0.558136 58.4861C0.517084 54.0498 1.96121 49.7286 4.65814 46.2178C7.34138 42.7473 11.2536 40.3509 15.4233 39.0177C17.518 38.3293 19.675 37.8502 21.8631 37.5874C24.0488 37.3073 26.2498 37.1649 28.4532 37.161C32.8701 37.215 37.275 37.6374 41.6225 38.424C43.8067 38.764 45.9587 39.2606 48.1214 39.7248L50.5577 40.3347C50.488 40.5991 50.4075 40.8744 50.3324 41.1281C49.903 42.7149 49.5059 44.3018 49.1356 45.8994C49.0122 46.4391 48.8888 46.9789 48.7707 47.4862C42.9748 45.9554 37.043 45.0027 31.0613 44.6418C27.1226 44.392 23.1686 44.7101 19.3194 45.5863C17.3798 46.0732 15.5212 46.8424 13.8026 47.8694C12.0422 48.8897 10.5817 50.3605 9.56939 52.1323C8.55708 53.904 8.02908 55.9137 8.03903 57.9572C8.0237 59.9652 8.29662 61.9648 8.84937 63.8944C10.0351 67.6755 11.7519 71.2668 13.9475 74.5596C17.2791 79.5897 21.0952 84.2775 25.3406 88.5551C24.9113 88.9653 24.4712 89.3701 24.0419 89.7749C22.6359 91.1297 21.246 92.5114 19.8936 93.9201C19.5662 93.5747 19.2443 93.2508 18.9276 92.9108ZM48.1911 148.844C46.0445 149.314 43.8711 149.81 41.6816 150.161C37.3185 150.957 32.8976 151.39 28.4639 151.456C26.2495 151.451 24.0377 151.305 21.8416 151.019C19.6441 150.746 17.4783 150.258 15.375 149.562C11.1623 148.207 7.22869 145.784 4.49177 142.265C1.77329 138.71 0.328535 134.335 0.391774 129.851C0.391774 129.575 0.391774 129.311 0.391774 129.019L0.42934 128.194C0.483005 127.654 0.509837 127.087 0.590334 126.537C0.7501 125.436 0.972279 124.346 1.25578 123.271C1.81426 121.117 2.55023 119.014 3.45604 116.983C5.33233 112.948 7.6219 109.12 10.2876 105.562C12.9374 101.989 15.805 98.5834 18.874 95.3666C19.1638 95.059 19.475 94.7567 19.7648 94.4545C21.1386 95.874 22.55 97.2665 23.9829 98.6267L25.2708 99.8303C21.0671 104.112 17.2923 108.8 14.0012 113.826C11.831 117.124 10.1362 120.715 8.96743 124.491C8.43378 126.403 8.17535 128.383 8.20002 130.369C8.22917 132.377 8.75872 134.346 9.7402 136.095C10.7653 137.813 12.1956 139.25 13.9046 140.278C15.6077 141.286 17.4457 142.042 19.3623 142.524C23.194 143.383 27.1278 143.688 31.0452 143.431C37.0551 143.042 43.0132 142.066 48.8351 140.516C48.9746 141.142 49.1195 141.768 49.2752 142.394C49.658 143.992 50.0605 145.581 50.4826 147.16C50.5792 147.5 50.6812 147.84 50.7724 148.186L48.1911 148.844ZM50.6758 147.117C50.2572 145.536 49.8601 143.943 49.4952 142.346C49.3449 141.72 49.2 141.093 49.0659 140.457C50.7402 140.025 52.4146 139.571 54.0728 139.075L56.4555 138.341C56.595 138.978 56.7399 139.62 56.8956 140.251L57.0673 140.986C57.4805 142.664 57.9206 144.343 58.3928 146.01C57.824 146.194 57.2605 146.361 56.6916 146.55C55.994 146.755 55.3071 146.966 54.6041 147.166C53.3966 147.538 52.1731 147.856 50.9549 148.164C50.8744 147.802 50.7509 147.457 50.6597 147.117H50.6758ZM108.988 159.763C107.38 163.911 105.391 167.899 103.047 171.675C100.649 175.394 97.8151 178.913 94.2732 181.585C92.485 182.911 90.5216 183.979 88.4398 184.758C84.2382 186.295 79.633 186.295 75.4314 184.758C73.3697 183.984 71.426 182.923 69.6571 181.606C66.0991 178.945 63.2656 175.426 60.8507 171.708C58.4868 167.936 56.4833 163.947 54.867 159.795C53.392 156.056 52.1112 152.242 51.03 148.369C52.2643 148.072 53.4825 147.754 54.7007 147.392L56.7882 146.793L58.4894 146.253C60.0789 152.087 62.2359 157.75 64.9292 163.158C66.685 166.697 68.9308 169.968 71.5998 172.873C72.9753 174.303 74.552 175.521 76.2793 176.49C78.0104 177.492 79.9729 178.02 81.9705 178.02C83.9681 178.02 85.9306 177.492 87.6617 176.49C89.3834 175.513 90.9544 174.29 92.3252 172.857C94.979 169.951 97.2087 166.679 98.9474 163.142C101.625 157.708 103.764 152.023 105.334 146.167C105.951 146.361 106.573 146.55 107.19 146.707C107.807 146.863 108.58 147.122 109.278 147.317C110.442 147.668 111.623 147.981 112.814 148.272C111.739 152.169 110.456 156.005 108.972 159.763H108.988ZM113.142 147.079C113.045 147.441 112.938 147.802 112.841 148.159C111.65 147.856 110.469 147.549 109.305 147.198C108.607 147.004 107.92 146.799 107.223 146.588L105.371 146.016C105.836 144.321 106.276 142.623 106.691 140.921C106.745 140.667 106.809 140.413 106.858 140.171C107.013 139.528 107.153 138.891 107.287 138.254C108.146 138.535 109.01 138.794 109.879 139.064C111.489 139.543 113.113 139.992 114.752 140.413C114.612 141.039 114.467 141.666 114.322 142.297C113.936 143.9 113.544 145.487 113.126 147.079H113.142ZM117.972 120.826C117.322 126.699 116.415 132.549 115.219 138.33C115.09 138.967 114.95 139.593 114.816 140.23C113.206 139.825 111.559 139.382 109.949 138.913C109.074 138.648 108.21 138.373 107.351 138.103C107.485 137.461 107.625 136.824 107.748 136.182C108.725 131.438 109.493 126.65 110.088 121.846L112.235 120.454C114.324 119.094 116.385 117.698 118.417 116.265C118.251 117.793 118.106 119.315 117.956 120.826H117.972ZM118.508 115.288C116.473 116.728 114.415 118.145 112.337 119.542L110.19 120.956C110.577 117.692 110.886 114.419 111.119 111.138C111.816 110.668 112.514 110.193 113.201 109.713C115.208 108.313 117.188 106.874 119.142 105.395C118.981 108.709 118.764 112.007 118.492 115.288H118.508ZM113.222 109.427C112.535 109.918 111.838 110.398 111.14 110.879C111.537 105.319 111.734 99.7421 111.73 94.1468C111.73 88.6738 111.552 83.1973 111.194 77.7171C111.875 78.1813 112.557 78.6509 113.228 79.1258C115.219 80.5238 117.177 81.9649 119.131 83.4438C119.292 87.0204 119.376 90.5953 119.383 94.1684C119.383 97.7991 119.31 101.428 119.163 105.055C117.185 106.541 115.194 107.998 113.19 109.427H113.222ZM136.518 100.91C132.826 104.251 128.973 107.424 125.034 110.469C123.123 111.937 121.186 113.376 119.222 114.786C119.515 111.476 119.744 108.166 119.909 104.855C123.751 101.941 127.483 98.8821 131.103 95.6797C131.547 95.2911 131.987 94.8971 132.424 94.4977C133.073 95.0914 133.733 95.6743 134.377 96.2842C135.547 97.4069 136.706 98.5619 137.838 99.7277C137.371 100.116 136.931 100.521 136.486 100.91H136.518ZM139.529 98.1355L138.219 99.3661C137.071 98.1859 135.908 97.0272 134.731 95.8902C134.109 95.2857 133.459 94.7189 132.821 94.1198L134.162 92.9108L134.699 92.4143C135.906 91.2646 137.076 90.0988 138.246 88.9113L138.504 89.1542C138.772 89.3971 139.04 89.6616 139.314 89.9152L139.556 90.1311C140.929 91.4373 142.276 92.7543 143.597 94.1036C142.244 95.4746 140.878 96.8185 139.497 98.1355H139.529ZM163.195 60.1108C163.136 60.6505 163.12 61.1902 163.039 61.73C162.879 62.8213 162.657 63.9025 162.374 64.9684C161.825 67.1055 161.094 69.1912 160.19 71.2024C158.319 75.2304 156.034 79.0509 153.374 82.6018C150.741 86.1699 147.89 89.5696 144.836 92.7813C144.563 93.0727 144.3 93.3588 144.004 93.6503C142.688 92.2901 141.348 90.9551 139.985 89.6454C139.556 89.2298 139.132 88.8196 138.692 88.4148C142.886 84.1708 146.66 79.527 149.961 74.5488C152.157 71.256 153.874 67.6647 155.059 63.8836C155.615 61.9546 155.888 59.9545 155.87 57.9464C155.845 55.9067 155.315 53.9053 154.33 52.1226C153.298 50.3667 151.844 48.9003 150.101 47.8587C148.385 46.8335 146.53 46.0644 144.595 45.5755C140.74 44.6995 136.781 44.3814 132.837 44.631C126.905 44.9953 121.023 45.9371 115.272 47.4431C115.149 46.9033 115.025 46.3636 114.907 45.8562C114.532 44.237 114.135 42.6717 113.705 41.0849L113.464 40.2483L115.809 39.6762C117.956 39.2228 120.129 38.7262 122.308 38.3916C126.66 37.6213 131.069 37.2097 135.488 37.161C137.692 37.1706 139.893 37.3185 142.078 37.6036C144.267 37.8692 146.424 38.3538 148.518 39.0501C152.677 40.3832 156.567 42.7851 159.251 46.2502C161.906 49.7529 163.308 54.0551 163.227 58.4592C163.227 58.7344 163.227 58.9989 163.227 59.2796L163.195 60.1108Z" fill="white"/>
<path d="M108.73 140.781C108.253 142.783 107.743 144.704 107.206 146.583C107.198 146.625 107.187 146.666 107.174 146.707C106.986 147.349 106.82 148.008 106.638 148.645C100.863 167.811 92.03 179.858 81.9517 179.858C71.8734 179.858 63.0563 167.811 57.2658 148.645C57.078 148.035 56.9117 147.398 56.7292 146.777L56.6594 146.513C57.1961 146.34 57.7971 146.178 58.366 145.973L58.8543 145.822C59.4178 145.644 59.9759 145.439 60.534 145.25C60.5662 145.347 60.5931 145.455 60.6253 145.552C60.797 146.178 60.9741 146.788 61.1619 147.398C66.2762 164.67 73.7678 175.767 81.941 175.767C90.1141 175.767 97.6058 164.659 102.72 147.398C102.908 146.766 103.096 146.129 103.257 145.476C103.257 145.439 103.284 145.39 103.3 145.347C103.836 143.468 104.308 141.52 104.781 139.518C105.409 139.723 106.026 139.912 106.648 140.106L106.809 140.16C107.464 140.381 108.108 140.592 108.73 140.781Z" fill="white"/>
<path d="M133.143 143.436C133.258 144.087 133.423 144.727 133.636 145.352C129.74 145.207 125.86 144.769 122.029 144.041C120.242 143.706 118.401 143.317 116.539 142.875C115.959 142.74 115.358 142.573 114.768 142.421C114.612 142.389 114.478 142.346 114.322 142.308C112.492 141.844 110.636 141.347 108.752 140.775C108.13 140.586 107.486 140.376 106.863 140.182C106.809 140.182 106.761 140.138 106.702 140.122L104.834 139.539C102.309 138.697 99.747 137.78 97.1497 136.787C95.2875 136.069 93.4199 135.318 91.5309 134.53L89.4165 133.613L88.837 133.354C86.5723 132.361 84.3076 131.33 82.0215 130.229C81.2702 129.872 80.5243 129.489 79.7729 129.122L79.6602 129.063H79.6334C78.8982 128.685 78.1523 128.34 77.4063 127.956C74.3975 126.413 71.3833 124.793 68.3638 123.099C67.6447 122.694 66.9148 122.284 66.2172 121.863C65.5195 121.442 64.8165 121.037 64.1135 120.621C61.1262 118.851 58.2086 117.034 55.3608 115.17C54.7383 114.754 54.1372 114.339 53.5254 113.923H53.4986L52.8868 113.518C52.275 113.097 51.6472 112.687 51.0407 112.272C48.9317 110.814 46.8871 109.335 44.88 107.846L44.5312 107.592C43.8872 107.112 43.2218 106.631 42.5885 106.145C40.9464 104.893 39.3686 103.63 37.807 102.367C35.6604 100.615 33.5925 98.8428 31.6033 97.0508C31.1686 96.6622 30.7447 96.2628 30.3153 95.8634C30.1812 95.7393 30.0524 95.6205 29.9182 95.5072C29.4835 95.097 29.0381 94.6976 28.6195 94.2928C27.1545 92.911 25.7753 91.5239 24.439 90.1422L24.0419 89.7643C23.6072 89.311 23.1618 88.863 22.7325 88.4042C21.4231 86.9955 20.1566 85.5975 18.9759 84.1996C7.58825 70.7061 3.7512 59.0315 8.16783 51.3186C12.5845 43.6057 24.5732 41.1175 41.8855 44.302C43.6779 44.6258 45.5133 45.0252 47.3754 45.4624C47.9604 45.6028 48.54 45.7593 49.1249 45.905C49.2859 45.9536 49.4523 45.9914 49.6186 46.0346C51.4379 46.4987 53.2947 46.9953 55.1729 47.562C55.7096 47.7186 56.2462 47.8967 56.7507 48.0586L57.5127 48.3069C57.3893 48.8466 57.2659 49.3864 57.1478 49.8991L56.9761 50.6709C56.8634 51.2107 56.7561 51.7504 56.6434 52.2902L55.8974 52.0527C55.3608 51.88 54.8241 51.7018 54.2875 51.5399C52.4038 50.9678 50.5578 50.4604 48.7331 50.0017L48.2448 49.8775C47.6545 49.7318 47.0642 49.5699 46.4792 49.4295C44.6761 48.9977 42.8944 48.6199 41.1503 48.3015C36.9667 47.4898 32.719 47.058 28.4585 47.0115C19.9741 47.0115 14.0763 49.1705 11.6721 53.3534C8.22149 59.3823 11.9995 69.6536 22.0563 81.5657C23.2047 82.9204 24.4283 84.2644 25.7055 85.6461C26.1295 86.1049 26.5803 86.5583 27.0203 87.0063L27.2511 87.2491C28.5981 88.6417 29.9719 90.0288 31.4369 91.4106C31.877 91.8208 32.3224 92.2148 32.7678 92.625L33.165 92.992C33.5943 93.386 34.0075 93.7746 34.4368 94.1578C36.451 95.9426 38.5314 97.7165 40.678 99.4797C41.2147 99.8953 41.6977 100.311 42.2236 100.726C42.8461 101.223 43.4686 101.709 44.1126 102.205C44.2414 102.303 44.3648 102.394 44.4829 102.491C46.447 103.997 48.4648 105.498 50.547 106.971C51.1373 107.392 51.7545 107.808 52.3502 108.223L52.9888 108.661C53.5845 109.076 54.1801 109.497 54.7865 109.913C57.57 111.798 60.4321 113.642 63.3729 115.445C64.9185 116.392 66.4837 117.325 68.0686 118.246C69.6786 119.175 71.2885 120.065 72.8985 120.945C75.9091 122.597 78.9304 124.184 81.9303 125.657C82.6762 126.024 83.4222 126.37 84.1627 126.737L84.2754 126.785C85.0267 127.152 85.7888 127.519 86.5401 127.865C88.8209 128.944 91.0801 129.899 93.3341 130.844C93.5434 130.936 93.758 131.017 93.9673 131.114C94.665 131.405 95.3733 131.708 96.071 131.983C96.672 132.226 97.2677 132.452 97.8688 132.684C100.477 133.699 103.042 134.628 105.586 135.475C106.208 135.68 106.82 135.864 107.443 136.069C107.49 136.076 107.537 136.088 107.582 136.106C108.221 136.312 108.849 136.522 109.482 136.716C111.36 137.288 113.206 137.796 115.036 138.255L115.498 138.379C116.088 138.514 116.689 138.676 117.269 138.816C119.077 139.248 120.859 139.631 122.598 139.949C125.965 140.586 129.372 140.994 132.794 141.169C132.792 141.802 132.838 142.433 132.933 143.058C133.013 143.178 133.083 143.305 133.143 143.436Z" fill="white"/>
<path d="M144.938 84.1997C143.758 85.603 142.502 87.0009 141.182 88.4043L139.974 89.6565C139.819 89.8184 139.658 89.9803 139.507 90.1422C139.067 89.7266 138.638 89.311 138.203 88.9062L137.854 88.5878C137.414 88.183 136.964 87.789 136.518 87.3896C136.679 87.2222 136.84 87.0495 137.001 86.8876C137.409 86.472 137.822 86.0564 138.203 85.6408C139.47 84.2807 140.693 82.9421 141.842 81.5712C151.899 69.6591 155.687 59.3824 152.231 53.3589C149.736 49.041 143.827 46.9684 135.649 46.9684C130.406 46.9684 124.229 47.8158 117.403 49.4404L115.793 49.8668L115.015 50.0611C113.238 50.5253 111.451 51.0164 109.616 51.5778C109.026 51.7559 108.414 51.961 107.818 52.1175L107.437 52.2417C106.852 52.436 106.273 52.6087 105.682 52.7814C103.178 53.6306 100.609 54.5607 97.976 55.5719C97.3804 55.7931 96.8008 56.0306 96.2105 56.2573C95.6201 56.484 94.8957 56.7971 94.241 57.0723C93.9243 57.2127 93.6023 57.3422 93.2857 57.4717C91.0855 58.4001 88.8637 59.35 86.6259 60.3863C85.9766 60.6886 85.3272 61.007 84.6832 61.3147L83.8783 61.6871C83.2397 62.0002 82.6064 62.2916 81.9678 62.5993C78.9679 64.0728 75.9359 65.6434 72.9091 67.3058C71.2992 68.1856 69.6893 69.0816 68.1169 70.0045C66.5445 70.9275 64.9667 71.8666 63.4212 72.8112C60.4768 74.6103 57.6147 76.4544 54.8348 78.3435C54.2445 78.7483 53.6703 79.1531 53.0853 79.5633L52.3555 80.0653C51.7652 80.4755 51.1641 80.8803 50.5846 81.2959C48.5131 82.764 46.5024 84.2519 44.5526 85.7595C44.4077 85.8729 44.2521 85.9808 44.1179 86.0942C43.4847 86.5799 42.8622 87.0711 42.245 87.5569C41.7084 87.9725 41.2093 88.3881 40.6995 88.8037C38.5314 90.5632 36.451 92.3336 34.4582 94.1147C34.0128 94.5195 33.5835 94.9243 33.1381 95.3237L32.8483 95.5936C32.3868 96.0254 31.9092 96.4464 31.453 96.8728C29.9987 98.2491 28.6302 99.6255 27.294 101.002C27.1974 101.104 27.0901 101.212 26.9935 101.32C26.5641 101.757 26.1294 102.195 25.7216 102.637C24.4444 103.997 23.2208 105.336 22.0724 106.718C12.0048 118.684 8.22684 128.955 11.699 134.984C15.1711 141.013 25.9041 142.848 41.1771 140.036C42.9212 139.717 44.7029 139.34 46.506 138.908C47.1393 138.757 47.7832 138.579 48.4272 138.417L48.6258 138.368C50.5041 137.898 52.3823 137.386 54.325 136.797C54.8938 136.625 55.4734 136.43 56.053 136.258L56.5896 136.096C56.7184 136.738 56.8419 137.386 56.9814 138.017L57.0136 138.179C57.1478 138.816 57.3034 139.458 57.4483 140.095L56.9385 140.257C56.3696 140.435 55.7954 140.624 55.2319 140.797C53.2946 141.38 51.4003 141.876 49.522 142.368L49.3395 142.416C48.6955 142.567 48.0516 142.751 47.4183 142.896C45.5561 143.334 43.7208 143.728 41.9284 144.057C37.5182 144.909 33.0404 145.359 28.5497 145.401C18.4393 145.401 11.377 142.551 8.21074 137.035C3.79411 129.322 7.63115 117.637 19.0188 104.148C20.1995 102.756 21.466 101.347 22.7754 99.9493C23.1886 99.5067 23.6287 99.0695 24.0473 98.6269L24.3531 98.3085C25.684 96.9322 27.0364 95.5558 28.5014 94.1849C28.9361 93.7693 29.3976 93.3537 29.8431 92.9381L30.1597 92.652C30.6051 92.2418 31.0344 91.837 31.4852 91.4322C33.4708 89.6331 35.5387 87.8609 37.6889 86.1158C39.2398 84.842 40.8283 83.5736 42.4704 82.3376C43.0929 81.8626 43.7423 81.393 44.3755 80.9181C44.5258 80.8047 44.6814 80.6968 44.8263 80.5834C46.828 79.1045 48.8619 77.6364 50.9495 76.1899C51.5398 75.7797 52.1516 75.3803 52.7526 74.9755C53.0048 74.8028 53.2571 74.6409 53.5039 74.4682C54.105 74.0742 54.6899 73.6639 55.2856 73.2645C58.1477 71.4006 61.0653 69.5835 64.0383 67.8132C64.7414 67.3976 65.4283 66.982 66.142 66.5664C66.8557 66.1508 67.591 65.7406 68.2886 65.3358C71.3207 63.6194 74.3366 61.9786 77.3258 60.4511C77.9644 60.1327 78.5976 59.8304 79.2255 59.512L80.0466 59.1072L81.9624 58.1518C84.2056 57.0723 86.4166 56.0684 88.6169 55.1023C88.9442 54.9619 89.2555 54.8216 89.5828 54.6867C90.2268 54.4006 90.8869 54.1092 91.5255 53.8393C93.4199 53.0405 95.2821 52.2848 97.1442 51.567C99.747 50.5685 102.318 49.6563 104.834 48.8251C105.414 48.6308 105.999 48.4581 106.579 48.2854L106.986 48.1558C107.577 47.9777 108.167 47.7726 108.752 47.6161C110.587 47.0763 112.385 46.5744 114.156 46.121L114.934 45.9267C115.471 45.7864 116.007 45.6406 116.544 45.5111C135.928 40.9611 150.718 42.6289 155.752 51.3889C160.174 59.0316 156.331 70.7116 144.938 84.1997Z" fill="white"/>
<path d="M70.886 17.1582C71.1676 17.6034 71.474 18.0322 71.8037 18.4427C67.6983 23.3706 64.0437 31.159 61.1566 40.9121C60.9956 41.4519 60.8399 41.9916 60.6843 42.5314C60.6199 42.7634 60.5502 43.0009 60.4858 43.2384L59.611 42.947C59.3856 42.866 59.1656 42.7904 58.9402 42.7203L58.1674 42.4774L57.0619 42.1427L56.6058 42.0132C56.6702 41.7757 56.7346 41.549 56.8097 41.3115C56.96 40.7718 57.1102 40.2321 57.2712 39.6923C60.5394 28.8327 64.7843 20.2617 69.6947 14.8643C69.9063 15.3968 70.15 15.9159 70.4245 16.4187C70.5855 16.6778 70.7304 16.8991 70.886 17.1582Z" fill="white"/>
<path d="M113.662 94.163C113.662 94.9996 113.662 95.8416 113.662 96.6728C113.63 100.17 113.523 103.609 113.34 106.987C113.297 107.802 113.233 108.607 113.185 109.395V109.427C113.179 109.515 113.179 109.603 113.185 109.691C113.126 110.517 113.077 111.343 113.024 112.158C112.825 114.657 112.584 117.091 112.315 119.504C112.283 119.795 112.246 120.098 112.213 120.4C112.133 121.123 112.052 121.879 111.961 122.607C111.704 124.664 111.424 126.693 111.097 128.679C110.654 131.447 110.162 134.133 109.621 136.738C108.988 136.543 108.36 136.333 107.722 136.128C107.677 136.11 107.63 136.097 107.582 136.09C106.96 135.885 106.348 135.701 105.725 135.496C106.262 132.884 106.745 130.18 107.18 127.4L107.469 125.463C107.577 124.734 107.668 123.989 107.765 123.255C107.802 122.98 107.834 122.715 107.877 122.408C108.183 120.006 108.473 117.55 108.709 115.073C108.784 114.247 108.838 113.41 108.913 112.579C108.913 112.498 108.913 112.433 108.913 112.347C108.977 111.532 109.058 110.728 109.117 109.918C109.348 106.566 109.503 103.144 109.595 99.663C109.632 97.8279 109.659 95.9874 109.659 94.1253C109.659 92.2632 109.632 90.4604 109.595 88.6469C109.509 85.1602 109.349 81.7418 109.117 78.3918C109.069 77.6578 108.993 76.9345 108.934 76.2329C108.934 75.9738 108.897 75.6931 108.87 75.4556C108.806 74.7162 108.757 73.9606 108.693 73.2265C108.457 70.7599 108.156 68.3688 107.866 65.9832C107.829 65.6324 107.781 65.2923 107.732 64.9415C107.636 64.2452 107.55 63.5382 107.453 62.8527C107.357 62.1672 107.271 61.6005 107.174 60.969C106.734 58.1839 106.251 55.4744 105.709 52.8729C105.591 52.3332 105.473 51.7934 105.36 51.2537L105.189 50.4764C105.065 49.9367 104.952 49.397 104.834 48.8572C104.38 46.9321 103.902 45.0628 103.402 43.2493C103.353 43.0658 103.3 42.8931 103.246 42.7096C103.085 42.1213 102.913 41.5383 102.741 40.9554C99.8543 31.2401 96.2105 23.4516 92.1158 18.5346C92.4596 18.1097 92.7802 17.6665 93.0764 17.2068C93.2052 16.9963 93.3394 16.7858 93.4575 16.5645C93.7519 16.045 94.0067 15.5037 94.2195 14.9453C99.1191 20.3427 103.369 28.8922 106.638 39.7302C106.809 40.2699 106.96 40.8852 107.131 41.4682C107.19 41.6463 107.239 41.8352 107.292 42.0079C107.802 43.816 108.29 45.662 108.752 47.5942C108.87 48.134 108.983 48.6737 109.106 49.2134L109.278 49.9907C109.396 50.5304 109.519 51.0702 109.643 51.6099C110.179 54.2168 110.668 56.9101 111.113 59.706C111.432 61.6743 111.718 63.6821 111.972 65.7295C112.063 66.4312 112.133 67.1544 112.213 67.8615C112.256 68.2069 112.294 68.5524 112.337 68.9086C112.594 71.2834 112.836 73.6961 113.024 76.1681C113.083 76.9075 113.12 77.6686 113.179 78.4188C113.179 78.6725 113.212 78.9262 113.228 79.1691C113.265 79.9085 113.324 80.6318 113.367 81.382C113.55 84.7716 113.657 88.2241 113.689 91.7396C113.662 92.533 113.662 93.348 113.662 94.163Z" fill="white"/>
<path d="M91.8905 9.99076C91.8921 10.7893 91.7966 11.585 91.6061 12.3602C91.4742 12.9337 91.2854 13.4925 91.0426 14.028C90.948 14.2642 90.8368 14.4932 90.7099 14.7135C90.4581 15.1904 90.1674 15.6453 89.8405 16.0736C88.9124 17.2895 87.7187 18.2744 86.3518 18.9521C84.9848 19.6299 83.4812 19.9824 81.9571 19.9824C80.4331 19.9824 78.9294 19.6299 77.5625 18.9521C76.1955 18.2744 75.0018 17.2895 74.0737 16.0736C73.7554 15.6522 73.4701 15.2064 73.2205 14.7405C73.0863 14.4922 72.9629 14.2331 72.8502 13.9741C72.6232 13.4516 72.4436 12.9097 72.3135 12.3548C71.996 11.0522 71.9436 9.69837 72.1594 8.37481C72.3752 7.05125 72.8548 5.78521 73.5693 4.65273C73.7906 4.28991 74.04 3.9452 74.3152 3.62182C75.2463 2.49119 76.4139 1.58109 77.7348 0.956397C79.0558 0.331705 80.4974 0.0078125 81.9571 0.0078125C83.4168 0.0078125 84.8585 0.331705 86.1794 0.956397C87.5003 1.58109 88.6679 2.49119 89.599 3.62182C89.889 3.96346 90.1561 4.32408 90.3986 4.70131C91.3769 6.28989 91.8937 8.12214 91.8905 9.99076Z" fill="white"/>
<path d="M91.9441 78.554C89.8087 78.3369 87.6749 78.9812 86.0115 80.3454C84.3482 81.7097 83.2914 83.6823 83.0733 85.8298L82.8103 88.3773L77.256 87.8106C75.8013 87.6597 74.3313 87.7986 72.93 88.2194C71.5288 88.6402 70.2237 89.3346 69.0893 90.2629C67.955 91.1912 67.0137 92.3353 66.3192 93.6297C65.6247 94.9241 65.1907 96.3434 65.0419 97.8066C64.7419 100.761 65.621 103.714 67.4858 106.017C69.3506 108.32 72.0485 109.783 74.986 110.086C77.9235 110.387 80.86 109.503 83.1495 107.628C85.439 105.752 86.8941 103.039 87.1947 100.084L87.7636 94.498L90.2966 94.7625C92.3851 94.8942 94.4432 94.2078 96.0396 92.847C97.636 91.4861 98.6466 89.5566 98.8596 87.4629C99.0726 85.3692 98.4715 83.2738 97.1823 81.616C95.8931 79.9581 94.0158 78.8666 91.9441 78.5702V78.554Z" fill="white"/>
</g>
<defs>
<clipPath id="clip0_184:3713">
<rect width="164" height="186" fill="white"/>
</clipPath>
</defs>
</svg>
