<svg width="226" height="226" viewBox="0 0 226 226" fill="none" xmlns="http://www.w3.org/2000/svg">
<path d="M46.5826 129.925L47.2461 130.096L46.5826 130.246C44.6936 130.714 42.9682 131.689 41.592 133.065C40.2158 134.441 39.2412 136.167 38.773 138.056L38.623 138.719L38.4519 138.056C37.9854 136.169 37.0139 134.446 35.6418 133.07C34.2696 131.694 32.5485 130.718 30.6634 130.246L30 130.096L30.6634 129.925C32.5459 129.455 34.2651 128.482 35.6371 127.11C37.009 125.738 37.982 124.019 38.4519 122.136L38.623 121.473L38.773 122.136C39.2447 124.021 40.2208 125.742 41.5967 127.115C42.9727 128.487 44.6963 129.458 46.5826 129.925Z" fill="#F9AD48"/>
<path d="M50.712 147.811L51.2041 147.94L50.712 148.068C49.2599 148.433 47.9339 149.185 46.8751 150.244C45.8163 151.302 45.0646 152.628 44.6996 154.081L44.5711 154.573L44.4426 154.081C44.0794 152.631 43.3308 151.307 42.276 150.248C41.2212 149.19 39.8998 148.436 38.4516 148.068L37.9381 147.94L38.4516 147.811C39.8992 147.449 41.2213 146.7 42.2765 145.645C43.3317 144.59 44.0803 143.268 44.4426 141.82L44.5711 141.307L44.6996 141.82C45.0616 143.271 45.8127 144.596 46.8722 145.652C47.9318 146.708 49.2594 147.454 50.712 147.811Z" fill="#F9AD48"/>
<path d="M191.525 102.135L192.231 102.306L191.525 102.477C189.5 102.987 187.65 104.036 186.173 105.512C184.696 106.989 183.647 108.839 183.138 110.865L182.967 111.571L182.774 110.865C182.264 108.839 181.215 106.989 179.739 105.512C178.262 104.036 176.412 102.987 174.386 102.477L173.68 102.306L174.386 102.135C176.412 101.625 178.262 100.576 179.739 99.0994C181.215 97.6224 182.264 95.7727 182.774 93.747L182.967 93.041L183.138 93.747C183.647 95.7727 184.696 97.6224 186.173 99.0994C187.65 100.576 189.5 101.625 191.525 102.135Z" fill="#03045E"/>
<path d="M196.147 82.1264L196.682 82.2546L196.147 82.3831C194.595 82.7681 193.176 83.5693 192.045 84.7004C190.914 85.8315 190.113 87.2496 189.728 88.8022L189.6 89.3371L189.471 88.8022C189.082 87.2517 188.279 85.8358 187.149 84.7054C186.019 83.575 184.603 82.7724 183.052 82.3831L182.517 82.2546L183.052 82.1264C184.605 81.7414 186.023 80.9402 187.154 79.8091C188.285 78.678 189.086 77.2599 189.471 75.7073L189.6 75.1724L189.728 75.7073C190.111 77.2609 190.911 78.6802 192.043 79.8117C193.174 80.9431 194.594 81.7435 196.147 82.1264Z" fill="#03045E"/>
<path d="M72.7731 166.326C72.7899 168.098 73.5045 169.793 74.7621 171.043C76.0196 172.292 77.7187 172.996 79.4915 173.002H90.0189C91.7934 173.002 93.4958 172.3 94.7546 171.049C96.0133 169.798 96.7262 168.1 96.7375 166.326H72.7731Z" fill="#03045E"/>
<path d="M128.191 166.326C128.202 168.1 128.915 169.798 130.174 171.049C131.433 172.3 133.135 173.002 134.909 173.002H145.415C147.19 172.996 148.892 172.293 150.153 171.044C151.414 169.795 152.133 168.1 152.156 166.326H128.191Z" fill="#03045E"/>
<path fill-rule="evenodd" clip-rule="evenodd" d="M64.0644 166.324H160.843C162.3 166.327 163.744 166.042 165.091 165.486C166.438 164.931 167.662 164.115 168.694 163.085C169.725 162.056 170.544 160.833 171.102 159.487C171.66 158.141 171.948 156.698 171.948 155.24V63.1051C171.948 61.6468 171.66 60.2029 171.102 58.8555C170.544 57.5082 169.726 56.2838 168.695 55.2526C167.664 54.2214 166.44 53.4036 165.093 52.8455C163.745 52.2874 162.301 52 160.843 52H64.0644C62.6071 52 61.1641 52.2874 59.818 52.8457C58.4718 53.4041 57.249 54.2225 56.2195 55.2539C55.19 56.2854 54.3741 57.5099 53.8184 58.8571C53.2626 60.2043 52.9782 61.6478 52.981 63.1051V155.24C52.981 158.18 54.1485 160.999 56.2271 163.078C58.3057 165.156 61.1249 166.324 64.0644 166.324ZM158.777 141.624C159.359 142.206 160.148 142.533 160.971 142.533H161.998V147.133C161.998 149.581 161.027 151.929 159.298 153.662C157.569 155.395 155.223 156.371 152.775 156.377H72.152C69.7022 156.371 67.3544 155.396 65.6221 153.663C63.8899 151.931 62.914 149.583 62.9083 147.133V71.11C62.914 68.6622 63.8906 66.3167 65.6234 64.5878C67.3563 62.8589 69.7041 61.8881 72.152 61.8881H152.775C155.221 61.8881 157.567 62.8596 159.297 64.5891C161.026 66.3186 161.998 68.6642 161.998 71.11V75.8387H160.971C160.564 75.8359 160.161 75.9137 159.785 76.0672C159.409 76.2208 159.066 76.4471 158.778 76.7335C158.49 77.0199 158.261 77.3608 158.105 77.736C157.948 78.1112 157.868 78.5136 157.868 78.92V91.7581C157.874 92.5773 158.203 93.3608 158.784 93.9381C159.365 94.5153 160.152 94.8392 160.971 94.8392H161.998V123.511H160.971C160.564 123.508 160.161 123.586 159.785 123.739C159.409 123.893 159.066 124.12 158.778 124.406C158.49 124.692 158.261 125.033 158.105 125.408C157.948 125.783 157.868 126.186 157.868 126.592V139.431C157.868 140.253 158.195 141.043 158.777 141.624Z" fill="#0077B6"/>
<path opacity="0.43" d="M160.971 142.533C160.148 142.533 159.359 142.206 158.777 141.624C158.195 141.043 157.868 140.254 157.868 139.431V126.593C157.868 126.186 157.948 125.783 158.105 125.408C158.261 125.033 158.49 124.692 158.778 124.406C159.066 124.12 159.409 123.893 159.785 123.739C160.161 123.586 160.564 123.508 160.971 123.511H161.998V94.8393H160.971C160.152 94.8393 159.365 94.5154 158.784 93.9381C158.203 93.3609 157.874 92.5774 157.868 91.7582V78.9201C157.868 78.5136 157.948 78.1113 158.105 77.7361C158.261 77.3609 158.49 77.02 158.778 76.7336C159.066 76.4472 159.409 76.2209 159.785 76.0673C160.161 75.9137 160.564 75.8359 160.971 75.8388H161.998V71.1101C161.998 68.6643 161.026 66.3187 159.297 64.5892C157.567 62.8597 155.221 61.8882 152.775 61.8882H72.1519C69.7041 61.8882 67.3563 62.859 65.6234 64.5879C63.8906 66.3167 62.914 68.6623 62.9083 71.1101V147.134C62.914 149.583 63.8899 151.931 65.6221 153.663C67.3544 155.396 69.7022 156.371 72.1519 156.377H152.775C155.223 156.371 157.569 155.395 159.298 153.662C161.027 151.929 161.998 149.581 161.998 147.134V142.533H160.971Z" fill="#0197C8"/>
<path d="M149.93 118.419L146.399 116.279C147.097 113.939 147.451 111.51 147.448 109.068C147.452 106.619 147.099 104.183 146.399 101.836L149.93 99.6962C150.138 99.5786 150.321 99.4207 150.468 99.2315C150.614 99.0424 150.722 98.8259 150.783 98.5947C150.845 98.3635 150.86 98.1224 150.828 97.8853C150.795 97.6483 150.715 97.4199 150.593 97.2141L146.549 90.2175C146.432 90.009 146.274 89.826 146.085 89.6794C145.895 89.5329 145.679 89.4257 145.448 89.3639C145.216 89.3021 144.975 89.2871 144.738 89.3198C144.501 89.3524 144.273 89.432 144.067 89.5541L140.537 91.6937C137.163 88.1191 132.821 85.6058 128.041 84.4616V80.4818C128.035 79.9975 127.839 79.5348 127.494 79.1944C127.15 78.8539 126.685 78.6631 126.201 78.6631H118.134C117.652 78.6631 117.189 78.8546 116.848 79.1957C116.507 79.5367 116.315 79.9994 116.315 80.4818V84.5472C111.527 85.6853 107.176 88.1992 103.798 91.7794L100.268 89.6397C100.062 89.5177 99.8337 89.4378 99.5967 89.4052C99.3596 89.3725 99.1182 89.3875 98.887 89.4493C98.6558 89.5111 98.4394 89.6185 98.2502 89.7651C98.0611 89.9117 97.9031 90.0945 97.7856 90.3029L93.7415 97.2997C93.5065 97.7182 93.4444 98.212 93.5683 98.6757C93.6922 99.1394 93.9925 99.5364 94.4049 99.7819L97.9352 101.922C97.2354 104.268 96.8822 106.705 96.8868 109.154C96.884 111.595 97.2371 114.025 97.9352 116.364L94.4049 118.504C93.991 118.754 93.6903 119.154 93.5665 119.622C93.4427 120.089 93.5054 120.586 93.7415 121.007L97.7856 128.004C97.9031 128.213 98.0611 128.396 98.2502 128.542C98.4394 128.689 98.6558 128.796 98.887 128.858C99.1182 128.92 99.3596 128.935 99.5967 128.902C99.8337 128.869 100.062 128.79 100.268 128.668L103.798 126.528C107.178 130.101 111.529 132.608 116.315 133.739V137.804C116.313 138.045 116.357 138.284 116.448 138.507C116.538 138.73 116.671 138.933 116.84 139.104C117.01 139.275 117.211 139.411 117.433 139.504C117.655 139.597 117.893 139.644 118.134 139.644H126.201C126.689 139.644 127.157 139.45 127.502 139.105C127.847 138.76 128.041 138.292 128.041 137.804V133.739C132.819 132.603 137.162 130.097 140.537 126.528L144.067 128.668C144.273 128.79 144.501 128.869 144.738 128.902C144.975 128.935 145.216 128.92 145.448 128.858C145.679 128.796 145.895 128.689 146.085 128.542C146.274 128.396 146.432 128.213 146.549 128.004L150.593 121.007C150.716 120.8 150.796 120.57 150.829 120.332C150.862 120.093 150.847 119.85 150.785 119.617C150.723 119.384 150.616 119.166 150.469 118.975C150.322 118.784 150.139 118.624 149.93 118.504V118.419Z" fill="#0077B6"/>
<path d="M143.682 109.175C143.682 114.884 141.414 120.359 137.377 124.396C133.341 128.433 127.866 130.701 122.157 130.701C116.47 130.667 111.028 128.384 107.019 124.351C103.01 120.318 100.76 114.862 100.76 109.175C100.754 103.487 103.002 98.0278 107.013 93.9935C111.023 89.9592 116.468 87.6782 122.157 87.6499C124.984 87.6471 127.785 88.2019 130.397 89.2826C133.01 90.3634 135.384 91.949 137.384 93.9483C139.383 95.9477 140.968 98.3216 142.049 100.934C143.13 103.547 143.685 106.348 143.682 109.175Z" fill="#F9AD48"/>
<path d="M138.333 109.169C138.333 111.292 137.914 113.394 137.101 115.356C136.288 117.317 135.096 119.099 133.594 120.6C132.091 122.1 130.308 123.289 128.346 124.1C126.383 124.911 124.28 125.326 122.157 125.324C117.876 125.318 113.773 123.613 110.748 120.584C107.723 117.555 106.023 113.45 106.023 109.169C106.023 104.888 107.723 100.782 110.748 97.7533C113.773 94.7243 117.876 93.0198 122.157 93.0142C124.28 93.0114 126.383 93.4273 128.346 94.2379C130.308 95.0485 132.091 96.2377 133.594 97.7381C135.096 99.2385 136.288 101.02 137.101 102.982C137.914 104.943 138.333 107.046 138.333 109.169Z" fill="#FFE37B"/>
<path opacity="0.7" d="M163.389 94.838H160.971C160.152 94.838 159.366 94.5141 158.784 93.9369C158.203 93.3596 157.874 92.5761 157.868 91.7569V78.9188C157.868 78.5123 157.949 78.11 158.105 77.7348C158.261 77.3596 158.49 77.0187 158.778 76.7323C159.066 76.4459 159.409 76.2196 159.785 76.066C160.161 75.9124 160.564 75.8347 160.971 75.8375H163.389C163.794 75.8346 164.196 75.9124 164.571 76.0663C164.946 76.2201 165.287 76.447 165.573 76.7336C165.86 77.0203 166.087 77.3612 166.241 77.7364C166.395 78.1115 166.472 78.5134 166.47 78.9188V91.7569C166.47 92.5741 166.145 93.3577 165.567 93.9355C164.989 94.5134 164.206 94.838 163.389 94.838Z" fill="#35367E"/>
<path opacity="0.7" d="M163.389 142.527H160.971C160.148 142.527 159.359 142.201 158.777 141.619C158.195 141.037 157.868 140.248 157.868 139.425V126.587C157.868 126.18 157.949 125.778 158.105 125.402C158.261 125.027 158.49 124.687 158.778 124.4C159.066 124.114 159.409 123.887 159.785 123.734C160.161 123.58 160.564 123.503 160.971 123.505H163.389C163.794 123.503 164.196 123.58 164.571 123.734C164.946 123.888 165.287 124.115 165.573 124.402C165.86 124.688 166.087 125.029 166.241 125.404C166.395 125.779 166.472 126.181 166.47 126.587V139.425C166.472 139.831 166.395 140.234 166.241 140.61C166.088 140.987 165.861 141.329 165.575 141.617C165.288 141.906 164.948 142.135 164.573 142.291C164.197 142.447 163.795 142.527 163.389 142.527Z" fill="#35367E"/>
<path d="M82.8289 105.576C83.472 106.665 83.8118 107.906 83.813 109.171C83.8121 110.429 83.4722 111.663 82.8289 112.744C86.0384 112.295 89.5261 111.311 89.5261 109.171C89.5261 107.031 86.0384 106.026 82.8289 105.576Z" fill="#0077B6"/>
<path d="M83.8136 109.171C83.8136 111.044 83.0696 112.84 81.7455 114.164C80.4213 115.488 78.6254 116.232 76.7527 116.232C74.8801 116.232 73.084 115.488 71.7598 114.164C70.4356 112.84 69.6917 111.044 69.6917 109.171C69.6916 107.297 70.4349 105.498 71.7585 104.171C73.0821 102.843 74.8781 102.095 76.7527 102.089C78.6274 102.095 80.4232 102.843 81.7468 104.171C83.0703 105.498 83.8136 107.297 83.8136 109.171Z" fill="#0197C8"/>
<path fill-rule="evenodd" clip-rule="evenodd" d="M127.484 103.457C127.456 103.381 127.456 103.298 127.484 103.222C127.453 103.139 127.453 103.048 127.484 102.965C127.56 102.904 127.654 102.871 127.752 102.871C127.849 102.871 127.943 102.904 128.019 102.965C128.05 103.048 128.05 103.139 128.019 103.222C128.035 103.259 128.043 103.299 128.043 103.34C128.043 103.38 128.035 103.42 128.019 103.457C127.943 103.518 127.849 103.551 127.752 103.551C127.654 103.551 127.56 103.518 127.484 103.457Z" fill="#03045E"/>
<path fill-rule="evenodd" clip-rule="evenodd" d="M126.543 104.447C126.516 104.371 126.516 104.287 126.543 104.211C126.548 104.116 126.588 104.027 126.655 103.96C126.723 103.893 126.812 103.853 126.907 103.848C126.99 103.816 127.081 103.816 127.164 103.848C127.181 103.925 127.181 104.005 127.164 104.083C127.189 104.167 127.189 104.256 127.164 104.34C127.08 104.367 126.99 104.367 126.907 104.34C126.867 104.36 126.823 104.371 126.779 104.371C126.734 104.371 126.69 104.36 126.65 104.34" fill="#03045E"/>
<path fill-rule="evenodd" clip-rule="evenodd" d="M125.495 105.43C125.433 105.363 125.399 105.275 125.399 105.184C125.399 105.093 125.433 105.005 125.495 104.938C125.565 104.875 125.657 104.84 125.751 104.84C125.846 104.84 125.938 104.875 126.008 104.938C126.07 105.005 126.104 105.093 126.104 105.184C126.104 105.275 126.07 105.363 126.008 105.43C125.971 105.447 125.931 105.456 125.891 105.456C125.85 105.456 125.81 105.447 125.773 105.43C125.729 105.451 125.682 105.462 125.634 105.462C125.586 105.462 125.538 105.451 125.495 105.43Z" fill="#03045E"/>
<path fill-rule="evenodd" clip-rule="evenodd" d="M124.51 106.43C124.449 106.363 124.415 106.275 124.415 106.184C124.415 106.093 124.449 106.005 124.51 105.938C124.586 105.877 124.681 105.844 124.778 105.844C124.875 105.844 124.969 105.877 125.045 105.938C125.107 106.005 125.141 106.093 125.141 106.184C125.141 106.275 125.107 106.363 125.045 106.43C124.956 106.467 124.856 106.467 124.767 106.43C124.685 106.463 124.593 106.463 124.51 106.43Z" fill="#03045E"/>
<path fill-rule="evenodd" clip-rule="evenodd" d="M123.569 107.442C123.53 107.415 123.499 107.38 123.476 107.339C123.454 107.298 123.442 107.253 123.44 107.206C123.44 107.159 123.45 107.113 123.468 107.07C123.487 107.027 123.514 106.988 123.548 106.956C123.582 106.924 123.622 106.9 123.666 106.884C123.71 106.868 123.757 106.861 123.804 106.864C123.841 106.848 123.881 106.84 123.922 106.84C123.962 106.84 124.002 106.848 124.039 106.864C124.073 106.946 124.073 107.038 124.039 107.121C124.039 107.166 124.03 107.21 124.013 107.252C123.996 107.293 123.971 107.331 123.939 107.363C123.907 107.395 123.87 107.42 123.828 107.437C123.787 107.454 123.742 107.463 123.697 107.463C123.697 107.463 123.526 107.463 123.483 107.356" fill="#03045E"/>
<path fill-rule="evenodd" clip-rule="evenodd" d="M122.414 108.292C122.393 108.253 122.382 108.209 122.382 108.164C122.382 108.119 122.393 108.075 122.414 108.036C122.484 107.973 122.576 107.938 122.67 107.938C122.765 107.938 122.857 107.973 122.927 108.036C122.979 108.103 123.007 108.186 123.007 108.271C123.007 108.356 122.979 108.439 122.927 108.506C122.897 108.542 122.86 108.571 122.817 108.591C122.774 108.611 122.728 108.621 122.681 108.621C122.634 108.621 122.588 108.611 122.545 108.591C122.503 108.571 122.465 108.542 122.435 108.506C122.397 108.48 122.365 108.445 122.343 108.404C122.321 108.363 122.308 108.318 122.307 108.271L122.414 108.292Z" fill="#03045E"/>
<path fill-rule="evenodd" clip-rule="evenodd" d="M120.573 110.434C120.556 110.397 120.547 110.357 120.547 110.316C120.547 110.276 120.556 110.236 120.573 110.199C120.556 110.162 120.547 110.122 120.547 110.081C120.547 110.04 120.556 110 120.573 109.964C120.606 109.927 120.645 109.898 120.689 109.878C120.734 109.858 120.782 109.848 120.83 109.848C120.879 109.848 120.927 109.858 120.971 109.878C121.015 109.898 121.055 109.927 121.087 109.964C121.112 110.04 121.112 110.122 121.087 110.199C121.103 110.236 121.111 110.276 121.111 110.316C121.111 110.357 121.103 110.397 121.087 110.434C121.058 110.475 121.02 110.509 120.975 110.531C120.93 110.554 120.88 110.565 120.83 110.563C120.784 110.561 120.738 110.549 120.697 110.526C120.656 110.504 120.621 110.473 120.595 110.434" fill="#03045E"/>
<path fill-rule="evenodd" clip-rule="evenodd" d="M119.461 111.354C119.445 111.317 119.437 111.277 119.437 111.237C119.437 111.196 119.445 111.156 119.461 111.119C119.433 111.043 119.433 110.959 119.461 110.883C119.536 110.813 119.635 110.773 119.739 110.773C119.842 110.773 119.942 110.813 120.017 110.883C120.033 110.921 120.041 110.961 120.041 111.001C120.041 111.042 120.033 111.082 120.017 111.119C120.033 111.156 120.041 111.196 120.041 111.237C120.041 111.277 120.033 111.317 120.017 111.354C119.982 111.394 119.939 111.425 119.891 111.447C119.843 111.469 119.791 111.481 119.739 111.483C119.637 111.462 119.542 111.418 119.461 111.354Z" fill="#03045E"/>
<path fill-rule="evenodd" clip-rule="evenodd" d="M118.584 112.362C118.522 112.295 118.488 112.207 118.488 112.116C118.488 112.025 118.522 111.937 118.584 111.87C118.616 111.833 118.655 111.804 118.7 111.784C118.744 111.764 118.792 111.754 118.84 111.754C118.889 111.754 118.937 111.764 118.981 111.784C119.026 111.804 119.065 111.833 119.097 111.87C119.159 111.937 119.193 112.025 119.193 112.116C119.193 112.207 119.159 112.295 119.097 112.362C119.013 112.387 118.924 112.387 118.84 112.362C118.758 112.393 118.666 112.393 118.584 112.362Z" fill="#03045E"/>
<path fill-rule="evenodd" clip-rule="evenodd" d="M117.599 113.345C117.563 113.318 117.535 113.282 117.516 113.241C117.498 113.2 117.489 113.155 117.492 113.11C117.491 113.017 117.527 112.928 117.591 112.86C117.654 112.792 117.741 112.752 117.834 112.746C117.93 112.746 118.023 112.785 118.091 112.853C118.121 112.929 118.121 113.013 118.091 113.089C118.107 113.126 118.115 113.166 118.115 113.206C118.115 113.247 118.107 113.287 118.091 113.324C118.022 113.39 117.93 113.429 117.834 113.431C117.8 113.457 117.759 113.471 117.717 113.471C117.674 113.471 117.632 113.457 117.599 113.431" fill="#03045E"/>
<path fill-rule="evenodd" clip-rule="evenodd" d="M116.551 114.344C116.517 114.315 116.489 114.279 116.471 114.239C116.452 114.198 116.443 114.154 116.444 114.109C116.441 114.064 116.45 114.019 116.468 113.978C116.487 113.937 116.515 113.901 116.551 113.873C116.623 113.804 116.719 113.766 116.818 113.766C116.918 113.766 117.014 113.804 117.086 113.873C117.102 113.911 117.11 113.951 117.11 113.991C117.11 114.032 117.102 114.072 117.086 114.109C117.102 114.146 117.11 114.186 117.11 114.227C117.11 114.267 117.102 114.307 117.086 114.344C117.014 114.413 116.918 114.452 116.818 114.452C116.719 114.452 116.623 114.413 116.551 114.344Z" fill="#03045E"/>
<path fill-rule="evenodd" clip-rule="evenodd" d="M115.61 115.337C115.548 115.27 115.514 115.183 115.514 115.091C115.514 115 115.548 114.913 115.61 114.845C115.64 114.809 115.678 114.78 115.72 114.761C115.763 114.741 115.809 114.73 115.856 114.73C115.902 114.73 115.949 114.741 115.991 114.761C116.034 114.78 116.072 114.809 116.102 114.845C116.164 114.913 116.198 115 116.198 115.091C116.198 115.183 116.164 115.27 116.102 115.337C116.072 115.373 116.034 115.402 115.991 115.422C115.949 115.442 115.902 115.452 115.856 115.452C115.809 115.452 115.763 115.442 115.72 115.422C115.678 115.402 115.64 115.373 115.61 115.337Z" fill="#03045E"/>
<path fill-rule="evenodd" clip-rule="evenodd" d="M116.101 103.459C116.131 103.384 116.131 103.299 116.101 103.224C116.101 103.176 116.092 103.129 116.074 103.085C116.056 103.04 116.029 103 115.995 102.967C115.961 102.933 115.921 102.906 115.877 102.888C115.833 102.869 115.785 102.86 115.738 102.86C115.7 102.844 115.66 102.836 115.62 102.836C115.579 102.836 115.54 102.844 115.502 102.86C115.471 102.943 115.471 103.034 115.502 103.117C115.486 103.154 115.478 103.194 115.478 103.235C115.478 103.275 115.486 103.315 115.502 103.352C115.57 103.42 115.663 103.458 115.759 103.458C115.855 103.458 115.948 103.42 116.016 103.352" fill="#03045E"/>
<path fill-rule="evenodd" clip-rule="evenodd" d="M117.085 104.441C117.113 104.365 117.113 104.282 117.085 104.206C117.117 104.123 117.117 104.032 117.085 103.949C117.01 103.888 116.915 103.855 116.818 103.855C116.721 103.855 116.626 103.888 116.551 103.949C116.482 104.017 116.444 104.11 116.443 104.206C116.443 104.251 116.452 104.295 116.47 104.336C116.489 104.377 116.516 104.413 116.551 104.441C116.626 104.502 116.721 104.535 116.818 104.535C116.915 104.535 117.01 104.502 117.085 104.441Z" fill="#03045E"/>
<path fill-rule="evenodd" clip-rule="evenodd" d="M118.091 105.43C118.153 105.363 118.187 105.275 118.187 105.184C118.187 105.093 118.153 105.005 118.091 104.938C118.021 104.875 117.929 104.84 117.835 104.84C117.74 104.84 117.649 104.875 117.578 104.938C117.554 105.022 117.554 105.111 117.578 105.195C117.562 105.232 117.554 105.272 117.554 105.312C117.554 105.353 117.562 105.393 117.578 105.43C117.661 105.461 117.752 105.461 117.835 105.43C117.878 105.453 117.926 105.464 117.974 105.464C118.022 105.464 118.07 105.453 118.113 105.43" fill="#03045E"/>
<path fill-rule="evenodd" clip-rule="evenodd" d="M119.097 106.432C119.16 106.361 119.195 106.27 119.195 106.175C119.195 106.081 119.16 105.989 119.097 105.919C119.026 105.855 118.935 105.82 118.84 105.82C118.745 105.82 118.654 105.855 118.583 105.919C118.52 105.989 118.485 106.081 118.485 106.175C118.485 106.27 118.52 106.361 118.583 106.432C118.62 106.449 118.66 106.458 118.701 106.458C118.742 106.458 118.782 106.449 118.819 106.432C118.91 106.458 119.006 106.458 119.097 106.432Z" fill="#03045E"/>
<path fill-rule="evenodd" clip-rule="evenodd" d="M120.082 107.44C120.109 107.364 120.109 107.281 120.082 107.205C120.113 107.122 120.113 107.031 120.082 106.948C120.01 106.879 119.914 106.84 119.814 106.84C119.714 106.84 119.619 106.879 119.547 106.948C119.526 106.988 119.515 107.032 119.515 107.076C119.515 107.121 119.526 107.165 119.547 107.205C119.53 107.242 119.521 107.282 119.521 107.323C119.521 107.363 119.53 107.403 119.547 107.44C119.623 107.501 119.717 107.534 119.814 107.534C119.911 107.534 120.006 107.501 120.082 107.44Z" fill="#03045E"/>
<path fill-rule="evenodd" clip-rule="evenodd" d="M121.173 108.29C121.204 108.207 121.204 108.116 121.173 108.033C121.106 107.972 121.018 107.937 120.927 107.938C120.836 107.937 120.748 107.972 120.68 108.033C120.617 108.104 120.583 108.195 120.583 108.29C120.583 108.385 120.617 108.476 120.68 108.547C120.751 108.61 120.842 108.645 120.937 108.645C121.032 108.645 121.124 108.61 121.194 108.547C121.213 108.462 121.213 108.375 121.194 108.29H121.173Z" fill="#03045E"/>
<path fill-rule="evenodd" clip-rule="evenodd" d="M122.071 109.432C122.134 109.361 122.169 109.27 122.169 109.175C122.169 109.081 122.134 108.989 122.071 108.919C122 108.855 121.909 108.82 121.814 108.82C121.719 108.82 121.628 108.855 121.557 108.919C121.494 108.989 121.459 109.081 121.459 109.175C121.459 109.27 121.494 109.361 121.557 109.432C121.628 109.495 121.719 109.53 121.814 109.53C121.909 109.53 122 109.495 122.071 109.432Z" fill="#03045E"/>
<path fill-rule="evenodd" clip-rule="evenodd" d="M123.056 110.434C123.071 110.397 123.08 110.357 123.08 110.316C123.08 110.276 123.071 110.236 123.056 110.199C123.071 110.162 123.08 110.122 123.08 110.081C123.08 110.041 123.071 110.001 123.056 109.964C122.984 109.894 122.888 109.855 122.788 109.855C122.688 109.855 122.592 109.894 122.521 109.964C122.505 110.001 122.496 110.041 122.496 110.081C122.496 110.122 122.505 110.162 122.521 110.199C122.505 110.236 122.496 110.276 122.496 110.316C122.496 110.357 122.505 110.397 122.521 110.434C122.552 110.472 122.592 110.503 122.636 110.525C122.68 110.547 122.728 110.56 122.777 110.563C122.83 110.562 122.882 110.549 122.93 110.527C122.978 110.505 123.02 110.474 123.056 110.434Z" fill="#03045E"/>
<path fill-rule="evenodd" clip-rule="evenodd" d="M124.061 111.352C124.086 111.276 124.086 111.193 124.061 111.117C124.082 111.04 124.082 110.958 124.061 110.881C124.029 110.845 123.99 110.816 123.945 110.796C123.901 110.776 123.853 110.766 123.804 110.766C123.756 110.766 123.708 110.776 123.663 110.796C123.619 110.816 123.58 110.845 123.548 110.881C123.512 110.909 123.484 110.945 123.465 110.986C123.447 111.027 123.438 111.072 123.441 111.117C123.446 111.209 123.487 111.297 123.555 111.36C123.622 111.424 123.712 111.459 123.804 111.459C123.887 111.49 123.978 111.49 124.061 111.459" fill="#03045E"/>
<path fill-rule="evenodd" clip-rule="evenodd" d="M125.067 112.362C125.128 112.295 125.162 112.207 125.162 112.116C125.162 112.025 125.128 111.937 125.067 111.87C125.035 111.833 124.995 111.804 124.951 111.784C124.906 111.764 124.858 111.754 124.81 111.754C124.761 111.754 124.713 111.764 124.669 111.784C124.625 111.804 124.585 111.833 124.553 111.87C124.491 111.937 124.457 112.025 124.457 112.116C124.457 112.207 124.491 112.295 124.553 112.362C124.59 112.378 124.63 112.386 124.671 112.386C124.711 112.386 124.751 112.378 124.788 112.362C124.879 112.391 124.976 112.391 125.067 112.362Z" fill="#03045E"/>
<path fill-rule="evenodd" clip-rule="evenodd" d="M125.987 113.34C126.004 113.303 126.013 113.263 126.013 113.222C126.013 113.181 126.004 113.141 125.987 113.104C126.006 113.068 126.016 113.027 126.016 112.986C126.016 112.945 126.006 112.905 125.987 112.869C125.957 112.833 125.919 112.804 125.877 112.784C125.834 112.764 125.788 112.754 125.741 112.754C125.694 112.754 125.648 112.764 125.605 112.784C125.563 112.804 125.525 112.833 125.495 112.869C125.465 112.944 125.465 113.029 125.495 113.104C125.476 113.141 125.466 113.181 125.466 113.222C125.466 113.263 125.476 113.303 125.495 113.34C125.527 113.375 125.567 113.404 125.611 113.422C125.655 113.441 125.703 113.449 125.752 113.447C125.797 113.451 125.842 113.444 125.884 113.425C125.925 113.406 125.961 113.377 125.987 113.34Z" fill="#03045E"/>
<path fill-rule="evenodd" clip-rule="evenodd" d="M127.036 114.349C127.067 114.266 127.067 114.175 127.036 114.092C127.053 114.056 127.062 114.016 127.062 113.975C127.062 113.934 127.053 113.894 127.036 113.857C127.005 113.821 126.968 113.792 126.925 113.772C126.883 113.753 126.836 113.742 126.789 113.742C126.743 113.742 126.696 113.753 126.654 113.772C126.611 113.792 126.574 113.821 126.543 113.857C126.526 113.894 126.517 113.934 126.517 113.975C126.517 114.016 126.526 114.056 126.543 114.092C126.528 114.13 126.519 114.17 126.519 114.21C126.519 114.251 126.528 114.291 126.543 114.328C126.574 114.364 126.611 114.393 126.654 114.413C126.696 114.433 126.743 114.443 126.789 114.443C126.836 114.443 126.883 114.433 126.925 114.413C126.968 114.393 127.005 114.364 127.036 114.328" fill="#03045E"/>
<path fill-rule="evenodd" clip-rule="evenodd" d="M128.019 115.332C128.077 115.263 128.108 115.176 128.108 115.086C128.108 114.996 128.077 114.909 128.019 114.84C127.943 114.779 127.849 114.746 127.752 114.746C127.655 114.746 127.56 114.779 127.484 114.84C127.429 114.906 127.398 114.989 127.398 115.075C127.398 115.162 127.429 115.245 127.484 115.311C127.556 115.38 127.652 115.419 127.752 115.419C127.852 115.419 127.948 115.38 128.019 115.311" fill="#03045E"/>
<path fill-rule="evenodd" clip-rule="evenodd" d="M118.455 103.719C119.447 103.079 120.602 102.739 121.782 102.739C122.962 102.739 124.117 103.079 125.109 103.719L127.249 101.579C125.687 100.341 123.753 99.668 121.76 99.668C119.768 99.668 117.834 100.341 116.272 101.579L118.412 103.719H118.455Z" fill="#03045E"/>
<path fill-rule="evenodd" clip-rule="evenodd" d="M116.294 112.569C115.635 111.581 115.283 110.42 115.283 109.231C115.283 108.043 115.635 106.882 116.294 105.894L114.155 103.754C112.937 105.312 112.275 107.233 112.275 109.21C112.275 111.188 112.937 113.108 114.155 114.666L116.294 112.527V112.569Z" fill="#03045E"/>
<path fill-rule="evenodd" clip-rule="evenodd" d="M125.131 114.715C124.152 115.398 122.987 115.764 121.793 115.763C120.593 115.779 119.419 115.42 118.434 114.736L116.294 116.876C117.857 118.115 119.798 118.78 121.793 118.759C123.773 118.752 125.694 118.081 127.249 116.855L125.109 114.715H125.131Z" fill="#03045E"/>
<path fill-rule="evenodd" clip-rule="evenodd" d="M127.228 105.81C127.906 106.805 128.257 107.987 128.233 109.191C128.216 110.362 127.867 111.504 127.228 112.486L129.367 114.625C130.611 113.088 131.284 111.168 131.272 109.191C131.292 107.196 130.628 105.255 129.389 103.691L127.249 105.831L127.228 105.81Z" fill="#03045E"/>
<path fill-rule="evenodd" clip-rule="evenodd" d="M129.432 115.25C129.628 115.25 129.823 115.289 130.005 115.364C130.186 115.439 130.352 115.55 130.491 115.689C130.63 115.828 130.74 115.993 130.815 116.175C130.891 116.356 130.929 116.551 130.929 116.748C130.929 117.145 130.772 117.526 130.491 117.807C130.21 118.088 129.829 118.246 129.432 118.246C129.236 118.246 129.042 118.207 128.862 118.131C128.681 118.056 128.517 117.945 128.38 117.806C128.243 117.666 128.134 117.501 128.061 117.319C127.988 117.138 127.952 116.943 127.955 116.748C127.952 116.552 127.988 116.358 128.061 116.176C128.134 115.995 128.243 115.829 128.38 115.69C128.517 115.55 128.681 115.44 128.862 115.364C129.042 115.289 129.236 115.25 129.432 115.25Z" fill="#03045E"/>
<path fill-rule="evenodd" clip-rule="evenodd" d="M114.154 115.25C114.55 115.272 114.921 115.448 115.189 115.739C115.456 116.031 115.6 116.416 115.588 116.812C115.572 117.187 115.416 117.543 115.151 117.808C114.885 118.074 114.529 118.23 114.154 118.246C113.759 118.223 113.388 118.048 113.12 117.756C112.852 117.464 112.709 117.08 112.721 116.684C112.741 116.31 112.899 115.957 113.163 115.693C113.428 115.428 113.781 115.271 114.154 115.25Z" fill="#03045E"/>
<path fill-rule="evenodd" clip-rule="evenodd" d="M129.475 99.9922C129.868 99.9978 130.244 100.158 130.52 100.438C130.796 100.719 130.951 101.096 130.951 101.49C130.951 101.683 130.912 101.874 130.838 102.052C130.764 102.23 130.655 102.391 130.517 102.527C130.38 102.662 130.217 102.769 130.038 102.84C129.859 102.912 129.667 102.948 129.475 102.945C129.087 102.945 128.714 102.792 128.438 102.52C128.162 102.248 128.004 101.878 127.998 101.49C127.998 101.096 128.153 100.719 128.429 100.438C128.706 100.158 129.081 99.9978 129.475 99.9922Z" fill="#03045E"/>
<path fill-rule="evenodd" clip-rule="evenodd" d="M114.154 99.9923C114.347 99.9895 114.539 100.025 114.718 100.097C114.897 100.169 115.059 100.275 115.197 100.411C115.334 100.546 115.443 100.708 115.518 100.886C115.592 101.064 115.63 101.255 115.63 101.447C115.625 101.837 115.468 102.209 115.192 102.485C114.916 102.761 114.544 102.918 114.154 102.924C113.959 102.927 113.764 102.891 113.583 102.818C113.401 102.745 113.236 102.636 113.096 102.499C112.957 102.362 112.846 102.198 112.771 102.017C112.695 101.837 112.656 101.643 112.656 101.447C112.659 101.254 112.7 101.062 112.777 100.884C112.854 100.706 112.965 100.545 113.104 100.41C113.243 100.275 113.407 100.168 113.587 100.097C113.768 100.025 113.96 99.9895 114.154 99.9923Z" fill="#03045E"/>
</svg>
