<svg width="106" height="106" viewBox="0 0 106 106" fill="none" xmlns="http://www.w3.org/2000/svg">
<path d="M97 52.9951C97.0053 64.6589 92.3744 75.8473 84.1259 84.0996C75.8774 92.3518 64.6866 96.9921 53.0149 97C41.3414 97 30.146 92.3658 21.8916 84.117C13.6372 75.8682 9 64.6805 9 53.015C8.9974 47.2366 10.1338 41.5143 12.3445 36.1749C14.5552 30.8356 17.7967 25.9837 21.884 21.8964C25.9713 17.8091 30.8243 14.5665 36.1658 12.3537C41.5073 10.141 47.2326 9.0013 53.0149 9C64.6841 9.01052 75.8718 13.6504 84.1195 21.8999C92.3672 30.1495 97 41.3338 97 52.9951Z" fill="#EDF3FC"/>
<path d="M53 106C38.9485 105.984 25.4771 100.395 15.5411 90.4605C5.60517 80.5255 0.0160162 67.0553 0 53.0051C0.013347 38.9531 5.60131 25.4803 15.5376 15.5431C25.4738 5.60591 38.9467 0.0160195 53 0C67.0533 0.0160195 80.5263 5.60591 90.4626 15.5431C100.399 25.4803 105.987 38.9531 106 53.0051C105.984 67.0553 100.395 80.5255 90.459 90.4605C80.523 100.395 67.0516 105.984 53 106ZM53 1.70437C39.3979 1.72039 26.3574 7.13039 16.7392 16.7477C7.12097 26.365 1.71046 39.4042 1.69444 53.0051C1.71312 66.6042 7.12483 79.6409 16.7427 89.256C26.3606 98.8711 39.3996 104.28 53 104.296C66.6005 104.28 79.6394 98.8711 89.2573 89.256C98.8752 79.6409 104.287 66.6042 104.306 53.0051C104.29 39.4042 98.8791 26.365 89.2609 16.7477C79.6427 7.13039 66.6022 1.72039 53 1.70437Z" fill="#EDF3FC"/>
<path d="M72.3202 73.4102H57.0302C56.1355 73.4102 55.4102 74.1355 55.4102 75.0302V80.1102C55.4102 81.0049 56.1355 81.7302 57.0302 81.7302H72.3202C73.2149 81.7302 73.9402 81.0049 73.9402 80.1102V75.0302C73.9402 74.1355 73.2149 73.4102 72.3202 73.4102Z" fill="#0077B6"/>
<path d="M55.2304 55.5688C55.1221 53.3377 54.8447 51.118 54.4003 48.9288C54.4003 48.9288 54.0603 46.7488 55.6503 46.1788C57.0803 45.6688 58.2603 47.1788 58.6503 47.8588C59.0403 48.5388 59.6503 50.2988 61.4603 54.0488C61.6003 54.3288 61.7303 54.6188 61.8503 54.9088C64.163 51.9781 65.4175 48.352 65.4103 44.6188C65.4103 40.2029 63.6562 35.9679 60.5337 32.8455C57.4112 29.723 53.1762 27.9688 48.7604 27.9688C44.3445 27.9688 40.1095 29.723 36.987 32.8455C33.8645 35.9679 32.1104 40.2029 32.1104 44.6188C32.109 46.8061 32.5387 48.9723 33.3749 50.9935C34.211 53.0148 35.4372 54.8514 36.9835 56.3986C38.5297 57.9457 40.3656 59.1731 42.3864 60.0105C44.4071 60.8479 46.573 61.2788 48.7604 61.2788C50.8559 61.2781 52.9324 60.8811 54.8804 60.1088C54.8904 58.4788 55.2104 57.0588 55.2304 55.5688Z" fill="#FFAC3F"/>
<path d="M54.4002 48.8977C54.4002 48.8977 54.0602 46.7177 55.6502 46.1477C57.0802 45.6377 58.2602 47.1478 58.6502 47.8278C58.8702 48.2678 59.1802 49.0578 59.8002 50.4478C60.762 48.6444 61.2635 46.6314 61.2603 44.5876C61.2576 41.2742 59.9394 38.0974 57.5955 35.7554C55.2516 33.4133 52.0737 32.0977 48.7603 32.0977C45.4468 32.0977 42.2688 33.4133 39.9249 35.7554C37.581 38.0974 36.2629 41.2742 36.2603 44.5876C36.2603 47.9029 37.5772 51.0823 39.9214 53.4265C42.2656 55.7707 45.445 57.0876 48.7603 57.0876C51.0535 57.0932 53.3034 56.4633 55.2603 55.2677C55.1202 53.1271 54.8328 50.9988 54.4002 48.8977Z" fill="#FFE37B"/>
<path fill-rule="evenodd" clip-rule="evenodd" d="M52.9459 39.9761C52.924 39.9164 52.924 39.8509 52.9459 39.7912C52.9214 39.7262 52.9214 39.6545 52.9459 39.5895C53.0055 39.5418 53.0796 39.5156 53.156 39.5156C53.2323 39.5156 53.3064 39.5418 53.366 39.5895C53.3905 39.6545 53.3905 39.7262 53.366 39.7912C53.3785 39.8205 53.3849 39.852 53.3849 39.8838C53.3849 39.9156 53.3785 39.9469 53.366 39.9761C53.3064 40.0239 53.2323 40.05 53.156 40.05C53.0796 40.05 53.0055 40.0239 52.9459 39.9761Z" fill="#FFAC3F"/>
<path fill-rule="evenodd" clip-rule="evenodd" d="M52.2068 40.7546C52.185 40.6949 52.185 40.6294 52.2068 40.5697C52.2108 40.4952 52.2421 40.4248 52.2948 40.3721C52.3476 40.3193 52.4179 40.2881 52.4924 40.284C52.5574 40.2595 52.6291 40.2595 52.694 40.284C52.7078 40.3449 52.7078 40.408 52.694 40.4689C52.7137 40.5347 52.7137 40.6048 52.694 40.6706C52.6286 40.6924 52.5578 40.6924 52.4924 40.6706C52.4612 40.6869 52.4268 40.6953 52.3917 40.6953C52.3566 40.6953 52.3219 40.6869 52.2907 40.6706" fill="#FFAC3F"/>
<path fill-rule="evenodd" clip-rule="evenodd" d="M51.3833 41.5302C51.3349 41.4775 51.308 41.4085 51.308 41.3369C51.308 41.2653 51.3349 41.1963 51.3833 41.1436C51.4387 41.0939 51.5105 41.0664 51.5849 41.0664C51.6593 41.0664 51.7313 41.0939 51.7868 41.1436C51.8352 41.1963 51.8621 41.2653 51.8621 41.3369C51.8621 41.4085 51.8352 41.4775 51.7868 41.5302C51.7579 41.5437 51.7262 41.5507 51.6943 41.5507C51.6623 41.5507 51.6307 41.5437 51.6018 41.5302C51.5677 41.5466 51.5304 41.555 51.4926 41.555C51.4548 41.555 51.4174 41.5466 51.3833 41.5302Z" fill="#FFAC3F"/>
<path fill-rule="evenodd" clip-rule="evenodd" d="M50.6101 42.3121C50.5617 42.2593 50.5348 42.1904 50.5348 42.1188C50.5348 42.0472 50.5617 41.9782 50.6101 41.9254C50.6697 41.8777 50.7438 41.8516 50.8202 41.8516C50.8965 41.8516 50.9706 41.8777 51.0302 41.9254C51.0786 41.9782 51.1055 42.0472 51.1055 42.1188C51.1055 42.1904 51.0786 42.2593 51.0302 42.3121C50.9603 42.341 50.8817 42.341 50.8117 42.3121C50.7471 42.3382 50.6748 42.3382 50.6101 42.3121Z" fill="#FFAC3F"/>
<path fill-rule="evenodd" clip-rule="evenodd" d="M49.8706 43.1095C49.8406 43.0887 49.8157 43.0612 49.7982 43.0291C49.7807 42.997 49.7709 42.9612 49.7697 42.9246C49.7696 42.8879 49.7771 42.8515 49.7916 42.8177C49.8062 42.7839 49.8276 42.7535 49.8544 42.7282C49.8812 42.703 49.9127 42.6837 49.9473 42.6712C49.9819 42.6587 50.0187 42.6533 50.0554 42.6556C50.0846 42.6431 50.116 42.6367 50.1477 42.6367C50.1795 42.6367 50.2111 42.6431 50.2403 42.6556C50.2664 42.7203 50.2664 42.7926 50.2403 42.8573C50.2403 42.8927 50.2333 42.9277 50.2198 42.9603C50.2062 42.993 50.1865 43.0226 50.1615 43.0476C50.1365 43.0725 50.1069 43.0923 50.0743 43.1058C50.0417 43.1194 50.0066 43.1264 49.9713 43.1264C49.9713 43.1264 49.8369 43.1265 49.8033 43.0424" fill="#FFAC3F"/>
<path fill-rule="evenodd" clip-rule="evenodd" d="M48.9633 43.775C48.9471 43.7438 48.9386 43.7091 48.9386 43.674C48.9386 43.6389 48.9471 43.6044 48.9633 43.5733C49.0187 43.5236 49.0905 43.4961 49.1649 43.4961C49.2393 43.4961 49.3111 43.5236 49.3666 43.5733C49.4075 43.6262 49.4296 43.6912 49.4296 43.7582C49.4296 43.8251 49.4075 43.8901 49.3666 43.9431C49.3429 43.9713 49.3134 43.9942 49.28 44.0098C49.2466 44.0253 49.2102 44.0334 49.1733 44.0334C49.1365 44.0334 49.1 44.0253 49.0667 44.0098C49.0333 43.9942 49.0037 43.9713 48.9801 43.9431C48.9501 43.9222 48.9254 43.8947 48.9079 43.8626C48.8904 43.8305 48.8804 43.7947 48.8792 43.7582L48.9633 43.775Z" fill="#FFAC3F"/>
<path fill-rule="evenodd" clip-rule="evenodd" d="M47.518 45.4609C47.5044 45.432 47.4974 45.4003 47.4974 45.3684C47.4974 45.3364 47.5044 45.305 47.518 45.276C47.5044 45.2471 47.4974 45.2154 47.4974 45.1835C47.4974 45.1515 47.5044 45.1201 47.518 45.0911C47.5432 45.0625 47.5743 45.0395 47.609 45.0238C47.6438 45.0081 47.6815 45 47.7196 45C47.7578 45 47.7954 45.0081 47.8302 45.0238C47.865 45.0395 47.896 45.0625 47.9213 45.0911C47.9406 45.1512 47.9406 45.2159 47.9213 45.276C47.9338 45.3052 47.9402 45.3366 47.9402 45.3684C47.9402 45.4001 47.9338 45.4317 47.9213 45.4609C47.8988 45.4933 47.8685 45.5194 47.8333 45.5371C47.798 45.5547 47.759 45.5633 47.7196 45.5619C47.6831 45.5606 47.6473 45.5507 47.6152 45.5332C47.5831 45.5156 47.5556 45.4909 47.5348 45.4609" fill="#FFAC3F"/>
<path fill-rule="evenodd" clip-rule="evenodd" d="M46.6439 46.183C46.6314 46.1537 46.625 46.1222 46.625 46.0904C46.625 46.0586 46.6314 46.0271 46.6439 45.9979C46.622 45.9382 46.622 45.8727 46.6439 45.813C46.7031 45.7574 46.7812 45.7266 46.8624 45.7266C46.9435 45.7266 47.0217 45.7574 47.0808 45.813C47.0933 45.8422 47.0997 45.8737 47.0997 45.9055C47.0997 45.9373 47.0933 45.9686 47.0808 45.9979C47.0933 46.0271 47.0997 46.0586 47.0997 46.0904C47.0997 46.1222 47.0933 46.1537 47.0808 46.183C47.0533 46.2138 47.0195 46.2387 46.982 46.256C46.9444 46.2734 46.9037 46.2828 46.8624 46.2837C46.7827 46.2676 46.7078 46.2332 46.6439 46.183Z" fill="#FFAC3F"/>
<path fill-rule="evenodd" clip-rule="evenodd" d="M45.9551 46.9738C45.9066 46.9211 45.8798 46.8521 45.8798 46.7805C45.8798 46.7089 45.9066 46.6399 45.9551 46.5872C45.9803 46.5586 46.0114 46.5356 46.0461 46.5199C46.0809 46.5042 46.1186 46.4961 46.1567 46.4961C46.1949 46.4961 46.2327 46.5042 46.2675 46.5199C46.3023 46.5356 46.3331 46.5586 46.3584 46.5872C46.4068 46.6399 46.4337 46.7089 46.4337 46.7805C46.4337 46.8521 46.4068 46.9211 46.3584 46.9738C46.2926 46.9935 46.2225 46.9935 46.1567 46.9738C46.0917 46.9984 46.02 46.9984 45.9551 46.9738Z" fill="#FFAC3F"/>
<path fill-rule="evenodd" clip-rule="evenodd" d="M45.1815 47.7481C45.1536 47.7264 45.1313 47.6982 45.1167 47.666C45.102 47.6338 45.0954 47.5985 45.0974 47.5632C45.0973 47.4902 45.1252 47.42 45.1751 47.3668C45.2251 47.3137 45.2935 47.2816 45.3663 47.2773C45.442 47.2775 45.5146 47.3078 45.568 47.3615C45.5914 47.4209 45.5914 47.487 45.568 47.5464C45.5805 47.5756 45.5869 47.6072 45.5869 47.6389C45.5869 47.6707 45.5805 47.7021 45.568 47.7313C45.5136 47.7835 45.4417 47.8135 45.3663 47.8154C45.3399 47.8359 45.3075 47.8468 45.274 47.8468C45.2406 47.8468 45.208 47.8359 45.1815 47.8154" fill="#FFAC3F"/>
<path fill-rule="evenodd" clip-rule="evenodd" d="M44.3585 48.5327C44.3316 48.5101 44.3101 48.4818 44.2955 48.4498C44.281 48.4178 44.2737 48.3829 44.2744 48.3478C44.2724 48.3125 44.279 48.2772 44.2937 48.245C44.3083 48.2128 44.3306 48.1846 44.3585 48.1629C44.4149 48.1084 44.4902 48.0781 44.5686 48.0781C44.647 48.0781 44.7223 48.1084 44.7787 48.1629C44.7911 48.1921 44.7975 48.2237 44.7975 48.2554C44.7975 48.2872 44.7911 48.3186 44.7787 48.3478C44.7911 48.377 44.7975 48.4086 44.7975 48.4403C44.7975 48.4721 44.7911 48.5035 44.7787 48.5327C44.7223 48.5871 44.647 48.6176 44.5686 48.6176C44.4902 48.6176 44.4149 48.5871 44.3585 48.5327Z" fill="#FFAC3F"/>
<path fill-rule="evenodd" clip-rule="evenodd" d="M43.6191 49.3129C43.5707 49.2601 43.5438 49.1912 43.5438 49.1195C43.5438 49.0479 43.5707 48.979 43.6191 48.9262C43.6428 48.898 43.6725 48.8751 43.7059 48.8595C43.7393 48.8439 43.7755 48.8359 43.8124 48.8359C43.8492 48.8359 43.8857 48.8439 43.919 48.8595C43.9524 48.8751 43.9822 48.898 44.0058 48.9262C44.0542 48.979 44.0811 49.0479 44.0811 49.1195C44.0811 49.1912 44.0542 49.2601 44.0058 49.3129C43.9822 49.3411 43.9524 49.3638 43.919 49.3794C43.8857 49.395 43.8492 49.4032 43.8124 49.4032C43.7755 49.4032 43.7393 49.395 43.7059 49.3794C43.6725 49.3638 43.6428 49.3411 43.6191 49.3129Z" fill="#FFAC3F"/>
<path fill-rule="evenodd" clip-rule="evenodd" d="M44.0055 39.9818C44.0289 39.9224 44.0289 39.8564 44.0055 39.7969C44.0055 39.7594 43.9981 39.7222 43.9837 39.6876C43.9694 39.6529 43.9483 39.6213 43.9218 39.5948C43.8952 39.5683 43.8637 39.5472 43.8291 39.5328C43.7944 39.5185 43.7572 39.5111 43.7197 39.5111C43.6905 39.4986 43.659 39.4922 43.6272 39.4922C43.5954 39.4922 43.5641 39.4986 43.5349 39.5111C43.5104 39.5761 43.5104 39.6478 43.5349 39.7128C43.5224 39.742 43.516 39.7736 43.516 39.8054C43.516 39.8371 43.5224 39.8685 43.5349 39.8977C43.5884 39.9511 43.6609 39.9812 43.7365 39.9812C43.8121 39.9812 43.8846 39.9511 43.9382 39.8977" fill="#FFAC3F"/>
<path fill-rule="evenodd" clip-rule="evenodd" d="M44.7784 40.7494C44.8002 40.6897 44.8002 40.6242 44.7784 40.5645C44.8029 40.4995 44.8029 40.4277 44.7784 40.3627C44.7187 40.315 44.6446 40.2891 44.5683 40.2891C44.4919 40.2891 44.4178 40.315 44.3582 40.3627C44.3046 40.4162 44.2743 40.4887 44.2741 40.5645C44.2734 40.5996 44.2807 40.6345 44.2952 40.6665C44.3098 40.6985 44.3313 40.7268 44.3582 40.7494C44.4178 40.7971 44.4919 40.8232 44.5683 40.8232C44.6446 40.8232 44.7187 40.7971 44.7784 40.7494Z" fill="#FFAC3F"/>
<path fill-rule="evenodd" clip-rule="evenodd" d="M45.5687 41.5302C45.6171 41.4775 45.644 41.4085 45.644 41.3369C45.644 41.2653 45.6171 41.1963 45.5687 41.1436C45.5132 41.0939 45.4414 41.0664 45.367 41.0664C45.2926 41.0664 45.2208 41.0939 45.1654 41.1436C45.1467 41.2095 45.1467 41.2794 45.1654 41.3453C45.1529 41.3745 45.1465 41.4059 45.1465 41.4376C45.1465 41.4694 45.1529 41.501 45.1654 41.5302C45.2303 41.5547 45.302 41.5547 45.367 41.5302C45.4007 41.5479 45.4383 41.5571 45.4764 41.5571C45.5144 41.5571 45.5518 41.5479 45.5855 41.5302" fill="#FFAC3F"/>
<path fill-rule="evenodd" clip-rule="evenodd" d="M46.3582 42.3166C46.4078 42.2611 46.4353 42.1893 46.4353 42.1148C46.4353 42.0404 46.4078 41.9686 46.3582 41.9131C46.3027 41.8635 46.2309 41.8359 46.1565 41.8359C46.0821 41.8359 46.0103 41.8635 45.9549 41.9131C45.9053 41.9686 45.8779 42.0404 45.8779 42.1148C45.8779 42.1893 45.9053 42.2611 45.9549 42.3166C45.9838 42.3301 46.0154 42.3371 46.0474 42.3371C46.0793 42.3371 46.1108 42.3301 46.1397 42.3166C46.2111 42.3367 46.2867 42.3367 46.3582 42.3166Z" fill="#FFAC3F"/>
<path fill-rule="evenodd" clip-rule="evenodd" d="M47.1317 43.1083C47.1536 43.0486 47.1536 42.9831 47.1317 42.9234C47.1563 42.8584 47.1563 42.7867 47.1317 42.7217C47.0753 42.6672 47 42.6367 46.9217 42.6367C46.8433 42.6367 46.768 42.6672 46.7116 42.7217C46.6954 42.7528 46.6868 42.7875 46.6868 42.8226C46.6868 42.8578 46.6954 42.8923 46.7116 42.9234C46.6981 42.9524 46.6911 42.984 46.6911 43.016C46.6911 43.0479 46.6981 43.0794 46.7116 43.1083C46.7712 43.1561 46.8453 43.1822 46.9217 43.1822C46.998 43.1822 47.0721 43.1561 47.1317 43.1083Z" fill="#FFAC3F"/>
<path fill-rule="evenodd" clip-rule="evenodd" d="M47.9888 43.7731C48.0133 43.7081 48.0133 43.6364 47.9888 43.5714C47.9361 43.523 47.8671 43.4961 47.7955 43.4961C47.724 43.4961 47.6548 43.523 47.6021 43.5714C47.5525 43.6269 47.5251 43.6987 47.5251 43.7731C47.5251 43.8476 47.5525 43.9194 47.6021 43.9749C47.6575 44.0245 47.7293 44.052 47.8037 44.052C47.8782 44.052 47.9501 44.0245 48.0056 43.9749C48.0202 43.9084 48.0202 43.8396 48.0056 43.7731H47.9888Z" fill="#FFAC3F"/>
<path fill-rule="evenodd" clip-rule="evenodd" d="M48.6941 44.672C48.7437 44.6165 48.7713 44.5447 48.7713 44.4703C48.7713 44.3959 48.7437 44.324 48.6941 44.2686C48.6387 44.2189 48.5669 44.1914 48.4925 44.1914C48.4181 44.1914 48.3463 44.2189 48.2908 44.2686C48.2412 44.324 48.2139 44.3959 48.2139 44.4703C48.2139 44.5447 48.2412 44.6165 48.2908 44.672C48.3463 44.7216 48.4181 44.749 48.4925 44.749C48.5669 44.749 48.6387 44.7216 48.6941 44.672Z" fill="#FFAC3F"/>
<path fill-rule="evenodd" clip-rule="evenodd" d="M49.4675 45.4587C49.48 45.4294 49.4864 45.3979 49.4864 45.3661C49.4864 45.3343 49.48 45.303 49.4675 45.2738C49.48 45.2445 49.4864 45.213 49.4864 45.1812C49.4864 45.1494 49.48 45.1181 49.4675 45.0889C49.4112 45.0344 49.3358 45.0039 49.2575 45.0039C49.1791 45.0039 49.1038 45.0344 49.0474 45.0889C49.0349 45.1181 49.0283 45.1494 49.0283 45.1812C49.0283 45.213 49.0349 45.2445 49.0474 45.2738C49.0349 45.303 49.0283 45.3343 49.0283 45.3661C49.0283 45.3979 49.0349 45.4294 49.0474 45.4587C49.0724 45.4883 49.1032 45.5125 49.1379 45.5299C49.1725 45.5472 49.2104 45.5574 49.2491 45.5596C49.2904 45.5587 49.3311 45.5491 49.3687 45.5317C49.4062 45.5144 49.44 45.4895 49.4675 45.4587Z" fill="#FFAC3F"/>
<path fill-rule="evenodd" clip-rule="evenodd" d="M50.2574 46.1797C50.2767 46.1195 50.2767 46.0547 50.2574 45.9946C50.2739 45.934 50.2739 45.8702 50.2574 45.8097C50.2322 45.781 50.2011 45.7583 50.1664 45.7426C50.1316 45.7269 50.0939 45.7188 50.0558 45.7188C50.0176 45.7188 49.9798 45.7269 49.945 45.7426C49.9102 45.7583 49.8793 45.781 49.8541 45.8097C49.8262 45.8314 49.8039 45.8595 49.7893 45.8917C49.7746 45.924 49.768 45.9592 49.77 45.9946C49.7743 46.0674 49.8063 46.136 49.8594 46.186C49.9126 46.236 49.9828 46.2637 50.0558 46.2636C50.1208 46.2881 50.1925 46.2881 50.2574 46.2636" fill="#FFAC3F"/>
<path fill-rule="evenodd" clip-rule="evenodd" d="M51.0471 46.9738C51.0955 46.9211 51.1224 46.8521 51.1224 46.7805C51.1224 46.7089 51.0955 46.6399 51.0471 46.5872C51.0219 46.5586 50.9908 46.5356 50.956 46.5199C50.9212 46.5042 50.8836 46.4961 50.8454 46.4961C50.8073 46.4961 50.7696 46.5042 50.7349 46.5199C50.7001 46.5356 50.669 46.5586 50.6438 46.5872C50.5954 46.6399 50.5685 46.7089 50.5685 46.7805C50.5685 46.8521 50.5954 46.9211 50.6438 46.9738C50.673 46.9863 50.7045 46.9927 50.7363 46.9927C50.7681 46.9927 50.7994 46.9863 50.8286 46.9738C50.8996 46.997 50.9761 46.997 51.0471 46.9738Z" fill="#FFAC3F"/>
<path fill-rule="evenodd" clip-rule="evenodd" d="M51.7702 47.7413C51.7837 47.7124 51.7907 47.681 51.7907 47.649C51.7907 47.617 51.7837 47.5854 51.7702 47.5564C51.7849 47.5279 51.7925 47.4961 51.7925 47.4639C51.7925 47.4317 51.7849 47.4001 51.7702 47.3715C51.7465 47.3433 51.7168 47.3204 51.6834 47.3049C51.65 47.2893 51.6138 47.2813 51.5769 47.2812C51.5401 47.2813 51.5036 47.2893 51.4702 47.3049C51.4368 47.3204 51.4071 47.3433 51.3834 47.3715C51.36 47.431 51.36 47.497 51.3834 47.5564C51.3687 47.585 51.3611 47.6168 51.3611 47.649C51.3611 47.6812 51.3687 47.7128 51.3834 47.7413C51.4086 47.7696 51.4398 47.7919 51.4747 47.8064C51.5096 47.821 51.5473 47.8275 51.5851 47.8255C51.6206 47.8291 51.6564 47.8232 51.6889 47.8085C51.7214 47.7937 51.7495 47.7705 51.7702 47.7413Z" fill="#FFAC3F"/>
<path fill-rule="evenodd" clip-rule="evenodd" d="M52.5935 48.5355C52.6181 48.4705 52.6181 48.3988 52.5935 48.3338C52.6071 48.3048 52.6141 48.2734 52.6141 48.2414C52.6141 48.2095 52.6071 48.1778 52.5935 48.1489C52.5699 48.1206 52.5402 48.098 52.5068 48.0824C52.4734 48.0668 52.4371 48.0586 52.4003 48.0586C52.3634 48.0586 52.327 48.0668 52.2936 48.0824C52.2602 48.098 52.2307 48.1206 52.207 48.1489C52.1935 48.1778 52.1865 48.2095 52.1865 48.2414C52.1865 48.2734 52.1935 48.3048 52.207 48.3338C52.1946 48.363 52.188 48.3946 52.188 48.4263C52.188 48.4581 52.1946 48.4895 52.207 48.5187C52.2307 48.547 52.2602 48.5698 52.2936 48.5854C52.327 48.601 52.3634 48.609 52.4003 48.609C52.4371 48.609 52.4734 48.601 52.5068 48.5854C52.5402 48.5698 52.5699 48.547 52.5935 48.5187" fill="#FFAC3F"/>
<path fill-rule="evenodd" clip-rule="evenodd" d="M53.3663 49.3082C53.4114 49.2538 53.4361 49.1855 53.4361 49.1148C53.4361 49.0442 53.4114 48.9759 53.3663 48.9215C53.3067 48.8738 53.2326 48.8477 53.1563 48.8477C53.0799 48.8477 53.0058 48.8738 52.9462 48.9215C52.9024 48.9732 52.8783 49.0387 52.8783 49.1064C52.8783 49.1742 52.9024 49.2397 52.9462 49.2913C53.0026 49.3458 53.0779 49.3761 53.1563 49.3761C53.2346 49.3761 53.31 49.3458 53.3663 49.2913" fill="#FFAC3F"/>
<path fill-rule="evenodd" clip-rule="evenodd" d="M45.8539 40.1825C46.633 39.6801 47.5402 39.413 48.4671 39.413C49.394 39.413 50.3014 39.6801 51.0805 40.1825L52.7611 38.5014C51.5345 37.5291 50.0153 37 48.4503 37C46.8852 37 45.3662 37.5291 44.1396 38.5014L45.8202 40.1825H45.8539Z" fill="#FFAC3F"/>
<path fill-rule="evenodd" clip-rule="evenodd" d="M44.1571 47.1382C43.639 46.3618 43.3625 45.4491 43.3625 44.5155C43.3625 43.582 43.639 42.6695 44.1571 41.8931L42.4765 40.2119C41.5197 41.436 41 42.9451 41 44.4989C41 46.0527 41.5197 47.5617 42.4765 48.7857L44.1571 47.1046V47.1382Z" fill="#FFAC3F"/>
<path fill-rule="evenodd" clip-rule="evenodd" d="M51.0975 48.8203C50.3287 49.3574 49.4133 49.645 48.4756 49.6441C47.5336 49.6567 46.6112 49.3746 45.8372 48.8371L44.1566 50.5183C45.3845 51.4917 46.9091 52.0139 48.4756 51.9977C50.0312 51.9922 51.5401 51.4654 52.7612 50.5015L51.0806 48.8203H51.0975Z" fill="#FFAC3F"/>
<path fill-rule="evenodd" clip-rule="evenodd" d="M52.7446 41.8245C53.2773 42.6063 53.5533 43.5348 53.5345 44.4808C53.5207 45.4011 53.2469 46.2985 52.7446 47.0696L54.4252 48.7508C55.4019 47.543 55.9304 46.0343 55.921 44.4808C55.9372 42.9137 55.4151 41.3884 54.442 40.1602L52.7615 41.8413L52.7446 41.8245Z" fill="#FFAC3F"/>
<path fill-rule="evenodd" clip-rule="evenodd" d="M54.4754 49.2422C54.6299 49.2422 54.7828 49.2727 54.9255 49.3319C55.0682 49.391 55.198 49.4777 55.3073 49.587C55.4165 49.6962 55.5032 49.8259 55.5623 49.9687C55.6214 50.1114 55.6517 50.2644 55.6517 50.4189C55.6517 50.731 55.5279 51.0304 55.3073 51.2511C55.0867 51.4718 54.7874 51.5958 54.4754 51.5958C54.3217 51.5958 54.1695 51.5653 54.0278 51.5059C53.886 51.4466 53.7574 51.3595 53.6495 51.25C53.5416 51.1405 53.4564 51.0108 53.3992 50.8681C53.3419 50.7254 53.3134 50.5726 53.3157 50.4189C53.3134 50.2652 53.3419 50.1126 53.3992 49.9699C53.4564 49.8272 53.5416 49.6973 53.6495 49.5878C53.7574 49.4783 53.886 49.3914 54.0278 49.3321C54.1695 49.2727 54.3217 49.2422 54.4754 49.2422Z" fill="#FFAC3F"/>
<path fill-rule="evenodd" clip-rule="evenodd" d="M42.4762 49.2422C42.7868 49.2596 43.0783 49.3975 43.2886 49.6268C43.4989 49.856 43.6113 50.1584 43.6021 50.4694C43.5897 50.7642 43.4672 51.0435 43.2587 51.2521C43.0501 51.4607 42.7709 51.5834 42.4762 51.5958C42.1656 51.5784 41.8741 51.4403 41.6638 51.211C41.4535 50.9818 41.3409 50.6796 41.3501 50.3686C41.3662 50.0751 41.4901 49.7979 41.6979 49.59C41.9056 49.3822 42.1828 49.2583 42.4762 49.2422Z" fill="#FFAC3F"/>
<path fill-rule="evenodd" clip-rule="evenodd" d="M54.5093 37.2578C54.8184 37.2622 55.1133 37.3881 55.3303 37.6083C55.5473 37.8285 55.6689 38.1253 55.6688 38.4345C55.6689 38.5861 55.6387 38.7362 55.5802 38.876C55.5217 39.0158 55.4362 39.1427 55.3283 39.249C55.2204 39.3554 55.0922 39.4393 54.9516 39.4957C54.811 39.5522 54.6608 39.58 54.5093 39.5778C54.2047 39.5778 53.9121 39.4578 53.6951 39.2439C53.4781 39.03 53.354 38.7393 53.3496 38.4345C53.3496 38.1253 53.4713 37.8285 53.6883 37.6083C53.9053 37.3881 54.2002 37.2622 54.5093 37.2578Z" fill="#FFAC3F"/>
<path fill-rule="evenodd" clip-rule="evenodd" d="M42.4761 37.2579C42.6276 37.2557 42.778 37.2836 42.9186 37.34C43.0592 37.3965 43.1872 37.4803 43.2951 37.5867C43.403 37.6931 43.4887 37.82 43.5472 37.9598C43.6057 38.0996 43.6356 38.2497 43.6356 38.4012C43.6313 38.7075 43.5077 38.9999 43.2912 39.2165C43.0746 39.4331 42.7823 39.5568 42.4761 39.5611C42.3224 39.5633 42.1699 39.5351 42.0272 39.4778C41.8846 39.4205 41.7547 39.3354 41.6452 39.2274C41.5358 39.1195 41.4487 38.9908 41.3894 38.849C41.3301 38.7071 41.2995 38.555 41.2996 38.4012C41.3018 38.2489 41.334 38.0984 41.3943 37.9586C41.4546 37.8187 41.5419 37.692 41.6512 37.5859C41.7604 37.4797 41.8894 37.3961 42.0309 37.3398C42.1725 37.2836 42.3238 37.2557 42.4761 37.2579Z" fill="#FFAC3F"/>
<path d="M72.8304 51.2081C71.2004 46.8781 67.1704 37.9681 64.6804 34.8281C64.2525 34.1986 63.656 33.7024 62.9591 33.3964C62.2622 33.0905 61.4933 32.987 60.7403 33.098C63.7202 36.1924 65.3836 40.3221 65.3804 44.618C65.3875 48.3512 64.133 51.9774 61.8204 54.908C61.7004 54.618 61.5704 54.328 61.4304 54.048C59.6004 50.298 58.9904 48.578 58.6204 47.858C58.2504 47.138 57.0804 45.668 55.6204 46.178C54.0304 46.748 54.3704 48.928 54.3704 48.928C54.8147 51.1172 55.0922 53.3369 55.2004 55.5681C55.2004 57.9481 54.3604 60.178 55.2004 63.358C55.3488 63.9577 55.5955 64.5288 55.9304 65.048C56.0604 65.348 56.2203 65.678 56.4003 66.048C57.3204 67.6127 58.414 69.0685 59.6603 70.388V73.388H71.5503C71.3662 71.1974 71.3897 68.9943 71.6204 66.8081C72.3504 60.5881 74.1504 54.7181 72.8304 51.2081Z" fill="#92D2E7"/>
<path d="M72.0702 76.4275C72.0675 76.7546 71.9357 77.0675 71.7035 77.2979C71.4712 77.5282 71.1573 77.6575 70.8302 77.6575C70.504 77.6575 70.1911 77.5279 69.9604 77.2972C69.7298 77.0666 69.6001 76.7537 69.6001 76.4275C69.5988 76.2651 69.6297 76.1041 69.6909 75.9537C69.7521 75.8033 69.8425 75.6665 69.9568 75.5513C70.0712 75.436 70.2073 75.3444 70.3572 75.282C70.507 75.2195 70.6678 75.1875 70.8302 75.1875C71.159 75.1875 71.4744 75.3181 71.7069 75.5507C71.9395 75.7832 72.0702 76.0986 72.0702 76.4275Z" fill="white"/>
</svg>
