<svg width="106" height="106" viewBox="0 0 106 106" fill="none" xmlns="http://www.w3.org/2000/svg">
<path d="M97 52.9901C97 64.6606 92.3646 75.8531 84.1133 84.1062C75.8619 92.3594 64.6704 96.9974 53 97C41.3296 96.9974 30.138 92.3594 21.8867 84.1062C13.6354 75.8531 9 64.6606 9 52.9901C9.00263 41.3223 13.6395 30.1333 21.8908 21.8838C30.1421 13.6344 41.3322 9 53 9C64.6678 9 75.8579 13.6344 84.1092 21.8838C92.3605 30.1333 96.9974 41.3223 97 52.9901Z" fill="#EDF3FC"/>
<path d="M53 106C38.9476 105.987 25.4746 100.398 15.5381 90.4619C5.60152 80.5254 0.0133514 67.0524 0 53.0001C0.0160162 38.9485 5.60505 25.477 15.541 15.541C25.477 5.60505 38.9484 0.0160162 53 0C67.0516 0.0160162 80.523 5.60505 90.459 15.541C100.395 25.477 105.984 38.9485 106 53.0001C105.987 67.0524 100.398 80.5254 90.4619 90.4619C80.5253 100.398 67.0524 105.987 53 106ZM53 1.70441C39.3987 1.71776 26.3582 7.12615 16.7397 16.7427C7.12124 26.3593 1.7104 39.3988 1.69438 53.0001C1.71039 66.6022 7.12091 79.6426 16.7391 89.2608C26.3573 98.879 39.3978 104.29 53 104.306C66.6022 104.29 79.6426 98.879 89.2608 89.2608C98.879 79.6426 104.29 66.6022 104.306 53.0001C104.29 39.3988 98.8787 26.3593 89.2602 16.7427C79.6417 7.12615 66.6013 1.71776 53 1.70441Z" fill="#EDF3FC"/>
<path d="M40.4102 71.4102L42.8602 85.0101C42.9486 85.5941 43.2434 86.1269 43.691 86.5122C44.1387 86.8975 44.7096 87.1096 45.3002 87.1101H60.9602C61.5508 87.1096 62.1216 86.8975 62.5693 86.5122C63.0169 86.1269 63.3117 85.5941 63.4001 85.0101L65.8401 71.4102H40.4102Z" fill="#479CCB"/>
<path d="M66.2601 71.4105H39.9901C39.3562 71.4105 38.7483 71.1587 38.3001 70.7104C37.8519 70.2622 37.6001 69.6544 37.6001 69.0205V66.6205C37.6001 65.9866 37.8519 65.3788 38.3001 64.9305C38.7483 64.4823 39.3562 64.2305 39.9901 64.2305H66.2601C66.894 64.2305 67.5019 64.4823 67.9501 64.9305C68.3983 65.3788 68.6501 65.9866 68.6501 66.6205V69.0205C68.6501 69.6544 68.3983 70.2622 67.9501 70.7104C67.5019 71.1587 66.894 71.4105 66.2601 71.4105Z" fill="#0077B6"/>
<path d="M59.41 52.7905C57.3654 53.9282 55.6867 55.6242 54.5701 57.6804V61.9404C56.7001 62.4204 60.5101 62.9405 63.7501 61.2405C68.5401 58.7705 70.2501 52.5504 70.2501 52.5504C70.2501 52.5504 64.2 50.3605 59.41 52.7905Z" fill="#92D2E7"/>
<path d="M51.68 57.6786C50.5602 55.6247 48.8823 53.9295 46.84 52.7887C42.05 50.3187 36 52.5486 36 52.5486C36 52.5486 37.71 58.7686 42.5 61.2386C45.73 62.8986 49.5 62.4186 51.68 61.9386V57.6786Z" fill="#92D2E7"/>
<path d="M69.6202 35.49C69.6175 39.8617 67.879 44.0534 64.7868 47.1437C61.6946 50.234 57.5019 51.97 53.1302 51.97C48.7646 51.962 44.5806 50.2223 41.4965 47.1326C38.4123 44.0428 36.6802 39.8556 36.6802 35.49C36.6802 33.3245 37.1067 31.1802 37.9354 29.1796C38.7641 27.1789 39.9788 25.3611 41.51 23.8298C43.0412 22.2986 44.8591 21.0839 46.8597 20.2552C48.8604 19.4265 51.0047 19 53.1702 19C57.5367 19.0106 61.7207 20.7525 64.8045 23.8439C67.8883 26.9352 69.6202 31.1235 69.6202 35.49Z" fill="#FFAC3F"/>
<path opacity="0.7" d="M53.1302 51.9701C52.6369 51.9701 52.1569 51.9502 51.6902 51.9102V64.2301H54.5702V51.9102C54.0902 51.9502 53.6102 51.9701 53.1302 51.9701Z" fill="#0077B6"/>
<path d="M65.5 35.4894C65.5 38.7701 64.1967 41.9165 61.8769 44.2363C59.5571 46.5562 56.4107 47.8594 53.13 47.8594C51.5047 47.8607 49.8951 47.5417 48.3931 46.9207C46.8912 46.2996 45.5263 45.3887 44.3766 44.2399C43.2269 43.0911 42.3148 41.7269 41.6926 40.2255C41.0703 38.724 40.75 37.1147 40.75 35.4894C40.75 32.206 42.0543 29.0571 44.376 26.7354C46.6977 24.4137 49.8466 23.1094 53.13 23.1094C54.7553 23.1094 56.3646 23.4297 57.8661 24.052C59.3675 24.6743 60.7316 25.5862 61.8804 26.736C63.0292 27.8857 63.9402 29.2506 64.5613 30.7526C65.1823 32.2545 65.5013 33.8641 65.5 35.4894Z" fill="#FFE37B"/>
<path fill-rule="evenodd" clip-rule="evenodd" d="M57.526 31.0972C57.5041 31.0375 57.5041 30.972 57.526 30.9123C57.5014 30.8473 57.5014 30.7756 57.526 30.7106C57.5856 30.6629 57.6597 30.6367 57.736 30.6367C57.8124 30.6367 57.8865 30.6629 57.9461 30.7106C57.9706 30.7756 57.9706 30.8473 57.9461 30.9123C57.9586 30.9416 57.965 30.9731 57.965 31.0049C57.965 31.0367 57.9586 31.068 57.9461 31.0972C57.8865 31.145 57.8124 31.1711 57.736 31.1711C57.6597 31.1711 57.5856 31.145 57.526 31.0972Z" fill="#FFAC3F"/>
<path fill-rule="evenodd" clip-rule="evenodd" d="M56.7869 31.8757C56.765 31.816 56.765 31.7505 56.7869 31.6908C56.7909 31.6163 56.8222 31.5459 56.8749 31.4931C56.9276 31.4404 56.998 31.4091 57.0725 31.4051C57.1375 31.3806 57.2091 31.3806 57.2741 31.4051C57.2879 31.466 57.2879 31.5291 57.2741 31.59C57.2937 31.6558 57.2937 31.7259 57.2741 31.7917C57.2087 31.8135 57.1379 31.8135 57.0725 31.7917C57.0413 31.8079 57.0068 31.8164 56.9717 31.8164C56.9366 31.8164 56.9019 31.8079 56.8708 31.7917" fill="#FFAC3F"/>
<path fill-rule="evenodd" clip-rule="evenodd" d="M55.9634 32.6513C55.9149 32.5986 55.8881 32.5296 55.8881 32.458C55.8881 32.3864 55.9149 32.3174 55.9634 32.2647C56.0188 32.215 56.0906 32.1875 56.165 32.1875C56.2394 32.1875 56.3114 32.215 56.3669 32.2647C56.4153 32.3174 56.4422 32.3864 56.4422 32.458C56.4422 32.5296 56.4153 32.5986 56.3669 32.6513C56.3379 32.6648 56.3063 32.6718 56.2744 32.6718C56.2424 32.6718 56.2108 32.6648 56.1818 32.6513C56.1478 32.6677 56.1105 32.6761 56.0727 32.6761C56.0349 32.6761 55.9974 32.6677 55.9634 32.6513Z" fill="#FFAC3F"/>
<path fill-rule="evenodd" clip-rule="evenodd" d="M55.1902 33.4332C55.1417 33.3804 55.1149 33.3115 55.1149 33.2399C55.1149 33.1682 55.1417 33.0993 55.1902 33.0465C55.2498 32.9988 55.3239 32.9727 55.4002 32.9727C55.4766 32.9727 55.5507 32.9988 55.6103 33.0465C55.6587 33.0993 55.6856 33.1682 55.6856 33.2399C55.6856 33.3115 55.6587 33.3804 55.6103 33.4332C55.5404 33.4621 55.4618 33.4621 55.3918 33.4332C55.3271 33.4593 55.2548 33.4593 55.1902 33.4332Z" fill="#FFAC3F"/>
<path fill-rule="evenodd" clip-rule="evenodd" d="M54.4507 34.2306C54.4207 34.2098 54.3958 34.1823 54.3782 34.1502C54.3607 34.1181 54.351 34.0823 54.3497 34.0457C54.3497 34.0089 54.3571 33.9726 54.3717 33.9388C54.3862 33.905 54.4077 33.8745 54.4345 33.8493C54.4612 33.8241 54.4928 33.8048 54.5274 33.7923C54.562 33.7798 54.5988 33.7744 54.6355 33.7767C54.6647 33.7642 54.6961 33.7578 54.7278 33.7578C54.7596 33.7578 54.7911 33.7642 54.8203 33.7767C54.8465 33.8414 54.8465 33.9137 54.8203 33.9784C54.8203 34.0137 54.8133 34.0488 54.7998 34.0814C54.7863 34.1141 54.7665 34.1437 54.7416 34.1687C54.7166 34.1936 54.687 34.2134 54.6544 34.2269C54.6218 34.2405 54.5867 34.2475 54.5514 34.2475C54.5514 34.2475 54.417 34.2476 54.3834 34.1635" fill="#FFAC3F"/>
<path fill-rule="evenodd" clip-rule="evenodd" d="M53.5433 34.8961C53.5271 34.8649 53.5187 34.8302 53.5187 34.7951C53.5187 34.76 53.5271 34.7255 53.5433 34.6943C53.5988 34.6447 53.6706 34.6172 53.745 34.6172C53.8194 34.6172 53.8912 34.6447 53.9467 34.6943C53.9875 34.7473 54.0096 34.8123 54.0096 34.8793C54.0096 34.9462 53.9875 35.0112 53.9467 35.0642C53.923 35.0924 53.8935 35.1153 53.8601 35.1308C53.8267 35.1464 53.7903 35.1544 53.7534 35.1544C53.7166 35.1544 53.6801 35.1464 53.6467 35.1308C53.6133 35.1153 53.5838 35.0924 53.5602 35.0642C53.5302 35.0433 53.5055 35.0158 53.4879 34.9837C53.4704 34.9516 53.4605 34.9158 53.4592 34.8793L53.5433 34.8961Z" fill="#FFAC3F"/>
<path fill-rule="evenodd" clip-rule="evenodd" d="M52.098 36.582C52.0845 36.5531 52.0775 36.5214 52.0775 36.4895C52.0775 36.4575 52.0845 36.4261 52.098 36.3971C52.0845 36.3682 52.0775 36.3365 52.0775 36.3046C52.0775 36.2726 52.0845 36.2412 52.098 36.2122C52.1233 36.1836 52.1543 36.1606 52.1891 36.1449C52.2239 36.1292 52.2615 36.1211 52.2997 36.1211C52.3378 36.1211 52.3755 36.1292 52.4103 36.1449C52.445 36.1606 52.4761 36.1836 52.5014 36.2122C52.5206 36.2723 52.5206 36.337 52.5014 36.3971C52.5138 36.4263 52.5202 36.4577 52.5202 36.4895C52.5202 36.5212 52.5138 36.5528 52.5014 36.582C52.4789 36.6144 52.4486 36.6405 52.4133 36.6581C52.3781 36.6758 52.3391 36.6844 52.2997 36.683C52.2632 36.6817 52.2274 36.6718 52.1953 36.6542C52.1632 36.6367 52.1357 36.612 52.1149 36.582" fill="#FFAC3F"/>
<path fill-rule="evenodd" clip-rule="evenodd" d="M51.224 37.3041C51.2115 37.2748 51.2051 37.2433 51.2051 37.2115C51.2051 37.1797 51.2115 37.1482 51.224 37.119C51.2021 37.0592 51.2021 36.9938 51.224 36.9341C51.2831 36.8785 51.3613 36.8477 51.4424 36.8477C51.5236 36.8477 51.6017 36.8785 51.6609 36.9341C51.6734 36.9633 51.6798 36.9948 51.6798 37.0266C51.6798 37.0584 51.6734 37.0897 51.6609 37.119C51.6734 37.1482 51.6798 37.1797 51.6798 37.2115C51.6798 37.2433 51.6734 37.2748 51.6609 37.3041C51.6333 37.3349 51.5996 37.3598 51.562 37.3771C51.5245 37.3945 51.4838 37.4039 51.4424 37.4048C51.3627 37.3887 51.2879 37.3543 51.224 37.3041Z" fill="#FFAC3F"/>
<path fill-rule="evenodd" clip-rule="evenodd" d="M50.5351 38.0949C50.4867 38.0422 50.4598 37.9732 50.4598 37.9016C50.4598 37.83 50.4867 37.761 50.5351 37.7083C50.5604 37.6797 50.5914 37.6567 50.6262 37.641C50.661 37.6253 50.6986 37.6172 50.7368 37.6172C50.7749 37.6172 50.8128 37.6253 50.8476 37.641C50.8823 37.6567 50.9132 37.6797 50.9385 37.7083C50.9869 37.761 51.0137 37.83 51.0137 37.9016C51.0137 37.9732 50.9869 38.0422 50.9385 38.0949C50.8727 38.1146 50.8026 38.1146 50.7368 38.0949C50.6718 38.1195 50.6001 38.1195 50.5351 38.0949Z" fill="#FFAC3F"/>
<path fill-rule="evenodd" clip-rule="evenodd" d="M49.7616 38.8692C49.7337 38.8475 49.7114 38.8193 49.6968 38.7871C49.6821 38.7549 49.6755 38.7196 49.6775 38.6843C49.6773 38.6113 49.7052 38.5411 49.7552 38.4879C49.8052 38.4348 49.8736 38.4027 49.9464 38.3984C50.0221 38.3986 50.0947 38.4289 50.1481 38.4826C50.1715 38.542 50.1715 38.6081 50.1481 38.6675C50.1606 38.6967 50.167 38.7282 50.167 38.76C50.167 38.7918 50.1606 38.8232 50.1481 38.8524C50.0937 38.9046 50.0218 38.9346 49.9464 38.9365C49.9199 38.957 49.8876 38.9679 49.8541 38.9679C49.8207 38.9679 49.7881 38.957 49.7616 38.9365" fill="#FFAC3F"/>
<path fill-rule="evenodd" clip-rule="evenodd" d="M48.9386 39.6538C48.9117 39.6312 48.8901 39.6029 48.8756 39.5709C48.8611 39.5389 48.8538 39.504 48.8545 39.4689C48.8525 39.4335 48.8591 39.3983 48.8738 39.3661C48.8884 39.3338 48.9107 39.3057 48.9386 39.284C48.995 39.2295 49.0703 39.1992 49.1487 39.1992C49.227 39.1992 49.3023 39.2295 49.3587 39.284C49.3712 39.3132 49.3776 39.3447 49.3776 39.3765C49.3776 39.4083 49.3712 39.4396 49.3587 39.4689C49.3712 39.4981 49.3776 39.5296 49.3776 39.5614C49.3776 39.5932 49.3712 39.6245 49.3587 39.6538C49.3023 39.7082 49.227 39.7387 49.1487 39.7387C49.0703 39.7387 48.995 39.7082 48.9386 39.6538Z" fill="#FFAC3F"/>
<path fill-rule="evenodd" clip-rule="evenodd" d="M48.1992 40.434C48.1508 40.3812 48.1239 40.3122 48.1239 40.2406C48.1239 40.169 48.1508 40.1001 48.1992 40.0473C48.2229 40.0191 48.2526 39.9962 48.286 39.9806C48.3194 39.965 48.3556 39.957 48.3924 39.957C48.4293 39.957 48.4657 39.965 48.4991 39.9806C48.5325 39.9962 48.5622 40.0191 48.5859 40.0473C48.6343 40.1001 48.6612 40.169 48.6612 40.2406C48.6612 40.3122 48.6343 40.3812 48.5859 40.434C48.5622 40.4622 48.5325 40.4849 48.4991 40.5004C48.4657 40.516 48.4293 40.5243 48.3924 40.5243C48.3556 40.5243 48.3194 40.516 48.286 40.5004C48.2526 40.4849 48.2229 40.4622 48.1992 40.434Z" fill="#FFAC3F"/>
<path fill-rule="evenodd" clip-rule="evenodd" d="M48.5856 31.1029C48.609 31.0435 48.609 30.9774 48.5856 30.918C48.5856 30.8805 48.5782 30.8433 48.5638 30.8086C48.5495 30.774 48.5284 30.7424 48.5019 30.7159C48.4753 30.6894 48.4438 30.6683 48.4091 30.6539C48.3745 30.6396 48.3373 30.6322 48.2998 30.6322C48.2706 30.6197 48.239 30.6133 48.2073 30.6133C48.1755 30.6133 48.1442 30.6197 48.1149 30.6322C48.0904 30.6972 48.0904 30.7689 48.1149 30.8339C48.1025 30.8631 48.0961 30.8947 48.0961 30.9264C48.0961 30.9582 48.1025 30.9896 48.1149 31.0188C48.1685 31.0722 48.241 31.1023 48.3166 31.1023C48.3922 31.1023 48.4647 31.0722 48.5183 31.0188" fill="#FFAC3F"/>
<path fill-rule="evenodd" clip-rule="evenodd" d="M49.3584 31.8705C49.3803 31.8108 49.3803 31.7453 49.3584 31.6856C49.3829 31.6205 49.3829 31.5488 49.3584 31.4838C49.2988 31.4361 49.2247 31.4102 49.1484 31.4102C49.072 31.4102 48.9979 31.4361 48.9383 31.4838C48.8847 31.5373 48.8544 31.6098 48.8542 31.6856C48.8535 31.7207 48.8608 31.7556 48.8753 31.7876C48.8898 31.8196 48.9114 31.8479 48.9383 31.8705C48.9979 31.9182 49.072 31.9443 49.1484 31.9443C49.2247 31.9443 49.2988 31.9182 49.3584 31.8705Z" fill="#FFAC3F"/>
<path fill-rule="evenodd" clip-rule="evenodd" d="M50.1488 32.6513C50.1972 32.5986 50.2241 32.5296 50.2241 32.458C50.2241 32.3864 50.1972 32.3174 50.1488 32.2647C50.0933 32.215 50.0215 32.1875 49.9471 32.1875C49.8727 32.1875 49.8009 32.215 49.7454 32.2647C49.7267 32.3306 49.7267 32.4004 49.7454 32.4664C49.733 32.4956 49.7266 32.527 49.7266 32.5587C49.7266 32.5905 49.733 32.6221 49.7454 32.6513C49.8104 32.6758 49.8821 32.6758 49.9471 32.6513C49.9808 32.669 50.0184 32.6782 50.0564 32.6782C50.0945 32.6782 50.1319 32.669 50.1656 32.6513" fill="#FFAC3F"/>
<path fill-rule="evenodd" clip-rule="evenodd" d="M50.9383 33.4377C50.9879 33.3822 51.0154 33.3104 51.0154 33.2359C51.0154 33.1615 50.9879 33.0897 50.9383 33.0342C50.8828 32.9846 50.811 32.957 50.7366 32.957C50.6622 32.957 50.5904 32.9846 50.5349 33.0342C50.4853 33.0897 50.458 33.1615 50.458 33.2359C50.458 33.3104 50.4853 33.3822 50.5349 33.4377C50.5639 33.4512 50.5955 33.4582 50.6275 33.4582C50.6594 33.4582 50.6908 33.4512 50.7198 33.4377C50.7912 33.4578 50.8668 33.4578 50.9383 33.4377Z" fill="#FFAC3F"/>
<path fill-rule="evenodd" clip-rule="evenodd" d="M51.7118 34.2294C51.7337 34.1697 51.7337 34.1042 51.7118 34.0445C51.7363 33.9795 51.7363 33.9078 51.7118 33.8428C51.6554 33.7883 51.5801 33.7578 51.5017 33.7578C51.4234 33.7578 51.3481 33.7883 51.2917 33.8428C51.2755 33.8739 51.2668 33.9086 51.2668 33.9437C51.2668 33.9789 51.2755 34.0133 51.2917 34.0445C51.2782 34.0735 51.2712 34.1051 51.2712 34.1371C51.2712 34.169 51.2782 34.2005 51.2917 34.2294C51.3513 34.2771 51.4254 34.3033 51.5017 34.3033C51.5781 34.3033 51.6522 34.2771 51.7118 34.2294Z" fill="#FFAC3F"/>
<path fill-rule="evenodd" clip-rule="evenodd" d="M52.5689 34.8942C52.5934 34.8292 52.5934 34.7575 52.5689 34.6925C52.5161 34.6441 52.4472 34.6172 52.3756 34.6172C52.304 34.6172 52.2349 34.6441 52.1822 34.6925C52.1325 34.748 52.1052 34.8198 52.1052 34.8942C52.1052 34.9687 52.1325 35.0405 52.1822 35.096C52.2376 35.1456 52.3094 35.1731 52.3838 35.1731C52.4582 35.1731 52.5302 35.1456 52.5857 35.096C52.6003 35.0295 52.6003 34.9607 52.5857 34.8942H52.5689Z" fill="#FFAC3F"/>
<path fill-rule="evenodd" clip-rule="evenodd" d="M53.2742 35.7931C53.3238 35.7376 53.3513 35.6658 53.3513 35.5914C53.3513 35.517 53.3238 35.4451 53.2742 35.3897C53.2187 35.34 53.1469 35.3125 53.0725 35.3125C52.9981 35.3125 52.9263 35.34 52.8709 35.3897C52.8213 35.4451 52.7939 35.517 52.7939 35.5914C52.7939 35.6658 52.8213 35.7376 52.8709 35.7931C52.9263 35.8427 52.9981 35.8701 53.0725 35.8701C53.1469 35.8701 53.2187 35.8427 53.2742 35.7931Z" fill="#FFAC3F"/>
<path fill-rule="evenodd" clip-rule="evenodd" d="M54.0476 36.5798C54.0601 36.5505 54.0665 36.519 54.0665 36.4872C54.0665 36.4554 54.0601 36.4241 54.0476 36.3949C54.0601 36.3656 54.0665 36.3341 54.0665 36.3023C54.0665 36.2705 54.0601 36.2392 54.0476 36.21C53.9912 36.1555 53.9159 36.125 53.8376 36.125C53.7592 36.125 53.6839 36.1555 53.6275 36.21C53.615 36.2392 53.6084 36.2705 53.6084 36.3023C53.6084 36.3341 53.615 36.3656 53.6275 36.3949C53.615 36.4241 53.6084 36.4554 53.6084 36.4872C53.6084 36.519 53.615 36.5505 53.6275 36.5798C53.6525 36.6094 53.6833 36.6336 53.7179 36.651C53.7526 36.6683 53.7904 36.6785 53.8291 36.6807C53.8705 36.6798 53.9112 36.6702 53.9487 36.6528C53.9863 36.6355 54.02 36.6106 54.0476 36.5798Z" fill="#FFAC3F"/>
<path fill-rule="evenodd" clip-rule="evenodd" d="M54.8375 37.3008C54.8568 37.2406 54.8568 37.1758 54.8375 37.1157C54.8539 37.0551 54.8539 36.9913 54.8375 36.9308C54.8123 36.9021 54.7812 36.8794 54.7464 36.8636C54.7117 36.8479 54.674 36.8398 54.6359 36.8398C54.5977 36.8398 54.5598 36.8479 54.5251 36.8636C54.4903 36.8794 54.4594 36.9021 54.4342 36.9308C54.4063 36.9525 54.384 36.9806 54.3694 37.0128C54.3547 37.0451 54.3481 37.0803 54.3501 37.1157C54.3544 37.1885 54.3864 37.2571 54.4395 37.3071C54.4926 37.3571 54.5629 37.3848 54.6359 37.3847C54.7008 37.4092 54.7725 37.4092 54.8375 37.3847" fill="#FFAC3F"/>
<path fill-rule="evenodd" clip-rule="evenodd" d="M55.6272 38.0949C55.6756 38.0422 55.7025 37.9732 55.7025 37.9016C55.7025 37.83 55.6756 37.761 55.6272 37.7083C55.6019 37.6797 55.5709 37.6567 55.5361 37.641C55.5013 37.6253 55.4637 37.6172 55.4255 37.6172C55.3874 37.6172 55.3497 37.6253 55.3149 37.641C55.2802 37.6567 55.2491 37.6797 55.2238 37.7083C55.1754 37.761 55.1486 37.83 55.1486 37.9016C55.1486 37.9732 55.1754 38.0422 55.2238 38.0949C55.2531 38.1074 55.2846 38.1138 55.3164 38.1138C55.3481 38.1138 55.3795 38.1074 55.4087 38.0949C55.4797 38.1181 55.5562 38.1181 55.6272 38.0949Z" fill="#FFAC3F"/>
<path fill-rule="evenodd" clip-rule="evenodd" d="M56.3502 38.8624C56.3637 38.8335 56.3707 38.802 56.3707 38.7701C56.3707 38.7381 56.3637 38.7065 56.3502 38.6775C56.365 38.6489 56.3726 38.6172 56.3726 38.585C56.3726 38.5528 56.365 38.5212 56.3502 38.4926C56.3266 38.4644 56.2968 38.4415 56.2635 38.4259C56.2301 38.4103 56.1938 38.4023 56.157 38.4023C56.1201 38.4023 56.0837 38.4103 56.0503 38.4259C56.0169 38.4415 55.9872 38.4644 55.9635 38.4926C55.9401 38.5521 55.9401 38.6181 55.9635 38.6775C55.9488 38.7061 55.9412 38.7379 55.9412 38.7701C55.9412 38.8023 55.9488 38.8339 55.9635 38.8624C55.9887 38.8907 56.0199 38.9129 56.0548 38.9275C56.0897 38.942 56.1274 38.9486 56.1652 38.9466C56.2007 38.9502 56.2365 38.9443 56.269 38.9295C56.3015 38.9148 56.3296 38.8916 56.3502 38.8624Z" fill="#FFAC3F"/>
<path fill-rule="evenodd" clip-rule="evenodd" d="M57.1736 39.6566C57.1981 39.5916 57.1981 39.5199 57.1736 39.4549C57.1871 39.4259 57.1941 39.3945 57.1941 39.3625C57.1941 39.3306 57.1871 39.2989 57.1736 39.27C57.15 39.2417 57.1202 39.2191 57.0868 39.2035C57.0534 39.1879 57.0172 39.1797 56.9804 39.1797C56.9435 39.1797 56.9071 39.1879 56.8737 39.2035C56.8403 39.2191 56.8108 39.2417 56.7871 39.27C56.7736 39.2989 56.7666 39.3306 56.7666 39.3625C56.7666 39.3945 56.7736 39.4259 56.7871 39.4549C56.7746 39.4841 56.768 39.5157 56.768 39.5474C56.768 39.5792 56.7746 39.6106 56.7871 39.6398C56.8108 39.668 56.8403 39.6909 56.8737 39.7065C56.9071 39.7221 56.9435 39.7301 56.9804 39.7301C57.0172 39.7301 57.0534 39.7221 57.0868 39.7065C57.1202 39.6909 57.15 39.668 57.1736 39.6398" fill="#FFAC3F"/>
<path fill-rule="evenodd" clip-rule="evenodd" d="M57.9464 40.4293C57.9915 40.3749 58.0162 40.3066 58.0162 40.2359C58.0162 40.1653 57.9915 40.097 57.9464 40.0426C57.8868 39.9949 57.8127 39.9687 57.7364 39.9688C57.66 39.9687 57.5859 39.9949 57.5263 40.0426C57.4825 40.0943 57.4584 40.1598 57.4584 40.2275C57.4584 40.2953 57.4825 40.3608 57.5263 40.4124C57.5827 40.4669 57.658 40.4972 57.7364 40.4972C57.8147 40.4972 57.89 40.4669 57.9464 40.4124" fill="#FFAC3F"/>
<path fill-rule="evenodd" clip-rule="evenodd" d="M50.434 31.3036C51.213 30.8012 52.1202 30.534 53.0472 30.534C53.9741 30.534 54.8815 30.8012 55.6606 31.3036L57.3412 29.6225C56.1146 28.6502 54.5954 28.1211 53.0303 28.1211C51.4653 28.1211 49.9463 28.6502 48.7197 29.6225L50.4003 31.3036H50.434Z" fill="#FFAC3F"/>
<path fill-rule="evenodd" clip-rule="evenodd" d="M48.7371 38.2593C48.219 37.4829 47.9426 36.5702 47.9426 35.6366C47.9426 34.7031 48.219 33.7906 48.7371 33.0142L47.0565 31.333C46.0998 32.5571 45.5801 34.0662 45.5801 35.62C45.5801 37.1738 46.0998 38.6828 47.0565 39.9068L48.7371 38.2257V38.2593Z" fill="#FFAC3F"/>
<path fill-rule="evenodd" clip-rule="evenodd" d="M55.6775 39.9414C54.9088 40.4785 53.9934 40.766 53.0557 40.7652C52.1136 40.7778 51.1912 40.4957 50.4173 39.9582L48.7367 41.6394C49.9645 42.6128 51.4891 43.135 53.0557 43.1188C54.6113 43.1133 56.1202 42.5865 57.3413 41.6226L55.6607 39.9414H55.6775Z" fill="#FFAC3F"/>
<path fill-rule="evenodd" clip-rule="evenodd" d="M57.3247 32.9456C57.8573 33.7274 58.1334 34.6559 58.1145 35.6019C58.1008 36.5222 57.827 37.4196 57.3247 38.1907L59.0053 39.8719C59.982 38.6641 60.5105 37.1554 60.501 35.6019C60.5173 34.0348 59.9952 32.5095 59.0221 31.2812L57.3415 32.9624L57.3247 32.9456Z" fill="#FFAC3F"/>
<path fill-rule="evenodd" clip-rule="evenodd" d="M59.0555 40.3633C59.21 40.3633 59.3628 40.3938 59.5056 40.453C59.6483 40.5121 59.7781 40.5988 59.8874 40.708C59.9966 40.8173 60.0832 40.947 60.1424 41.0898C60.2015 41.2325 60.2318 41.3855 60.2318 41.54C60.2318 41.8521 60.108 42.1515 59.8874 42.3722C59.6667 42.5929 59.3675 42.7169 59.0555 42.7169C58.9018 42.7169 58.7496 42.6864 58.6078 42.627C58.466 42.5677 58.3374 42.4806 58.2295 42.3711C58.1216 42.2616 58.0365 42.1319 57.9792 41.9892C57.922 41.8465 57.8935 41.6937 57.8958 41.54C57.8935 41.3863 57.922 41.2337 57.9792 41.091C58.0365 40.9483 58.1216 40.8184 58.2295 40.7089C58.3374 40.5994 58.466 40.5125 58.6078 40.4532C58.7496 40.3938 58.9018 40.3633 59.0555 40.3633Z" fill="#FFAC3F"/>
<path fill-rule="evenodd" clip-rule="evenodd" d="M47.0563 40.3633C47.3669 40.3807 47.6584 40.5186 47.8687 40.7479C48.079 40.9771 48.1914 41.2795 48.1822 41.5905C48.1698 41.8852 48.0473 42.1646 47.8387 42.3732C47.6302 42.5818 47.3509 42.7045 47.0563 42.7169C46.7457 42.6995 46.4542 42.5614 46.2439 42.3321C46.0336 42.1029 45.921 41.8007 45.9302 41.4897C45.9463 41.1962 46.0702 40.919 46.2779 40.7111C46.4857 40.5033 46.7629 40.3794 47.0563 40.3633Z" fill="#FFAC3F"/>
<path fill-rule="evenodd" clip-rule="evenodd" d="M59.0894 28.3789C59.3985 28.3833 59.6934 28.5092 59.9104 28.7294C60.1274 28.9496 60.2489 29.2464 60.2489 29.5556C60.2489 29.7072 60.2188 29.8572 60.1603 29.997C60.1018 30.1369 60.0163 30.2638 59.9084 30.3701C59.8005 30.4765 59.6723 30.5604 59.5317 30.6168C59.3911 30.6733 59.2409 30.7011 59.0894 30.6989C58.7847 30.6989 58.4922 30.5789 58.2752 30.365C58.0582 30.1511 57.9341 29.8604 57.9297 29.5556C57.9297 29.2464 58.0514 28.9496 58.2684 28.7294C58.4854 28.5092 58.7803 28.3833 59.0894 28.3789Z" fill="#FFAC3F"/>
<path fill-rule="evenodd" clip-rule="evenodd" d="M47.0562 28.379C47.2077 28.3768 47.3581 28.4047 47.4987 28.4611C47.6393 28.5176 47.7672 28.6014 47.8751 28.7078C47.983 28.8142 48.0688 28.9411 48.1273 29.0809C48.1857 29.2207 48.2157 29.3707 48.2157 29.5223C48.2113 29.8286 48.0878 30.121 47.8712 30.3376C47.6547 30.5542 47.3624 30.6778 47.0562 30.6822C46.9025 30.6844 46.7499 30.6562 46.6073 30.5989C46.4647 30.5416 46.3348 30.4564 46.2253 30.3485C46.1159 30.2406 46.0288 30.1119 45.9695 29.9701C45.9102 29.8282 45.8796 29.6761 45.8796 29.5223C45.8818 29.37 45.9141 29.2195 45.9744 29.0796C46.0347 28.9397 46.122 28.8131 46.2313 28.707C46.3405 28.6008 46.4695 28.5172 46.611 28.4609C46.7525 28.4047 46.9039 28.3768 47.0562 28.379Z" fill="#FFAC3F"/>
</svg>
