<svg width="226" height="226" viewBox="0 0 226 226" fill="none" xmlns="http://www.w3.org/2000/svg">
<path d="M170.645 147.239L171.465 147.444L170.645 147.649C168.271 148.26 166.105 149.497 164.373 151.233C162.642 152.968 161.409 155.138 160.804 157.513L160.576 158.333L160.371 157.513C159.766 155.138 158.533 152.968 156.802 151.233C155.07 149.497 152.904 148.26 150.53 147.649L149.709 147.444L150.53 147.239C152.91 146.648 155.084 145.42 156.818 143.686C158.552 141.952 159.781 139.778 160.371 137.398L160.576 136.555L160.804 137.398C161.394 139.778 162.623 141.952 164.357 143.686C166.091 145.42 168.265 146.648 170.645 147.239Z" fill="#03045E"/>
<path d="M123.899 47.5727L124.787 47.8004L123.899 48.0282C121.319 48.6705 118.962 50.0019 117.081 51.8797C115.199 53.7576 113.862 56.1114 113.215 58.6898L112.987 59.5783L112.759 58.6898C112.12 56.111 110.789 53.7554 108.911 51.8767C107.032 49.998 104.676 48.6672 102.097 48.0282L101.209 47.8004L102.097 47.5727C104.674 46.929 107.027 45.5969 108.905 43.7189C110.783 41.8409 112.115 39.4877 112.759 36.911L112.987 36L113.215 36.911C113.867 39.4872 115.205 41.8387 117.086 43.7159C118.967 45.593 121.321 46.9258 123.899 47.5727Z" fill="#F9AD48"/>
<path d="M63.7107 158.04L64.9182 158.336L63.7107 158.633C60.2376 159.497 57.066 161.293 54.5371 163.826C52.0083 166.359 50.2178 169.533 49.3586 173.008L49.0399 174.192L48.7437 173.008C47.8754 169.537 46.082 166.368 43.5546 163.836C41.0272 161.305 37.8603 159.506 34.3915 158.633L33.1841 158.336L34.3915 158.04C37.8575 157.168 41.0224 155.373 43.5496 152.846C46.0767 150.319 47.8718 147.154 48.7437 143.688L49.0399 142.481L49.3586 143.688C50.2237 147.158 52.0164 150.326 54.5447 152.854C57.0729 155.382 60.2415 157.175 63.7107 158.04Z" fill="#0096C7"/>
<path d="M194.998 133.918L196 134.145L194.998 134.396C192.171 135.109 189.59 136.574 187.528 138.636C185.467 140.697 184.002 143.279 183.288 146.105L183.038 147.085L182.81 146.105C182.095 143.276 180.626 140.693 178.561 138.631C176.495 136.569 173.909 135.106 171.078 134.396L170.098 134.145L171.078 133.918C173.911 133.204 176.497 131.736 178.563 129.67C180.628 127.605 182.096 125.018 182.81 122.185L183.038 121.206L183.288 122.185C184 125.015 185.464 127.6 187.526 129.665C189.587 131.731 192.169 133.2 194.998 133.918Z" fill="#03045E"/>
<path d="M57.5826 109.956C57.3662 108.399 57.3662 106.82 57.5826 105.263L48.6752 105.468C49.0619 107.008 49.0619 108.62 48.6752 110.161L57.5826 109.956Z" fill="#03045E"/>
<path d="M77.2427 90.2706L77.4479 81.5C75.9076 81.8877 74.2952 81.8877 72.7549 81.5L72.5499 90.4075C74.1015 90.1569 75.6791 90.1108 77.2427 90.2706Z" fill="#03045E"/>
<path d="M92.5516 109.501H117.087C116.923 107.936 116.977 106.357 117.246 104.808H92.392C92.6496 106.358 92.7033 107.936 92.5516 109.501Z" fill="#03045E"/>
<path d="M137.089 90.2957L136.884 81.3882C135.343 81.7749 133.731 81.7749 132.191 81.3882L132.396 90.1591C133.959 89.9993 135.537 90.0451 137.089 90.2957Z" fill="#03045E"/>
<path d="M160.941 105.394L152.033 105.189C152.238 106.747 152.238 108.324 152.033 109.882L160.804 110.087C160.462 108.535 160.509 106.923 160.941 105.394Z" fill="#03045E"/>
<path d="M117.929 143.113L128.773 124.341C127.289 123.812 125.88 123.092 124.581 122.2L114.284 140.015C115.634 140.877 116.861 141.92 117.929 143.113Z" fill="#03045E"/>
<path d="M95.3309 140.015L85.0338 122.2C83.7456 123.11 82.3342 123.831 80.8422 124.341L91.686 143.113C92.7595 141.925 93.985 140.883 95.3309 140.015Z" fill="#03045E"/>
<path d="M90.9111 165.646L84.5554 171.705C85.9023 172.546 87.0148 173.714 87.7902 175.1L94.2602 168.926C92.9971 167.993 91.8699 166.889 90.9111 165.646Z" fill="#03045E"/>
<path d="M115.379 168.926L121.825 175.1C122.616 173.718 123.735 172.552 125.083 171.705L118.727 165.646C117.763 166.884 116.636 167.987 115.379 168.926Z" fill="#03045E"/>
<path d="M139.64 179.768C139.64 181.017 139.393 182.254 138.914 183.408C138.436 184.562 137.734 185.611 136.849 186.493C135.965 187.375 134.915 188.075 133.76 188.551C132.605 189.027 131.367 189.27 130.117 189.267C127.596 189.267 125.177 188.267 123.392 186.486C121.607 184.705 120.601 182.289 120.595 179.768C120.595 177.242 121.598 174.82 123.384 173.034C125.17 171.249 127.592 170.245 130.117 170.245C132.643 170.245 135.065 171.249 136.851 173.034C138.637 174.82 139.64 177.242 139.64 179.768Z" fill="#F9AD48"/>
<path d="M69.9756 179.768C69.9756 181.017 70.222 182.254 70.7008 183.408C71.1797 184.562 71.8814 185.611 72.7659 186.493C73.6505 187.375 74.7006 188.075 75.8558 188.551C77.011 189.027 78.2488 189.27 79.4982 189.267C80.7476 189.27 81.9851 189.027 83.1403 188.551C84.2955 188.075 85.3456 187.375 86.2302 186.493C87.1147 185.611 87.8164 184.562 88.2953 183.408C88.7741 182.254 89.0205 181.017 89.0205 179.768C89.0205 177.242 88.0174 174.82 86.2316 173.034C84.4457 171.249 82.0237 170.245 79.4982 170.245C76.9727 170.245 74.5504 171.249 72.7645 173.034C70.9787 174.82 69.9756 177.242 69.9756 179.768Z" fill="#F9AD48"/>
<path d="M122.372 154.851C122.372 159.521 120.516 164 117.214 167.303C113.911 170.605 109.432 172.461 104.762 172.461C102.45 172.461 100.162 172.005 98.0264 171.12C95.8911 170.235 93.9514 168.937 92.318 167.302C90.6846 165.666 89.3896 163.725 88.5071 161.588C87.6246 159.452 87.1721 157.162 87.1751 154.851C87.1721 152.539 87.6246 150.25 88.5071 148.114C89.3896 145.977 90.6846 144.036 92.318 142.4C93.9514 140.765 95.8911 139.467 98.0264 138.582C100.162 137.697 102.45 137.241 104.762 137.241C109.432 137.241 113.911 139.096 117.214 142.399C120.516 145.701 122.372 150.181 122.372 154.851Z" fill="#0096C7"/>
<path d="M82.0496 65.4836C80.2639 63.6987 77.8423 62.6963 75.3176 62.6963C72.7929 62.6963 70.3716 63.6987 68.5859 65.4836C66.8011 67.2693 65.7983 69.6908 65.7983 72.2156C65.7983 74.7403 66.8011 77.1616 68.5859 78.9473C70.3716 80.7321 72.7929 81.7348 75.3176 81.7348C77.8423 81.7348 80.2639 80.7321 82.0496 78.9473C83.8344 77.1616 84.8369 74.7403 84.8369 72.2156C84.8369 69.6908 83.8344 67.2693 82.0496 65.4836Z" fill="#F9AD48"/>
<path d="M32.797 114.739C31.9105 113.857 31.2069 112.808 30.7269 111.652C30.2469 110.497 30 109.259 30 108.008C30 106.757 30.2469 105.518 30.7269 104.363C31.2069 103.207 31.9105 102.158 32.797 101.276C34.5827 99.4907 37.004 98.4883 39.5287 98.4883C42.0535 98.4883 44.4747 99.4907 46.2604 101.276C48.0452 103.061 49.048 105.483 49.048 108.008C49.048 110.532 48.0452 112.954 46.2604 114.739C45.3793 115.628 44.3307 116.334 43.1753 116.816C42.0199 117.298 40.7805 117.546 39.5287 117.546C38.2769 117.546 37.0376 117.298 35.8821 116.816C34.7267 116.334 33.6781 115.628 32.797 114.739Z" fill="#F9AD48"/>
<path d="M87.4939 95.2813C84.1916 91.9801 79.7135 90.1255 75.0441 90.1255C70.3748 90.1255 65.8967 91.9801 62.5944 95.2813C59.2932 98.5836 57.4386 103.062 57.4386 107.731C57.4386 112.4 59.2932 116.878 62.5944 120.181C65.8967 123.482 70.3748 125.337 75.0441 125.337C79.7135 125.337 84.1916 123.482 87.4939 120.181C90.7895 116.876 92.6402 112.399 92.6402 107.731C92.6402 103.064 90.7895 98.5865 87.4939 95.2813Z" fill="#0096C7"/>
<path d="M127.566 65.4858C129.355 63.6996 131.781 62.6963 134.309 62.6963C136.837 62.6963 139.263 63.6996 141.052 65.4858C142.837 67.2715 143.84 69.693 143.84 72.2178C143.84 74.7425 142.837 77.1638 141.052 78.9495C139.263 80.7357 136.837 81.739 134.309 81.739C131.781 81.739 129.355 80.7357 127.566 78.9495C125.781 77.1638 124.778 74.7425 124.778 72.2178C124.778 69.693 125.781 67.2715 127.566 65.4858Z" fill="#F9AD48"/>
<path d="M176.842 114.739C178.627 112.954 179.629 110.532 179.629 108.008C179.629 105.483 178.627 103.061 176.842 101.276C175.056 99.4907 172.635 98.4883 170.11 98.4883C167.585 98.4883 165.164 99.4907 163.378 101.276C161.593 103.061 160.591 105.483 160.591 108.008C160.591 110.532 161.593 112.954 163.378 114.739C164.259 115.628 165.308 116.334 166.463 116.816C167.619 117.298 168.858 117.546 170.11 117.546C171.362 117.546 172.601 117.298 173.757 116.816C174.912 116.334 175.961 115.628 176.842 114.739Z" fill="#F9AD48"/>
<path d="M122.144 95.2813C125.446 91.9801 129.925 90.1255 134.594 90.1255C139.263 90.1255 143.741 91.9801 147.044 95.2813C150.345 98.5836 152.199 103.062 152.199 107.731C152.199 112.4 150.345 116.878 147.044 120.181C143.741 123.482 139.263 125.337 134.594 125.337C129.925 125.337 125.446 123.482 122.144 120.181C118.843 116.878 116.988 112.4 116.988 107.731C116.988 103.062 118.843 98.5836 122.144 95.2813Z" fill="#0096C7"/>
</svg>
