<svg width="226" height="226" viewBox="0 0 226 226" fill="none" xmlns="http://www.w3.org/2000/svg">
<path d="M134.351 55.2696C134.108 55.2668 133.867 55.2232 133.639 55.1403L131.18 54.3636C130.894 54.2898 130.627 54.1585 130.394 53.9773C130.162 53.7961 129.969 53.5691 129.827 53.3104C129.686 53.0516 129.599 52.7665 129.572 52.4728C129.545 52.1792 129.578 51.8831 129.67 51.6029C129.744 51.3174 129.875 51.0499 130.057 50.8172C130.238 50.5845 130.465 50.3916 130.724 50.2501C130.982 50.1086 131.267 50.0214 131.561 49.9944C131.855 49.9674 132.151 50.0009 132.431 50.0929C133.315 50.3517 134.2 50.6322 135.063 50.9341C135.346 51.0188 135.609 51.1608 135.835 51.3515C136.062 51.5421 136.246 51.7773 136.378 52.0423C136.509 52.3074 136.585 52.5965 136.6 52.892C136.615 53.1875 136.569 53.4829 136.465 53.7598C136.324 54.207 136.042 54.5962 135.66 54.8686C135.279 55.141 134.819 55.2818 134.351 55.2696Z" fill="#03045E"/>
<path d="M171.644 90.1915C171.184 90.222 170.727 90.1042 170.339 89.8558C169.951 89.6074 169.652 89.2414 169.487 88.811C168.883 87.3659 168.193 85.9207 167.482 84.4971C167.338 84.24 167.248 83.9562 167.218 83.663C167.188 83.3699 167.218 83.0735 167.307 82.7925C167.396 82.5116 167.542 82.252 167.735 82.0295C167.928 81.807 168.165 81.6264 168.43 81.499C168.688 81.355 168.971 81.2654 169.265 81.2354C169.558 81.2054 169.854 81.2357 170.135 81.3246C170.416 81.4136 170.676 81.5591 170.898 81.7522C171.121 81.9454 171.301 82.1822 171.429 82.4479C172.205 83.9577 172.939 85.5108 173.586 87.0854C173.705 87.3521 173.769 87.6403 173.773 87.9324C173.778 88.2245 173.723 88.5144 173.612 88.7847C173.501 89.055 173.336 89.3001 173.128 89.5048C172.92 89.7095 172.672 89.8696 172.399 89.9756C172.163 90.0931 171.907 90.1664 171.644 90.1915ZM165.325 78.6732C164.964 78.6809 164.607 78.5981 164.287 78.4323C163.967 78.2665 163.693 78.0232 163.491 77.7243C162.607 76.4301 161.636 75.1575 160.622 73.9281C160.43 73.7053 160.284 73.4455 160.196 73.1645C160.107 72.8835 160.077 72.5873 160.108 72.2943C160.138 72.0012 160.228 71.7176 160.372 71.4607C160.516 71.2038 160.712 70.9791 160.946 70.8006C161.167 70.6066 161.426 70.4599 161.706 70.3696C161.986 70.2793 162.282 70.2473 162.575 70.2756C162.868 70.3039 163.152 70.3917 163.41 70.5339C163.668 70.6761 163.893 70.8696 164.073 71.1023C165.152 72.4181 166.23 73.7985 167.136 75.179C167.315 75.4148 167.443 75.6848 167.512 75.972C167.582 76.2593 167.592 76.5578 167.541 76.8491C167.491 77.1404 167.381 77.4183 167.218 77.6653C167.056 77.9123 166.844 78.1233 166.597 78.2851C166.22 78.5367 165.778 78.6715 165.325 78.6732ZM156.697 68.7513C156.129 68.7472 155.583 68.5318 155.165 68.1473C154.022 67.0689 152.814 65.9905 151.563 65.0199C151.331 64.843 151.136 64.6206 150.992 64.3664C150.848 64.1121 150.757 63.8314 150.725 63.5409C150.692 63.2504 150.72 62.9565 150.804 62.6768C150.889 62.3971 151.03 62.1374 151.218 61.9137C151.393 61.6762 151.616 61.4774 151.871 61.3292C152.126 61.181 152.409 61.0869 152.702 61.0525C152.996 61.0181 153.293 61.0443 153.575 61.1294C153.858 61.2145 154.12 61.3567 154.346 61.5472C155.662 62.6041 156.977 63.704 158.207 64.8903C158.422 65.0921 158.594 65.3359 158.711 65.6068C158.829 65.8776 158.889 66.1699 158.889 66.4651C158.889 66.7603 158.829 67.0524 158.711 67.3232C158.594 67.5941 158.422 67.8379 158.207 68.0396C157.83 68.4597 157.303 68.7151 156.74 68.7513H156.697ZM146.214 60.8139C145.81 60.8152 145.414 60.7031 145.071 60.4903C143.712 59.6923 142.31 58.9156 140.908 58.2039C140.64 58.0822 140.399 57.9068 140.201 57.6886C140.003 57.4703 139.852 57.2139 139.757 56.935C139.662 56.6561 139.625 56.3606 139.649 56.0669C139.672 55.7732 139.756 55.4874 139.894 55.2273C140.018 54.9579 140.195 54.7169 140.416 54.5193C140.637 54.3216 140.896 54.1716 141.177 54.0785C141.459 53.9854 141.756 53.9512 142.051 53.9782C142.346 54.0051 142.633 54.0926 142.892 54.2352C144.402 54.9901 145.912 55.8098 147.357 56.6941C147.612 56.8384 147.836 57.0333 148.013 57.2668C148.191 57.5003 148.319 57.7675 148.389 58.0522C148.46 58.3369 148.472 58.633 148.424 58.9224C148.377 59.2118 148.27 59.4885 148.112 59.7355C147.924 60.0615 147.654 60.3325 147.328 60.5217C147.003 60.7109 146.634 60.8117 146.257 60.8139H146.214Z" fill="#03045E"/>
<path d="M174.945 100.566C174.437 100.575 173.942 100.405 173.548 100.085C173.153 99.7655 172.884 99.3171 172.788 98.8186C172.594 97.9774 172.399 97.1361 172.162 96.3165C172.078 96.0346 172.052 95.7384 172.087 95.4463C172.121 95.1541 172.215 94.872 172.363 94.6174C172.51 94.3628 172.708 94.1412 172.944 93.966C173.181 93.7908 173.451 93.6658 173.737 93.5987C174.019 93.5144 174.315 93.4887 174.607 93.5231C174.899 93.5576 175.181 93.6516 175.436 93.7991C175.69 93.9465 175.912 94.1443 176.087 94.3807C176.263 94.617 176.388 94.8868 176.455 95.1732C176.692 96.036 176.929 96.9419 177.123 97.8478C177.196 98.1329 177.21 98.43 177.164 98.7206C177.118 99.0113 177.013 99.2894 176.855 99.5379C176.698 99.7864 176.491 100 176.248 100.166C176.004 100.331 175.73 100.445 175.441 100.501C175.279 100.543 175.112 100.565 174.945 100.566Z" fill="#03045E"/>
<path d="M53.2498 100.762H52.7751C52.4842 100.709 52.2074 100.597 51.9617 100.432C51.716 100.268 51.5067 100.055 51.3469 99.8058C51.1871 99.557 51.0802 99.2781 51.0328 98.9862C50.9854 98.6943 50.9985 98.3957 51.0713 98.1091C51.2654 97.2032 51.5025 96.2973 51.7398 95.413C51.8069 95.1265 51.9319 94.8568 52.1071 94.6204C52.2823 94.3841 52.5039 94.1863 52.7585 94.0388C53.013 93.8913 53.2952 93.7973 53.5873 93.7629C53.8795 93.7284 54.1757 93.7542 54.4575 93.8384C54.7464 93.9052 55.0185 94.0309 55.2567 94.2076C55.4948 94.3842 55.6939 94.608 55.8417 94.865C55.9895 95.1221 56.0825 95.4068 56.1153 95.7015C56.148 95.9962 56.1197 96.2946 56.0321 96.5778C55.7948 97.3974 55.6009 98.2387 55.4067 99.0583C55.3015 99.5489 55.0284 99.9875 54.6347 100.298C54.2411 100.609 53.7514 100.773 53.2498 100.762Z" fill="#03045E"/>
<path d="M57.1755 88.8494C56.863 88.8511 56.5538 88.7847 56.2695 88.6551C55.9974 88.5432 55.7513 88.377 55.5459 88.1664C55.3405 87.9559 55.1802 87.7055 55.0751 87.4308C54.9701 87.156 54.9226 86.8626 54.9351 86.5687C54.9476 86.2749 55.0198 85.9866 55.1478 85.7217C55.9727 83.849 56.8943 82.0202 57.9088 80.243C58.0456 79.9805 58.235 79.749 58.4651 79.5629C58.6952 79.3768 58.9613 79.24 59.2466 79.1611C59.5319 79.0822 59.8303 79.0628 60.1234 79.1042C60.4164 79.1456 60.6979 79.2471 60.9501 79.402C61.2078 79.5409 61.4346 79.7306 61.6165 79.9599C61.7985 80.1893 61.9319 80.4531 62.0086 80.7356C62.0853 81.0181 62.1036 81.3134 62.0626 81.6032C62.0215 81.893 61.9219 82.1714 61.7698 82.4215C60.8423 84.0824 59.9794 85.8079 59.2029 87.5335C59.0349 87.9302 58.7522 88.2677 58.3909 88.5022C58.0295 88.7367 57.6062 88.8577 57.1755 88.8494ZM65.372 75.3685C64.8706 75.3756 64.3825 75.2076 63.9915 74.8938C63.7556 74.7169 63.5584 74.4935 63.4122 74.2374C63.2661 73.9813 63.1739 73.698 63.1416 73.4049C63.1092 73.1117 63.1374 72.8152 63.2242 72.5333C63.311 72.2515 63.4546 71.9905 63.6463 71.7664C64.9189 70.1702 66.2778 68.6172 67.7014 67.1505C67.9031 66.935 68.147 66.7632 68.4178 66.6457C68.6886 66.5283 68.9807 66.4677 69.2759 66.4677C69.5711 66.4677 69.8631 66.5283 70.134 66.6457C70.4048 66.7632 70.6487 66.935 70.8504 67.1505C71.0625 67.352 71.2316 67.5946 71.347 67.8635C71.4624 68.1323 71.5218 68.4216 71.5218 68.7142C71.5218 69.0068 71.4624 69.2963 71.347 69.5652C71.2316 69.834 71.0625 70.0764 70.8504 70.2779C69.5347 71.6584 68.2621 73.1035 67.0758 74.5918C66.8684 74.841 66.6075 75.0403 66.3125 75.1748C66.0175 75.3092 65.6961 75.3755 65.372 75.3685ZM76.6959 64.3895C76.3501 64.3914 76.0087 64.3102 75.7009 64.1525C75.3931 63.9949 75.1277 63.7655 74.9271 63.4838C74.7434 63.2547 74.6085 62.9906 74.5305 62.7076C74.4526 62.4245 74.433 62.1284 74.4734 61.8376C74.5138 61.5468 74.6132 61.2674 74.7654 61.0164C74.9176 60.7653 75.1195 60.548 75.3586 60.3776C76.9979 59.1482 78.7019 58.005 80.449 56.9266C80.6946 56.7675 80.9701 56.6601 81.2586 56.6109C81.5471 56.5616 81.8425 56.5715 82.127 56.6401C82.4115 56.7087 82.6791 56.8345 82.9135 57.0098C83.1478 57.1851 83.3439 57.4063 83.4901 57.6599C83.6527 57.9063 83.763 58.1835 83.8142 58.4742C83.8654 58.765 83.8564 59.0634 83.7876 59.3505C83.7189 59.6376 83.5918 59.9075 83.4145 60.1436C83.2372 60.3796 83.0134 60.5768 82.7568 60.7228C81.1391 61.715 79.5431 62.8797 78.0332 63.9366C77.6509 64.2334 77.1799 64.3928 76.6959 64.3895Z" fill="#03045E"/>
<path d="M90.4137 56.5627C89.9564 56.5948 89.5008 56.4805 89.113 56.2362C88.7252 55.9918 88.4252 55.6301 88.2567 55.2038C88.1345 54.9346 88.0689 54.6434 88.064 54.3478C88.0591 54.0522 88.115 53.7588 88.2283 53.4858C88.3416 53.2127 88.5099 52.9657 88.7225 52.7604C88.9352 52.555 89.1876 52.3956 89.4645 52.292C90.3057 51.9469 91.1686 51.6018 92.0314 51.2999C92.3054 51.1911 92.5985 51.1395 92.8932 51.1485C93.1878 51.1575 93.4776 51.2269 93.7444 51.3523C94.0112 51.4776 94.2495 51.6563 94.4445 51.8773C94.6396 52.0983 94.7872 52.3568 94.8785 52.6372C94.9877 52.9097 95.0401 53.2017 95.0325 53.4952C95.0249 53.7888 94.9574 54.0778 94.8342 54.3444C94.711 54.611 94.5347 54.8495 94.316 55.0456C94.0974 55.2416 93.8411 55.3908 93.5627 55.4842C92.7431 55.7646 91.945 56.0883 91.147 56.4118C90.9132 56.5045 90.6651 56.5555 90.4137 56.5627Z" fill="#03045E"/>
<path d="M53.2498 100.762H52.7751C52.4842 100.709 52.2074 100.597 51.9617 100.432C51.716 100.268 51.5067 100.055 51.3469 99.8058C51.1871 99.557 51.0802 99.2781 51.0328 98.9862C50.9854 98.6943 50.9985 98.3957 51.0713 98.1091C51.2654 97.2032 51.5025 96.2973 51.7398 95.413C51.8069 95.1265 51.9319 94.8568 52.1071 94.6204C52.2823 94.3841 52.5039 94.1863 52.7585 94.0388C53.013 93.8913 53.2952 93.7973 53.5873 93.7629C53.8795 93.7284 54.1757 93.7542 54.4575 93.8384C54.7464 93.9052 55.0185 94.0309 55.2567 94.2076C55.4948 94.3842 55.6939 94.608 55.8417 94.865C55.9895 95.1221 56.0825 95.4068 56.1153 95.7015C56.148 95.9962 56.1197 96.2946 56.0321 96.5778C55.7948 97.3974 55.6009 98.2387 55.4067 99.0583C55.3015 99.5489 55.0284 99.9875 54.6347 100.298C54.2411 100.609 53.7514 100.773 53.2498 100.762Z" fill="#03045E"/>
<path d="M57.1755 88.8494C56.863 88.8511 56.5538 88.7847 56.2695 88.6551C55.9974 88.5432 55.7513 88.377 55.5459 88.1664C55.3405 87.9559 55.1802 87.7055 55.0751 87.4308C54.9701 87.156 54.9226 86.8626 54.9351 86.5687C54.9476 86.2749 55.0198 85.9866 55.1478 85.7217C55.9727 83.849 56.8943 82.0202 57.9088 80.243C58.0456 79.9805 58.235 79.749 58.4651 79.5629C58.6952 79.3768 58.9613 79.24 59.2466 79.1611C59.5319 79.0822 59.8303 79.0628 60.1234 79.1042C60.4164 79.1456 60.6979 79.2471 60.9501 79.402C61.2078 79.5409 61.4346 79.7306 61.6165 79.9599C61.7985 80.1893 61.9319 80.4531 62.0086 80.7356C62.0853 81.0181 62.1036 81.3134 62.0626 81.6032C62.0215 81.893 61.9219 82.1714 61.7698 82.4215C60.8423 84.0824 59.9794 85.8079 59.2029 87.5335C59.0349 87.9302 58.7522 88.2677 58.3909 88.5022C58.0295 88.7367 57.6062 88.8577 57.1755 88.8494ZM65.372 75.3685C64.8706 75.3756 64.3825 75.2076 63.9915 74.8938C63.7556 74.7169 63.5584 74.4935 63.4122 74.2374C63.2661 73.9813 63.1739 73.698 63.1416 73.4049C63.1092 73.1117 63.1374 72.8152 63.2242 72.5333C63.311 72.2515 63.4546 71.9905 63.6463 71.7664C64.9189 70.1702 66.2778 68.6172 67.7014 67.1505C67.9031 66.935 68.147 66.7632 68.4178 66.6457C68.6886 66.5283 68.9807 66.4677 69.2759 66.4677C69.5711 66.4677 69.8631 66.5283 70.134 66.6457C70.4048 66.7632 70.6487 66.935 70.8504 67.1505C71.0625 67.352 71.2316 67.5946 71.347 67.8635C71.4624 68.1323 71.5218 68.4216 71.5218 68.7142C71.5218 69.0068 71.4624 69.2963 71.347 69.5652C71.2316 69.834 71.0625 70.0764 70.8504 70.2779C69.5347 71.6584 68.2621 73.1035 67.0758 74.5918C66.8684 74.841 66.6075 75.0403 66.3125 75.1748C66.0175 75.3092 65.6961 75.3755 65.372 75.3685ZM76.6959 64.3895C76.3501 64.3914 76.0087 64.3102 75.7009 64.1525C75.3931 63.9949 75.1277 63.7655 74.9271 63.4838C74.7434 63.2547 74.6085 62.9906 74.5305 62.7076C74.4526 62.4245 74.433 62.1284 74.4734 61.8376C74.5138 61.5468 74.6132 61.2674 74.7654 61.0164C74.9176 60.7653 75.1195 60.548 75.3586 60.3776C76.9979 59.1482 78.7019 58.005 80.449 56.9266C80.6946 56.7675 80.9701 56.6601 81.2586 56.6109C81.5471 56.5616 81.8425 56.5715 82.127 56.6401C82.4115 56.7087 82.6791 56.8345 82.9135 57.0098C83.1478 57.1851 83.3439 57.4063 83.4901 57.6599C83.6527 57.9063 83.763 58.1835 83.8142 58.4742C83.8654 58.765 83.8564 59.0634 83.7876 59.3505C83.7189 59.6376 83.5918 59.9075 83.4145 60.1436C83.2372 60.3796 83.0134 60.5768 82.7568 60.7228C81.1391 61.715 79.5431 62.8797 78.0332 63.9366C77.6509 64.2334 77.1799 64.3928 76.6959 64.3895Z" fill="#03045E"/>
<path d="M90.4137 56.5627C89.9564 56.5948 89.5008 56.4805 89.113 56.2362C88.7252 55.9918 88.4252 55.6301 88.2567 55.2038C88.1345 54.9346 88.0689 54.6434 88.064 54.3478C88.0591 54.0522 88.115 53.7588 88.2283 53.4858C88.3416 53.2127 88.5099 52.9657 88.7225 52.7604C88.9352 52.555 89.1876 52.3956 89.4645 52.292C90.3057 51.9469 91.1686 51.6018 92.0314 51.2999C92.3054 51.1911 92.5985 51.1395 92.8932 51.1485C93.1878 51.1575 93.4776 51.2269 93.7444 51.3523C94.0112 51.4776 94.2495 51.6563 94.4445 51.8773C94.6396 52.0983 94.7872 52.3568 94.8785 52.6372C94.9877 52.9097 95.0401 53.2017 95.0325 53.4952C95.0249 53.7888 94.9574 54.0778 94.8342 54.3444C94.711 54.611 94.5347 54.8495 94.316 55.0456C94.0974 55.2416 93.8411 55.3908 93.5627 55.4842C92.7431 55.7646 91.945 56.0883 91.147 56.4118C90.9132 56.5045 90.6651 56.5555 90.4137 56.5627Z" fill="#03045E"/>
<path d="M95.1154 173.641C94.8936 173.672 94.6687 173.672 94.4469 173.641C93.5625 173.361 92.678 173.059 91.8152 172.735C91.5368 172.642 91.2805 172.492 91.0619 172.296C90.8432 172.1 90.6669 171.862 90.5437 171.595C90.4205 171.329 90.353 171.04 90.3454 170.746C90.3379 170.453 90.3902 170.161 90.4995 169.888C90.5926 169.607 90.7427 169.348 90.9402 169.128C91.1378 168.907 91.3786 168.73 91.6477 168.606C91.9168 168.483 92.2085 168.416 92.5045 168.41C92.8005 168.404 93.0946 168.46 93.3684 168.572L95.7841 169.392C96.0689 169.472 96.3341 169.61 96.5632 169.797C96.7924 169.985 96.9806 170.217 97.1162 170.48C97.2517 170.743 97.3316 171.031 97.351 171.326C97.3705 171.621 97.329 171.917 97.2291 172.196C97.0774 172.631 96.7904 173.006 96.41 173.266C96.0296 173.526 95.5759 173.658 95.1154 173.641Z" fill="#03045E"/>
<path d="M84.7196 169.221C84.3517 169.221 83.9893 169.132 83.6627 168.963C82.0881 168.121 80.5351 167.194 79.0468 166.223C78.7954 166.072 78.5777 165.871 78.4067 165.632C78.2358 165.394 78.1152 165.123 78.0526 164.836C77.99 164.549 77.9866 164.253 78.0426 163.965C78.0985 163.677 78.2127 163.403 78.378 163.161C78.5312 162.908 78.7348 162.689 78.976 162.518C79.2171 162.348 79.4906 162.228 79.7798 162.167C80.069 162.107 80.3677 162.106 80.6571 162.166C80.9466 162.225 81.2208 162.343 81.4626 162.513C82.843 163.398 84.3097 164.261 85.7765 165.037C86.0432 165.166 86.2805 165.349 86.4734 165.574C86.6664 165.799 86.8108 166.062 86.8979 166.345C86.9849 166.628 87.0126 166.927 86.9792 167.221C86.9458 167.516 86.852 167.8 86.7038 168.057C86.5167 168.418 86.2311 168.72 85.8799 168.926C85.5288 169.132 85.1266 169.234 84.7196 169.221ZM73.3524 161.392C72.8133 161.402 72.2899 161.209 71.8856 160.853C70.5483 159.688 69.2327 158.458 67.9817 157.186C67.7662 156.984 67.5944 156.74 67.4769 156.469C67.3595 156.198 67.2989 155.906 67.2989 155.611C67.2989 155.316 67.3595 155.024 67.4769 154.753C67.5944 154.482 67.7662 154.238 67.9817 154.037C68.1832 153.825 68.4256 153.656 68.6944 153.54C68.9633 153.425 69.2528 153.365 69.5454 153.365C69.838 153.365 70.1276 153.425 70.3964 153.54C70.6652 153.656 70.9076 153.825 71.1091 154.037C72.2739 155.223 73.5035 156.366 74.7545 157.466C74.9827 157.651 75.1706 157.881 75.3069 158.141C75.4432 158.401 75.5251 158.686 75.5473 158.979C75.5695 159.272 75.5317 159.566 75.4362 159.843C75.3407 160.121 75.1894 160.376 74.9917 160.594C74.7933 160.838 74.5438 161.037 74.2606 161.174C73.9774 161.312 73.6674 161.387 73.3524 161.392ZM63.9698 151.276C63.6203 151.281 63.2748 151.201 62.9629 151.044C62.6511 150.886 62.382 150.654 62.1794 150.37C61.1225 148.946 60.0226 147.436 59.1814 145.927C59.0179 145.681 58.9061 145.405 58.8534 145.116C58.8006 144.826 58.8077 144.528 58.8744 144.241C58.9411 143.954 59.066 143.684 59.2412 143.447C59.4164 143.21 59.6383 143.011 59.8931 142.864C60.1395 142.701 60.4167 142.591 60.7075 142.54C60.9983 142.488 61.2964 142.497 61.5835 142.566C61.8706 142.635 62.1408 142.762 62.3768 142.939C62.6129 143.117 62.8101 143.341 62.9561 143.597C63.8189 144.999 64.7678 146.401 65.76 147.738C65.9414 147.97 66.0737 148.237 66.1483 148.521C66.223 148.806 66.2383 149.103 66.1939 149.394C66.1494 149.685 66.046 149.964 65.8898 150.213C65.7335 150.463 65.5279 150.677 65.2855 150.844C64.9062 151.129 64.4439 151.28 63.9698 151.276Z" fill="#03045E"/>
<path d="M57.0458 139.344C56.5911 139.378 56.1374 139.267 55.7499 139.027C55.3623 138.786 55.0609 138.429 54.8889 138.007C54.5222 137.166 54.1771 136.303 53.832 135.462C53.7148 135.19 53.6552 134.896 53.6564 134.6C53.6576 134.304 53.7197 134.011 53.8391 133.74C53.9585 133.469 54.1324 133.225 54.3502 133.024C54.5679 132.823 54.8249 132.669 55.1048 132.572C55.3758 132.458 55.6672 132.401 55.961 132.404C56.2549 132.407 56.545 132.47 56.8136 132.589C57.0822 132.708 57.3238 132.881 57.5232 133.097C57.7226 133.313 57.8758 133.567 57.9734 133.844C58.297 134.642 58.6204 135.441 58.9655 136.217C59.093 136.483 59.1646 136.773 59.1757 137.067C59.1867 137.362 59.1369 137.656 59.0298 137.931C58.9226 138.206 58.7601 138.457 58.5524 138.666C58.3448 138.876 58.0965 139.041 57.8226 139.15C57.5781 139.263 57.3145 139.329 57.0458 139.344Z" fill="#03045E"/>
<path d="M170.846 140.234C170.525 140.232 170.208 140.158 169.919 140.018C169.649 139.904 169.405 139.736 169.202 139.525C168.998 139.313 168.841 139.062 168.738 138.788C168.635 138.513 168.589 138.221 168.603 137.928C168.617 137.635 168.69 137.348 168.819 137.085C169.186 136.308 169.531 135.51 169.854 134.712C169.958 134.438 170.117 134.188 170.321 133.977C170.524 133.766 170.769 133.599 171.04 133.486C171.31 133.373 171.601 133.316 171.894 133.319C172.187 133.323 172.476 133.385 172.744 133.504C173.021 133.606 173.273 133.763 173.486 133.966C173.699 134.169 173.868 134.413 173.984 134.684C174.099 134.954 174.157 135.246 174.156 135.54C174.154 135.834 174.092 136.125 173.974 136.394C173.607 137.235 173.241 138.098 172.874 138.918C172.706 139.315 172.423 139.652 172.062 139.886C171.7 140.121 171.277 140.242 170.846 140.234Z" fill="#03045E"/>
<path d="M140.886 170.556C140.464 170.564 140.049 170.447 139.692 170.221C139.336 169.994 139.054 169.668 138.88 169.283C138.747 169.021 138.669 168.735 138.65 168.442C138.631 168.148 138.672 167.855 138.771 167.578C138.87 167.301 139.025 167.048 139.225 166.833C139.426 166.618 139.668 166.446 139.937 166.328C141.512 165.573 143.065 164.754 144.575 163.869C144.823 163.712 145.101 163.607 145.391 163.561C145.682 163.515 145.978 163.529 146.263 163.601C146.548 163.674 146.815 163.804 147.047 163.984C147.28 164.163 147.474 164.389 147.616 164.646C147.776 164.896 147.883 165.177 147.929 165.471C147.976 165.764 147.961 166.064 147.886 166.352C147.811 166.639 147.678 166.908 147.494 167.142C147.31 167.375 147.08 167.568 146.818 167.709C145.222 168.658 143.539 169.542 141.857 170.34C141.555 170.487 141.222 170.561 140.886 170.556ZM153.159 162.856C152.826 162.858 152.497 162.783 152.198 162.638C151.898 162.492 151.637 162.278 151.434 162.014C151.241 161.792 151.096 161.532 151.007 161.251C150.919 160.97 150.889 160.674 150.919 160.381C150.949 160.088 151.039 159.804 151.184 159.547C151.328 159.29 151.523 159.065 151.757 158.887C153.116 157.808 154.454 156.73 155.705 155.436C155.906 155.22 156.15 155.049 156.421 154.931C156.692 154.814 156.984 154.753 157.279 154.753C157.574 154.753 157.866 154.814 158.137 154.931C158.408 155.049 158.652 155.22 158.854 155.436C159.069 155.638 159.241 155.881 159.358 156.152C159.476 156.423 159.536 156.715 159.536 157.01C159.536 157.306 159.476 157.598 159.358 157.868C159.241 158.139 159.069 158.383 158.854 158.585C157.495 159.879 156.071 161.13 154.54 162.295C154.156 162.632 153.67 162.83 153.159 162.856ZM163.319 152.524C162.825 152.526 162.345 152.358 161.96 152.049C161.724 151.876 161.526 151.656 161.378 151.403C161.23 151.15 161.134 150.87 161.098 150.58C161.062 150.289 161.085 149.994 161.166 149.713C161.248 149.431 161.386 149.17 161.572 148.943C162.65 147.563 163.728 146.118 164.613 144.629C164.766 144.377 164.969 144.158 165.211 143.987C165.452 143.816 165.725 143.697 166.014 143.636C166.304 143.576 166.602 143.575 166.892 143.634C167.181 143.694 167.455 143.812 167.697 143.982C167.947 144.136 168.163 144.338 168.331 144.577C168.5 144.817 168.618 145.088 168.679 145.375C168.74 145.661 168.741 145.957 168.683 146.244C168.626 146.532 168.511 146.804 168.344 147.045C167.331 148.62 166.187 150.173 165.087 151.64C164.879 151.911 164.611 152.132 164.305 152.285C163.998 152.438 163.661 152.52 163.319 152.524Z" fill="#03045E"/>
<path d="M129.864 174.567C129.368 174.58 128.883 174.422 128.491 174.12C128.098 173.817 127.821 173.389 127.707 172.906C127.626 172.624 127.604 172.329 127.642 172.038C127.679 171.747 127.776 171.467 127.925 171.215C128.074 170.962 128.274 170.743 128.511 170.57C128.748 170.398 129.017 170.275 129.303 170.21C130.123 169.994 130.964 169.757 131.784 169.498C132.064 169.402 132.361 169.365 132.656 169.389C132.951 169.413 133.238 169.498 133.499 169.637C133.76 169.777 133.989 169.969 134.173 170.201C134.356 170.433 134.49 170.7 134.566 170.987C134.658 171.265 134.693 171.56 134.667 171.853C134.642 172.145 134.557 172.429 134.417 172.688C134.278 172.946 134.087 173.174 133.857 173.356C133.627 173.538 133.361 173.671 133.078 173.748C132.215 174.028 131.309 174.265 130.425 174.502C130.241 174.545 130.053 174.567 129.864 174.567Z" fill="#03045E"/>
<path d="M183.141 108.826H161.356V130.611H183.141V108.826Z" fill="#FFE37B"/>
<path d="M188.36 102.785L183.162 108.825V130.61L188.382 122.607V102.785H188.36Z" fill="#F9AD48"/>
<path d="M188.361 102.785H166.575L161.356 108.825H183.162L188.361 102.785Z" fill="#F9AD48"/>
<path d="M127.125 97.8501H89.8961V135.079H127.125V97.8501Z" fill="#92D2E7"/>
<path d="M136.011 87.5181L127.125 97.8498V135.079L136.055 121.404V87.5181H136.011Z" fill="#0096C7"/>
<path d="M136.012 87.5181H98.7827L89.8961 97.8498H127.125L136.012 87.5181Z" fill="#0096C7"/>
<path d="M89.8962 112.881H65.0266V117.324H89.8962V112.881Z" fill="#03045E"/>
<path d="M115.067 64.8232H110.624V87.5143H115.067V64.8232Z" fill="#03045E"/>
<path fill-rule="evenodd" clip-rule="evenodd" d="M114.386 110.789C114.358 110.713 114.358 110.63 114.386 110.554C114.355 110.471 114.355 110.38 114.386 110.297C114.462 110.236 114.556 110.203 114.653 110.203C114.751 110.203 114.845 110.236 114.921 110.297C114.952 110.38 114.952 110.471 114.921 110.554C114.937 110.591 114.945 110.631 114.945 110.672C114.945 110.712 114.937 110.752 114.921 110.789C114.845 110.85 114.751 110.883 114.653 110.883C114.556 110.883 114.462 110.85 114.386 110.789Z" fill="#0096C7"/>
<path fill-rule="evenodd" clip-rule="evenodd" d="M113.445 111.779C113.417 111.703 113.417 111.619 113.445 111.543C113.45 111.448 113.49 111.359 113.557 111.292C113.624 111.225 113.714 111.185 113.809 111.18C113.892 111.148 113.983 111.148 114.066 111.18C114.083 111.257 114.083 111.338 114.066 111.415C114.09 111.499 114.09 111.588 114.066 111.672C113.982 111.699 113.892 111.699 113.809 111.672C113.769 111.692 113.725 111.703 113.681 111.703C113.636 111.703 113.592 111.692 113.552 111.672" fill="#0096C7"/>
<path fill-rule="evenodd" clip-rule="evenodd" d="M112.396 112.762C112.335 112.695 112.301 112.607 112.301 112.516C112.301 112.425 112.335 112.337 112.396 112.27C112.467 112.207 112.558 112.172 112.653 112.172C112.748 112.172 112.84 112.207 112.91 112.27C112.972 112.337 113.006 112.425 113.006 112.516C113.006 112.607 112.972 112.695 112.91 112.762C112.873 112.779 112.833 112.788 112.792 112.788C112.752 112.788 112.711 112.779 112.675 112.762C112.631 112.783 112.584 112.794 112.536 112.794C112.487 112.794 112.44 112.783 112.396 112.762Z" fill="#0096C7"/>
<path fill-rule="evenodd" clip-rule="evenodd" d="M111.412 113.762C111.351 113.695 111.316 113.607 111.316 113.516C111.316 113.425 111.351 113.337 111.412 113.27C111.488 113.209 111.582 113.176 111.68 113.176C111.777 113.176 111.871 113.209 111.947 113.27C112.009 113.337 112.043 113.425 112.043 113.516C112.043 113.607 112.009 113.695 111.947 113.762C111.858 113.799 111.758 113.799 111.669 113.762C111.587 113.795 111.495 113.795 111.412 113.762Z" fill="#0096C7"/>
<path fill-rule="evenodd" clip-rule="evenodd" d="M110.471 114.774C110.432 114.747 110.401 114.712 110.378 114.671C110.356 114.63 110.344 114.585 110.342 114.538C110.342 114.492 110.351 114.445 110.37 114.402C110.389 114.359 110.416 114.32 110.45 114.288C110.484 114.256 110.524 114.232 110.568 114.216C110.612 114.2 110.659 114.193 110.706 114.196C110.743 114.18 110.783 114.172 110.823 114.172C110.864 114.172 110.904 114.18 110.941 114.196C110.975 114.278 110.975 114.37 110.941 114.453C110.941 114.498 110.932 114.542 110.915 114.584C110.898 114.625 110.873 114.663 110.841 114.695C110.809 114.727 110.771 114.752 110.73 114.769C110.688 114.786 110.644 114.795 110.599 114.795C110.599 114.795 110.428 114.795 110.385 114.688" fill="#0096C7"/>
<path fill-rule="evenodd" clip-rule="evenodd" d="M109.316 115.624C109.295 115.585 109.284 115.541 109.284 115.496C109.284 115.451 109.295 115.407 109.316 115.368C109.386 115.305 109.478 115.27 109.572 115.27C109.667 115.27 109.758 115.305 109.829 115.368C109.881 115.435 109.909 115.518 109.909 115.603C109.909 115.688 109.881 115.771 109.829 115.838C109.799 115.874 109.761 115.903 109.719 115.923C109.676 115.943 109.63 115.953 109.583 115.953C109.536 115.953 109.49 115.943 109.447 115.923C109.405 115.903 109.367 115.874 109.337 115.838C109.299 115.812 109.267 115.777 109.245 115.736C109.223 115.695 109.21 115.65 109.208 115.603L109.316 115.624Z" fill="#0096C7"/>
<path fill-rule="evenodd" clip-rule="evenodd" d="M107.475 117.766C107.458 117.729 107.449 117.689 107.449 117.649C107.449 117.608 107.458 117.568 107.475 117.531C107.458 117.494 107.449 117.454 107.449 117.413C107.449 117.373 107.458 117.333 107.475 117.296C107.507 117.259 107.547 117.23 107.591 117.21C107.636 117.19 107.684 117.18 107.732 117.18C107.781 117.18 107.829 117.19 107.873 117.21C107.917 117.23 107.957 117.259 107.989 117.296C108.013 117.372 108.013 117.454 107.989 117.531C108.005 117.568 108.013 117.608 108.013 117.649C108.013 117.689 108.005 117.729 107.989 117.766C107.96 117.808 107.922 117.841 107.877 117.863C107.832 117.886 107.782 117.897 107.732 117.895C107.686 117.893 107.64 117.881 107.599 117.858C107.558 117.836 107.523 117.805 107.497 117.766" fill="#0096C7"/>
<path fill-rule="evenodd" clip-rule="evenodd" d="M106.362 118.686C106.347 118.649 106.338 118.609 106.338 118.569C106.338 118.528 106.347 118.488 106.362 118.451C106.335 118.375 106.335 118.291 106.362 118.215C106.438 118.145 106.537 118.105 106.641 118.105C106.744 118.105 106.843 118.145 106.919 118.215C106.935 118.253 106.943 118.293 106.943 118.333C106.943 118.374 106.935 118.414 106.919 118.451C106.935 118.488 106.943 118.528 106.943 118.569C106.943 118.609 106.935 118.649 106.919 118.686C106.884 118.726 106.841 118.757 106.793 118.779C106.745 118.801 106.693 118.813 106.641 118.815C106.539 118.794 106.444 118.75 106.362 118.686Z" fill="#0096C7"/>
<path fill-rule="evenodd" clip-rule="evenodd" d="M105.486 119.694C105.424 119.627 105.39 119.539 105.39 119.448C105.39 119.357 105.424 119.269 105.486 119.202C105.518 119.165 105.557 119.136 105.601 119.116C105.646 119.096 105.694 119.086 105.742 119.086C105.791 119.086 105.839 119.096 105.883 119.116C105.928 119.136 105.967 119.165 105.999 119.202C106.061 119.269 106.095 119.357 106.095 119.448C106.095 119.539 106.061 119.627 105.999 119.694C105.915 119.719 105.826 119.719 105.742 119.694C105.66 119.725 105.568 119.725 105.486 119.694Z" fill="#0096C7"/>
<path fill-rule="evenodd" clip-rule="evenodd" d="M104.501 120.677C104.465 120.65 104.437 120.614 104.418 120.573C104.399 120.532 104.391 120.487 104.394 120.442C104.393 120.349 104.429 120.26 104.493 120.192C104.556 120.124 104.643 120.084 104.736 120.078C104.832 120.078 104.925 120.117 104.993 120.185C105.022 120.261 105.022 120.345 104.993 120.421C105.009 120.458 105.017 120.498 105.017 120.538C105.017 120.579 105.009 120.619 104.993 120.656C104.923 120.722 104.832 120.761 104.736 120.763C104.702 120.789 104.661 120.803 104.618 120.803C104.576 120.803 104.534 120.789 104.501 120.763" fill="#0096C7"/>
<path fill-rule="evenodd" clip-rule="evenodd" d="M103.453 121.676C103.418 121.647 103.391 121.611 103.373 121.571C103.354 121.53 103.345 121.486 103.346 121.441C103.343 121.396 103.352 121.351 103.37 121.31C103.389 121.269 103.417 121.233 103.453 121.206C103.525 121.136 103.62 121.098 103.72 121.098C103.82 121.098 103.916 121.136 103.988 121.206C104.004 121.243 104.012 121.283 104.012 121.323C104.012 121.364 104.004 121.404 103.988 121.441C104.004 121.478 104.012 121.518 104.012 121.559C104.012 121.599 104.004 121.639 103.988 121.676C103.916 121.745 103.82 121.784 103.72 121.784C103.62 121.784 103.525 121.745 103.453 121.676Z" fill="#0096C7"/>
<path fill-rule="evenodd" clip-rule="evenodd" d="M102.511 122.67C102.45 122.602 102.416 122.515 102.416 122.423C102.416 122.332 102.45 122.245 102.511 122.177C102.542 122.141 102.579 122.112 102.622 122.093C102.664 122.073 102.711 122.063 102.757 122.062C102.804 122.063 102.851 122.073 102.893 122.093C102.936 122.112 102.974 122.141 103.004 122.177C103.065 122.245 103.1 122.332 103.1 122.423C103.1 122.515 103.065 122.602 103.004 122.67C102.974 122.705 102.936 122.734 102.893 122.754C102.851 122.774 102.804 122.784 102.757 122.784C102.711 122.784 102.664 122.774 102.622 122.754C102.579 122.734 102.542 122.705 102.511 122.67Z" fill="#0096C7"/>
<path fill-rule="evenodd" clip-rule="evenodd" d="M103.003 110.791C103.033 110.716 103.033 110.631 103.003 110.556C103.003 110.508 102.994 110.461 102.976 110.417C102.957 110.372 102.931 110.332 102.897 110.299C102.863 110.265 102.823 110.238 102.779 110.22C102.735 110.201 102.687 110.192 102.639 110.192C102.602 110.176 102.562 110.168 102.522 110.168C102.481 110.168 102.441 110.176 102.404 110.192C102.373 110.275 102.373 110.366 102.404 110.449C102.388 110.486 102.38 110.526 102.38 110.567C102.38 110.607 102.388 110.647 102.404 110.684C102.472 110.752 102.565 110.79 102.661 110.79C102.757 110.79 102.849 110.752 102.918 110.684" fill="#0096C7"/>
<path fill-rule="evenodd" clip-rule="evenodd" d="M103.987 111.773C104.015 111.697 104.015 111.614 103.987 111.538C104.018 111.455 104.018 111.364 103.987 111.281C103.911 111.22 103.817 111.188 103.72 111.188C103.623 111.188 103.528 111.22 103.452 111.281C103.384 111.349 103.346 111.442 103.345 111.538C103.344 111.583 103.354 111.627 103.372 111.668C103.391 111.709 103.418 111.745 103.452 111.773C103.528 111.834 103.623 111.867 103.72 111.867C103.817 111.867 103.911 111.834 103.987 111.773Z" fill="#0096C7"/>
<path fill-rule="evenodd" clip-rule="evenodd" d="M104.993 112.762C105.055 112.695 105.089 112.607 105.089 112.516C105.089 112.425 105.055 112.337 104.993 112.27C104.923 112.207 104.831 112.172 104.737 112.172C104.642 112.172 104.55 112.207 104.48 112.27C104.456 112.354 104.456 112.443 104.48 112.527C104.464 112.564 104.456 112.604 104.456 112.644C104.456 112.685 104.464 112.725 104.48 112.762C104.563 112.793 104.654 112.793 104.737 112.762C104.78 112.785 104.827 112.796 104.876 112.796C104.924 112.796 104.972 112.785 105.015 112.762" fill="#0096C7"/>
<path fill-rule="evenodd" clip-rule="evenodd" d="M105.999 113.764C106.062 113.693 106.097 113.602 106.097 113.507C106.097 113.413 106.062 113.321 105.999 113.251C105.928 113.187 105.837 113.152 105.742 113.152C105.647 113.152 105.556 113.187 105.485 113.251C105.422 113.321 105.387 113.413 105.387 113.507C105.387 113.602 105.422 113.693 105.485 113.764C105.522 113.781 105.562 113.79 105.603 113.79C105.644 113.79 105.684 113.781 105.72 113.764C105.811 113.79 105.908 113.79 105.999 113.764Z" fill="#0096C7"/>
<path fill-rule="evenodd" clip-rule="evenodd" d="M106.984 114.772C107.011 114.696 107.011 114.613 106.984 114.537C107.015 114.454 107.015 114.363 106.984 114.28C106.912 114.211 106.816 114.172 106.716 114.172C106.616 114.172 106.52 114.211 106.449 114.28C106.428 114.32 106.417 114.364 106.417 114.409C106.417 114.453 106.428 114.497 106.449 114.537C106.431 114.574 106.422 114.614 106.422 114.655C106.422 114.695 106.431 114.735 106.449 114.772C106.524 114.833 106.619 114.866 106.716 114.866C106.813 114.866 106.908 114.833 106.984 114.772Z" fill="#0096C7"/>
<path fill-rule="evenodd" clip-rule="evenodd" d="M108.075 115.622C108.106 115.539 108.106 115.448 108.075 115.365C108.008 115.304 107.92 115.27 107.829 115.27C107.737 115.27 107.649 115.304 107.582 115.365C107.519 115.436 107.484 115.527 107.484 115.622C107.484 115.717 107.519 115.808 107.582 115.879C107.653 115.942 107.744 115.977 107.839 115.977C107.934 115.977 108.025 115.942 108.096 115.879C108.115 115.794 108.115 115.707 108.096 115.622H108.075Z" fill="#0096C7"/>
<path fill-rule="evenodd" clip-rule="evenodd" d="M108.973 116.764C109.036 116.693 109.071 116.602 109.071 116.507C109.071 116.413 109.036 116.321 108.973 116.251C108.902 116.187 108.811 116.152 108.716 116.152C108.621 116.152 108.53 116.187 108.459 116.251C108.396 116.321 108.361 116.413 108.361 116.507C108.361 116.602 108.396 116.693 108.459 116.764C108.53 116.827 108.621 116.862 108.716 116.862C108.811 116.862 108.902 116.827 108.973 116.764Z" fill="#0096C7"/>
<path fill-rule="evenodd" clip-rule="evenodd" d="M109.957 117.766C109.973 117.729 109.981 117.689 109.981 117.649C109.981 117.608 109.973 117.568 109.957 117.531C109.973 117.494 109.981 117.454 109.981 117.413C109.981 117.373 109.973 117.333 109.957 117.296C109.886 117.226 109.79 117.187 109.69 117.188C109.59 117.188 109.494 117.226 109.422 117.296C109.407 117.333 109.398 117.373 109.398 117.413C109.398 117.454 109.407 117.494 109.422 117.531C109.407 117.568 109.398 117.608 109.398 117.649C109.398 117.689 109.407 117.729 109.422 117.766C109.454 117.804 109.494 117.835 109.538 117.857C109.582 117.879 109.63 117.892 109.679 117.895C109.732 117.894 109.784 117.881 109.832 117.859C109.879 117.837 109.922 117.806 109.957 117.766Z" fill="#0096C7"/>
<path fill-rule="evenodd" clip-rule="evenodd" d="M110.963 118.684C110.988 118.608 110.988 118.525 110.963 118.449C110.984 118.372 110.984 118.29 110.963 118.213C110.931 118.177 110.891 118.148 110.847 118.128C110.803 118.108 110.755 118.098 110.706 118.098C110.658 118.098 110.61 118.108 110.565 118.128C110.521 118.148 110.482 118.177 110.45 118.213C110.414 118.241 110.386 118.277 110.367 118.318C110.348 118.359 110.34 118.404 110.342 118.449C110.348 118.541 110.389 118.629 110.456 118.692C110.524 118.756 110.613 118.791 110.706 118.791C110.789 118.822 110.88 118.822 110.963 118.791" fill="#0096C7"/>
<path fill-rule="evenodd" clip-rule="evenodd" d="M111.968 119.694C112.03 119.627 112.064 119.539 112.064 119.448C112.064 119.357 112.03 119.269 111.968 119.202C111.936 119.165 111.897 119.136 111.853 119.116C111.808 119.096 111.76 119.086 111.712 119.086C111.663 119.086 111.615 119.096 111.571 119.116C111.527 119.136 111.487 119.165 111.455 119.202C111.393 119.269 111.359 119.357 111.359 119.448C111.359 119.539 111.393 119.627 111.455 119.694C111.492 119.71 111.532 119.718 111.573 119.718C111.613 119.718 111.653 119.71 111.69 119.694C111.781 119.723 111.878 119.723 111.968 119.694Z" fill="#0096C7"/>
<path fill-rule="evenodd" clip-rule="evenodd" d="M112.889 120.672C112.906 120.635 112.915 120.595 112.915 120.554C112.915 120.513 112.906 120.473 112.889 120.436C112.908 120.4 112.917 120.359 112.917 120.318C112.917 120.277 112.908 120.237 112.889 120.201C112.859 120.165 112.821 120.136 112.778 120.116C112.736 120.096 112.69 120.086 112.643 120.086C112.596 120.086 112.55 120.096 112.507 120.116C112.465 120.136 112.427 120.165 112.397 120.201C112.367 120.276 112.367 120.361 112.397 120.436C112.378 120.473 112.368 120.513 112.368 120.554C112.368 120.595 112.378 120.635 112.397 120.672C112.429 120.707 112.468 120.736 112.513 120.754C112.557 120.773 112.605 120.781 112.653 120.779C112.699 120.783 112.744 120.776 112.786 120.757C112.827 120.738 112.863 120.709 112.889 120.672Z" fill="#0096C7"/>
<path fill-rule="evenodd" clip-rule="evenodd" d="M113.937 121.681C113.969 121.598 113.969 121.507 113.937 121.424C113.955 121.388 113.964 121.348 113.964 121.307C113.964 121.266 113.955 121.226 113.937 121.189C113.907 121.153 113.869 121.124 113.827 121.105C113.784 121.085 113.738 121.074 113.691 121.074C113.644 121.074 113.598 121.085 113.556 121.105C113.513 121.124 113.475 121.153 113.445 121.189C113.428 121.226 113.419 121.266 113.419 121.307C113.419 121.348 113.428 121.388 113.445 121.424C113.429 121.462 113.421 121.502 113.421 121.542C113.421 121.583 113.429 121.623 113.445 121.66C113.475 121.696 113.513 121.725 113.556 121.745C113.598 121.765 113.644 121.775 113.691 121.775C113.738 121.775 113.784 121.765 113.827 121.745C113.869 121.725 113.907 121.696 113.937 121.66" fill="#0096C7"/>
<path fill-rule="evenodd" clip-rule="evenodd" d="M114.921 122.664C114.979 122.595 115.01 122.508 115.01 122.418C115.01 122.328 114.979 122.241 114.921 122.172C114.845 122.111 114.751 122.078 114.654 122.078C114.556 122.078 114.462 122.111 114.386 122.172C114.33 122.238 114.3 122.321 114.3 122.407C114.3 122.494 114.33 122.577 114.386 122.643C114.458 122.712 114.554 122.751 114.654 122.751C114.754 122.751 114.849 122.712 114.921 122.643" fill="#0096C7"/>
<path fill-rule="evenodd" clip-rule="evenodd" d="M105.357 111.051C106.349 110.411 107.504 110.071 108.684 110.071C109.864 110.071 111.019 110.411 112.011 111.051L114.151 108.911C112.589 107.673 110.655 107 108.662 107C106.67 107 104.736 107.673 103.174 108.911L105.314 111.051H105.357Z" fill="#0096C7"/>
<path fill-rule="evenodd" clip-rule="evenodd" d="M103.196 119.901C102.537 118.913 102.185 117.752 102.185 116.563C102.185 115.375 102.537 114.214 103.196 113.226L101.057 111.086C99.8385 112.644 99.1768 114.565 99.1768 116.542C99.1768 118.52 99.8385 120.44 101.057 121.998L103.196 119.859V119.901Z" fill="#0096C7"/>
<path fill-rule="evenodd" clip-rule="evenodd" d="M112.033 122.047C111.054 122.73 109.889 123.096 108.695 123.095C107.495 123.111 106.321 122.752 105.335 122.068L103.196 124.208C104.759 125.447 106.7 126.112 108.695 126.091C110.675 126.084 112.596 125.413 114.151 124.187L112.011 122.047H112.033Z" fill="#0096C7"/>
<path fill-rule="evenodd" clip-rule="evenodd" d="M114.13 113.142C114.808 114.137 115.159 115.319 115.135 116.523C115.118 117.694 114.769 118.836 114.13 119.818L116.269 121.957C117.513 120.42 118.186 118.5 118.174 116.523C118.194 114.528 117.53 112.587 116.291 111.023L114.151 113.163L114.13 113.142Z" fill="#0096C7"/>
<path fill-rule="evenodd" clip-rule="evenodd" d="M116.333 122.582C116.53 122.582 116.725 122.621 116.906 122.696C117.088 122.771 117.253 122.882 117.393 123.021C117.532 123.16 117.642 123.325 117.717 123.507C117.792 123.688 117.831 123.883 117.831 124.08C117.831 124.477 117.673 124.858 117.393 125.139C117.112 125.42 116.731 125.578 116.333 125.578C116.138 125.578 115.944 125.539 115.763 125.463C115.583 125.388 115.419 125.277 115.282 125.138C115.144 124.998 115.036 124.833 114.963 124.651C114.89 124.47 114.854 124.275 114.857 124.08C114.854 123.884 114.89 123.69 114.963 123.508C115.036 123.327 115.144 123.161 115.282 123.022C115.419 122.883 115.583 122.772 115.763 122.696C115.944 122.621 116.138 122.582 116.333 122.582Z" fill="#0096C7"/>
<path fill-rule="evenodd" clip-rule="evenodd" d="M101.056 122.582C101.452 122.604 101.823 122.78 102.091 123.072C102.358 123.363 102.501 123.748 102.49 124.144C102.474 124.519 102.318 124.875 102.052 125.14C101.787 125.406 101.431 125.562 101.056 125.578C100.661 125.556 100.29 125.38 100.022 125.088C99.7541 124.796 99.6107 124.412 99.6225 124.016C99.643 123.642 99.8007 123.289 100.065 123.025C100.33 122.76 100.683 122.603 101.056 122.582Z" fill="#0096C7"/>
<path fill-rule="evenodd" clip-rule="evenodd" d="M116.376 107.324C116.77 107.33 117.145 107.49 117.422 107.77C117.698 108.051 117.853 108.428 117.853 108.822C117.853 109.015 117.814 109.206 117.74 109.384C117.665 109.562 117.556 109.723 117.419 109.859C117.282 109.994 117.119 110.101 116.94 110.173C116.761 110.244 116.569 110.28 116.376 110.277C115.989 110.277 115.616 110.124 115.34 109.852C115.063 109.58 114.906 109.21 114.9 108.822C114.9 108.428 115.055 108.051 115.331 107.77C115.607 107.49 115.983 107.33 116.376 107.324Z" fill="#0096C7"/>
<path fill-rule="evenodd" clip-rule="evenodd" d="M101.056 107.324C101.249 107.322 101.44 107.357 101.619 107.429C101.798 107.501 101.961 107.607 102.099 107.743C102.236 107.878 102.345 108.04 102.42 108.218C102.494 108.396 102.532 108.587 102.532 108.779C102.527 109.169 102.369 109.542 102.094 109.817C101.818 110.093 101.446 110.25 101.056 110.256C100.86 110.259 100.666 110.223 100.485 110.15C100.303 110.077 100.138 109.968 99.9982 109.831C99.8588 109.694 99.748 109.53 99.6725 109.349C99.597 109.169 99.5581 108.975 99.5581 108.779C99.5609 108.586 99.602 108.394 99.6788 108.216C99.7556 108.038 99.8667 107.877 100.006 107.742C100.145 107.607 100.309 107.5 100.489 107.429C100.669 107.357 100.862 107.322 101.056 107.324Z" fill="#0096C7"/>
<path d="M115.067 135.072H110.624V158.173H115.067V135.072Z" fill="#03045E"/>
<path d="M161.356 112.881H136.055V117.324H161.356V112.881Z" fill="#03045E"/>
<path d="M121.258 43.0405H99.4729V64.8257H121.258V43.0405Z" fill="#FFE37B"/>
<path d="M126.456 37L121.258 43.0394V64.8246L126.5 56.8223V37H126.456Z" fill="#F9AD48"/>
<path d="M126.456 37H104.671L99.4729 43.0394H121.258L126.456 37Z" fill="#F9AD48"/>
<path d="M121.258 164.222H99.4729V186.007H121.258V164.222Z" fill="#FFE37B"/>
<path d="M126.456 158.164L121.258 164.225V186.01L126.5 178.007V158.164H126.456Z" fill="#F9AD48"/>
<path d="M126.456 158.164H104.671L99.4729 164.225H121.258L126.456 158.164Z" fill="#F9AD48"/>
<path d="M59.7851 108.826H38V130.611H59.7851V108.826Z" fill="#FFE37B"/>
<path d="M64.9834 102.785L59.7852 108.825V130.61L65.0265 122.607V102.785H64.9834Z" fill="#F9AD48"/>
<path d="M64.9834 102.785H43.1982L38 108.825H59.7851L64.9834 102.785Z" fill="#F9AD48"/>
<path d="M167.589 52.0544L168.323 52.2269L167.589 52.4212C165.509 52.9515 163.61 54.0325 162.091 55.5508C160.573 57.069 159.492 58.9684 158.961 61.049L158.789 61.7823L158.617 61.049C158.086 58.9684 157.005 57.069 155.487 55.5508C153.969 54.0325 152.069 52.9515 149.989 52.4212L149.255 52.2269L149.989 52.0544C152.066 51.5178 153.962 50.4345 155.479 48.9172C156.997 47.4 158.08 45.5042 158.617 43.4266L158.789 42.6934L158.961 43.4266C159.498 45.5042 160.581 47.4 162.099 48.9172C163.616 50.4345 165.512 51.5178 167.589 52.0544Z" fill="#03045E"/>
<path d="M181.998 65.7482H182.45L181.998 65.8778C180.665 66.2078 179.447 66.8939 178.475 67.8628C177.502 68.8316 176.811 70.0465 176.476 71.3778L176.368 71.8309L176.238 71.3778C175.908 70.0444 175.218 68.827 174.245 67.8575C173.271 66.888 172.051 66.2034 170.717 65.8778L170.264 65.7482H170.717C172.051 65.4143 173.269 64.7242 174.242 63.7516C175.214 62.7791 175.904 61.5608 176.238 60.2266L176.368 59.7734L176.476 60.2266C176.814 61.5587 177.506 62.7748 178.478 63.7466C179.449 64.7185 180.665 65.41 181.998 65.7482Z" fill="#03045E"/>
<path d="M87.8901 180.049L88.5589 180.221L87.8901 180.394C85.9711 180.872 84.2184 181.863 82.82 183.261C81.4217 184.66 80.4303 186.413 79.9524 188.332L79.78 189L79.6075 188.332C79.1235 186.412 78.1274 184.66 76.7257 183.262C75.324 181.864 73.5691 180.873 71.6483 180.394L70.9797 180.221L71.6483 180.049C73.5728 179.57 75.3308 178.577 76.7331 177.175C78.1354 175.772 79.1291 174.014 79.6075 172.09L79.78 171.421L79.9524 172.09C80.4269 174.013 81.4167 175.77 82.8153 177.172C84.2139 178.575 85.9684 179.569 87.8901 180.049Z" fill="#F9AD48"/>
<path d="M88.0623 87.4084H88.5586L88.0623 87.5377C86.6409 87.8921 85.3434 88.628 84.3095 89.6657C83.2756 90.7034 82.5446 92.0037 82.1954 93.4264L82.0662 93.9224L81.9366 93.4264C81.5874 92.0037 80.8565 90.7034 79.8226 89.6657C78.7887 88.628 77.4911 87.8921 76.0698 87.5377L75.5737 87.4084H76.0698C77.489 87.0496 78.7844 86.3124 79.8176 85.2754C80.8508 84.2384 81.5831 82.9405 81.9366 81.52L82.0662 81.0239L82.1954 81.52C82.549 82.9405 83.2815 84.2384 84.3147 85.2754C85.3479 86.3124 86.643 87.0496 88.0623 87.4084Z" fill="#0197C8"/>
<path d="M99.1928 77.5323H99.5164H99.1928C98.2832 77.7657 97.4529 78.239 96.7889 78.9031C96.1248 79.5671 95.6515 80.3974 95.4181 81.307V81.6303V81.307C95.1439 80.3943 94.6251 79.574 93.9179 78.9352C93.2106 78.2964 92.3421 77.8634 91.4063 77.6832H91.1042H91.4063C92.3209 77.4554 93.1568 76.9842 93.8252 76.3196C94.4936 75.655 94.9695 74.8219 95.2025 73.9086V73.585V73.9086C95.4358 74.8182 95.9092 75.6485 96.5732 76.3125C97.2372 76.9765 98.0675 77.4499 98.9771 77.6832L99.1928 77.5323Z" fill="#0197C8"/>
</svg>
