<svg width="106" height="106" viewBox="0 0 106 106" fill="none" xmlns="http://www.w3.org/2000/svg">
<path d="M97 52.9999C97 64.6677 92.3646 75.8578 84.1133 84.1091C75.862 92.3605 64.6704 96.9974 53 97C41.3296 96.9974 30.138 92.3605 21.8867 84.1091C13.6354 75.8578 9 64.6677 9 52.9999C8.9987 47.2222 10.1359 41.501 12.3465 36.1627C14.5571 30.8245 17.7979 25.9739 21.8838 21.888C25.9697 17.802 30.8207 14.5608 36.1597 12.3495C41.4986 10.1382 47.221 9 53 9C58.779 9 64.5014 10.1382 69.8404 12.3495C75.1793 14.5608 80.0303 17.802 84.1162 21.888C88.2021 25.9739 91.4429 30.8245 93.6535 36.1627C95.8642 41.501 97.0013 47.2222 97 52.9999Z" fill="#EDF3FC"/>
<path d="M53 106C38.9476 105.987 25.4746 100.398 15.5381 90.4619C5.60152 80.5254 0.0133514 67.0523 0 52.9999C0.0160162 38.9484 5.60505 25.477 15.541 15.541C25.477 5.60505 38.9484 0.0160162 53 0C67.0516 0.0160162 80.523 5.60505 90.459 15.541C100.395 25.477 105.984 38.9484 106 52.9999C105.987 67.0523 100.398 80.5254 90.4619 90.4619C80.5254 100.398 67.0524 105.987 53 106ZM53 1.69432C39.3978 1.71033 26.3573 7.12097 16.7391 16.7392C7.12091 26.3574 1.71046 39.3978 1.69444 52.9999C1.71046 66.6021 7.12091 79.6426 16.7391 89.2608C26.3573 98.879 39.3978 104.29 53 104.306C66.6022 104.29 79.6427 98.879 89.2609 89.2608C98.8791 79.6426 104.29 66.6021 104.306 52.9999C104.29 39.3978 98.8791 26.3574 89.2609 16.7392C79.6427 7.12097 66.6022 1.71033 53 1.69432Z" fill="#EDF3FC"/>
<path d="M31.7402 74.2969C31.7481 75.014 32.0378 75.6992 32.5468 76.2045C33.0558 76.7097 33.7431 76.9944 34.4603 76.9969H38.7103C39.4274 76.9944 40.1147 76.7097 40.6237 76.2045C41.1326 75.6992 41.4224 75.014 41.4302 74.2969H31.7402Z" fill="#03045E"/>
<path d="M54.1299 74.2969C54.1351 75.0131 54.4227 75.6984 54.9301 76.2039C55.4374 76.7094 56.1236 76.9943 56.8398 76.9969H61.0999C61.8161 76.9943 62.5023 76.7094 63.0097 76.2039C63.5171 75.6984 63.8046 75.0131 63.8099 74.2969H54.1299Z" fill="#03045E"/>
<path d="M70.7601 66.0793V60.9193C70.7611 60.6231 70.8671 60.337 71.0594 60.1117C71.2517 59.8864 71.5177 59.7367 71.8101 59.6893V48.0693C71.5177 48.0219 71.2517 47.8724 71.0594 47.6471C70.8671 47.4218 70.7611 47.1355 70.7601 46.8394V41.6693C70.763 41.3737 70.8698 41.0885 71.0618 40.8636C71.2537 40.6388 71.5186 40.4886 71.8101 40.4393V32.5894C71.8075 31.402 71.3346 30.264 70.4951 29.4244C69.6555 28.5848 68.5175 28.112 67.3301 28.1094H29.1201C28.5318 28.1094 27.9492 28.2253 27.4057 28.4504C26.8622 28.6756 26.3683 29.0055 25.9523 29.4215C25.5363 29.8375 25.2063 30.3313 24.9811 30.8749C24.756 31.4184 24.6401 32.001 24.6401 32.5894V69.8193C24.6401 71.0075 25.1121 72.147 25.9523 72.9872C26.7924 73.8273 27.9319 74.2993 29.1201 74.2993H67.3301C68.5175 74.2967 69.6555 73.8238 70.4951 72.9843C71.3346 72.1447 71.8075 71.0067 71.8101 69.8193V67.3093C71.5177 67.2619 71.2517 67.1124 71.0594 66.8871C70.8671 66.6618 70.7611 66.3755 70.7601 66.0793Z" fill="#0077B6"/>
<path d="M64.0599 70.2971H32.3799C31.3897 70.2945 30.441 69.8994 29.7418 69.1983C29.0425 68.4972 28.6499 67.5473 28.6499 66.5571V35.8472C28.6499 34.8579 29.0429 33.9091 29.7424 33.2096C30.4419 32.5101 31.3906 32.1172 32.3799 32.1172H64.0599C64.5505 32.1159 65.0367 32.2113 65.4904 32.3982C65.9441 32.5851 66.3564 32.8596 66.7039 33.2061C67.0513 33.5526 67.3269 33.9643 67.515 34.4175C67.7031 34.8707 67.7999 35.3565 67.7999 35.8472V66.5571C67.7999 67.5491 67.4059 68.5004 66.7045 69.2018C66.0031 69.9032 65.0518 70.2971 64.0599 70.2971Z" fill="#92D2E7"/>
<path d="M62.5699 46.1286H50.3799C50.2336 46.1134 50.0862 46.1134 49.9399 46.1286C49.5791 46.7109 49.1381 47.2394 48.6299 47.6986V48.1786C48.6681 48.6059 48.8732 49.001 49.2008 49.278C49.5284 49.5551 49.9521 49.6918 50.3799 49.6585H62.5699C62.9977 49.6918 63.4213 49.5551 63.7489 49.278C64.0765 49.001 64.2817 48.6059 64.3199 48.1786V47.5586C64.2696 47.1402 64.0592 46.7577 63.7329 46.4911C63.4066 46.2245 62.9898 46.0946 62.5699 46.1286Z" fill="#FFAC3F"/>
<path d="M51.09 42.2192C51.09 44.2137 50.2978 46.1263 48.8875 47.5366C47.4772 48.9469 45.5645 49.7393 43.5701 49.7393C41.5774 49.7366 39.6672 48.9432 38.2591 47.5332C36.851 46.1232 36.0601 44.2119 36.0601 42.2192C36.0601 40.2265 36.851 38.3153 38.2591 36.9053C39.6672 35.4953 41.5774 34.7019 43.5701 34.6992C45.5645 34.6992 47.4772 35.4916 48.8875 36.9019C50.2978 38.3121 51.09 40.2248 51.09 42.2192Z" fill="#FFBE1B"/>
<path d="M62.57 42.5483H51.08C51.0214 43.8 50.6501 45.0171 50 46.0883C50.1265 46.0987 50.2535 46.0987 50.38 46.0883H62.57C62.9972 46.119 63.4194 45.9814 63.7465 45.7048C64.0735 45.4282 64.2793 45.0347 64.32 44.6084V43.9784C64.2697 43.56 64.0593 43.1775 63.733 42.9108C63.4068 42.6442 62.99 42.5143 62.57 42.5483Z" fill="#FFD45C"/>
<path d="M62.5699 38.9785H50.3799C50.8509 39.9793 51.0933 41.0723 51.0898 42.1784C51.0898 42.2984 51.0898 42.4284 51.0898 42.5484H62.5799C63.0061 42.5818 63.4283 42.4465 63.7557 42.1716C64.083 41.8966 64.2892 41.504 64.3299 41.0784V40.4484C64.2893 40.021 64.0816 39.6269 63.7521 39.3516C63.4225 39.0764 62.9977 38.9423 62.5699 38.9785Z" fill="#FFE37B"/>
<path d="M48.6299 68.8192V68.2193C48.6681 67.7919 48.8732 67.3969 49.2008 67.1198C49.5284 66.8427 49.9521 66.706 50.3799 66.7393H62.5699C62.9977 66.706 63.4213 66.8427 63.7489 67.1198C64.0765 67.3969 64.2817 67.7919 64.3199 68.2193V68.8393C64.2792 69.2656 64.0734 69.6591 63.7463 69.9357C63.4193 70.2123 62.9971 70.3499 62.5699 70.3192H50.3799C49.9521 70.3525 49.5284 70.2158 49.2008 69.9388C48.8732 69.6617 48.6681 69.2666 48.6299 68.8393V68.8192Z" fill="#FFAC3F"/>
<path d="M48.6299 65.2182V64.5882C48.6705 64.1627 48.8768 63.7701 49.2041 63.4951C49.5314 63.2201 49.9537 63.0849 50.3799 63.1183H62.5699C62.9961 63.0849 63.4183 63.2201 63.7457 63.4951C64.073 63.7701 64.2792 64.1627 64.3199 64.5882V65.2182C64.2792 65.6438 64.073 66.0364 63.7457 66.3114C63.4183 66.5864 62.9961 66.7216 62.5699 66.6882H50.3799C49.9537 66.7216 49.5314 66.5864 49.2041 66.3114C48.8768 66.0364 48.6705 65.6438 48.6299 65.2182Z" fill="#FFCA45"/>
<path d="M48.6299 61.6674V61.0474C48.6681 60.62 48.8732 60.225 49.2008 59.9479C49.5284 59.6708 49.9521 59.5341 50.3799 59.5674H62.5699C62.9977 59.5341 63.4213 59.6708 63.7489 59.9479C64.0765 60.225 64.2817 60.62 64.3199 61.0474V61.6674C64.2817 62.0948 64.0765 62.4899 63.7489 62.767C63.4213 63.0441 62.9977 63.1808 62.5699 63.1475H50.3799C49.9521 63.1808 49.5284 63.0441 49.2008 62.767C48.8732 62.4899 48.6681 62.0948 48.6299 61.6674Z" fill="#FFE37B"/>
<path d="M32.2603 68.8192V68.2193C32.2984 67.7919 32.5036 67.3969 32.8312 67.1198C33.1588 66.8427 33.5825 66.706 34.0103 66.7393H46.2003C46.627 66.7061 47.0495 66.8431 47.3755 67.1204C47.7015 67.3977 47.9045 67.7928 47.9402 68.2193V68.8393C47.902 69.2648 47.6983 69.6583 47.3729 69.9351C47.0474 70.2119 46.6264 70.3498 46.2003 70.3192H34.0103C33.5825 70.3525 33.1588 70.2158 32.8312 69.9388C32.5036 69.6617 32.2984 69.2666 32.2603 68.8393V68.8192Z" fill="#FFAC3F"/>
<path d="M32.2603 65.2182V64.5882C32.3009 64.1627 32.5071 63.7701 32.8345 63.4951C33.1618 63.2201 33.5841 63.0849 34.0103 63.1183H46.2003C46.6254 63.085 47.0465 63.2206 47.3722 63.4958C47.6979 63.771 47.9021 64.1635 47.9402 64.5882V65.2182C47.9021 65.643 47.6979 66.0355 47.3722 66.3107C47.0465 66.5859 46.6254 66.7215 46.2003 66.6882H34.0103C33.5841 66.7216 33.1618 66.5864 32.8345 66.3114C32.5071 66.0364 32.3009 65.6438 32.2603 65.2182Z" fill="#FFCA45"/>
<path d="M51.09 42.2192C51.09 44.2137 50.2978 46.1263 48.8875 47.5366C47.4772 48.9469 45.5645 49.7393 43.5701 49.7393C41.5774 49.7366 39.6672 48.9432 38.2591 47.5332C36.851 46.1232 36.0601 44.2119 36.0601 42.2192C36.0601 40.2265 36.851 38.3153 38.2591 36.9053C39.6672 35.4953 41.5774 34.7019 43.5701 34.6992C45.5645 34.6992 47.4772 35.4916 48.8875 36.9019C50.2978 38.3121 51.09 40.2248 51.09 42.2192Z" fill="#FFAC3F"/>
<path d="M49.2202 42.2181C49.2202 42.9596 49.074 43.6939 48.7899 44.3788C48.5059 45.0637 48.0895 45.6859 47.5647 46.2097C47.0399 46.7336 46.417 47.1488 45.7316 47.4316C45.0461 47.7145 44.3117 47.8595 43.5702 47.8582C42.0744 47.8582 40.6398 47.2639 39.5821 46.2062C38.5244 45.1485 37.9302 43.714 37.9302 42.2181C37.9302 41.4775 38.0761 40.7441 38.3595 40.0598C38.6429 39.3755 39.0584 38.7538 39.5821 38.2301C40.1058 37.7064 40.7276 37.2909 41.4119 37.0075C42.0961 36.724 42.8295 36.5781 43.5702 36.5781C44.3117 36.5768 45.0461 36.7218 45.7316 37.0046C46.417 37.2875 47.0399 37.7027 47.5647 38.2266C48.0895 38.7504 48.5059 39.3726 48.7899 40.0575C49.074 40.7424 49.2202 41.4767 49.2202 42.2181Z" fill="#FFE37B"/>
<path fill-rule="evenodd" clip-rule="evenodd" d="M45.5796 40.3907C45.5694 40.3628 45.5694 40.3323 45.5796 40.3044C45.5682 40.2741 45.5682 40.2406 45.5796 40.2103C45.6075 40.188 45.6421 40.1758 45.6778 40.1758C45.7134 40.1758 45.748 40.188 45.7759 40.2103C45.7873 40.2406 45.7873 40.2741 45.7759 40.3044C45.7817 40.318 45.7847 40.3328 45.7847 40.3476C45.7847 40.3624 45.7817 40.3771 45.7759 40.3907C45.748 40.413 45.7134 40.4252 45.6778 40.4252C45.6421 40.4252 45.6075 40.413 45.5796 40.3907Z" fill="#FFAC3F"/>
<path fill-rule="evenodd" clip-rule="evenodd" d="M45.2345 40.7502C45.2243 40.7223 45.2243 40.6917 45.2345 40.6639C45.2363 40.6291 45.2509 40.5963 45.2756 40.5716C45.3002 40.547 45.3331 40.5324 45.3678 40.5306C45.3982 40.5191 45.4317 40.5191 45.462 40.5306C45.4684 40.559 45.4684 40.5884 45.462 40.6169C45.4712 40.6476 45.4712 40.6803 45.462 40.711C45.4315 40.7212 45.3984 40.7212 45.3678 40.711C45.3533 40.7186 45.3372 40.7225 45.3208 40.7225C45.3044 40.7225 45.2882 40.7186 45.2737 40.711" fill="#FFAC3F"/>
<path fill-rule="evenodd" clip-rule="evenodd" d="M44.8499 41.1125C44.8272 41.0878 44.8147 41.0556 44.8147 41.0222C44.8147 40.9888 44.8272 40.9566 44.8499 40.932C44.8758 40.9088 44.9093 40.896 44.9441 40.896C44.9788 40.896 45.0124 40.9088 45.0383 40.932C45.061 40.9566 45.0735 40.9888 45.0735 41.0222C45.0735 41.0556 45.061 41.0878 45.0383 41.1125C45.0248 41.1188 45.01 41.122 44.9951 41.122C44.9802 41.122 44.9654 41.1188 44.9519 41.1125C44.936 41.1201 44.9186 41.124 44.9009 41.124C44.8833 41.124 44.8658 41.1201 44.8499 41.1125Z" fill="#FFAC3F"/>
<path fill-rule="evenodd" clip-rule="evenodd" d="M44.4885 41.4796C44.4659 41.455 44.4534 41.4228 44.4534 41.3893C44.4534 41.3559 44.4659 41.3237 44.4885 41.2991C44.5164 41.2768 44.551 41.2646 44.5867 41.2646C44.6223 41.2646 44.6569 41.2768 44.6848 41.2991C44.7074 41.3237 44.7199 41.3559 44.7199 41.3893C44.7199 41.4228 44.7074 41.455 44.6848 41.4796C44.6521 41.4931 44.6154 41.4931 44.5827 41.4796C44.5525 41.4918 44.5187 41.4918 44.4885 41.4796Z" fill="#FFAC3F"/>
<path fill-rule="evenodd" clip-rule="evenodd" d="M44.1431 41.8501C44.1291 41.8403 44.1174 41.8275 44.1093 41.8125C44.1011 41.7975 44.0966 41.7808 44.0959 41.7638C44.0959 41.7466 44.0994 41.7296 44.1062 41.7139C44.113 41.6981 44.123 41.6839 44.1355 41.6721C44.148 41.6603 44.1628 41.6513 44.1789 41.6455C44.1951 41.6397 44.2123 41.6371 44.2294 41.6382C44.2431 41.6324 44.2577 41.6294 44.2725 41.6294C44.2874 41.6294 44.3021 41.6324 44.3158 41.6382C44.328 41.6684 44.328 41.7022 44.3158 41.7324C44.3158 41.7488 44.3125 41.7652 44.3062 41.7804C44.2999 41.7957 44.2906 41.8095 44.279 41.8211C44.2673 41.8328 44.2535 41.842 44.2382 41.8483C44.223 41.8546 44.2066 41.8579 44.1901 41.8579C44.1901 41.8579 44.1274 41.858 44.1117 41.8187" fill="#FFAC3F"/>
<path fill-rule="evenodd" clip-rule="evenodd" d="M43.7195 42.1604C43.7119 42.1459 43.708 42.1297 43.708 42.1133C43.708 42.0969 43.7119 42.0808 43.7195 42.0663C43.7454 42.0431 43.7789 42.0303 43.8137 42.0303C43.8484 42.0303 43.8819 42.0431 43.9078 42.0663C43.9269 42.091 43.9373 42.1213 43.9373 42.1526C43.9373 42.1838 43.9269 42.2142 43.9078 42.2389C43.8968 42.2521 43.883 42.2627 43.8674 42.27C43.8518 42.2773 43.8348 42.281 43.8176 42.281C43.8004 42.281 43.7834 42.2773 43.7678 42.27C43.7522 42.2627 43.7384 42.2521 43.7273 42.2389C43.7133 42.2291 43.7018 42.2163 43.6936 42.2013C43.6854 42.1863 43.6808 42.1696 43.6802 42.1526L43.7195 42.1604Z" fill="#FFAC3F"/>
<path fill-rule="evenodd" clip-rule="evenodd" d="M43.0445 42.9427C43.0382 42.9291 43.0349 42.9144 43.0349 42.8995C43.0349 42.8845 43.0382 42.8699 43.0445 42.8564C43.0382 42.8428 43.0349 42.8281 43.0349 42.8132C43.0349 42.7983 43.0382 42.7836 43.0445 42.7701C43.0563 42.7567 43.0708 42.746 43.087 42.7386C43.1033 42.7313 43.1209 42.7275 43.1387 42.7275C43.1565 42.7275 43.1741 42.7313 43.1903 42.7386C43.2066 42.746 43.2211 42.7567 43.2329 42.7701C43.2419 42.7981 43.2419 42.8283 43.2329 42.8564C43.2387 42.87 43.2417 42.8846 43.2417 42.8995C43.2417 42.9143 43.2387 42.929 43.2329 42.9427C43.2224 42.9578 43.2082 42.97 43.1918 42.9782C43.1753 42.9864 43.1571 42.9904 43.1387 42.9898C43.1216 42.9892 43.1049 42.9845 43.0899 42.9764C43.0749 42.9682 43.0621 42.9567 43.0524 42.9427" fill="#FFAC3F"/>
<path fill-rule="evenodd" clip-rule="evenodd" d="M42.636 43.2872C42.6302 43.2736 42.6272 43.2589 42.6272 43.244C42.6272 43.2292 42.6302 43.2145 42.636 43.2008C42.6258 43.173 42.6258 43.1424 42.636 43.1145C42.6637 43.0886 42.7002 43.0742 42.7381 43.0742C42.776 43.0742 42.8125 43.0886 42.8401 43.1145C42.8459 43.1282 42.8489 43.1429 42.8489 43.1577C42.8489 43.1726 42.8459 43.1872 42.8401 43.2008C42.8459 43.2145 42.8489 43.2292 42.8489 43.244C42.8489 43.2589 42.8459 43.2736 42.8401 43.2872C42.8272 43.3016 42.8115 43.3132 42.7939 43.3213C42.7764 43.3294 42.7574 43.3338 42.7381 43.3343C42.7008 43.3267 42.6659 43.3107 42.636 43.2872Z" fill="#FFAC3F"/>
<path fill-rule="evenodd" clip-rule="evenodd" d="M42.314 43.657C42.2914 43.6324 42.2788 43.6002 42.2788 43.5668C42.2788 43.5334 42.2914 43.5012 42.314 43.4766C42.3258 43.4632 42.3403 43.4525 42.3565 43.4452C42.3728 43.4379 42.3903 43.4341 42.4082 43.4341C42.426 43.4341 42.4437 43.4379 42.4599 43.4452C42.4761 43.4525 42.4906 43.4632 42.5024 43.4766C42.525 43.5012 42.5375 43.5334 42.5375 43.5668C42.5375 43.6002 42.525 43.6324 42.5024 43.657C42.4716 43.6662 42.4389 43.6662 42.4082 43.657C42.3778 43.6685 42.3443 43.6685 42.314 43.657Z" fill="#FFAC3F"/>
<path fill-rule="evenodd" clip-rule="evenodd" d="M41.9525 44.0229C41.9395 44.0128 41.9291 43.9997 41.9223 43.9846C41.9154 43.9696 41.9123 43.9531 41.9132 43.9366C41.9132 43.9026 41.9262 43.8698 41.9496 43.845C41.9729 43.8202 42.0049 43.8052 42.0389 43.8032C42.0742 43.8033 42.1081 43.8175 42.1331 43.8425C42.144 43.8702 42.144 43.9011 42.1331 43.9288C42.1389 43.9424 42.1419 43.9571 42.1419 43.972C42.1419 43.9868 42.1389 44.0014 42.1331 44.0151C42.1076 44.0394 42.0741 44.0535 42.0389 44.0543C42.0265 44.0639 42.0114 44.069 41.9957 44.069C41.9801 44.069 41.9649 44.0639 41.9525 44.0543" fill="#FFAC3F"/>
<path fill-rule="evenodd" clip-rule="evenodd" d="M41.5687 44.3845C41.5562 44.374 41.5461 44.3607 41.5393 44.3458C41.5325 44.3309 41.5291 44.3146 41.5295 44.2982C41.5285 44.2817 41.5316 44.2653 41.5385 44.2502C41.5453 44.2352 41.5557 44.2221 41.5687 44.2119C41.5951 44.1865 41.6303 44.1724 41.6669 44.1724C41.7035 44.1724 41.7386 44.1865 41.765 44.2119C41.7708 44.2256 41.7738 44.2403 41.7738 44.2551C41.7738 44.2699 41.7708 44.2846 41.765 44.2982C41.7708 44.3119 41.7738 44.3266 41.7738 44.3414C41.7738 44.3562 41.7708 44.3709 41.765 44.3845C41.7386 44.4099 41.7035 44.4242 41.6669 44.4242C41.6303 44.4242 41.5951 44.4099 41.5687 44.3845Z" fill="#FFAC3F"/>
<path fill-rule="evenodd" clip-rule="evenodd" d="M41.2234 44.746C41.2008 44.7214 41.1882 44.6892 41.1882 44.6558C41.1882 44.6224 41.2008 44.5902 41.2234 44.5656C41.2344 44.5524 41.2483 44.5417 41.2639 44.5345C41.2795 44.5272 41.2964 44.5234 41.3137 44.5234C41.3309 44.5234 41.3479 44.5272 41.3635 44.5345C41.3791 44.5417 41.393 44.5524 41.404 44.5656C41.4266 44.5902 41.4392 44.6224 41.4392 44.6558C41.4392 44.6892 41.4266 44.7214 41.404 44.746C41.393 44.7592 41.3791 44.7698 41.3635 44.7771C41.3479 44.7843 41.3309 44.7882 41.3137 44.7882C41.2964 44.7882 41.2795 44.7843 41.2639 44.7771C41.2483 44.7698 41.2344 44.7592 41.2234 44.746Z" fill="#FFAC3F"/>
<path fill-rule="evenodd" clip-rule="evenodd" d="M41.4039 40.3862C41.4149 40.3585 41.4149 40.3277 41.4039 40.2999C41.4039 40.2824 41.4005 40.2651 41.3938 40.2489C41.3871 40.2327 41.3772 40.218 41.3648 40.2056C41.3524 40.1932 41.3377 40.1834 41.3215 40.1767C41.3053 40.17 41.288 40.1665 41.2704 40.1665C41.2568 40.1607 41.2421 40.1577 41.2272 40.1577C41.2124 40.1577 41.1978 40.1607 41.1841 40.1665C41.1727 40.1969 41.1727 40.2303 41.1841 40.2607C41.1783 40.2743 41.1753 40.289 41.1753 40.3039C41.1753 40.3187 41.1783 40.3333 41.1841 40.347C41.2091 40.3719 41.243 40.3859 41.2783 40.3859C41.3136 40.3859 41.3475 40.3719 41.3725 40.347" fill="#FFAC3F"/>
<path fill-rule="evenodd" clip-rule="evenodd" d="M41.7648 40.7505C41.775 40.7226 41.775 40.692 41.7648 40.6642C41.7763 40.6338 41.7763 40.6004 41.7648 40.57C41.737 40.5477 41.7024 40.5356 41.6667 40.5356C41.6311 40.5356 41.5964 40.5477 41.5686 40.57C41.5436 40.595 41.5294 40.6288 41.5293 40.6642C41.529 40.6806 41.5324 40.6968 41.5392 40.7118C41.546 40.7267 41.556 40.7399 41.5686 40.7505C41.5964 40.7728 41.6311 40.785 41.6667 40.785C41.7024 40.785 41.737 40.7728 41.7648 40.7505Z" fill="#FFAC3F"/>
<path fill-rule="evenodd" clip-rule="evenodd" d="M42.1337 41.1125C42.1563 41.0878 42.1689 41.0556 42.1689 41.0222C42.1689 40.9888 42.1563 40.9566 42.1337 40.932C42.1078 40.9088 42.0743 40.896 42.0395 40.896C42.0048 40.896 41.9712 40.9088 41.9453 40.932C41.9366 40.9628 41.9366 40.9954 41.9453 41.0262C41.9395 41.0398 41.9365 41.0544 41.9365 41.0693C41.9365 41.0841 41.9395 41.0988 41.9453 41.1125C41.9757 41.1239 42.0092 41.1239 42.0395 41.1125C42.0553 41.1207 42.0728 41.125 42.0906 41.125C42.1084 41.125 42.1258 41.1207 42.1416 41.1125" fill="#FFAC3F"/>
<path fill-rule="evenodd" clip-rule="evenodd" d="M42.5026 41.4753C42.5258 41.4494 42.5387 41.4159 42.5387 41.3811C42.5387 41.3464 42.5258 41.3129 42.5026 41.287C42.4767 41.2638 42.4432 41.251 42.4084 41.251C42.3737 41.251 42.3402 41.2638 42.3143 41.287C42.2911 41.3129 42.2783 41.3464 42.2783 41.3811C42.2783 41.4159 42.2911 41.4494 42.3143 41.4753C42.3278 41.4816 42.3425 41.4849 42.3575 41.4849C42.3724 41.4849 42.3871 41.4816 42.4006 41.4753C42.434 41.4847 42.4693 41.4847 42.5026 41.4753Z" fill="#FFAC3F"/>
<path fill-rule="evenodd" clip-rule="evenodd" d="M42.8638 41.8495C42.874 41.8216 42.874 41.7911 42.8638 41.7632C42.8753 41.7329 42.8753 41.6994 42.8638 41.669C42.8375 41.6436 42.8023 41.6294 42.7657 41.6294C42.7291 41.6294 42.6939 41.6436 42.6676 41.669C42.66 41.6836 42.656 41.6998 42.656 41.7162C42.656 41.7326 42.66 41.7487 42.6676 41.7632C42.6613 41.7767 42.658 41.7915 42.658 41.8064C42.658 41.8213 42.6613 41.836 42.6676 41.8495C42.6954 41.8718 42.7301 41.884 42.7657 41.884C42.8014 41.884 42.836 41.8718 42.8638 41.8495Z" fill="#FFAC3F"/>
<path fill-rule="evenodd" clip-rule="evenodd" d="M43.2642 42.1596C43.2756 42.1292 43.2756 42.0958 43.2642 42.0654C43.2395 42.0428 43.2073 42.0303 43.1739 42.0303C43.1405 42.0303 43.1082 42.0428 43.0835 42.0654C43.0604 42.0913 43.0476 42.1248 43.0476 42.1596C43.0476 42.1943 43.0604 42.2278 43.0835 42.2537C43.1094 42.2769 43.143 42.2897 43.1777 42.2897C43.2125 42.2897 43.2461 42.2769 43.272 42.2537C43.2788 42.2227 43.2788 42.1906 43.272 42.1596H43.2642Z" fill="#FFAC3F"/>
<path fill-rule="evenodd" clip-rule="evenodd" d="M43.5937 42.5783C43.6169 42.5524 43.6297 42.5189 43.6297 42.4842C43.6297 42.4494 43.6169 42.4159 43.5937 42.39C43.5678 42.3669 43.5343 42.354 43.4995 42.354C43.4648 42.354 43.4312 42.3669 43.4053 42.39C43.3821 42.4159 43.3694 42.4494 43.3694 42.4842C43.3694 42.5189 43.3821 42.5524 43.4053 42.5783C43.4312 42.6015 43.4648 42.6142 43.4995 42.6142C43.5343 42.6142 43.5678 42.6015 43.5937 42.5783Z" fill="#FFAC3F"/>
<path fill-rule="evenodd" clip-rule="evenodd" d="M43.9549 42.9491C43.9607 42.9354 43.9637 42.9207 43.9637 42.9059C43.9637 42.891 43.9607 42.8764 43.9549 42.8628C43.9607 42.8491 43.9637 42.8344 43.9637 42.8196C43.9637 42.8047 43.9607 42.7901 43.9549 42.7765C43.9286 42.7511 43.8934 42.7368 43.8568 42.7368C43.8202 42.7368 43.785 42.7511 43.7587 42.7765C43.7528 42.7901 43.7498 42.8047 43.7498 42.8196C43.7498 42.8344 43.7528 42.8491 43.7587 42.8628C43.7528 42.8764 43.7498 42.891 43.7498 42.9059C43.7498 42.9207 43.7528 42.9354 43.7587 42.9491C43.7704 42.9629 43.7847 42.9742 43.8009 42.9823C43.8171 42.9904 43.8348 42.9951 43.8529 42.9962C43.8722 42.9957 43.8912 42.9913 43.9087 42.9832C43.9263 42.9751 43.942 42.9635 43.9549 42.9491Z" fill="#FFAC3F"/>
<path fill-rule="evenodd" clip-rule="evenodd" d="M44.3238 43.2844C44.3328 43.2564 44.3328 43.2261 44.3238 43.1981C44.3314 43.1698 44.3314 43.14 44.3238 43.1118C44.312 43.0984 44.2975 43.0878 44.2812 43.0804C44.265 43.0731 44.2474 43.0693 44.2296 43.0693C44.2118 43.0693 44.1941 43.0731 44.1778 43.0804C44.1616 43.0878 44.1472 43.0984 44.1354 43.1118C44.1224 43.1219 44.112 43.135 44.1051 43.1501C44.0983 43.1651 44.0952 43.1816 44.0961 43.1981C44.0981 43.2321 44.1131 43.2641 44.1379 43.2874C44.1627 43.3108 44.1955 43.3237 44.2296 43.3236C44.2599 43.3351 44.2934 43.3351 44.3238 43.3236" fill="#FFAC3F"/>
<path fill-rule="evenodd" clip-rule="evenodd" d="M44.6928 43.657C44.7154 43.6324 44.728 43.6002 44.728 43.5668C44.728 43.5334 44.7154 43.5012 44.6928 43.4766C44.681 43.4632 44.6665 43.4525 44.6502 43.4452C44.634 43.4379 44.6164 43.4341 44.5986 43.4341C44.5808 43.4341 44.5632 43.4379 44.5469 43.4452C44.5307 43.4525 44.5162 43.4632 44.5044 43.4766C44.4818 43.5012 44.4692 43.5334 44.4692 43.5668C44.4692 43.6002 44.4818 43.6324 44.5044 43.657C44.5181 43.6629 44.5328 43.6659 44.5476 43.6659C44.5625 43.6659 44.5771 43.6629 44.5907 43.657C44.6239 43.6678 44.6596 43.6678 44.6928 43.657Z" fill="#FFAC3F"/>
<path fill-rule="evenodd" clip-rule="evenodd" d="M45.0304 44.018C45.0367 44.0044 45.04 43.9898 45.04 43.9749C45.04 43.9599 45.0367 43.9452 45.0304 43.9317C45.0373 43.9183 45.0409 43.9035 45.0409 43.8885C45.0409 43.8735 45.0373 43.8587 45.0304 43.8454C45.0194 43.8322 45.0055 43.8215 44.9899 43.8142C44.9743 43.807 44.9574 43.8032 44.9402 43.8032C44.9229 43.8032 44.9059 43.807 44.8903 43.8142C44.8747 43.8215 44.8609 43.8322 44.8498 43.8454C44.8389 43.8731 44.8389 43.9039 44.8498 43.9317C44.8429 43.945 44.8394 43.9598 44.8394 43.9749C44.8394 43.9899 44.8429 44.0046 44.8498 44.018C44.8616 44.0311 44.8761 44.0415 44.8924 44.0483C44.9087 44.0551 44.9264 44.0582 44.944 44.0572C44.9606 44.0589 44.9773 44.0562 44.9925 44.0493C45.0076 44.0424 45.0208 44.0315 45.0304 44.018Z" fill="#FFAC3F"/>
<path fill-rule="evenodd" clip-rule="evenodd" d="M45.415 44.3857C45.4264 44.3553 45.4264 44.3219 45.415 44.2915C45.4213 44.278 45.4245 44.2633 45.4245 44.2484C45.4245 44.2335 45.4213 44.2187 45.415 44.2052C45.4039 44.192 45.39 44.1815 45.3744 44.1742C45.3588 44.1669 45.3419 44.1631 45.3247 44.1631C45.3075 44.1631 45.2905 44.1669 45.2749 44.1742C45.2593 44.1815 45.2455 44.192 45.2344 44.2052C45.2281 44.2187 45.2249 44.2335 45.2249 44.2484C45.2249 44.2633 45.2281 44.278 45.2344 44.2915C45.2286 44.3052 45.2255 44.3199 45.2255 44.3347C45.2255 44.3496 45.2286 44.3642 45.2344 44.3778C45.2455 44.391 45.2593 44.4017 45.2749 44.4089C45.2905 44.4162 45.3075 44.42 45.3247 44.42C45.3419 44.42 45.3588 44.4162 45.3744 44.4089C45.39 44.4017 45.4039 44.391 45.415 44.3778" fill="#FFAC3F"/>
<path fill-rule="evenodd" clip-rule="evenodd" d="M45.7761 44.7428C45.7971 44.7174 45.8086 44.6855 45.8086 44.6525C45.8086 44.6196 45.7971 44.5877 45.7761 44.5623C45.7482 44.54 45.7136 44.5278 45.6779 44.5278C45.6423 44.5278 45.6077 44.54 45.5798 44.5623C45.5593 44.5864 45.5481 44.617 45.5481 44.6486C45.5481 44.6802 45.5593 44.7108 45.5798 44.7349C45.6062 44.7603 45.6413 44.7745 45.6779 44.7745C45.7145 44.7745 45.7497 44.7603 45.7761 44.7349" fill="#FFAC3F"/>
<path fill-rule="evenodd" clip-rule="evenodd" d="M42.2672 40.4853C42.6311 40.2508 43.0548 40.1261 43.4878 40.1261C43.9207 40.1261 44.3445 40.2508 44.7084 40.4853L45.4934 39.7007C44.9205 39.2469 44.2109 39 43.4799 39C42.7489 39 42.0395 39.2469 41.4666 39.7007L42.2515 40.4853H42.2672Z" fill="#FFAC3F"/>
<path fill-rule="evenodd" clip-rule="evenodd" d="M41.4746 43.7321C41.2326 43.3697 41.1035 42.9437 41.1035 42.508C41.1035 42.0724 41.2326 41.6465 41.4746 41.2841L40.6896 40.4995C40.2428 41.0708 40 41.7751 40 42.5003C40 43.2254 40.2428 43.9297 40.6896 44.5009L41.4746 43.7163V43.7321Z" fill="#FFAC3F"/>
<path fill-rule="evenodd" clip-rule="evenodd" d="M44.7165 44.5186C44.3574 44.7692 43.9299 44.9034 43.4919 44.903C43.0519 44.9089 42.6211 44.7772 42.2596 44.5264L41.4746 45.311C42.0481 45.7653 42.7602 46.009 43.4919 46.0015C44.2184 45.9989 44.9232 45.753 45.4936 45.3032L44.7086 44.5186H44.7165Z" fill="#FFAC3F"/>
<path fill-rule="evenodd" clip-rule="evenodd" d="M45.4856 41.2533C45.7344 41.6182 45.8633 42.0515 45.8545 42.493C45.8481 42.9225 45.7202 43.3414 45.4856 43.7013L46.2705 44.4859C46.7267 43.9222 46.9736 43.218 46.9692 42.493C46.9767 41.7617 46.7329 41.0498 46.2784 40.4766L45.4935 41.2612L45.4856 41.2533Z" fill="#FFAC3F"/>
<path fill-rule="evenodd" clip-rule="evenodd" d="M46.2939 44.7148C46.3661 44.7148 46.4375 44.7291 46.5041 44.7567C46.5708 44.7843 46.6314 44.8247 46.6825 44.8757C46.7335 44.9267 46.774 44.9873 46.8016 45.0539C46.8292 45.1205 46.8434 45.1919 46.8434 45.264C46.8434 45.4097 46.7855 45.5494 46.6825 45.6524C46.5794 45.7554 46.4396 45.8133 46.2939 45.8133C46.2221 45.8133 46.1511 45.799 46.0848 45.7714C46.0186 45.7437 45.9586 45.703 45.9082 45.6519C45.8578 45.6008 45.818 45.5403 45.7913 45.4737C45.7645 45.4071 45.7512 45.3358 45.7523 45.264C45.7512 45.1923 45.7645 45.1211 45.7913 45.0545C45.818 44.9879 45.8578 44.9272 45.9082 44.8761C45.9586 44.825 46.0186 44.7845 46.0848 44.7568C46.1511 44.7291 46.2221 44.7148 46.2939 44.7148Z" fill="#FFAC3F"/>
<path fill-rule="evenodd" clip-rule="evenodd" d="M40.6895 44.7148C40.8346 44.723 40.9707 44.7873 41.069 44.8943C41.1672 45.0013 41.2197 45.1424 41.2154 45.2876C41.2096 45.4252 41.1524 45.5555 41.055 45.6529C40.9576 45.7502 40.8272 45.8075 40.6895 45.8133C40.5445 45.8052 40.4083 45.7407 40.3101 45.6337C40.2118 45.5267 40.1593 45.3857 40.1636 45.2406C40.1711 45.1036 40.2289 44.9742 40.326 44.8772C40.423 44.7802 40.5525 44.7224 40.6895 44.7148Z" fill="#FFAC3F"/>
<path fill-rule="evenodd" clip-rule="evenodd" d="M46.3097 39.1187C46.4541 39.1207 46.5918 39.1795 46.6932 39.2822C46.7946 39.385 46.8513 39.5235 46.8513 39.6678C46.8513 39.7386 46.8372 39.8086 46.8099 39.8738C46.7826 39.9391 46.7426 39.9983 46.6922 40.048C46.6418 40.0976 46.582 40.1367 46.5163 40.1631C46.4507 40.1894 46.3805 40.2024 46.3097 40.2014C46.1674 40.2014 46.0308 40.1454 45.9294 40.0456C45.8281 39.9457 45.7701 39.8101 45.7681 39.6678C45.7681 39.5235 45.8249 39.385 45.9263 39.2822C46.0276 39.1795 46.1654 39.1207 46.3097 39.1187Z" fill="#FFAC3F"/>
<path fill-rule="evenodd" clip-rule="evenodd" d="M40.6894 39.1187C40.7602 39.1177 40.8304 39.1307 40.8961 39.157C40.9618 39.1834 41.0215 39.2225 41.0719 39.2721C41.1223 39.3218 41.1624 39.381 41.1897 39.4463C41.217 39.5115 41.231 39.5816 41.231 39.6523C41.229 39.7952 41.1712 39.9317 41.0701 40.0328C40.969 40.1339 40.8324 40.1916 40.6894 40.1936C40.6176 40.1946 40.5464 40.1815 40.4798 40.1547C40.4131 40.128 40.3525 40.0882 40.3013 40.0379C40.2502 39.9875 40.2096 39.9275 40.1819 39.8613C40.1542 39.7951 40.1399 39.724 40.1399 39.6523C40.1409 39.5812 40.156 39.511 40.1842 39.4457C40.2123 39.3804 40.2531 39.3213 40.3041 39.2718C40.3552 39.2222 40.4154 39.1832 40.4815 39.1569C40.5476 39.1307 40.6183 39.1177 40.6894 39.1187Z" fill="#FFAC3F"/>
<path d="M67.7999 49.7969H28.6499V53.5769H67.7999V49.7969Z" fill="#0077B6"/>
<path d="M72.9902 48.0898H71.9902C71.6587 48.0898 71.3408 47.9581 71.1064 47.7237C70.872 47.4893 70.7402 47.1713 70.7402 46.8398V41.6697C70.7402 41.506 70.7726 41.344 70.8356 41.1929C70.8985 41.0418 70.9907 40.9046 71.1069 40.7893C71.2231 40.6741 71.361 40.583 71.5126 40.5213C71.6642 40.4596 71.8266 40.4284 71.9902 40.4297H72.9902C73.1539 40.4284 73.3162 40.4596 73.4678 40.5213C73.6194 40.583 73.7573 40.6741 73.8735 40.7893C73.9897 40.9046 74.082 41.0418 74.1449 41.1929C74.2078 41.344 74.2402 41.506 74.2402 41.6697V46.8398C74.2402 47.1713 74.1086 47.4893 73.8741 47.7237C73.6397 47.9581 73.3218 48.0898 72.9902 48.0898Z" fill="#03045E"/>
<path d="M72.9902 67.328H71.9902C71.6587 67.328 71.3408 67.1963 71.1064 66.9619C70.872 66.7275 70.7402 66.4095 70.7402 66.078V60.918C70.7402 60.5864 70.872 60.2686 71.1064 60.0342C71.3408 59.7998 71.6587 59.668 71.9902 59.668H72.9902C73.3218 59.668 73.6397 59.7998 73.8741 60.0342C74.1086 60.2686 74.2402 60.5864 74.2402 60.918V66.078C74.2402 66.4095 74.1086 66.7275 73.8741 66.9619C73.6397 67.1963 73.3218 67.328 72.9902 67.328Z" fill="#03045E"/>
<path d="M81.6198 70.7677V31.8477C81.6186 31.5989 81.7101 31.3586 81.8765 31.1737C82.0429 30.9888 82.2723 30.8725 82.5198 30.8477L76.1098 32.0576C75.5952 32.1554 75.1309 32.4297 74.7968 32.8331C74.4628 33.2366 74.2799 33.7439 74.2798 34.2677V68.3877C74.2799 68.9115 74.4628 69.4188 74.7968 69.8223C75.1309 70.2257 75.5952 70.4999 76.1098 70.5977L82.5198 71.8076C82.2653 71.7823 82.03 71.6604 81.8626 71.4669C81.6952 71.2735 81.6083 71.0233 81.6198 70.7677Z" fill="#0077B6"/>
<path d="M83.4401 71.7871H82.6401C82.3749 71.7871 82.1205 71.6818 81.933 71.4943C81.7454 71.3067 81.6401 71.0523 81.6401 70.7871V31.8672C81.6401 31.602 81.7454 31.3476 81.933 31.16C82.1205 30.9725 82.3749 30.8672 82.6401 30.8672H83.4401C83.7053 30.8672 83.9597 30.9725 84.1472 31.16C84.3348 31.3476 84.4401 31.602 84.4401 31.8672V70.7871C84.4401 71.0523 84.3348 71.3067 84.1472 71.4943C83.9597 71.6818 83.7053 71.7871 83.4401 71.7871Z" fill="#03045E"/>
</svg>
