<svg width="106" height="106" viewBox="0 0 106 106" fill="none" xmlns="http://www.w3.org/2000/svg">
<path d="M97 53.005C97 64.6732 92.3664 75.8634 84.1185 84.1141C75.8706 92.3648 64.6841 97 53.0198 97C47.2413 97.0039 41.5186 95.8689 36.1787 93.6598C30.8388 91.4507 25.9863 88.2108 21.8984 84.1253C17.8106 80.0397 14.5674 75.1885 12.3543 69.8487C10.1411 64.509 9.0013 58.7855 9 53.005C9 41.3342 13.6346 30.1413 21.8844 21.8888C30.1341 13.6363 41.3232 9 52.9901 9C58.7686 8.9974 64.491 10.1337 69.8304 12.344C75.1698 14.5542 80.0216 17.7953 84.1086 21.8818C88.1955 25.9683 91.4376 30.8202 93.6495 36.1605C95.8615 41.5007 97 47.2245 97 53.005Z" fill="#EDF3FC"/>
<path d="M53.005 106C38.9539 105.984 25.4827 100.396 15.5461 90.4611C5.60944 80.5264 0.018683 67.0563 0 53.0051C0.0160147 38.9522 5.60564 25.4794 15.5425 15.5425C25.4795 5.60558 38.9521 0.0160147 53.005 0C67.0562 0.018683 80.5264 5.60944 90.4611 15.5461C100.396 25.4827 105.984 38.954 106 53.0051C105.981 67.0545 100.392 80.5231 90.4575 90.4575C80.5231 100.392 67.0545 105.981 53.005 106ZM53.005 1.70425C39.4042 1.72026 26.365 7.13039 16.7477 16.7477C7.13039 26.365 1.72033 39.4042 1.70431 53.0051C1.72033 66.6051 7.13072 79.6432 16.7483 89.2589C26.3659 98.8745 39.4051 104.282 53.005 104.296C66.6041 104.282 79.6423 98.8742 89.2583 89.2582C98.8743 79.6423 104.282 66.6041 104.296 53.0051C104.282 39.4051 98.8746 26.3659 89.2589 16.7483C79.6432 7.13072 66.605 1.72027 53.005 1.70425Z" fill="#EDF3FC"/>
<path d="M33.2001 36.6797H23.5201C22.5998 36.6797 21.7172 37.0452 21.0664 37.6959C20.4157 38.3467 20.05 39.2294 20.05 40.1497V63.5397C20.5124 63.3913 20.9946 63.3137 21.4801 63.3097C22.6878 63.3123 23.845 63.7939 24.698 64.6488C25.551 65.5037 26.0301 66.662 26.0301 67.8696V68.0197H33.2001C34.1204 68.0197 35.003 67.654 35.6537 67.0033C36.3045 66.3525 36.67 65.47 36.67 64.5497V40.1497C36.67 39.2294 36.3045 38.3467 35.6537 37.6959C35.003 37.0452 34.1204 36.6797 33.2001 36.6797Z" fill="#479CCB"/>
<path d="M32.9702 42.6602H23.7202V45.1302H32.9702V42.6602Z" fill="white"/>
<path d="M32.9702 48.3281H23.7202V50.7981H32.9702V48.3281Z" fill="white"/>
<path d="M32.9702 53.8906H23.7202V56.3606H32.9702V53.8906Z" fill="white"/>
<path d="M32.9702 59.5586H23.7202V62.0286H32.9702V59.5586Z" fill="white"/>
<path d="M29.4802 39.4699C29.4776 39.7705 29.3563 40.0579 29.1428 40.2696C28.9293 40.4812 28.6408 40.5999 28.3402 40.5999C28.0413 40.5973 27.7554 40.4774 27.5441 40.266C27.3327 40.0547 27.2128 39.7688 27.2102 39.4699C27.2102 39.1702 27.3292 38.8829 27.5411 38.6709C27.7531 38.459 28.0405 38.3399 28.3402 38.3399C28.4894 38.3386 28.6374 38.3668 28.7757 38.423C28.914 38.4792 29.0397 38.5622 29.1457 38.6673C29.2517 38.7723 29.3358 38.8974 29.3932 39.0352C29.4507 39.173 29.4802 39.3207 29.4802 39.4699Z" fill="white"/>
<path d="M59.96 41.5996C58.7533 41.5996 57.596 41.1203 56.7427 40.267C55.8894 39.4137 55.41 38.2564 55.41 37.0497C55.41 36.9297 55.41 36.7997 55.41 36.6797H47.71C46.7897 36.6797 45.9071 37.0452 45.2563 37.6959C44.6056 38.3467 44.24 39.2294 44.24 40.1497V64.5497C44.24 65.47 44.6056 66.3525 45.2563 67.0033C45.9071 67.654 46.7897 68.0197 47.71 68.0197H57.39C58.3095 68.017 59.1906 67.6505 59.8408 67.0004C60.4909 66.3502 60.8573 65.4692 60.86 64.5497V41.5497C60.5623 41.5958 60.2609 41.6124 59.96 41.5996Z" fill="#479CCB"/>
<path d="M57.1802 42.6602H47.9302V45.1302H57.1802V42.6602Z" fill="white"/>
<path d="M57.1802 48.3281H47.9302V50.7981H57.1802V48.3281Z" fill="white"/>
<path d="M57.1802 53.8906H47.9302V56.3606H57.1802V53.8906Z" fill="white"/>
<path d="M57.1802 59.5586H47.9302V62.0286H57.1802V59.5586Z" fill="white"/>
<path d="M53.6902 39.4699C53.6876 39.7688 53.5677 40.0547 53.3563 40.266C53.145 40.4774 52.8591 40.5973 52.5602 40.5999C52.2596 40.5999 51.9711 40.4812 51.7576 40.2696C51.5441 40.0579 51.4228 39.7705 51.4202 39.4699C51.4202 39.3207 51.4497 39.173 51.5071 39.0352C51.5646 38.8974 51.6487 38.7723 51.7547 38.6673C51.8607 38.5622 51.9864 38.4792 52.1247 38.423C52.2629 38.3668 52.4109 38.3386 52.5602 38.3399C52.8599 38.3399 53.1473 38.459 53.3593 38.6709C53.5712 38.8829 53.6902 39.1702 53.6902 39.4699Z" fill="white"/>
<path d="M53.6902 65.2316C53.6902 65.5313 53.5712 65.8188 53.3593 66.0307C53.1473 66.2426 52.8599 66.3616 52.5602 66.3616C52.4109 66.3629 52.2629 66.3347 52.1247 66.2785C51.9864 66.2223 51.8607 66.1393 51.7547 66.0342C51.6487 65.9292 51.5646 65.8042 51.5071 65.6664C51.4497 65.5287 51.4202 65.3809 51.4202 65.2316C51.4202 65.0824 51.4497 64.9347 51.5071 64.7969C51.5646 64.6592 51.6487 64.5341 51.7547 64.429C51.8607 64.3239 51.9864 64.2409 52.1247 64.1847C52.2629 64.1285 52.4109 64.1003 52.5602 64.1016C52.8599 64.1016 53.1473 64.2207 53.3593 64.4327C53.5712 64.6446 53.6902 64.9319 53.6902 65.2316Z" fill="white"/>
<path d="M84.3802 41.5996C83.1735 41.5996 82.0161 41.1203 81.1628 40.267C80.3096 39.4137 79.8302 38.2564 79.8302 37.0497C79.8302 36.9297 79.8302 36.7997 79.8302 36.6797H71.9202C70.9999 36.6797 70.1173 37.0452 69.4666 37.6959C68.8158 38.3467 68.4502 39.2294 68.4502 40.1497V64.5497C68.4528 65.4692 68.8192 66.3502 69.4694 67.0004C70.1196 67.6505 71.0007 68.017 71.9202 68.0197H81.6002C82.5205 68.0197 83.4031 67.654 84.0538 67.0033C84.7046 66.3525 85.0702 65.47 85.0702 64.5497V41.5497C84.8421 41.5862 84.6112 41.6029 84.3802 41.5996Z" fill="#479CCB"/>
<path d="M81.4001 42.6602H72.1501V45.1302H81.4001V42.6602Z" fill="white"/>
<path d="M81.4001 48.3281H72.1501V50.7981H81.4001V48.3281Z" fill="white"/>
<path d="M81.4001 53.8906H72.1501V56.3606H81.4001V53.8906Z" fill="white"/>
<path d="M81.4001 59.5586H72.1501V62.0286H81.4001V59.5586Z" fill="white"/>
<path d="M77.9102 65.2316C77.9102 65.3809 77.8806 65.5287 77.8232 65.6664C77.7658 65.8042 77.6816 65.9292 77.5756 66.0342C77.4696 66.1393 77.3439 66.2223 77.2056 66.2785C77.0674 66.3347 76.9194 66.3629 76.7701 66.3616C76.4704 66.3616 76.183 66.2426 75.9711 66.0307C75.7592 65.8188 75.6401 65.5313 75.6401 65.2316C75.6401 64.9319 75.7592 64.6446 75.9711 64.4327C76.183 64.2207 76.4704 64.1016 76.7701 64.1016C76.9194 64.1003 77.0674 64.1285 77.2056 64.1847C77.3439 64.2409 77.4696 64.3239 77.5756 64.429C77.6816 64.5341 77.7658 64.6592 77.8232 64.7969C77.8806 64.9347 77.9102 65.0824 77.9102 65.2316Z" fill="white"/>
<path d="M52.6202 36.0007C52.4033 36.0127 52.1885 35.9538 52.0081 35.833C51.8277 35.7121 51.6915 35.5358 51.6202 35.3306C51.4876 34.9897 51.3374 34.6559 51.1702 34.3306C51.1064 34.2094 51.0682 34.0764 51.058 33.9398C51.0477 33.8032 51.0656 33.6658 51.1107 33.5364C51.1557 33.4071 51.2268 33.2883 51.3196 33.1876C51.4124 33.0868 51.5249 33.0061 51.6502 32.9506C51.771 32.8885 51.9032 32.8516 52.0387 32.8422C52.1742 32.8329 52.3102 32.8512 52.4384 32.8961C52.5666 32.941 52.6843 33.0116 52.7843 33.1035C52.8843 33.1954 52.9646 33.3068 53.0202 33.4307C53.2214 33.8297 53.3984 34.2404 53.5502 34.6607C53.6008 34.7871 53.6252 34.9224 53.6216 35.0585C53.6181 35.1946 53.5868 35.3286 53.5297 35.4522C53.4726 35.5758 53.3909 35.6864 53.2895 35.7773C53.1881 35.8682 53.0692 35.9373 52.9402 35.9807C52.835 36.0025 52.7272 36.0093 52.6202 36.0007Z" fill="#03045E"/>
<path d="M28.9201 36.0019C28.8008 36.003 28.6823 35.9826 28.5702 35.9419C28.4411 35.8986 28.3222 35.8294 28.2209 35.7385C28.1195 35.6476 28.0377 35.537 27.9806 35.4134C27.9235 35.2899 27.8923 35.1559 27.8888 35.0198C27.8852 34.8837 27.9095 34.7483 27.9602 34.6219C28.1128 34.2035 28.2864 33.793 28.4802 33.392C28.5357 33.2667 28.6163 33.1542 28.7171 33.0614C28.8178 32.9686 28.9366 32.8974 29.0659 32.8524C29.1953 32.8074 29.3327 32.7894 29.4693 32.7997C29.6059 32.8099 29.7389 32.8482 29.8601 32.912C29.9845 32.9684 30.0961 33.0497 30.1878 33.1509C30.2796 33.2521 30.3497 33.3709 30.3937 33.5002C30.4377 33.6295 30.4549 33.7665 30.4439 33.9027C30.433 34.0389 30.3943 34.1714 30.3302 34.292C30.1702 34.632 30.0202 34.982 29.8902 35.292C29.8273 35.4995 29.6987 35.6809 29.5238 35.8089C29.3488 35.937 29.1369 36.0047 28.9201 36.0019Z" fill="#03045E"/>
<path d="M50.7301 30.0011C50.1617 29.4023 49.5427 28.8536 48.88 28.3611C48.7726 28.2769 48.6491 28.2157 48.5171 28.1811C48.3851 28.1465 48.2474 28.1393 48.1125 28.1599C47.9776 28.1805 47.8483 28.2285 47.7327 28.3009C47.6171 28.3733 47.5175 28.4687 47.44 28.581C47.3554 28.6879 47.2935 28.8109 47.2582 28.9425C47.2228 29.0741 47.2147 29.2116 47.2343 29.3464C47.254 29.4813 47.301 29.6106 47.3725 29.7267C47.444 29.8427 47.5384 29.9429 47.6501 30.0211C48.2199 30.4329 48.749 30.8984 49.2301 31.4111C49.3247 31.516 49.4404 31.5996 49.5697 31.6565C49.6989 31.7134 49.8388 31.7421 49.9801 31.7411C50.24 31.7376 50.4894 31.6378 50.68 31.461C50.7832 31.371 50.8668 31.2607 50.9256 31.1369C50.9844 31.0132 51.0172 30.8788 51.0219 30.7419C51.0266 30.605 51.0031 30.4686 50.9529 30.3412C50.9027 30.2137 50.8269 30.098 50.7301 30.0011Z" fill="#03045E"/>
<path d="M32.6802 28.3882C32.0134 28.8756 31.394 29.4247 30.8302 30.0283C30.7303 30.1218 30.6506 30.2348 30.5962 30.3604C30.5417 30.486 30.5137 30.6214 30.5137 30.7582C30.5137 30.8951 30.5417 31.0305 30.5962 31.1561C30.6506 31.2816 30.7303 31.3947 30.8302 31.4882C31.0205 31.6717 31.2758 31.7724 31.5402 31.7682C31.6802 31.7671 31.8185 31.7382 31.9472 31.6833C32.0759 31.6284 32.1925 31.5484 32.2902 31.4482C32.7702 30.935 33.2956 30.4666 33.8602 30.0483C33.9725 29.9709 34.0679 29.8712 34.1403 29.7555C34.2128 29.6399 34.2608 29.5107 34.2814 29.3758C34.302 29.2409 34.2948 29.1032 34.2602 28.9712C34.2256 28.8392 34.1643 28.7156 34.0802 28.6082C34.0029 28.5016 33.9053 28.4114 33.793 28.3426C33.6807 28.2738 33.556 28.2279 33.4259 28.2075C33.2958 28.187 33.163 28.1924 33.035 28.2234C32.9071 28.2545 32.7864 28.3105 32.6802 28.3882Z" fill="#03045E"/>
<path d="M45.2 26.4809C44.4169 26.2093 43.6101 26.0118 42.7901 25.8909C42.6563 25.8668 42.5191 25.8701 42.3867 25.9008C42.2543 25.9315 42.1295 25.9888 42.02 26.0693C41.9105 26.1497 41.8186 26.2516 41.7498 26.3688C41.6811 26.486 41.6369 26.6161 41.62 26.7509C41.5943 26.8854 41.5966 27.0236 41.6265 27.1571C41.6565 27.2907 41.7135 27.4168 41.7941 27.5274C41.8748 27.638 41.9773 27.7309 42.0952 27.8003C42.2132 27.8697 42.3442 27.9142 42.4801 27.931C43.1611 28.0338 43.8308 28.2012 44.4801 28.431C44.5891 28.4705 44.7041 28.4908 44.82 28.4909C45.0406 28.501 45.2583 28.4378 45.4392 28.3112C45.6201 28.1846 45.754 28.0016 45.82 27.7909C45.8689 27.6645 45.8915 27.5294 45.8865 27.394C45.8815 27.2585 45.849 27.1254 45.791 27.0029C45.733 26.8803 45.6508 26.7709 45.5492 26.6812C45.4476 26.5915 45.3288 26.5233 45.2 26.4809Z" fill="#03045E"/>
<path d="M40.2002 25.6211L37.6602 24.2111C37.543 24.1413 37.4128 24.0963 37.2775 24.0787C37.1423 24.0611 37.0049 24.0714 36.8738 24.1088C36.7427 24.1463 36.6206 24.2102 36.515 24.2966C36.4095 24.3829 36.3228 24.49 36.2602 24.6111C36.1904 24.7283 36.1453 24.8585 36.1277 24.9937C36.1101 25.1289 36.1203 25.2664 36.1578 25.3975C36.1953 25.5286 36.2592 25.6508 36.3455 25.7563C36.4319 25.8618 36.539 25.9485 36.6602 26.0112L37.0802 26.2411C36.8202 26.3111 36.5601 26.3911 36.3101 26.4811C36.1796 26.5214 36.0587 26.5881 35.9549 26.6769C35.8511 26.7658 35.7667 26.8749 35.7067 26.9976C35.6467 27.1204 35.6126 27.2542 35.6063 27.3907C35.6 27.5271 35.6217 27.6634 35.6701 27.7912C35.7379 28 35.8726 28.1808 36.0534 28.3055C36.2341 28.4302 36.4508 28.4919 36.6701 28.4811C36.7826 28.5005 36.8977 28.5005 37.0102 28.4811C37.2001 28.4106 37.3937 28.3506 37.5902 28.3012L37.4201 28.6111C37.35 28.7277 37.3044 28.8573 37.2861 28.9921C37.2678 29.1269 37.2771 29.2641 37.3136 29.3952C37.3501 29.5262 37.413 29.6484 37.4984 29.7543C37.5837 29.8602 37.6898 29.9477 37.8101 30.0112C37.9625 30.0975 38.135 30.1424 38.3101 30.1412C38.4961 30.1462 38.6798 30.0993 38.8406 30.0057C39.0014 29.912 39.1328 29.7754 39.2202 29.6111L40.6301 27.0711C40.697 26.9539 40.7394 26.8244 40.7549 26.6904C40.7704 26.5563 40.7586 26.4205 40.7202 26.2912C40.6879 26.1482 40.6246 26.014 40.5347 25.8982C40.4448 25.7825 40.3306 25.6879 40.2002 25.6211Z" fill="#03045E"/>
<path d="M75.7701 72.0599C75.6144 72.0621 75.4603 72.0277 75.3201 71.9598C75.1949 71.9043 75.0823 71.8237 74.9895 71.723C74.8967 71.6222 74.8256 71.5034 74.7806 71.374C74.7356 71.2446 74.7177 71.1074 74.7279 70.9708C74.7381 70.8342 74.7763 70.701 74.8401 70.5798C75.0074 70.2545 75.1576 69.9207 75.2902 69.5798C75.3333 69.4495 75.4029 69.3295 75.4944 69.2272C75.586 69.125 75.6977 69.0428 75.8224 68.9855C75.9472 68.9283 76.0824 68.8974 76.2197 68.8947C76.3569 68.892 76.4932 68.9175 76.6201 68.9698C76.7483 69.0142 76.8661 69.0842 76.9664 69.1755C77.0667 69.2668 77.1474 69.3776 77.2035 69.501C77.2596 69.6245 77.29 69.7581 77.2929 69.8937C77.2958 70.0294 77.271 70.1641 77.2201 70.2899C77.0675 70.7083 76.8939 71.1188 76.7001 71.5198C76.6127 71.6891 76.4787 71.8298 76.3139 71.9255C76.1491 72.0212 75.9605 72.0678 75.7701 72.0599Z" fill="#03045E"/>
<path d="M53.0401 72.0612C52.8472 72.0636 52.6576 72.0101 52.4944 71.9072C52.3311 71.8043 52.2011 71.6563 52.1201 71.4812C51.9189 71.0822 51.7419 70.6715 51.5901 70.2512C51.5395 70.1248 51.5151 69.9895 51.5186 69.8534C51.5222 69.7173 51.5535 69.5833 51.6106 69.4597C51.6677 69.3361 51.7494 69.2255 51.8508 69.1346C51.9522 69.0437 52.071 68.9746 52.2001 68.9312C52.3265 68.8806 52.4618 68.8562 52.5979 68.8597C52.734 68.8632 52.868 68.8945 52.9916 68.9516C53.1152 69.0087 53.2258 69.0905 53.3167 69.1919C53.4076 69.2932 53.4768 69.4122 53.5201 69.5412C53.6526 69.8821 53.8029 70.2159 53.9701 70.5412C54.0339 70.6625 54.0721 70.7955 54.0824 70.9321C54.0926 71.0687 54.0746 71.206 54.0296 71.3354C53.9846 71.4648 53.9135 71.5835 53.8207 71.6843C53.7279 71.7851 53.6153 71.8658 53.4901 71.9212C53.3534 72.0031 53.1991 72.0511 53.0401 72.0612Z" fill="#03045E"/>
<path d="M57.5302 74.8511C56.9656 74.4366 56.44 73.9713 55.9602 73.4611C55.8667 73.3611 55.7536 73.2815 55.6281 73.2271C55.5025 73.1726 55.3671 73.1445 55.2302 73.1445C55.0934 73.1445 54.9579 73.1726 54.8323 73.2271C54.7068 73.2815 54.5937 73.3611 54.5002 73.4611C54.4018 73.5545 54.3235 73.667 54.27 73.7916C54.2165 73.9163 54.189 74.0505 54.189 74.1862C54.189 74.3218 54.2165 74.4559 54.27 74.5806C54.3235 74.7052 54.4018 74.8177 54.5002 74.9111C55.0663 75.5123 55.6855 76.0612 56.3502 76.5511C56.526 76.683 56.7404 76.7533 56.9602 76.7511C57.1222 76.7536 57.2824 76.7166 57.427 76.6434C57.5716 76.5703 57.6963 76.4631 57.7902 76.3311C57.8792 76.2201 57.9435 76.0915 57.9789 75.9537C58.0142 75.816 58.0197 75.6723 57.9951 75.5322C57.9705 75.3922 57.9164 75.2589 57.8362 75.1415C57.756 75.024 57.6517 74.925 57.5302 74.8511Z" fill="#03045E"/>
<path d="M68.2001 76.4781C67.5492 76.7023 66.88 76.8696 66.2001 76.9781C66.0644 76.9937 65.9333 77.0369 65.815 77.1052C65.6966 77.1734 65.5935 77.2652 65.512 77.3748C65.4305 77.4845 65.3723 77.6096 65.341 77.7426C65.3097 77.8756 65.306 78.0137 65.3302 78.1481C65.3596 78.3921 65.4779 78.6166 65.6623 78.7789C65.8467 78.9412 66.0845 79.0299 66.3302 79.0281H66.4901C67.306 78.898 68.109 78.6972 68.8902 78.4282C69.0207 78.3879 69.1416 78.3212 69.2454 78.2324C69.3492 78.1435 69.4336 78.0343 69.4936 77.9116C69.5536 77.7888 69.5878 77.6551 69.5941 77.5186C69.6004 77.3822 69.5786 77.2459 69.5302 77.1181C69.4902 76.9852 69.4229 76.862 69.3327 76.7564C69.2425 76.6509 69.1313 76.5653 69.0062 76.5051C68.8811 76.4449 68.7447 76.4115 68.606 76.4068C68.4672 76.4022 68.329 76.4264 68.2001 76.4781Z" fill="#03045E"/>
<path d="M74.3201 73.4103C74.2265 73.3104 74.1135 73.2307 73.9879 73.1763C73.8624 73.1218 73.727 73.0938 73.5901 73.0938C73.4532 73.0938 73.3178 73.1218 73.1923 73.1763C73.0667 73.2307 72.9536 73.3104 72.8601 73.4103C72.375 73.9151 71.85 74.38 71.2901 74.8003C71.1777 74.8777 71.0824 74.9772 71.01 75.0929C70.9375 75.2085 70.8895 75.3378 70.8689 75.4727C70.8483 75.6076 70.8555 75.7453 70.8901 75.8773C70.9247 76.0093 70.9859 76.1328 71.0701 76.2402C71.164 76.3723 71.2887 76.4794 71.4333 76.5526C71.5779 76.6258 71.7381 76.6628 71.9001 76.6603C72.1192 76.6583 72.3323 76.5883 72.5101 76.4602C73.1748 75.9703 73.794 75.4214 74.3601 74.8202C74.5411 74.6276 74.6385 74.3712 74.631 74.1069C74.6236 73.8427 74.5117 73.5923 74.3201 73.4103Z" fill="#03045E"/>
<path d="M62.8301 75.3494C62.7675 75.2283 62.6807 75.1212 62.5752 75.0348C62.4697 74.9485 62.3476 74.8846 62.2165 74.8471C62.0853 74.8096 61.9479 74.7993 61.8127 74.8169C61.6775 74.8345 61.5472 74.8796 61.4301 74.9494C61.3089 75.012 61.2019 75.0988 61.1155 75.2043C61.0291 75.3098 60.9652 75.4319 60.9278 75.563C60.8903 75.6942 60.8801 75.8316 60.8977 75.9668C60.9153 76.1021 60.9603 76.2322 61.0301 76.3494L61.2001 76.6595L60.6201 76.4794C60.4923 76.431 60.356 76.4093 60.2196 76.4156C60.0831 76.4219 59.9494 76.4561 59.8266 76.516C59.7039 76.576 59.5947 76.6604 59.5059 76.7642C59.417 76.868 59.3504 76.9889 59.3101 77.1194C59.2616 77.2472 59.2399 77.3835 59.2462 77.5199C59.2525 77.6564 59.2867 77.7901 59.3466 77.9129C59.4066 78.0356 59.4911 78.1449 59.5949 78.2337C59.6987 78.3225 59.8196 78.3892 59.9501 78.4295L60.7201 78.6695L60.3001 78.8995C60.1789 78.9621 60.0719 79.0488 59.9855 79.1543C59.8991 79.2599 59.8352 79.382 59.7978 79.5131C59.7603 79.6442 59.7501 79.7816 59.7677 79.9168C59.7853 80.052 59.8303 80.1823 59.9001 80.2995C59.9875 80.4637 60.1189 80.6003 60.2797 80.6939C60.4404 80.7875 60.6241 80.8344 60.8101 80.8294C60.9853 80.8306 61.1577 80.7858 61.3101 80.6994L63.8401 79.2895C63.9596 79.2248 64.0647 79.1364 64.1489 79.0298C64.2332 78.9232 64.2948 78.8007 64.3301 78.6695C64.3699 78.5386 64.3824 78.4009 64.367 78.2651C64.3515 78.1292 64.3083 77.998 64.2401 77.8794L62.8301 75.3494Z" fill="#03045E"/>
<path d="M88.9401 37.05C88.9374 38.2577 88.4558 39.4149 87.601 40.2679C86.7461 41.1209 85.5877 41.6 84.3801 41.6C83.1733 41.6 82.016 41.1206 81.1627 40.2673C80.3094 39.414 79.8301 38.2568 79.8301 37.05C79.8301 35.8433 80.3094 34.6859 81.1627 33.8326C82.016 32.9794 83.1733 32.5 84.3801 32.5C85.5877 32.5 86.7461 32.979 87.601 33.832C88.4558 34.685 88.9374 35.8424 88.9401 37.05Z" fill="#FFAC3F"/>
<path d="M83.6302 39.5093C83.4332 39.5097 83.2435 39.4345 83.1002 39.2993L81.5302 37.7793C81.3885 37.6353 81.3091 37.4413 81.3091 37.2392C81.3091 37.0372 81.3885 36.8432 81.5302 36.6992C81.6742 36.5575 81.8682 36.4781 82.0702 36.4781C82.2722 36.4781 82.4661 36.5575 82.6102 36.6992L83.6102 37.6992L86.0202 34.8392C86.1503 34.6856 86.336 34.5899 86.5366 34.573C86.7372 34.5561 86.9363 34.6195 87.0902 34.7493C87.2439 34.8793 87.3396 35.065 87.3565 35.2656C87.3734 35.4662 87.3099 35.6653 87.1802 35.8192L84.2502 39.3093C84.1811 39.3887 84.0969 39.4534 84.0024 39.4997C83.908 39.5461 83.8052 39.5731 83.7002 39.5792L83.6302 39.5093Z" fill="#03045E"/>
<path d="M64.5101 37.05C64.5101 38.2568 64.0308 39.414 63.1775 40.2673C62.3242 41.1206 61.1669 41.6 59.9601 41.6C58.7534 41.6 57.5961 41.1206 56.7428 40.2673C55.8895 39.414 55.4102 38.2568 55.4102 37.05C55.4102 35.8433 55.8895 34.6859 56.7428 33.8326C57.5961 32.9794 58.7534 32.5 59.9601 32.5C61.1669 32.5 62.3242 32.9794 63.1775 33.8326C64.0308 34.6859 64.5101 35.8433 64.5101 37.05Z" fill="#FFAC3F"/>
<path d="M59.2 39.5101C59.003 39.5105 58.8133 39.4354 58.67 39.3001L57.1 37.7801C56.9583 37.6361 56.8789 37.4421 56.8789 37.2401C56.8789 37.0381 56.9583 36.8441 57.1 36.7001C57.2441 36.5584 57.438 36.479 57.64 36.479C57.842 36.479 58.036 36.5584 58.18 36.7001L59.18 37.7001L61.58 34.8401C61.7118 34.6858 61.8993 34.5898 62.1015 34.573C62.3037 34.5561 62.5045 34.6197 62.66 34.7501C62.8137 34.8802 62.9095 35.0659 62.9263 35.2665C62.9432 35.4671 62.8798 35.6661 62.75 35.82L59.82 39.3102C59.7509 39.3895 59.6667 39.4542 59.5723 39.5006C59.4778 39.547 59.3751 39.5739 59.27 39.5801L59.2 39.5101Z" fill="#03045E"/>
<path d="M26.0101 67.8685C26.0101 69.0753 25.5308 70.2325 24.6775 71.0858C23.8242 71.9391 22.6669 72.4186 21.4601 72.4186C20.2525 72.4186 19.0941 71.9394 18.2393 71.0864C17.3844 70.2334 16.9028 69.0762 16.9001 67.8685C16.9001 66.6591 17.3806 65.4993 18.2357 64.6442C19.0909 63.789 20.2508 63.3086 21.4601 63.3086C22.6678 63.3112 23.8251 63.7928 24.6781 64.6477C25.5311 65.5026 26.0101 66.6609 26.0101 67.8685Z" fill="#FFAC3F"/>
<path d="M20.7102 70.3296C20.6124 70.3314 20.5151 70.3137 20.4241 70.2777C20.3332 70.2417 20.2502 70.1879 20.1802 70.1196L18.6102 68.5996C18.5388 68.5289 18.4822 68.4449 18.4435 68.3522C18.4049 68.2595 18.385 68.1601 18.385 68.0597C18.385 67.9593 18.4049 67.8598 18.4435 67.7671C18.4822 67.6744 18.5388 67.5903 18.6102 67.5196C18.7542 67.378 18.9482 67.2986 19.1502 67.2986C19.3522 67.2986 19.5462 67.378 19.6902 67.5196L20.6902 68.5196L23.1002 65.6597C23.2303 65.506 23.416 65.4102 23.6166 65.3933C23.8172 65.3764 24.0163 65.4398 24.1702 65.5696C24.2481 65.6325 24.3127 65.7104 24.3601 65.7987C24.4075 65.887 24.4367 65.9838 24.446 66.0835C24.4553 66.1832 24.4446 66.2839 24.4144 66.3794C24.3842 66.4749 24.3352 66.5634 24.2702 66.6396L21.3302 70.1296C21.2638 70.2096 21.1815 70.2749 21.0886 70.3214C20.9956 70.3679 20.894 70.3945 20.7902 70.3997L20.7102 70.3296Z" fill="#03045E"/>
</svg>
