<svg width="69" height="78" viewBox="0 0 69 78" fill="none" xmlns="http://www.w3.org/2000/svg">
<g clip-path="url(#clip0_199:4510)">
<path opacity="0.3" d="M67.224 19.1971C66.0095 17.7238 64.3859 16.6451 62.5591 16.0977C61.6628 15.798 60.7376 15.5931 59.7987 15.4864C58.8695 15.3616 57.9329 15.3007 56.9954 15.3041C55.1227 15.3282 53.2549 15.5039 51.4104 15.8296C50.4796 15.9797 49.5701 16.1942 48.65 16.3873L47.6763 16.6339C47.2247 15.0254 46.6853 13.443 46.0607 11.8937C45.3734 10.128 44.5245 8.42983 43.525 6.82093C42.5339 5.25951 41.2858 3.87789 39.8337 2.73486C39.8337 2.88501 39.9086 3.02443 39.93 3.17457C41.2384 4.27445 42.3619 5.57804 43.2575 7.03543C44.2462 8.61164 45.0844 10.2777 45.7611 12.0116C46.3735 13.5475 46.9021 15.1156 47.3447 16.709C46.8739 16.827 46.4031 16.9557 45.943 17.0951L45.0657 17.3525L44.3381 17.5777C43.6854 15.1478 42.7967 12.7878 41.6847 10.5316C41.0423 9.23141 40.2447 8.0142 39.3094 6.90673L39.149 7.17485C40.0479 8.23954 40.8199 9.40567 41.4493 10.6496C42.5719 12.8836 43.4749 15.2219 44.1455 17.6313L43.4287 17.8673C40.7123 18.7677 38.0446 19.8094 35.4363 20.9881L34.5482 21.3849L33.5425 20.9345C30.933 19.7563 28.2613 18.7217 25.5394 17.8351L24.8867 17.6206C25.5464 15.2225 26.4387 12.8949 27.5509 10.6711C28.1689 9.42464 28.9302 8.25488 29.8191 7.18557C29.7523 7.08939 29.6915 6.9891 29.6372 6.88528C28.6989 7.99488 27.8944 9.2116 27.2406 10.5102C26.1252 12.7636 25.2294 15.1196 24.5658 17.5455L23.9131 17.3418L23.0358 17.0629C22.5543 16.9235 22.0621 16.7948 21.5699 16.6768C22.03 15.0896 22.5543 13.5238 23.1642 11.9902C23.8468 10.257 24.6885 8.59114 25.6785 7.01398C26.5927 5.55765 27.7301 4.25473 29.0488 3.15312C29.0488 3.02443 29.0488 2.88501 29.1344 2.75631C27.6884 3.91309 26.4508 5.30961 25.4752 6.88528C24.4752 8.47347 23.6297 10.1542 22.9502 11.9044C22.3343 13.4474 21.8021 15.0226 21.356 16.6232L20.286 16.3658C19.3659 16.1728 18.4564 15.969 17.5256 15.8189C15.6807 15.4972 13.813 15.325 11.9405 15.3041C10.9995 15.31 10.0597 15.3745 9.12662 15.4971C8.19578 15.6102 7.27833 15.8149 6.38759 16.1084C4.56195 16.6572 2.94372 17.7448 1.74408 19.2293C0.58652 20.7452 -0.0278452 22.6077 8.81592e-05 24.5165C0.0600208 26.4096 0.504162 28.2707 1.30541 29.9861C2.09876 31.6897 3.07074 33.3039 4.20493 34.8014C4.73989 35.5629 5.34976 36.2707 5.93822 37.0107L6.86906 38.0831L7.8213 39.1556L8.22788 39.5846L7.8534 39.9707C6.56286 41.3233 5.35859 42.7561 4.24772 44.2605C3.13472 45.7642 2.17754 47.3776 1.391 49.0759C1.00625 49.9307 0.694843 50.8169 0.46016 51.7248C0.331768 52.1753 0.267572 52.6471 0.181977 53.0976C0.181977 53.3335 0.181977 53.5695 0.117781 53.8054V54.1486C0.117781 54.2666 0.117781 54.3845 0.117781 54.5025C0.0935406 56.3943 0.708153 58.2387 1.86177 59.7361C3.05029 61.2017 4.65455 62.2712 6.46249 62.8033C7.35093 63.0919 8.26435 63.2966 9.19082 63.4146C10.1174 63.5288 11.0498 63.5896 11.9833 63.597C13.852 63.5796 15.7161 63.411 17.5577 63.0929C18.4778 62.9535 19.398 62.7497 20.3074 62.5567L21.3774 62.2886C21.8512 63.8953 22.4047 65.4773 23.0358 67.0288C23.7257 68.7694 24.5745 70.4424 25.5715 72.0265C26.5545 73.6255 27.8156 75.0348 29.2949 76.1876C30.0474 76.7406 30.8717 77.188 31.745 77.5175C32.6348 77.8189 33.5663 77.9781 34.5054 77.9894C35.44 77.9757 36.3671 77.8202 37.2552 77.5282C38.1329 77.2011 38.9611 76.7536 39.716 76.1983C41.1991 75.0432 42.4668 73.6345 43.4608 72.0372C44.4654 70.4558 45.3181 68.7824 46.0072 67.0396C46.6349 65.4595 47.1842 63.8543 47.6549 62.2242L48.7249 62.4816C49.6343 62.6746 50.5437 62.8784 51.4639 63.0178C53.3049 63.343 55.169 63.5188 57.0382 63.5433C57.4127 63.5433 57.7872 63.5433 58.1082 63.5433H57.0382C55.172 63.5205 53.311 63.3411 51.4746 63.0071C50.5545 62.8677 49.645 62.6532 48.7356 62.4601L47.6656 62.2028L47.794 61.7523C47.9759 61.0874 48.1471 60.4225 48.3076 59.7468C48.3718 59.4894 48.4253 59.232 48.4895 58.9639C50.9194 59.6088 53.4063 60.0147 55.9148 60.1758H56.0432C56.0432 60.1758 56.0432 60.09 56.0432 60.0578H55.9469C53.4428 59.9156 50.959 59.524 48.5323 58.8889C48.5858 58.6315 48.65 58.3633 48.7035 58.106C49.2277 55.6715 49.6236 53.2048 49.9232 50.7382C50.0088 50.0196 50.0837 49.3011 50.1479 48.5932C51.0573 47.9498 51.9561 47.3063 52.8441 46.6306C54.5025 45.3437 56.1395 44.0138 57.7016 42.5982C57.8942 42.4373 58.0761 42.2657 58.258 42.0941C60.0031 43.8644 61.5726 45.8003 62.9443 47.8747C63.8618 49.239 64.5823 50.7266 65.0842 52.2932C65.3023 53.0751 65.4104 53.8837 65.4051 54.6955C65.3981 55.0789 65.3479 55.4603 65.2553 55.8323C65.2964 55.8663 65.3325 55.9061 65.3623 55.9503C65.4801 55.5311 65.5448 55.0987 65.5549 54.6634C65.5626 53.8295 65.4509 52.9988 65.2232 52.1967C64.7239 50.6123 64.0035 49.1067 63.0834 47.7245C61.6943 45.6349 60.107 43.6847 58.3436 41.9011L58.8999 41.3863C59.4777 40.8394 60.0448 40.3139 60.6118 39.7025L60.9328 40.035C62.2247 41.3894 63.4325 42.822 64.5492 44.3249C65.6668 45.816 66.6277 47.4189 67.4166 49.108C67.803 49.9523 68.1179 50.8277 68.3581 51.7248C68.4865 52.1753 68.5507 52.6364 68.6363 53.0976C68.6363 53.3228 68.6363 53.5587 68.7005 53.7839V54.1379C68.7005 54.2451 68.7005 54.3631 68.7005 54.481C68.7276 56.3549 68.1246 58.1833 66.9886 59.6717C66.7632 59.9583 66.5202 60.2305 66.2611 60.4868C66.2611 60.5512 66.2611 60.6048 66.2611 60.6691C66.5683 60.379 66.8543 60.0672 67.117 59.7361C68.28 58.2335 68.9055 56.3828 68.8931 54.481V54.1271V53.7732C68.8931 53.5373 68.8931 53.3121 68.8289 53.0761C68.7433 52.615 68.6898 52.1431 68.5614 51.6926C68.3236 50.7822 68.0123 49.8927 67.6306 49.033C66.8428 47.3163 65.882 45.6848 64.7632 44.164C63.6488 42.6623 62.4447 41.2298 61.1575 39.8741L60.8258 39.531L61.1896 39.1556C62.4805 37.8003 63.6882 36.3677 64.806 34.8658C65.9294 33.3555 66.8973 31.7349 67.6948 30.029C68.0796 29.1667 68.391 28.2734 68.6256 27.3585C68.7461 26.8998 68.839 26.4342 68.9038 25.9643C68.9038 25.7284 68.9038 25.4925 68.968 25.2565V24.9026V24.5165C68.9965 22.5978 68.3825 20.7249 67.224 19.1971ZM45.1299 17.5455L46.0072 17.2881C46.478 17.1487 46.9488 17.0308 47.4195 16.9128L47.5158 17.2667C47.6977 17.9316 47.8689 18.5965 48.0187 19.2615C48.0829 19.4867 48.1257 19.7119 48.1792 19.9371C47.5051 20.1087 46.8418 20.2803 46.1891 20.4841L45.8895 20.5699L45.1513 20.7951C45.1513 20.5699 45.055 20.3447 45.0015 20.1194L44.9373 19.8191C44.7661 19.1328 44.5949 18.4464 44.4023 17.76L45.1299 17.5455ZM56.3 38.8339L55.7436 39.3486C54.0531 37.7971 52.2913 36.3279 50.4582 34.9408C50.394 33.5788 50.3084 32.2275 50.1907 30.8655C51.0038 31.4553 51.8063 32.0452 52.598 32.6458C54.2564 33.9113 55.8934 35.2411 57.4555 36.6353L58.0119 37.1394C57.5304 37.6434 57.0382 38.1368 56.5461 38.6194L56.3 38.8339ZM55.5724 39.4988L55.0268 40.0028C53.5503 41.3327 52.0203 42.5982 50.4368 43.7993C50.5117 42.3623 50.5438 40.9252 50.5545 39.5095C50.5651 38.0939 50.5545 36.6889 50.4582 35.284C52.2271 36.6282 53.9319 38.0581 55.5724 39.5739V39.4988ZM57.6481 36.4208C56.086 35.0052 54.4383 33.6646 52.7906 32.3776C51.924 31.702 51.0359 31.0585 50.1372 30.415C50.073 29.7001 49.9981 28.9851 49.9125 28.2701C49.6343 25.7963 49.2384 23.3404 48.7249 20.9023C48.7249 20.6771 48.6286 20.4519 48.5751 20.2267C50.973 19.5924 53.4283 19.2008 55.9041 19.0577C57.5298 18.9546 59.1619 19.0846 60.7509 19.4438C61.5331 19.6372 62.2829 19.9443 62.9764 20.3554C63.6685 20.7584 64.2437 21.3354 64.6453 22.0294C65.0468 22.7234 65.2608 23.5105 65.266 24.3128C65.2743 25.1205 65.1699 25.9255 64.9558 26.7043C64.4566 28.2687 63.736 29.7531 62.8159 31.1121C61.4549 33.2017 59.8924 35.1522 58.151 36.9356L57.6481 36.4208ZM46.7562 32.2704C46.6599 30.9513 46.5422 29.6214 46.3817 28.3023L47.2591 28.8707C48.115 29.4391 48.9709 30.0182 49.8162 30.6188C49.9339 31.9701 50.0302 33.3214 50.0944 34.6727C49.2705 34.0507 48.4467 33.4501 47.6121 32.8603L46.7562 32.2704ZM45.2583 57.0871C45.1941 57.3552 45.1406 57.6234 45.0764 57.8915C42.9365 57.1944 40.7432 56.39 38.6568 55.4999L39.5983 55.0065C40.9143 54.3095 42.209 53.5802 43.4929 52.8616L45.3439 51.7892L46.264 51.2208C45.9858 53.1297 45.6649 55.0816 45.2583 57.0871ZM8.45256 39.4666C9.03033 38.8768 9.60809 38.2976 10.2073 37.74L10.7529 37.2252L12.3364 38.7481L12.5611 38.9626L13.1282 39.4666L12.5504 39.9921L12.315 40.2066C11.8015 40.6999 11.2451 41.204 10.7957 41.7295L10.1966 41.2147C9.61879 40.6463 9.03033 40.0672 8.45256 39.4666ZM34.131 25.3209C32.0981 26.3147 30.1045 27.3871 28.15 28.5382C26.1956 29.6894 24.2769 30.8977 22.3938 32.1632C22.3938 31.8521 22.4473 31.5411 22.4794 31.2301C22.565 30.1577 22.6827 29.0852 22.8111 28.0771C23.7312 27.4872 24.6514 26.9188 25.5929 26.3611C27.1764 25.4174 28.8027 24.5272 30.429 23.6693C31.3991 24.0768 32.362 24.5058 33.3178 24.9562L34.131 25.3209ZM22.3617 46.7057C24.2662 47.9855 26.2135 49.1974 28.2035 50.3414C30.2257 51.5211 32.3014 52.615 34.4092 53.6445L33.4462 54.1057C32.4726 54.5668 31.4882 54.9958 30.4932 55.4248C28.8241 54.5454 27.18 53.6231 25.5608 52.6579C24.6193 52.1002 23.6884 51.5211 22.7683 50.9205C22.6399 49.848 22.5329 48.7756 22.4366 47.7031C22.4259 47.3921 22.4045 47.0489 22.3831 46.7057H22.3617ZM37.3408 55.9074C36.3671 56.4007 35.3828 56.8834 34.3878 57.3445C33.1038 56.7439 31.8199 56.1112 30.5574 55.457C31.5524 55.028 32.5368 54.5883 33.5104 54.1271L34.4627 53.6767C35.7145 54.288 36.9984 54.8671 38.2823 55.4248L37.3408 55.9074ZM10.9241 41.8689C11.4163 41.3541 11.9298 40.8608 12.4434 40.3675C12.5202 40.2869 12.6025 40.2116 12.6895 40.1423C12.8714 39.9599 13.0747 39.7883 13.2566 39.6168L13.8129 40.1101C15.3536 41.4828 16.9585 42.7805 18.6062 44.0246C18.6062 44.3677 18.6062 44.7217 18.6704 45.097C18.6704 46.1695 18.8095 47.2419 18.9058 48.3144C18.0285 47.6924 17.1618 47.0596 16.3059 46.4054C14.6475 45.1185 13.0319 43.7886 11.4698 42.3837L10.9241 41.8689ZM12.422 38.6515C11.9084 38.1475 11.4056 37.6434 10.9027 37.1179L11.4698 36.6139C13.0319 35.2197 14.6796 33.8898 16.3166 32.6136C17.1618 31.9701 18.0071 31.3481 18.8737 30.7475C18.7774 31.82 18.7025 32.8924 18.649 33.9649C18.649 34.2866 18.649 34.6084 18.649 34.9301C16.9871 36.1885 15.3822 37.5076 13.8343 38.8875L13.278 39.4023L12.7216 38.8982L12.422 38.6515ZM22.0514 45.4188C22.0514 45.762 22.1049 46.1051 22.1263 46.4912C20.9922 45.7083 19.8795 44.8933 18.7774 44.0567V43.0486C18.7774 41.8904 18.7132 40.7214 18.7132 39.5524C18.7132 38.3834 18.7132 37.2252 18.7881 36.0562V35.1231C19.8581 34.3081 20.928 33.5037 22.0942 32.7423C22.0942 33.0533 22.0942 33.3643 22.0407 33.6753C21.923 35.6379 21.8695 37.6005 21.8695 39.5524C21.8695 41.5043 21.9658 43.424 22.03 45.4295L22.0514 45.4188ZM13.4064 39.4988L13.9734 38.9947C15.4713 37.6649 17.0156 36.3958 18.6062 35.1875C18.6062 35.4985 18.6062 35.8095 18.6062 36.1205C18.6062 37.193 18.5527 38.362 18.5527 39.4773C18.5527 40.5927 18.5527 41.7295 18.6276 42.8556C18.6276 43.188 18.6276 43.5312 18.6276 43.8637C17.012 42.6411 15.4178 41.3541 13.952 39.9921L13.4064 39.4988ZM18.756 34.7049C18.756 34.3831 18.756 34.0614 18.756 33.7397C18.8095 32.6672 18.8951 31.5948 18.9914 30.5223C20.1148 29.7394 21.249 28.9672 22.3938 28.2272C22.2761 29.2997 22.1691 30.3721 22.0835 31.3803L22.0086 32.3026C20.9708 33.1176 19.826 33.9113 18.756 34.7049ZM18.756 45.1399C18.756 44.7967 18.756 44.4535 18.756 44.0675C19.826 44.8825 20.9601 45.6869 22.1049 46.4483C22.1049 46.8022 22.1584 47.1347 22.1798 47.5208C22.2761 48.5932 22.3831 49.6657 22.5115 50.7382C21.3346 49.9874 20.179 49.1938 19.0342 48.3895C18.9486 47.3277 18.8737 46.2553 18.8202 45.1721L18.756 45.1399ZM25.4966 26.1252C24.6086 26.6614 23.7312 27.1977 22.8539 27.7661C23.0964 25.7927 23.4245 23.8301 23.8382 21.8783C23.8382 21.6531 23.9238 21.4278 23.9773 21.2026C26.1172 21.8783 28.15 22.6504 30.1936 23.4977C28.6101 24.3771 27.0373 25.2565 25.4966 26.1252ZM23.5172 21.8354C23.0893 23.8945 22.7683 25.9643 22.5115 28.0449C21.356 28.7849 20.2218 29.5571 19.0984 30.3507C19.1626 29.6643 19.2268 28.9887 19.3124 28.3023C19.6013 25.8464 19.9864 23.4012 20.5107 20.9774C20.5107 20.7522 20.5963 20.527 20.6498 20.3018C21.3346 20.4733 22.0086 20.6557 22.6827 20.8594L23.6563 21.1597C23.6135 21.3742 23.56 21.5994 23.5172 21.8354ZM20.3074 20.9238C19.826 23.3475 19.398 25.8035 19.1198 28.2701C19.0342 28.9994 18.9593 29.7287 18.8951 30.415C17.9857 31.0585 17.0976 31.7127 16.2096 32.3776C14.5512 33.6646 12.9249 35.0052 11.3628 36.4208L10.8064 36.9249C9.04163 35.1288 7.46093 33.16 6.08801 31.0478C5.1853 29.6879 4.486 28.2029 4.01234 26.64C3.7878 25.8633 3.68316 25.0568 3.70206 24.2484C3.71142 23.4464 3.92503 22.6601 4.32262 21.9641C4.73028 21.2786 5.29979 20.7041 5.98102 20.291C6.67452 19.88 7.42428 19.5729 8.20648 19.3794C9.79552 19.0203 11.4276 18.8902 13.0533 18.9934C15.5472 19.1392 18.0203 19.5344 20.4358 20.1731C20.393 20.4626 20.3395 20.6878 20.2967 20.9131L20.3074 20.9238ZM10.785 42.0083L11.3414 42.5124C12.9035 43.9173 14.5512 45.2472 16.2096 46.5234C17.0976 47.199 18.0071 47.864 18.9272 48.5074C18.9914 49.2367 19.0663 49.9553 19.1519 50.6524C19.4408 53.119 19.8367 55.575 20.3609 58.0094C20.4144 58.2668 20.4679 58.5349 20.5321 58.8031C18.0804 59.4422 15.5717 59.8374 13.0426 59.9828C11.4092 60.0877 9.76935 59.954 8.17438 59.586C7.38447 59.3851 6.62769 59.0709 5.92752 58.6529C5.23292 58.2322 4.65233 57.6466 4.23703 56.9477C3.84024 56.2358 3.62694 55.4359 3.61646 54.6205C3.61122 53.8086 3.71925 53 3.93744 52.2182C4.43933 50.6516 5.15975 49.164 6.07731 47.7996C7.45296 45.7189 9.02981 43.7791 10.785 42.0083ZM20.4144 58.0202C19.9009 55.5857 19.5157 53.1405 19.2375 50.6738C19.1626 49.9874 19.0984 49.2903 19.0342 48.604C20.179 49.3976 21.3346 50.1805 22.5115 50.9312C22.7683 53.0118 23.1249 55.078 23.5814 57.13C23.6349 57.3981 23.6884 57.6663 23.7526 57.9344L22.6827 58.2454C21.9872 58.4491 21.2918 58.6422 20.5428 58.8138C20.5535 58.5457 20.5 58.299 20.4465 58.0202H20.4144ZM22.779 51.1028C23.667 51.6712 24.5765 52.1753 25.4859 52.7544C27.0908 53.7125 28.7207 54.6169 30.3755 55.4677C28.2356 56.3578 26.0958 57.1622 23.9559 57.8593C23.8917 57.6019 23.8382 57.3338 23.7847 57.0657C23.3781 55.0923 23.0536 53.1047 22.8111 51.1028H22.779ZM24.1057 58.299C24.0996 58.2384 24.0996 58.1773 24.1057 58.1167C24.1057 58.0416 24.1057 57.9665 24.0522 57.9022C26.1707 57.2265 28.3854 56.4115 30.5253 55.4999C31.7878 56.1648 33.0717 56.7868 34.3771 57.3874L33.4997 57.7949C30.9024 58.9736 28.2453 60.0153 25.5394 60.9158L24.8225 61.1517C24.63 60.4546 24.4481 59.7575 24.2769 59.0068L24.1057 58.7387C24.1057 58.5993 24.1057 58.4599 24.1057 58.299ZM25.5608 61.0123C28.2796 60.121 30.9508 59.0901 33.5639 57.9236L34.6338 57.4625L35.5433 57.8807C38.1574 59.0479 40.8285 60.0823 43.5464 60.9802L44.3167 61.2268C43.6439 63.6731 42.7337 66.0474 41.5991 68.3158C40.8657 69.7844 39.9291 71.1419 38.8173 72.3482C38.2444 72.9303 37.5924 73.4286 36.8807 73.8282C36.1749 74.2261 35.3794 74.4365 34.5696 74.4395C33.7561 74.429 32.9581 74.2152 32.2479 73.8175C31.5404 73.4211 30.8951 72.9224 30.3327 72.3375C29.224 71.127 28.2911 69.7659 27.5616 68.2943C26.4455 66.0338 25.5497 63.6706 24.8867 61.2375L25.5608 61.0123ZM43.5143 60.9158C40.7982 60.0284 38.1335 58.9901 35.5326 57.8057L34.6873 57.4196C35.6824 56.9692 36.6774 56.4865 37.6511 55.9932L38.614 55.4999C40.7539 56.4007 42.8937 57.2158 45.1085 57.9236C45.055 58.1918 44.9908 58.4599 44.9266 58.7173C44.8624 58.9747 44.8731 58.9425 44.8517 59.039C44.6805 59.7575 44.4879 60.4654 44.2846 61.1839L43.5143 60.9158ZM45.4081 51.3173C44.7447 51.7355 44.0707 52.1645 43.3859 52.5613C42.0592 53.355 40.7111 54.1271 39.3415 54.8564L38.4107 55.3605C37.1161 54.8028 35.8429 54.2237 34.5803 53.6124L35.5219 53.1512C37.3087 52.2503 39.0527 51.3066 40.786 50.3092C42.5192 49.3118 44.1883 48.2822 45.8467 47.1883L46.7348 46.5985C46.6278 47.9819 46.4994 49.3547 46.3282 50.7274L45.4081 51.3173ZM45.8574 47.0918C44.1883 48.2072 42.4907 49.2796 40.7646 50.3092C39.0384 51.3387 37.2552 52.2825 35.4149 53.1405L34.4733 53.6124C32.3335 52.5828 30.2507 51.4817 28.2249 50.3092C26.2349 49.1295 24.2769 47.8961 22.3617 46.5877L22.2975 45.5153C22.1691 43.4883 22.1156 41.4614 22.1049 39.4237C22.0942 37.386 22.1798 35.3591 22.3082 33.3321L22.3724 32.4098C24.2983 31.1014 26.2777 29.8681 28.2891 28.6991C30.3006 27.5301 32.3763 26.4469 34.4733 25.4281L35.2758 25.8249C37.0947 26.7258 38.8922 27.691 40.6255 28.6991C42.3588 29.7072 44.1027 30.7797 45.7932 31.9165C46.0821 32.1095 46.371 32.2919 46.6492 32.4956C46.8311 34.8014 46.9167 37.1286 46.9274 39.4344C46.9381 41.7402 46.8418 44.1318 46.6706 46.4805L45.8574 47.0918ZM44.3595 21.4278L45.0978 21.1919C45.1513 21.4171 45.2048 21.6531 45.2476 21.8783C45.6542 23.8158 45.9858 25.7713 46.2426 27.7446L45.3118 27.1977L43.4929 26.1252C42.2304 25.3852 40.9464 24.6559 39.6518 23.9803L38.8494 23.5406C40.6469 22.7684 42.4693 22.0749 44.3167 21.46L44.3595 21.4278ZM39.2987 24.0768C40.6683 24.8168 42.0271 25.5783 43.3645 26.3719C44.0778 26.7794 44.7625 27.1977 45.4188 27.6267L46.2961 28.1843C46.4673 29.5142 46.5957 30.844 46.7027 32.1846C46.4174 31.9773 46.1285 31.7842 45.836 31.6055C44.1883 30.533 42.5085 29.5035 40.7967 28.5168C39.1062 27.5301 37.3836 26.6078 35.6289 25.7284C35.3614 25.589 35.0939 25.4496 34.8157 25.3209C36.014 24.7417 37.2231 24.1948 38.4428 23.68L39.2987 24.0768ZM49.5808 28.2701L49.7841 30.1791C48.9389 29.5785 48.0829 28.9994 47.2163 28.431L46.3389 27.8626C46.0928 25.8571 45.7825 23.8516 45.376 21.8568C45.376 21.6316 45.2797 21.3957 45.2369 21.1704L45.9751 20.9452L46.2854 20.8487C46.9488 20.6557 47.6014 20.4733 48.2648 20.3125C48.2648 20.5377 48.3611 20.7629 48.4039 20.9881C48.9067 23.4012 49.3026 25.8571 49.5808 28.2701ZM35.5219 21.1919C38.1214 20.0191 40.7823 18.988 43.4929 18.1032L44.2204 17.8673C44.4023 18.5429 44.5842 19.2293 44.7554 19.9049C44.7554 20.0122 44.8089 20.1194 44.8303 20.2267C44.8517 20.3339 44.9373 20.6664 44.9801 20.8916L44.2418 21.1383C42.3053 21.7925 40.3794 22.5217 38.4856 23.2832L37.6831 22.9078C36.7309 22.4252 35.7787 21.9641 34.8157 21.5136L35.5219 21.1919ZM37.2766 23.0901L38.0897 23.4977C36.87 24.0232 35.6717 24.5701 34.484 25.1493L33.6709 24.7632C32.7187 24.3128 31.7664 23.8838 30.8035 23.4655C31.9911 22.8542 33.1894 22.2644 34.4092 21.696C35.3721 22.1357 36.3243 22.6075 37.2766 23.0901ZM25.5073 18.1354C28.2119 19.0257 30.8657 20.064 33.4569 21.2455L34.1952 21.578C32.9861 22.1464 31.7878 22.7362 30.6002 23.3583C28.4104 22.4502 26.2456 21.6388 24.1057 20.9238C24.1057 20.7093 24.202 20.4841 24.2555 20.2589C24.309 20.0336 24.309 20.0444 24.3304 19.9371C24.5016 19.2615 24.6728 18.5965 24.8546 17.9316L25.1435 18.0281L25.5073 18.1354ZM21.4416 17.2989L21.5379 16.9664C22.0193 17.0844 22.5115 17.2131 22.993 17.3632L23.881 17.6206L24.0629 17.6742L24.5337 17.8244C24.3518 18.4893 24.1699 19.1649 23.9987 19.8406L23.9345 20.1516C23.881 20.3768 23.8275 20.602 23.7847 20.8165L22.8325 20.527C22.1477 20.3232 21.463 20.1409 20.7782 19.9586L20.928 19.2936C21.0564 18.6287 21.2097 17.9638 21.3881 17.2989H21.4416ZM7.96039 38.9947L6.98675 37.9223L6.07731 36.8498C5.48885 36.1205 4.87898 35.4127 4.34402 34.6513C3.22751 33.1614 2.27003 31.5582 1.4873 29.8681C0.701285 28.1868 0.267935 26.3617 0.214075 24.5058C0.201398 22.6487 0.816066 20.8419 1.95807 19.3794C3.1295 17.9387 4.70655 16.8848 6.48389 16.3551C7.36509 16.0691 8.2715 15.868 9.19082 15.7545C10.1099 15.6383 11.0355 15.581 11.9619 15.5829C13.8208 15.6021 15.6747 15.7779 17.5042 16.1084C18.4243 16.2479 19.3338 16.4623 20.2432 16.6554L21.2597 16.9128C21.2597 17.02 21.1955 17.1273 21.1741 17.2452C20.9886 17.9102 20.8174 18.5751 20.6605 19.24L20.5107 19.9049C18.0589 19.2643 15.5504 18.8656 13.0212 18.7145C11.363 18.6108 9.69863 18.7444 8.07809 19.1113C7.26596 19.3164 6.48759 19.6379 5.76703 20.0658C5.05148 20.5056 4.45304 21.1128 4.02304 21.8354C3.60438 22.5822 3.38338 23.424 3.38108 24.2806C3.38604 25.1288 3.51952 25.9714 3.77695 26.7794C4.27319 28.365 4.99382 29.8711 5.91682 31.2516C7.31659 33.3648 8.92223 35.3335 10.7101 37.1286L10.1645 37.6327C9.57599 38.2011 8.98753 38.7802 8.42047 39.3701C8.22788 39.2307 8.05669 39.102 7.96039 38.9947ZM20.2646 62.4494C19.3552 62.6532 18.4457 62.857 17.5256 63.0071C15.6889 63.3399 13.8282 63.5228 11.9619 63.5541C11.0315 63.5489 10.1024 63.4844 9.18012 63.361C8.25588 63.2503 7.3453 63.0454 6.46249 62.7497C4.66224 62.2197 3.06522 61.1538 1.88317 59.6932C0.733463 58.2067 0.12224 56.3725 0.149879 54.4918V54.1486V53.7947C0.149879 53.5587 0.149879 53.3335 0.214075 53.0976C0.29967 52.6364 0.363866 52.1753 0.492258 51.7248C0.728724 50.8244 1.0401 49.9455 1.4231 49.0973C2.21305 47.4031 3.17768 45.7964 4.30122 44.3034C5.41428 42.8007 6.61844 41.3681 7.9069 40.0136L8.28137 39.6382C8.85914 40.2281 9.4583 40.8179 10.0575 41.3863L10.6031 41.8904C8.85204 43.6747 7.28223 45.629 5.91682 47.7245C4.99279 49.1044 4.27209 50.6106 3.77695 52.1967C3.5476 52.9982 3.4394 53.8297 3.45597 54.6634C3.45593 55.5068 3.6774 56.3354 4.0981 57.0658C4.5188 57.7962 5.12392 58.4028 5.85262 58.8245C6.57156 59.2429 7.34606 59.5571 8.15298 59.7575C9.76303 60.1217 11.417 60.2517 13.064 60.1436C15.5939 59.9781 18.102 59.5687 20.5535 58.921C20.607 59.1784 20.6712 59.4465 20.7354 59.7039C20.8959 60.3796 21.0671 61.0445 21.2383 61.7094L21.3667 62.1384L20.2646 62.4494ZM21.3346 61.7309C21.1527 61.0659 20.9922 60.401 20.8317 59.7254C20.7675 59.468 20.714 59.1999 20.6498 58.9425C21.356 58.7602 22.0621 58.5671 22.7897 58.3526L23.8596 58.0416C23.8596 58.3097 23.9773 58.5778 24.0415 58.846L24.1164 59.157C24.2876 59.8541 24.4802 60.5619 24.6728 61.3019L23.9559 61.5271L23.0786 61.7845C22.5757 61.9454 22.0086 62.0741 21.5379 62.2028C21.3988 61.9775 21.3453 61.8274 21.3132 61.688L21.3346 61.7309ZM45.8467 66.9859C45.177 68.7259 44.3459 70.3991 43.3645 71.9836C42.3928 73.5781 41.1424 74.984 39.6732 76.134C38.9291 76.6969 38.1074 77.1484 37.2338 77.4746C36.3556 77.7794 35.4347 77.9424 34.5054 77.9572C33.5737 77.9417 32.6499 77.7825 31.7664 77.4853C30.8928 77.152 30.0685 76.701 29.3163 76.1447C27.8466 74.9922 26.5931 73.5868 25.6143 71.9943C24.5956 70.4197 23.732 68.7495 23.0358 67.0074C22.4127 65.4393 21.8734 63.8391 21.4202 62.2135C21.9337 62.0848 22.4901 61.9561 22.9609 61.8059L23.8382 61.5486L24.5551 61.3341C25.2432 63.7813 26.1677 66.1556 27.3155 68.423C28.0561 69.905 29.0036 71.2736 30.1294 72.4876C30.7053 73.0918 31.369 73.6053 32.0981 74.0105C32.8262 74.4282 33.6505 74.6479 34.4894 74.6479C35.3283 74.6479 36.1526 74.4282 36.8807 74.0105C37.6079 73.6024 38.2712 73.0893 38.8494 72.4876C39.9654 71.2688 40.9021 69.8965 41.6312 68.4123C42.7582 66.1331 43.6578 63.7478 44.3167 61.2912L45.0978 61.5271C45.3867 61.6236 45.6862 61.7094 45.9751 61.7845C46.4673 61.9346 46.9595 62.0633 47.4623 62.1813C47.017 63.8128 46.4776 65.4171 45.8467 66.9859ZM47.5907 61.6236C47.5907 61.7845 47.5051 61.9346 47.473 62.0848C46.9702 61.9561 46.4673 61.8274 45.9751 61.6772L45.1085 61.5164L44.3274 61.2697C44.52 60.5619 44.7019 59.8541 44.8838 59.1248L44.948 58.8138C45.0122 58.5457 45.0764 58.2776 45.1299 58.0094L46.1998 58.3419C46.8739 58.5457 47.5586 58.7387 48.2541 58.9103C48.1899 59.1784 48.1364 59.4358 48.0722 59.7039C47.9331 60.3367 47.7726 61.0016 47.6442 61.6665L47.5907 61.6236ZM49.6129 50.6202C49.3454 53.0761 48.9602 55.5321 48.4574 57.9558C48.4574 58.2239 48.3504 58.492 48.2862 58.7602C47.6014 58.5886 46.9167 58.3955 46.2426 58.2025L45.1727 57.87C45.1727 57.5912 45.2904 57.3338 45.3332 57.0549C45.7504 55.0709 46.0714 53.0654 46.3175 51.0492L47.227 50.4593C48.1043 49.8909 48.9709 49.3118 49.8269 48.7112C49.7841 49.3869 49.6878 50.0303 49.6129 50.6631V50.6202ZM49.8483 48.2929C48.9923 48.9043 48.1257 49.5048 47.2484 50.084L46.3496 50.6738C46.5137 49.3011 46.6421 47.9283 46.7348 46.5556C47.0344 46.3625 47.3232 46.1588 47.6121 45.955C48.4609 45.3759 49.2955 44.7753 50.1158 44.1533C50.0516 45.5796 49.966 46.9631 49.8483 48.3358V48.2929ZM47.6442 45.8799L46.7669 46.4912C46.9381 44.164 47.013 41.8153 47.013 39.4773C47.013 37.1394 46.9488 34.8872 46.799 32.5921L47.6549 33.182C48.4895 33.7754 49.3133 34.376 50.1265 34.9837C50.2014 36.4852 50.2335 37.9866 50.2335 39.4773C50.2335 40.9681 50.2335 42.5231 50.1479 44.046C49.3026 44.668 48.4681 45.2901 47.6442 45.8799ZM57.4448 42.3086C55.8934 43.7136 54.235 45.0434 52.6087 46.3196C51.8063 46.9309 50.9931 47.5422 50.1693 48.1321C50.2977 46.7379 50.3833 45.3544 50.4582 43.9602C52.0738 42.7376 53.668 41.4614 55.1659 40.1101L55.7222 39.6168C55.9897 39.8634 56.2786 40.1101 56.5461 40.3675C57.0382 40.8394 57.5197 41.322 58.0012 41.8046C57.7979 41.9762 57.616 42.1478 57.4234 42.3086H57.4448ZM58.6966 41.1396L58.1403 41.6544C57.6588 41.1611 57.1666 40.6678 56.6745 40.1959L55.872 39.4559L56.4284 38.9411L56.6531 38.7373C57.1666 38.2547 57.6588 37.7721 58.151 37.2681L58.258 37.3753L58.6003 37.6863L58.6966 37.7828C59.2851 38.3298 59.8415 38.8553 60.3978 39.4452C59.8415 40.0672 59.2744 40.5927 58.6966 41.1396ZM68.647 25.1922C68.647 25.4174 68.647 25.6533 68.5828 25.8785C68.5157 26.3233 68.4228 26.7637 68.3046 27.1977C68.0737 28.0949 67.7658 28.9704 67.3845 29.8145C66.6054 31.5009 65.6515 33.1005 64.5385 34.5869C63.4289 36.0893 62.2283 37.5219 60.9435 38.8768L60.5904 39.2414C60.0341 38.673 59.5205 38.1689 58.8999 37.5684L58.3436 37.075C60.1082 35.2925 61.6956 33.3422 63.0834 31.2516C64.0103 29.8734 64.7312 28.3667 65.2232 26.7794C65.45 25.9732 65.5652 25.1396 65.5656 24.302C65.5647 23.4449 65.3401 22.6029 64.914 21.8597C64.4879 21.1166 63.8753 20.4981 63.1369 20.0658C62.4117 19.6396 61.63 19.3183 60.8151 19.1113C59.1946 18.7444 57.5302 18.6108 55.872 18.7145C53.3752 18.8656 50.899 19.2608 48.4788 19.8942L48.329 19.2293C48.1685 18.5536 48.008 17.8887 47.8261 17.2238C47.8261 17.1058 47.7619 16.9879 47.7191 16.8699L48.6928 16.6339C49.6022 16.4409 50.5117 16.2371 51.4211 16.0977C53.2545 15.7712 55.112 15.599 56.9741 15.5829C57.9008 15.5796 58.8268 15.6405 59.7452 15.7652C60.6619 15.8735 61.5653 16.0747 62.4414 16.3658C64.2118 16.9041 65.7831 17.9566 66.9565 19.3902C68.087 20.8562 68.6869 22.6638 68.6577 24.5165V24.8597L68.647 25.1922Z" fill="#0077B6"/>
<path d="M45.7398 59.028C45.5472 59.8645 45.3332 60.6688 45.1085 61.4624L44.8838 62.2775C42.4337 70.3639 38.7103 75.4581 34.4841 75.4581C30.2578 75.4581 26.5344 70.4068 24.1057 62.374C24.0201 62.1166 23.9559 61.8485 23.881 61.5911V61.4732L24.5979 61.2587L24.8012 61.1943L25.5073 60.9584C25.5119 61.0012 25.5119 61.0443 25.5073 61.0871C25.5715 61.3445 25.6571 61.6019 25.732 61.8593C27.8719 69.0984 31.0282 73.7528 34.4734 73.7528C37.9185 73.7528 41.0748 69.0233 43.2254 61.8164C43.3003 61.5482 43.3859 61.2801 43.4608 61.012C43.4598 60.9942 43.4598 60.9763 43.4608 60.9584C43.6855 60.1648 43.8888 59.3497 44.0814 58.5132L44.8731 58.7598H44.9373L45.7398 59.028Z" fill="#0077B6"/>
<path d="M56.0216 60.1436C56.0679 60.4167 56.1359 60.6856 56.2249 60.9479C54.5883 60.9032 52.9574 60.7347 51.346 60.4439C50.5864 60.3044 49.816 60.1328 49.035 59.9505L48.286 59.7575H48.1041C47.3338 59.5644 46.5527 59.3499 45.7503 59.114L44.9585 58.8673H44.8943L44.1026 58.6314C43.0327 58.2775 41.9627 57.8914 40.8928 57.4731C40.1117 57.1728 39.3307 56.8618 38.5282 56.5294L37.6402 56.1433L37.3941 56.036C36.4419 55.6178 35.4789 55.1888 34.5267 54.7276L33.5744 54.2558L32.6329 53.7946C31.3704 53.1511 30.0972 52.4648 28.8239 51.7462L27.9145 51.2314L27.0265 50.7059C25.7746 49.9659 24.5442 49.2045 23.3459 48.4216L22.5755 47.8961L22.2011 47.5743L21.4307 47.0488C20.5427 46.4375 19.676 45.8155 18.8308 45.1935C18.7767 45.1639 18.7264 45.1279 18.681 45.0862L17.8571 44.4749C17.1724 43.9494 16.4983 43.4025 15.8457 42.8877C14.9469 42.1477 14.0696 41.4077 13.235 40.657L12.7 40.1636L12.5289 40.0135L11.9832 39.4987C11.3626 38.9196 10.7849 38.3405 10.2178 37.7613L10.1322 37.6648L9.58654 37.0964C9.03018 36.5065 8.51661 35.9167 8.00304 35.3376C3.20974 29.675 1.58344 24.7846 3.45582 21.5457C5.32821 18.3069 10.3569 17.2559 17.6431 18.5965C18.3921 18.7359 19.1624 18.9075 19.9542 19.0898L20.6817 19.2721L20.885 19.3257C21.6447 19.5188 22.4257 19.7333 23.2175 19.9692L23.8808 20.1837L24.2018 20.2802C24.1483 20.5054 24.0948 20.7307 24.052 20.9452L23.9771 21.2669C23.9236 21.4921 23.8808 21.7173 23.8381 21.9425L23.5171 21.846L22.843 21.6315C22.0513 21.3956 21.2702 21.1811 20.5106 20.9881L20.2966 20.9344L19.5583 20.7628C18.7987 20.5805 18.0497 20.4304 17.3115 20.291C15.5481 19.95 13.7575 19.7705 11.9618 19.7547C8.38822 19.7547 5.90597 20.6556 4.90023 22.4144C3.44512 24.9347 5.03933 29.246 9.26556 34.2115C9.74347 34.7835 10.257 35.3519 10.8063 35.9167C10.9775 36.1097 11.17 36.3028 11.3519 36.4958L11.4589 36.5923C12.0153 37.1822 12.6038 37.7613 13.2136 38.3405L13.77 38.8445L13.9305 38.9947L14.4654 39.4773C15.3107 40.228 16.1773 40.968 17.0975 41.708L17.7501 42.2335L18.5419 42.8555L18.7024 42.9735C19.5262 43.6062 20.3822 44.2283 21.2488 44.8503L22.0085 45.3758L22.276 45.5581C22.522 45.7404 22.7788 45.912 23.0356 46.0836C24.2018 46.8772 25.4109 47.6494 26.652 48.4001C27.3046 48.7969 27.9573 49.1937 28.6314 49.5798C29.3054 49.9659 29.9688 50.3413 30.6428 50.7166C31.916 51.4137 33.1893 52.0679 34.4518 52.69C34.7621 52.8508 35.0723 52.9903 35.3933 53.1404H35.4468L36.3991 53.5908C37.362 54.0305 38.3143 54.4488 39.2665 54.8349L39.534 54.9421L40.422 55.3068L41.171 55.5963C42.2409 56.0253 43.3108 56.4114 44.3808 56.7653L45.1618 57.012H45.226L46.0285 57.2694C46.8202 57.516 47.6013 57.7198 48.3716 57.9128L48.5642 57.9665L49.3132 58.1488C50.0728 58.3311 50.8218 58.492 51.5493 58.6207C52.9635 58.8832 54.393 59.0552 55.8291 59.1354C55.8256 59.401 55.8434 59.6664 55.8826 59.9291C55.8826 59.9291 56.011 60.1007 56.0216 60.1436Z" fill="#03045E"/>
<path d="M65.833 56.7655C65.6785 56.4787 65.4995 56.206 65.298 55.9504C65.2681 55.9061 65.2321 55.8664 65.191 55.8324C64.9988 55.6004 64.7837 55.3884 64.549 55.1997C65.0091 52.1646 62.5697 47.789 58.1294 43.1023C57.9796 42.9307 57.8192 42.7699 57.648 42.5983L57.4126 42.3516C56.8669 41.8046 56.3426 41.2791 55.7114 40.6893L55.1336 40.0673L55.0159 39.96L55.5723 39.4667L55.7328 39.3165L56.2892 38.8018L56.4175 38.9197L56.9846 39.4452C57.5731 40.0029 58.1401 40.5177 58.6751 41.1075L58.8998 41.3435C59.0603 41.5151 59.2101 41.6867 59.3706 41.8475C64.763 47.6495 67.3309 53.0869 65.833 56.7655Z" fill="#03045E"/>
<path d="M60.9755 35.3052C60.4833 35.895 59.9055 36.4741 59.4027 37.064L58.8998 37.5895L58.6965 37.7933L58.1508 37.2785L58.001 37.1391L57.4447 36.6457C57.5069 36.5691 57.5748 36.4974 57.648 36.4312L58.1508 35.9057C58.6858 35.3373 59.2208 34.7689 59.6808 34.2005C63.9606 29.2029 65.512 24.8916 64.0569 22.4035C62.9869 20.5803 60.5154 19.7223 57.0809 19.7223C54.4911 19.7827 51.9169 20.1426 49.4095 20.7948L48.714 20.9664L48.393 21.0522C47.6441 21.2452 46.8951 21.449 46.1248 21.6849L45.3651 21.9209L45.2046 21.9745L44.4664 22.2104C43.3965 22.5643 42.3265 22.9611 41.2566 23.3794L40.5076 23.669L39.6838 24.0122L39.2772 24.1837C38.3571 24.5698 37.4262 24.9666 36.474 25.4064L35.6608 25.7924L35.3185 25.9426L34.516 26.3287C33.2535 26.9507 31.9803 27.6049 30.707 28.302C30.033 28.6774 29.3589 29.0527 28.6956 29.4388C28.0322 29.8249 27.3689 30.2217 26.7162 30.6185C25.4751 31.3692 24.266 32.1414 23.0998 32.935L22.3616 33.4498L22.0513 33.6536L21.3023 34.1683C20.4357 34.7904 19.5904 35.4124 18.7666 36.0452L18.5847 36.1846L17.8036 36.7959L17.151 37.3214C16.2308 38.0614 15.3642 38.8014 14.519 39.5414L13.9626 40.0562L13.8449 40.1634L13.2564 40.6996C12.6466 41.2788 12.0688 41.8579 11.5124 42.437L11.384 42.5657L10.8491 43.1234C10.3141 43.6918 9.77915 44.2602 9.30838 44.8286C5.02864 49.8263 3.48794 54.1375 4.94305 56.6257C6.39816 59.1138 10.9133 59.9288 17.3436 58.7706C18.0818 58.6419 18.8308 58.481 19.5904 58.2987L20.3929 58.0949H20.4785C21.2702 57.8912 22.062 57.6767 22.8751 57.43C23.1212 57.3656 23.3566 57.2799 23.6027 57.2048L23.8167 57.1297C23.8809 57.4085 23.9237 57.6767 23.9879 57.9341V58.0091C24.0414 58.2772 24.1056 58.5454 24.1698 58.8135L23.9558 58.8778L23.2389 59.103C22.4258 59.3497 21.6233 59.5642 20.8316 59.7572H20.7567L19.9542 59.961C19.1625 60.1433 18.3921 60.3149 17.6432 60.4543C15.7874 60.8073 13.9041 60.994 12.0153 61.012C7.73558 61.012 4.79326 59.8216 3.45584 57.5051C1.59416 54.2877 3.20976 49.3758 8.00306 43.7132C8.49523 43.1341 9.07299 42.5443 9.58656 41.9544L10.1215 41.3967L10.2499 41.268C10.8063 40.6889 11.384 40.1098 11.9939 39.5306L12.561 39.0159L12.6894 38.8979L13.2457 38.3831C14.0803 37.6324 14.9576 36.8924 15.8564 36.1524C16.509 35.6162 17.1831 35.0799 17.8678 34.5652L18.6703 33.9646L18.8629 33.8252C19.6974 33.2031 20.5534 32.5918 21.4414 31.9805L22.2011 31.4765L22.5114 31.262C22.7681 31.1011 23.0142 30.9295 23.2603 30.7579C24.4586 29.975 25.6891 29.2136 26.9409 28.4736L27.8289 27.9481L28.7384 27.4333C30.0116 26.7148 31.2848 26.0284 32.5473 25.3849L33.3391 24.9881L33.6922 24.8165L34.4946 24.4197C35.4361 23.9693 36.367 23.551 37.2978 23.1435L37.7044 22.9719L38.5176 22.6072C39.32 22.2748 40.1011 21.9638 40.8821 21.6635C41.952 21.2345 43.022 20.8591 44.0919 20.5052L44.8302 20.28L45.0014 20.2264L45.7396 19.9904C46.5207 19.7545 47.2696 19.5507 48.0186 19.3577L48.3502 19.2826L49.035 19.1003C57.1879 17.202 63.4042 17.8991 65.5227 21.5669C67.3951 24.7522 65.7688 29.6426 60.9755 35.3052Z" fill="#F9AD48"/>
<path d="M29.8191 7.18546C29.9475 7.37851 30.0759 7.56082 30.215 7.73242C28.1288 10.552 26.6065 13.7495 25.7319 17.1486L25.5393 17.835C25.5393 17.9422 25.4859 18.0388 25.4538 18.1353L25.09 18.0173L24.8011 17.9208L24.4801 17.8135L24.0093 17.6741L23.8275 17.6205C23.8511 17.5226 23.8796 17.4259 23.913 17.3309C23.9772 17.1057 24.0307 16.8805 24.1056 16.6553C25.4752 12.0973 27.2619 8.50459 29.3269 6.2417C29.4232 6.46692 29.5195 6.68141 29.6372 6.8959C29.6919 6.99605 29.7526 7.09275 29.8191 7.18546Z" fill="#0077B6"/>
<path d="M47.8259 39.4772V40.5497C47.8259 42.0189 47.7617 43.4667 47.6868 44.8395L47.6226 45.8476C47.6226 45.8476 47.6226 45.9227 47.6226 45.9548L47.5584 47.0273C47.4729 48.0998 47.3766 49.0972 47.2589 50.1053C47.2589 50.2232 47.2589 50.3519 47.2589 50.4806C47.2589 50.7916 47.1947 51.1027 47.1519 51.4137C47.0449 52.2716 46.9272 53.1189 46.7881 53.9554C46.6062 55.1137 46.4029 56.2397 46.1675 57.3336L45.3651 57.0763H45.3009L44.4343 56.8296C44.6589 55.7571 44.8622 54.5989 45.0441 53.4406L45.1725 52.6255C45.1725 52.3253 45.2474 52.0035 45.2902 51.7032C45.2902 51.5853 45.2902 51.4673 45.2902 51.3493C45.4293 50.3412 45.547 49.3224 45.6433 48.2714C45.6433 47.9282 45.6433 47.5743 45.7289 47.1989C45.7341 47.1705 45.7341 47.1415 45.7289 47.1131C45.7289 46.7699 45.7931 46.4375 45.8145 46.0406C45.9108 44.6357 45.975 43.1986 46.0177 41.7508C46.0177 40.9786 46.0177 40.2065 46.0177 39.4236C46.0177 38.6407 46.0177 37.8899 46.0177 37.1285C46.0177 35.67 45.9108 34.2329 45.8145 32.8387C45.8145 32.5384 45.8145 32.2274 45.7396 31.9271V31.6053C45.7396 31.2943 45.7396 30.9726 45.6647 30.6723C45.5684 29.5998 45.4507 28.6239 45.3223 27.6265L45.3116 27.1975C45.3116 26.8972 45.2367 26.6077 45.2046 26.3181L45.0762 25.5245C44.8943 24.3662 44.691 23.2294 44.4663 22.1248C44.4129 21.8996 44.3701 21.6744 44.3166 21.4491C44.3166 21.3419 44.3166 21.2347 44.2417 21.1274C44.2417 20.9022 44.1454 20.6662 44.0919 20.441C43.91 19.6367 43.7067 18.8538 43.4927 18.0923L43.4285 17.8564C43.3643 17.6097 43.2894 17.3631 43.2145 17.1164C42.346 13.7236 40.827 10.5327 38.7422 7.72166C38.8872 7.54286 39.0229 7.35672 39.1488 7.16398L39.3093 6.89586C39.4376 6.68147 39.5451 6.45521 39.6303 6.22021C41.6952 8.47238 43.482 12.0651 44.8515 16.6123C44.9264 16.8483 44.9906 17.095 45.0655 17.3416L45.1297 17.5776C45.3437 18.339 45.547 19.1112 45.7396 19.9262C45.7931 20.1407 45.8466 20.3767 45.8894 20.6019L45.9643 20.9236C45.9643 21.1489 46.0712 21.3633 46.1247 21.5993C46.3494 22.6717 46.5527 23.8193 46.7346 24.9883C46.8737 25.8141 46.9914 26.6613 47.0984 27.5085C47.0984 27.8088 47.1733 28.1091 47.2054 28.4094C47.2054 28.5595 47.2054 28.699 47.2054 28.8491C47.3124 29.8465 47.4087 30.8546 47.4943 31.8949C47.4943 32.2059 47.4943 32.5169 47.5584 32.8279C47.5531 32.9315 47.5531 33.0354 47.5584 33.139C47.5584 33.45 47.5584 33.7503 47.5584 34.0613C47.6333 35.4876 47.6761 36.9355 47.6975 38.3511L47.8259 39.4772Z" fill="#0077B6"/>
<path d="M38.6567 4.18263C38.6558 4.51851 38.6163 4.85318 38.539 5.18001C38.4815 5.41897 38.4028 5.65227 38.3037 5.87711C38.3037 5.97363 38.2181 6.07015 38.1646 6.16668C38.0598 6.36624 37.9381 6.55641 37.8008 6.73508C37.4101 7.24456 36.9078 7.65722 36.3327 7.9412C35.7576 8.22517 35.1251 8.37286 34.484 8.37286C33.8429 8.37286 33.2104 8.22517 32.6353 7.9412C32.0602 7.65722 31.5579 7.24456 31.1672 6.73508C31.0277 6.56182 30.9058 6.375 30.8034 6.1774C30.7471 6.07694 30.6971 5.97307 30.6536 5.86639C30.5545 5.64524 30.4757 5.4155 30.4183 5.18001C30.341 4.85318 30.3015 4.51851 30.3006 4.18263C30.2981 3.3914 30.5248 2.61646 30.9532 1.95191C31.0432 1.79626 31.147 1.64909 31.2635 1.5122C31.6572 1.04301 32.1485 0.665805 32.703 0.407027C33.2574 0.148249 33.8617 0.0141602 34.4733 0.0141602C35.0849 0.0141602 35.6892 0.148249 36.2436 0.407027C36.7981 0.665805 37.2894 1.04301 37.6831 1.5122C37.8057 1.66065 37.9166 1.81842 38.0148 1.98408C38.4346 2.64008 38.6575 3.40324 38.6567 4.18263Z" fill="#0077B6"/>
<path d="M38.6781 32.9354C37.7788 32.8455 36.8807 33.1168 36.1807 33.6898C35.4806 34.2628 35.0359 35.0907 34.9441 35.9919L34.8371 37.0643L32.5046 36.8498C31.8925 36.786 31.2739 36.844 30.6842 37.0204C30.0945 37.1968 29.5453 37.4881 29.0682 37.8777C28.5911 38.2673 28.1954 38.7474 27.9038 39.2906C27.6122 39.8338 27.4304 40.4294 27.3689 41.0431C27.2528 42.2832 27.6328 43.5188 28.4253 44.4781C29.2179 45.4374 30.3581 46.042 31.5952 46.1588C32.8308 46.2847 34.0658 45.9137 35.0288 45.1275C35.9918 44.3412 36.6039 43.2039 36.7309 41.9655L36.9448 39.6275L38.0148 39.7347C38.472 39.804 38.9385 39.7794 39.3859 39.6625C39.8334 39.5455 40.2524 39.3387 40.6177 39.0545C40.983 38.7703 41.2868 38.4146 41.5108 38.0091C41.7347 37.6036 41.8742 37.1568 41.9206 36.6956C41.9671 36.2345 41.9195 35.7687 41.7809 35.3265C41.6423 34.8843 41.4155 34.475 41.1143 34.1233C40.8131 33.7717 40.4437 33.485 40.0286 33.2808C39.6135 33.0766 39.1613 32.9591 38.6995 32.9354H38.6781Z" fill="#0077B6"/>
<path d="M65.0841 59.6395C64.981 60.6042 64.5279 61.4972 63.8109 62.149L63.7146 62.2241C63.6338 62.2978 63.548 62.3659 63.4578 62.4279C62.8 62.8925 62.0157 63.1433 61.211 63.1464H60.8044C60.1481 63.0823 59.5189 62.8518 58.976 62.4765C58.4332 62.1013 57.9946 61.5937 57.7016 61.0015C57.5786 60.7513 57.4817 60.4889 57.4127 60.2186C57.4179 60.1759 57.4179 60.1327 57.4127 60.0899C57.3573 59.8326 57.3286 59.5702 57.3271 59.307C57.3271 59.1783 57.3271 59.0389 57.3271 58.8995L57.5304 56.9583L56.6424 56.8618C55.9308 56.7752 55.2783 56.4216 54.8163 55.8722C54.3543 55.3228 54.1171 54.6184 54.1523 53.9007C54.1876 53.1831 54.4927 52.5054 55.0063 52.0042C55.5199 51.503 56.2039 51.2154 56.9205 51.1992H57.2736C58.0213 51.2776 58.7072 51.6504 59.1807 52.2357C59.6542 52.8209 59.8765 53.5706 59.7987 54.3201L59.7131 55.2102L61.6497 55.4033C62.5961 55.498 63.4753 55.9367 64.1212 56.6366C64.3053 56.8362 64.4668 57.0556 64.6027 57.2908C64.6387 57.342 64.6708 57.3957 64.699 57.4517C64.8406 57.7171 64.9518 57.9977 65.0306 58.2882C65.1283 58.7319 65.1464 59.1894 65.0841 59.6395Z" fill="#03045E"/>
</g>
<defs>
<clipPath id="clip0_199:4510">
<rect width="69" height="78" fill="white"/>
</clipPath>
</defs>
</svg>
