<svg width="227" height="77" viewBox="0 0 227 77" fill="none" xmlns="http://www.w3.org/2000/svg">
<g clip-path="url(#clip0_140:3340)">
<path d="M90.992 30.6789C90.5985 31.3233 90.0466 31.8587 89.3877 32.2351C88.7289 32.6115 87.9845 32.8167 87.224 32.8315C86.5099 32.8456 85.8006 32.7134 85.1405 32.4433C84.4804 32.1731 83.8839 31.7707 83.3884 31.2615C82.8928 30.7522 82.509 30.1471 82.2609 29.484C82.0128 28.8208 81.9058 28.1141 81.9467 27.4081C81.9043 26.7013 82.0101 25.9935 82.2575 25.3291C82.505 24.6648 82.8886 24.0583 83.3843 23.5479C83.88 23.0375 84.477 22.6342 85.1379 22.3634C85.7987 22.0926 86.509 21.9601 87.224 21.9744C87.9864 21.9802 88.7343 22.1816 89.3946 22.5589C90.055 22.9362 90.6054 23.4764 90.992 24.127L91.1504 24.4091L94.1479 22.8521L93.9579 22.5491C93.277 21.3869 92.2922 20.4279 91.1071 19.7732C89.922 19.1186 88.5806 18.7924 87.224 18.829C86.0673 18.7813 84.913 18.9696 83.8329 19.3822C82.7528 19.7949 81.77 20.423 80.9454 21.2275C80.1209 22.0321 79.4723 22.996 79.0399 24.0592C78.6075 25.1225 78.4005 26.2624 78.4319 27.4081C78.4005 28.5539 78.6075 29.6938 79.0399 30.7571C79.4723 31.8203 80.1209 32.7842 80.9454 33.5887C81.77 34.3933 82.7528 35.0214 83.8329 35.4341C84.913 35.8467 86.0673 36.035 87.224 35.9873C88.5865 36.0135 89.9313 35.6785 91.119 35.0171C92.3067 34.3557 93.2942 33.3918 93.979 32.2254L94.1796 31.9119L91.1504 30.4072L90.992 30.6789Z" fill="#0077B6"/>
<path d="M107.151 25.59H99.4464V19.0903H95.9423V35.7052H99.4464V28.7249H107.151V35.7052H110.645V19.0903H107.151V25.59Z" fill="#0077B6"/>
<path d="M118.508 19.0903L111.912 35.6948H115.848L117.031 32.6121H123.954L125.105 35.6948H129.042L122.445 19.0903H118.508ZM122.91 29.5399H118.086L120.493 23.2075L122.91 29.5399Z" fill="#0077B6"/>
<path d="M133.823 19.0903H130.329V35.7052H133.823V19.0903Z" fill="#0077B6"/>
<path d="M147.713 29.4563L139.987 19.0903H136.588V35.7052H140.082V24.9839L147.977 35.7052H151.217V19.0903H147.713V29.4563Z" fill="#0077B6"/>
<path d="M166.511 25.4332C164.769 24.9943 163.26 24.6077 163.26 23.6255C163.26 22.6432 164.21 21.9744 165.635 21.9744C166.454 21.9567 167.268 22.0999 168.031 22.3959C168.794 22.6919 169.49 23.1346 170.078 23.6986L170.353 23.9703L172.358 21.3474L172.147 21.1489C171.314 20.3688 170.333 19.7602 169.26 19.3584C168.187 18.9566 167.045 18.7696 165.899 18.8082C162.247 18.8082 159.693 20.8981 159.693 23.824C159.693 27.4187 162.965 28.2337 165.603 28.9025C167.461 29.3623 169.065 29.7594 169.065 30.9924C169.065 31.8911 168.305 32.8525 166.184 32.8525C165.275 32.8523 164.375 32.6666 163.542 32.307C162.708 31.9474 161.958 31.4217 161.339 30.7625L161.065 30.4595L159.059 33.1032L159.26 33.3122C160.152 34.1897 161.216 34.8762 162.387 35.3292C163.559 35.7822 164.811 35.992 166.068 35.9455C170.902 35.9455 172.633 33.2182 172.633 30.658C172.601 26.9798 169.234 26.1229 166.511 25.4332Z" fill="#0077B6"/>
<path d="M186.523 19.0903H173.266V22.2148H178.142V35.7052H181.646V22.2148H186.523V19.0903Z" fill="#0077B6"/>
<path d="M191.431 19.0903L184.844 35.6948H188.781L189.964 32.6121H196.877L198.059 35.6948H201.996L195.41 19.0903H191.431ZM195.842 29.5399H191.019L193.425 23.2075L195.842 29.5399Z" fill="#0077B6"/>
<path d="M200.318 22.2148H205.194V35.7052H208.688V22.2148H213.564V19.0903H200.318V22.2148Z" fill="#0077B6"/>
<path d="M227 22.2148V19.0903H215.284V35.7052H227V32.5808H218.788V28.798H226.831V25.6631H218.788V22.2148H227Z" fill="#0077B6"/>
<path d="M80.7752 57.5447V41.5986H82.7806V55.7787H90.2744V57.5447H80.7752Z" fill="#03045E"/>
<path d="M105.125 57.5448L103.7 54.0024H95.6784L94.2535 57.5657H91.9631L98.4543 41.6196H100.945L107.415 57.5657L105.125 57.5448ZM99.6892 43.626L96.2906 52.2364H103.119L99.6892 43.626Z" fill="#03045E"/>
<path d="M109.516 57.5447V41.5986H116.661C119.458 41.5986 121.179 43.2706 121.179 45.6635C121.208 46.5032 120.942 47.327 120.426 47.994C119.91 48.6611 119.176 49.1301 118.35 49.3209C119.252 49.5151 120.059 50.0106 120.635 50.7241C121.212 51.4376 121.523 52.3258 121.516 53.2395C121.516 55.7996 119.796 57.5447 116.851 57.5447H109.516ZM119.131 45.9457C119.143 45.589 119.078 45.2338 118.941 44.904C118.803 44.5741 118.596 44.2771 118.333 44.0327C118.071 43.7884 117.758 43.6024 117.417 43.4872C117.076 43.372 116.714 43.3302 116.355 43.3646H111.521V48.5058H116.355C116.713 48.5452 117.075 48.5076 117.417 48.3956C117.759 48.2835 118.073 48.0996 118.337 47.8565C118.6 47.6134 118.808 47.3168 118.945 46.9871C119.082 46.6573 119.145 46.302 119.131 45.9457ZM119.448 53.0305C119.457 52.6496 119.384 52.271 119.235 51.9197C119.086 51.5684 118.864 51.2521 118.583 50.9917C118.302 50.7313 117.969 50.5326 117.605 50.4085C117.241 50.2844 116.855 50.2379 116.471 50.2718H111.521V55.7787H116.471C116.856 55.8249 117.247 55.7873 117.615 55.6684C117.984 55.5494 118.322 55.3522 118.605 55.0904C118.889 54.8285 119.111 54.5085 119.257 54.1527C119.402 53.7969 119.467 53.4139 119.448 53.0305Z" fill="#03045E"/>
<path d="M123.068 55.2981L124.282 53.7725C124.903 54.4974 125.676 55.0803 126.547 55.4808C127.418 55.8813 128.366 56.0899 129.327 56.0923C132.198 56.0923 133.116 54.5667 133.116 53.3232C133.116 49.206 123.617 51.5049 123.617 45.8099C123.617 43.187 125.992 41.3688 129.179 41.3688C130.235 41.3286 131.287 41.5078 132.269 41.8947C133.251 42.2817 134.14 42.8678 134.879 43.6155L133.665 45.068C133.073 44.4372 132.351 43.9399 131.548 43.6099C130.745 43.28 129.879 43.1251 129.01 43.1557C127.1 43.1557 125.696 44.2007 125.696 45.6949C125.696 49.2792 135.195 47.2206 135.195 53.1769C135.195 55.4758 133.601 57.8583 129.253 57.8583C128.096 57.8985 126.945 57.6905 125.877 57.2486C124.81 56.8067 123.851 56.1413 123.068 55.2981Z" fill="#03045E"/>
<path opacity="0.3" d="M66.3152 19.038C65.1171 17.6024 63.5154 16.5514 61.7133 16.018C60.8291 15.726 59.9164 15.5263 58.9902 15.4224C58.0736 15.3008 57.1497 15.2414 56.2249 15.2447C54.3774 15.2682 52.5349 15.4394 50.7153 15.7568C49.7971 15.9031 48.8999 16.1121 47.9922 16.3002L47.0317 16.5405C46.5862 14.9732 46.0541 13.4313 45.438 11.9218C44.7599 10.2014 43.9225 8.54675 42.9365 6.9791C41.9588 5.45771 40.7276 4.11152 39.2951 2.9978C39.2951 3.1441 39.369 3.27994 39.3901 3.42624C40.6809 4.49792 41.7892 5.76808 42.6726 7.1881C43.6479 8.72389 44.4749 10.3473 45.1424 12.0367C45.7465 13.5332 46.268 15.0611 46.7045 16.6136C46.2401 16.7286 45.7757 16.854 45.3219 16.9898L44.4564 17.2406L43.7387 17.4601C43.0947 15.0924 42.218 12.793 41.1211 10.5947C40.4874 9.32777 39.7006 8.14177 38.778 7.0627L38.6196 7.32394C39.5064 8.36134 40.268 9.49757 40.8889 10.7096C41.9964 12.8864 42.8871 15.1647 43.5487 17.5123L42.8415 17.7422C40.1619 18.6196 37.5302 19.6346 34.9572 20.783L34.0811 21.1697L33.089 20.7308C30.5147 19.5828 27.8792 18.5747 25.1941 17.7108L24.5502 17.5019C25.201 15.1652 26.0812 12.8973 27.1783 10.7305C27.788 9.51605 28.539 8.37628 29.4159 7.33439C29.35 7.24068 29.2901 7.14295 29.2365 7.0418C28.3108 8.12295 27.5173 9.30847 26.8723 10.5738C25.7719 12.7693 24.8883 15.065 24.2336 17.4287L23.5897 17.2302L22.7243 16.9585C22.2493 16.8226 21.7638 16.6972 21.2783 16.5823C21.7321 15.0358 22.2493 13.5101 22.8509 12.0158C23.5244 10.3271 24.3547 8.70392 25.3313 7.1672C26.2332 5.74821 27.3551 4.4787 28.656 3.40534C28.656 3.27994 28.656 3.1441 28.7404 3.0187C27.314 4.14581 26.0931 5.50653 25.1307 7.0418C24.1443 8.58926 23.3101 10.2269 22.6398 11.9322C22.0323 13.4357 21.5073 14.9705 21.0672 16.53L20.0117 16.2793C19.104 16.0912 18.2068 15.8926 17.2886 15.7463C15.4687 15.4329 13.6262 15.2652 11.779 15.2447C10.8507 15.2505 9.92362 15.3133 9.00315 15.4328C8.08489 15.543 7.17984 15.7425 6.30114 16.0285C4.50018 16.5631 2.90383 17.6228 1.7204 19.0693C0.578489 20.5463 -0.0275715 22.3611 -1.57238e-05 24.221C0.0591068 26.0655 0.497244 27.8789 1.28766 29.5503C2.07029 31.2102 3.02913 32.7831 4.14798 34.2421C4.67572 34.9841 5.27734 35.6737 5.85784 36.3947L6.7761 37.4397L7.71547 38.4847L8.11655 38.9027L7.74714 39.2788C6.47405 40.5968 5.28605 41.9929 4.1902 43.4587C3.09225 44.9238 2.148 46.4959 1.3721 48.1506C0.992544 48.9835 0.685348 49.847 0.453837 50.7316C0.32718 51.1705 0.263852 51.6303 0.179414 52.0692C0.179414 52.2991 0.179414 52.5289 0.116086 52.7588V53.0932C0.116086 53.2082 0.116086 53.3231 0.116086 53.4381C0.0921734 55.2813 0.698478 57.0784 1.8365 58.5375C3.00895 59.9655 4.59153 61.0076 6.37502 61.5261C7.25146 61.8072 8.15253 62.0066 9.06647 62.1217C9.98056 62.2329 10.9003 62.2922 11.8213 62.2993C13.6646 62.2824 15.5036 62.1182 17.3203 61.8082C18.228 61.6724 19.1357 61.4738 20.0328 61.2857L21.0883 61.0245C21.5557 62.59 22.1017 64.1315 22.7243 65.6432C23.4049 67.3392 24.2422 68.9693 25.2257 70.5127C26.1955 72.0707 27.4395 73.4439 28.8988 74.5672C29.6411 75.106 30.4543 75.5419 31.3158 75.8629C32.1935 76.1566 33.1125 76.3118 34.0389 76.3227C34.9608 76.3094 35.8754 76.1579 36.7515 75.8734C37.6173 75.5547 38.4343 75.1186 39.179 74.5776C40.642 73.4521 41.8927 72.0795 42.8732 70.5232C43.8642 68.9823 44.7053 67.3518 45.3852 65.6537C46.0044 64.1141 46.5462 62.5501 47.0106 60.9618L48.0661 61.2126C48.9632 61.4007 49.8604 61.5992 50.7681 61.7351C52.5842 62.0519 54.4232 62.2232 56.2671 62.2471C56.6365 62.2471 57.0059 62.2471 57.3226 62.2471H56.2671C54.4261 62.2248 52.5902 62.0501 50.7787 61.7246C49.871 61.5888 48.9738 61.3798 48.0767 61.1917L47.0212 60.9409L47.1478 60.502C47.3273 59.8541 47.4961 59.2062 47.6545 58.5479C47.7178 58.2971 47.7706 58.0463 47.8339 57.7851C50.231 58.4134 52.6842 58.8089 55.1589 58.9659H55.2855C55.2855 58.9659 55.2855 58.8823 55.2855 58.851H55.1905C52.7203 58.7124 50.2701 58.3309 47.8761 57.7119C47.9289 57.4612 47.9922 57.1999 48.045 56.9491C48.5622 54.5771 48.9527 52.1737 49.2482 49.7702C49.3327 49.0701 49.4065 48.37 49.4699 47.6803C50.367 47.0533 51.2536 46.4264 52.1297 45.768C53.7656 44.5141 55.3805 43.2183 56.9215 41.839C57.1115 41.6823 57.2909 41.5151 57.4703 41.3479C59.1919 43.0727 60.7401 44.959 62.0933 46.9802C62.9985 48.3096 63.7091 49.759 64.2042 51.2854C64.4195 52.0473 64.5261 52.8351 64.5209 53.6262C64.514 53.9997 64.4644 54.3713 64.3731 54.7338C64.4137 54.7669 64.4492 54.8056 64.4787 54.8488C64.5949 54.4403 64.6587 54.019 64.6686 53.5948C64.6762 52.7823 64.566 51.9729 64.3415 51.1914C63.8488 49.6476 63.1382 48.1806 62.2305 46.8339C60.8602 44.7978 59.2943 42.8976 57.5548 41.1598L58.1036 40.6582C58.6736 40.1253 59.233 39.6132 59.7924 39.0176L60.109 39.3415C61.3835 40.6612 62.5749 42.0571 63.6765 43.5214C64.779 44.9743 65.7269 46.5361 66.5052 48.1819C66.8863 49.0046 67.197 49.8575 67.434 50.7316C67.5606 51.1705 67.624 51.6198 67.7084 52.0692C67.7084 52.2886 67.7084 52.5185 67.7717 52.7379V53.0828C67.7717 53.1873 67.7717 53.3022 67.7717 53.4172C67.7985 55.243 67.2036 57.0245 66.083 58.4748C65.8606 58.754 65.6209 59.0192 65.3653 59.2689C65.3653 59.3316 65.3653 59.3839 65.3653 59.4466C65.6683 59.1639 65.9505 58.8601 66.2096 58.5375C67.3569 57.0734 67.9739 55.2701 67.9617 53.4172V53.0723V52.7275C67.9617 52.4976 67.9617 52.2782 67.8984 52.0483C67.8139 51.5989 67.7612 51.1391 67.6345 50.7003C67.3999 49.8132 67.0928 48.9465 66.7163 48.1088C65.9391 46.4361 64.9913 44.8465 63.8876 43.3646C62.7883 41.9015 61.6005 40.5057 60.3307 39.1848L60.0035 38.8504L60.3623 38.4847C61.6358 37.1642 62.8272 35.7683 63.9298 34.3048C65.0381 32.8332 65.9929 31.2543 66.7796 29.5921C67.1592 28.7519 67.4664 27.8815 67.6978 26.9901C67.8167 26.5431 67.9083 26.0895 67.9723 25.6317C67.9723 25.4018 67.9723 25.1719 68.0356 24.942V24.5971V24.221C68.0637 22.3514 67.458 20.5265 66.3152 19.038ZM44.5197 17.4287L45.3852 17.1779C45.8496 17.0421 46.314 16.9271 46.7784 16.8122L46.8734 17.157C47.0528 17.8049 47.2217 18.4528 47.3695 19.1006C47.4328 19.3201 47.475 19.5395 47.5278 19.759C46.8629 19.9262 46.2085 20.0934 45.5646 20.2919L45.2691 20.3755L44.5408 20.5949C44.5408 20.3755 44.4458 20.1561 44.3931 19.9366L44.3297 19.644C44.1609 18.9753 43.992 18.3065 43.802 17.6377L44.5197 17.4287ZM55.5388 38.1712L54.99 38.6728C53.3223 37.1611 51.5843 35.7295 49.776 34.378C49.7126 33.0509 49.6282 31.7342 49.5121 30.4071C50.3143 30.9819 51.1059 31.5566 51.8869 32.1418C53.5229 33.3748 55.1377 34.6706 56.6787 36.029L57.2276 36.5201C56.7526 37.0113 56.2671 37.492 55.7816 37.9622L55.5388 38.1712ZM54.8211 38.8191L54.2828 39.3102C52.8263 40.6059 51.3169 41.839 49.7549 43.0093C49.8287 41.6091 49.8604 40.2089 49.871 38.8295C49.8815 37.4502 49.871 36.0813 49.776 34.7124C51.521 36.022 53.2027 37.4153 54.8211 38.8922V38.8191ZM56.8687 35.82C55.3277 34.4407 53.7023 33.1345 52.0769 31.8805C51.222 31.2222 50.3459 30.5952 49.4593 29.9682C49.396 29.2716 49.3221 28.575 49.2377 27.8783C48.9632 25.4679 48.5727 23.075 48.0661 20.6994C48.0661 20.48 47.9711 20.2606 47.9183 20.0411C50.2838 19.4231 52.7059 19.0415 55.1483 18.9021C56.752 18.8016 58.362 18.9283 59.9296 19.2783C60.7012 19.4668 61.4408 19.766 62.125 20.1665C62.8077 20.5592 63.3752 21.1214 63.7713 21.7976C64.1674 22.4739 64.3785 23.2407 64.3837 24.0224C64.3919 24.8095 64.2888 25.5938 64.0776 26.3527C63.5852 27.8769 62.8743 29.3233 61.9666 30.6475C60.6241 32.6835 59.0827 34.584 57.3648 36.3216L56.8687 35.82ZM46.124 31.776C46.029 30.4907 45.9129 29.195 45.7546 27.9097L46.6201 28.4635C47.4645 29.0173 48.3089 29.5816 49.1427 30.1668C49.2588 31.4834 49.3538 32.8001 49.4171 34.1167C48.6044 33.5107 47.7917 32.9255 46.9684 32.3507L46.124 31.776ZM44.6464 55.9564C44.583 56.2177 44.5303 56.4789 44.4669 56.7401C42.356 56.0609 40.1923 55.2772 38.1341 54.4099L39.0629 53.9292C40.3612 53.25 41.6383 52.5394 42.9049 51.8393L44.7308 50.7943L45.6385 50.2405C45.3641 52.1005 45.0475 54.0023 44.6464 55.9564ZM8.3382 38.7877C8.90815 38.213 9.47811 37.6487 10.0692 37.1053L10.6075 36.6037L12.1696 38.0876L12.3912 38.2966L12.9506 38.7877L12.3807 39.2997L12.1484 39.5087C11.6418 39.9894 11.093 40.4805 10.6497 40.9926L10.0586 40.491C9.48866 39.9372 8.90815 39.3729 8.3382 38.7877ZM33.6695 25.0047C31.6641 25.973 29.6974 27.018 27.7694 28.1396C25.8414 29.2611 23.9486 30.4385 22.091 31.6715C22.091 31.3685 22.1437 31.0654 22.1754 30.7624C22.2599 29.7174 22.376 28.6725 22.5026 27.6902C23.4103 27.1155 24.318 26.5617 25.2468 26.0183C26.8089 25.0987 28.4132 24.2314 30.0176 23.3954C30.9745 23.7925 31.9244 24.2105 32.8673 24.6494L33.6695 25.0047ZM22.0593 45.8412C23.9381 47.0882 25.859 48.269 27.8222 49.3836C29.817 50.5331 31.8646 51.5989 33.9439 52.6021L32.994 53.0514C32.0335 53.5008 31.0625 53.9187 30.0809 54.3367C28.4344 53.4799 26.8124 52.5812 25.2152 51.6407C24.2864 51.0973 23.3681 50.5331 22.4604 49.9479C22.3337 48.9029 22.2282 47.858 22.1332 46.813C22.1226 46.51 22.1015 46.1756 22.0804 45.8412H22.0593ZM36.8359 54.807C35.8754 55.2876 34.9044 55.7579 33.9228 56.2072C32.6562 55.622 31.3897 55.0055 30.1442 54.3681C31.1258 53.9501 32.0968 53.5217 33.0573 53.0723L33.9967 52.6334C35.2316 53.2291 36.4981 53.7933 37.7647 54.3367L36.8359 54.807ZM10.7763 41.1284C11.2619 40.6268 11.7685 40.1462 12.2751 39.6655C12.3509 39.587 12.432 39.5136 12.5179 39.446C12.6973 39.2684 12.8978 39.1012 13.0773 38.934L13.6261 39.4147C15.146 40.7522 16.7292 42.0166 18.3546 43.2288C18.3546 43.5632 18.3546 43.908 18.4179 44.2738C18.4179 45.3187 18.5552 46.3637 18.6501 47.4086C17.7847 46.8026 16.9297 46.186 16.0854 45.5486C14.4494 44.2947 12.8556 42.9989 11.3146 41.63L10.7763 41.1284ZM12.254 37.9935C11.7474 37.5024 11.2513 37.0113 10.7552 36.4992L11.3146 36.0081C12.8556 34.6497 14.481 33.3539 16.0959 32.1104C16.9297 31.4834 17.7635 30.8774 18.6185 30.2922C18.5235 31.3371 18.4496 32.3821 18.3968 33.4271C18.3968 33.7405 18.3968 34.054 18.3968 34.3675C16.7573 35.5936 15.1741 36.8789 13.6472 38.2234L13.0984 38.725L12.5495 38.2339L12.254 37.9935ZM21.7532 44.5872C21.7532 44.9216 21.806 45.256 21.8271 45.6322C20.7083 44.8694 19.6106 44.0752 18.5235 43.2601V42.2779C18.5235 41.1493 18.4602 40.0103 18.4602 38.8713C18.4602 37.7323 18.4602 36.6037 18.534 35.4647V34.5556C19.5895 33.7614 20.645 32.9777 21.7954 32.2358C21.7954 32.5388 21.7954 32.8419 21.7427 33.1449C21.6266 35.0572 21.5738 36.9695 21.5738 38.8713C21.5738 40.7731 21.6688 42.6436 21.7321 44.5977L21.7532 44.5872ZM13.225 38.8191L13.7844 38.3279C15.2621 37.0322 16.7855 35.7956 18.3546 34.6183C18.3546 34.9214 18.3546 35.2244 18.3546 35.5274C18.3546 36.5724 18.3018 37.7114 18.3018 38.7982C18.3018 39.8849 18.3018 40.9926 18.3757 42.0898C18.3757 42.4137 18.3757 42.7481 18.3757 43.072C16.782 41.8808 15.2093 40.6268 13.7633 39.2997L13.225 38.8191ZM18.5024 34.1481C18.5024 33.8346 18.5024 33.5211 18.5024 33.2076C18.5552 32.1627 18.6396 31.1177 18.7346 30.0727C19.8428 29.3099 20.9616 28.5575 22.091 27.8365C21.9749 28.8815 21.8693 29.9264 21.7849 30.9087L21.711 31.8074C20.6872 32.6015 19.5578 33.3748 18.5024 34.1481ZM18.5024 44.3156C18.5024 43.9812 18.5024 43.6468 18.5024 43.2706C19.5578 44.0648 20.6766 44.8485 21.806 45.5904C21.806 45.9352 21.8588 46.2592 21.8799 46.6354C21.9749 47.6803 22.0804 48.7253 22.2071 49.7702C21.0461 49.0388 19.9062 48.2655 18.7768 47.4818C18.6924 46.4473 18.6185 45.4023 18.5657 44.3469L18.5024 44.3156ZM25.1518 25.7884C24.2758 26.3109 23.4103 26.8334 22.5448 27.3872C22.7841 25.4645 23.1077 23.5522 23.5159 21.6504C23.5159 21.4309 23.6003 21.2115 23.6531 20.992C25.764 21.6504 27.7694 22.4027 29.7854 23.2282C28.2233 24.0851 26.6717 24.942 25.1518 25.7884ZM23.1992 21.6086C22.777 23.6149 22.4604 25.6317 22.2071 27.6589C21.0672 28.3799 19.9484 29.1323 18.8401 29.9055C18.9035 29.2368 18.9668 28.5784 19.0512 27.9097C19.3362 25.5167 19.7162 23.1342 20.2333 20.7726C20.2333 20.5531 20.3178 20.3337 20.3706 20.1143C21.0461 20.2815 21.711 20.4591 22.376 20.6576L23.3364 20.9502C23.2942 21.1592 23.2414 21.3787 23.1992 21.6086ZM20.0328 20.7203C19.5578 23.0819 19.1357 25.4749 18.8612 27.8783C18.7768 28.5889 18.7029 29.2995 18.6396 29.9682C17.7424 30.5952 16.8664 31.2326 15.9904 31.8805C14.3544 33.1345 12.7501 34.4407 11.2091 35.82L10.6602 36.3111C8.9193 34.5611 7.35997 32.6428 6.00561 30.5848C5.1151 29.2597 4.42525 27.8128 3.958 26.29C3.7365 25.5332 3.63327 24.7474 3.65191 23.9597C3.66114 23.1783 3.87186 22.4121 4.26408 21.7339C4.66624 21.066 5.22804 20.5062 5.90006 20.1038C6.58419 19.7033 7.32381 19.4041 8.09544 19.2156C9.66301 18.8656 11.273 18.7389 12.8767 18.8394C15.3369 18.9815 17.7766 19.3666 20.1595 19.9889C20.1172 20.271 20.0645 20.4904 20.0223 20.7099L20.0328 20.7203ZM10.6391 41.2643L11.188 41.7554C12.729 43.1243 14.3544 44.42 15.9904 45.6636C16.8664 46.3219 17.7635 46.9697 18.6713 47.5967C18.7346 48.3073 18.8085 49.0074 18.8929 49.6866C19.1779 52.0901 19.5684 54.483 20.0856 56.8551C20.1384 57.1059 20.1911 57.3671 20.2545 57.6284C17.8359 58.2511 15.3611 58.6361 12.8662 58.7778C11.2549 58.8801 9.63718 58.7498 8.06378 58.3912C7.28454 58.1955 6.53799 57.8893 5.84729 57.4821C5.16207 57.0722 4.58934 56.5015 4.17965 55.8206C3.78822 55.1269 3.57781 54.3475 3.56747 53.553C3.5623 52.762 3.66888 51.9741 3.88411 51.2123C4.37921 49.6859 5.0899 48.2364 5.99506 46.9071C7.35211 44.8797 8.90765 42.9896 10.6391 41.2643ZM20.1384 56.8655C19.6317 54.4935 19.2518 52.111 18.9773 49.7076C18.9035 49.0388 18.8401 48.3596 18.7768 47.6908C19.9062 48.464 21.0461 49.2269 22.2071 49.9583C22.4604 51.9856 22.8122 53.9989 23.2625 55.9982C23.3153 56.2595 23.3681 56.5207 23.4314 56.7819L22.376 57.085C21.6899 57.2835 21.0038 57.4716 20.265 57.6388C20.2756 57.3776 20.2228 57.1372 20.17 56.8655H20.1384ZM22.4709 50.1255C23.347 50.6794 24.2441 51.1705 25.1413 51.7348C26.7245 52.6683 28.3323 53.5495 29.9648 54.3785C27.8538 55.2458 25.7429 56.0296 23.632 56.7088C23.5686 56.458 23.5159 56.1968 23.4631 55.9355C23.062 54.0128 22.7419 52.0761 22.5026 50.1255H22.4709ZM23.7797 57.1372C23.7737 57.0782 23.7737 57.0186 23.7797 56.9596C23.7797 56.8864 23.7797 56.8133 23.727 56.7506C25.8168 56.0923 28.0016 55.2981 30.1126 54.4099C31.358 55.0577 32.6246 55.6638 33.9122 56.249L33.0468 56.6461C30.4845 57.7946 27.8634 58.8096 25.1941 59.6869L24.4869 59.9168C24.2969 59.2376 24.1175 58.5584 23.9486 57.8269L23.7797 57.5657C23.7797 57.4298 23.7797 57.294 23.7797 57.1372ZM25.2152 59.781C27.8972 58.9125 30.5323 57.9081 33.1101 56.7715L34.1656 56.3222L35.0627 56.7297C37.6415 57.8669 40.2764 58.8748 42.9576 59.7496L43.7176 59.99C43.0538 62.3735 42.1559 64.6869 41.0367 66.8971C40.3131 68.3281 39.3893 69.6508 38.2924 70.8262C37.7273 71.3934 37.0841 71.8789 36.382 72.2682C35.6858 72.6559 34.901 72.8609 34.1022 72.8639C33.2997 72.8536 32.5125 72.6453 31.8119 72.2578C31.114 71.8716 30.4774 71.3857 29.9226 70.8158C28.8288 69.6363 27.9086 68.3101 27.1889 66.8763C26.0879 64.6737 25.2042 62.3711 24.5502 60.0004L25.2152 59.781ZM42.926 59.6869C40.2466 58.8223 37.6179 57.8106 35.0522 56.6565L34.2183 56.2804C35.1999 55.8415 36.1815 55.3712 37.142 54.8906L38.0919 54.4099C40.2028 55.2876 42.3138 56.0818 44.4986 56.7715C44.4458 57.0327 44.3825 57.294 44.3192 57.5448C44.2559 57.7955 44.2664 57.7642 44.2453 57.8582C44.0764 58.5584 43.8864 59.248 43.6859 59.9482L42.926 59.6869ZM44.7941 50.3345C44.1398 50.7421 43.4748 51.16 42.7993 51.5467C41.4905 52.32 40.1606 53.0723 38.8096 53.7829L37.8914 54.274C36.6142 53.7306 35.3582 53.1664 34.1128 52.5707L35.0416 52.1214C36.8042 51.2436 38.5246 50.3241 40.2345 49.3523C41.9444 48.3804 43.5909 47.3773 45.2269 46.3114L46.1029 45.7367C45.9974 47.0847 45.8707 48.4222 45.7018 49.7598L44.7941 50.3345ZM45.2374 46.2174C43.5909 47.3041 41.9162 48.3491 40.2134 49.3523C38.5106 50.3554 36.7515 51.275 34.9361 52.111L34.0072 52.5707C31.8963 51.5676 29.8416 50.4948 27.8433 49.3523C25.8801 48.2028 23.9486 47.0011 22.0593 45.7262L21.996 44.6813C21.8693 42.7063 21.8166 40.7313 21.806 38.7459C21.7954 36.7605 21.8799 34.7855 22.0065 32.8105L22.0699 31.9119C23.9697 30.637 25.9223 29.4353 27.9066 28.2963C29.8909 27.1573 31.9385 26.1019 34.0072 25.1092L34.7988 25.4958C36.5931 26.3736 38.3663 27.314 40.0762 28.2963C41.786 29.2786 43.5065 30.3235 45.1741 31.4312C45.4591 31.6193 45.7441 31.7969 46.0185 31.9955C46.1979 34.2421 46.2824 36.5097 46.2929 38.7564C46.3035 41.003 46.2085 43.3333 46.0396 45.6218L45.2374 46.2174ZM43.7598 21.2115L44.4881 20.9816C44.5408 21.201 44.5936 21.4309 44.6358 21.6504C45.0369 23.5382 45.3641 25.4436 45.6174 27.3663L44.6992 26.8334L42.9049 25.7884C41.6594 25.0674 40.3928 24.3568 39.1157 23.6985L38.3241 23.27C40.0973 22.5177 41.8951 21.8419 43.7176 21.2428L43.7598 21.2115ZM38.7674 23.7925C40.1184 24.5135 41.4589 25.2555 42.7782 26.0287C43.4818 26.4258 44.1573 26.8334 44.8047 27.2513L45.6702 27.7947C45.8391 29.0905 45.9657 30.3862 46.0713 31.6924C45.7898 31.4904 45.5048 31.3023 45.2163 31.1281C43.5909 30.0832 41.9338 29.08 40.2451 28.1187C38.5774 27.1573 36.8781 26.2586 35.1471 25.4018C34.8833 25.2659 34.6194 25.1301 34.345 25.0047C35.5271 24.4404 36.7198 23.9075 37.923 23.4059L38.7674 23.7925ZM48.9105 27.8783L49.111 29.7383C48.2772 29.1532 47.4328 28.5889 46.5779 28.0351L45.7124 27.4812C45.4696 25.5272 45.1636 23.5731 44.7625 21.6295C44.7625 21.41 44.6675 21.1801 44.6253 20.9607L45.3535 20.7412L45.6596 20.6472C46.314 20.4591 46.9579 20.2815 47.6122 20.1247C47.6122 20.3442 47.7072 20.5636 47.7495 20.783C48.2455 23.1342 48.6361 25.5272 48.9105 27.8783ZM35.0416 20.9816C37.606 19.8388 40.2309 18.8342 42.9049 17.9721L43.6226 17.7422C43.802 18.4005 43.9814 19.0693 44.1503 19.7276C44.1503 19.8321 44.2031 19.9366 44.2242 20.0411C44.2453 20.1456 44.3297 20.4695 44.372 20.689L43.6437 20.9293C41.7333 21.5668 39.8334 22.2773 37.9652 23.0193L37.1736 22.6535C36.2343 22.1833 35.2949 21.7339 34.345 21.2951L35.0416 20.9816ZM36.7726 22.8312L37.5747 23.2282C36.3715 23.7403 35.1894 24.2732 34.0178 24.8375L33.2156 24.4613C32.2763 24.0224 31.3369 23.6044 30.387 23.1969C31.5585 22.6013 32.7407 22.0265 33.9439 21.4727C34.8938 21.9011 35.8332 22.3609 36.7726 22.8312ZM25.1624 18.0034C27.8304 18.8709 30.4484 19.8826 33.0045 21.0338L33.7328 21.3578C32.5401 21.9116 31.358 22.4863 30.1864 23.0924C28.0262 22.2077 25.8907 21.417 23.7797 20.7203C23.7797 20.5113 23.8747 20.2919 23.9275 20.0725C23.9803 19.853 23.9803 19.8635 24.0014 19.759C24.1703 19.1006 24.3391 18.4528 24.5186 17.8049L24.8035 17.8989L25.1624 18.0034ZM21.1516 17.1884L21.2466 16.8644C21.7216 16.9794 22.2071 17.1048 22.682 17.2511L23.5581 17.5019L23.7375 17.5541L24.2019 17.7004C24.0225 18.3483 23.8431 19.0066 23.6742 19.6649L23.6109 19.968C23.5581 20.1874 23.5053 20.4068 23.4631 20.6158L22.5237 20.3337C21.8482 20.1352 21.1727 19.9575 20.4972 19.7799L20.645 19.132C20.7716 18.4841 20.9229 17.8362 21.0988 17.1884H21.1516ZM7.85268 38.3279L6.89221 37.283L5.99506 36.238C5.41455 35.5274 4.81293 34.8378 4.28519 34.0958C3.18378 32.6442 2.23924 31.0821 1.46709 29.4353C0.691702 27.7971 0.26421 26.0188 0.211079 24.2105C0.198573 22.401 0.804932 20.6405 1.9315 19.2156C3.08709 17.8118 4.64282 16.785 6.39613 16.2688C7.26542 15.9901 8.15959 15.7942 9.06647 15.6836C9.97318 15.5704 10.8863 15.5145 11.8001 15.5164C13.6339 15.5351 15.4627 15.7064 17.2675 16.0285C18.1752 16.1643 19.0723 16.3733 19.9695 16.5614L20.9722 16.8122C20.9722 16.9167 20.9088 17.0212 20.8877 17.1361C20.7048 17.784 20.5359 18.4319 20.3811 19.0797L20.2333 19.7276C17.8147 19.1034 15.3401 18.715 12.8451 18.5677C11.2093 18.4667 9.56742 18.5969 7.96879 18.9544C7.16763 19.1542 6.39979 19.4674 5.68897 19.8844C4.98309 20.3129 4.39274 20.9045 3.96855 21.6086C3.55556 22.3362 3.33755 23.1564 3.33527 23.9911C3.34017 24.8175 3.47184 25.6385 3.72579 26.4258C4.21533 27.9708 4.92622 29.4382 5.83673 30.7833C7.21758 32.8423 8.80152 34.7606 10.5652 36.5097L10.027 37.0008C9.44644 37.5547 8.86593 38.1189 8.30654 38.6937C8.11655 38.5578 7.94768 38.4324 7.85268 38.3279ZM19.9906 61.1812C19.0934 61.3798 18.1963 61.5783 17.2886 61.7246C15.4767 62.0489 13.6412 62.2271 11.8001 62.2575C10.8823 62.2525 9.96571 62.1896 9.05592 62.0694C8.14418 61.9615 7.24591 61.762 6.37502 61.4738C4.59911 60.9574 3.02368 59.9188 1.85761 58.4957C0.723445 57.0473 0.120485 55.2601 0.14775 53.4276V53.0932V52.7484C0.14775 52.5185 0.14775 52.2991 0.211079 52.0692C0.295516 51.6198 0.358844 51.1705 0.485501 50.7316C0.718771 49.8543 1.02593 48.9979 1.40376 48.1715C2.18304 46.5207 3.13462 44.9552 4.24297 43.5005C5.34098 42.0364 6.52887 40.6404 7.79991 39.3206L8.16932 38.9549C8.73928 39.5296 9.33034 40.1044 9.9214 40.6582L10.4597 41.1493C8.73228 42.8879 7.18368 44.7921 5.83673 46.8339C4.9252 48.1784 4.21423 49.646 3.72579 51.1914C3.49954 51.9724 3.39281 52.7825 3.40915 53.5948C3.40912 54.4166 3.62758 55.2239 4.0426 55.9356C4.45761 56.6473 5.05455 57.2384 5.77341 57.6493C6.48263 58.057 7.24665 58.363 8.04267 58.5584C9.63095 58.9132 11.2625 59.0399 12.8873 58.9346C15.383 58.7733 17.8572 58.3743 20.2756 57.7433C20.3283 57.9941 20.3917 58.2553 20.455 58.5061C20.6133 59.1644 20.7822 59.8123 20.9511 60.4602L21.0777 60.8782L19.9906 61.1812ZM21.0461 60.4811C20.8666 59.8332 20.7083 59.1853 20.55 58.527C20.4867 58.2762 20.4339 58.015 20.3706 57.7642C21.0672 57.5866 21.7638 57.3985 22.4815 57.1895L23.537 56.8864C23.537 57.1477 23.6531 57.4089 23.7164 57.6701L23.7903 57.9732C23.9592 58.6524 24.1491 59.3421 24.3391 60.0631L23.632 60.2826L22.7665 60.5333C22.2704 60.6901 21.711 60.8155 21.2466 60.9409C21.1094 60.7214 21.0566 60.5751 21.025 60.4393L21.0461 60.4811ZM45.2269 65.6014C44.5662 67.2968 43.7464 68.9271 42.7782 70.4709C41.8197 72.0246 40.5861 73.3944 39.1368 74.5149C38.4028 75.0633 37.5921 75.5033 36.7304 75.8211C35.8641 76.1182 34.9556 76.2769 34.0389 76.2914C33.1197 76.2762 32.2084 76.1211 31.3369 75.8316C30.475 75.5068 29.6619 75.0674 28.9199 74.5254C27.47 73.4024 26.2335 72.033 25.2679 70.4814C24.263 68.9471 23.4111 67.3198 22.7243 65.6223C22.1096 64.0944 21.5776 62.5352 21.1305 60.9513C21.6371 60.8259 22.186 60.7005 22.6504 60.5542L23.5159 60.3035L24.223 60.0945C24.9019 62.479 25.8139 64.7923 26.9461 67.0017C27.6767 68.4456 28.6114 69.7791 29.722 70.9621C30.2901 71.5507 30.9449 72.051 31.6641 72.4459C32.3824 72.8528 33.1955 73.0669 34.0231 73.0669C34.8506 73.0669 35.6638 72.8528 36.382 72.4459C37.0994 72.0483 37.7538 71.5483 38.3241 70.9621C39.425 69.7745 40.3491 68.4373 41.0683 66.9912C42.1801 64.7704 43.0675 62.4463 43.7176 60.0527L44.4881 60.2826C44.773 60.3766 45.0686 60.4602 45.3535 60.5333C45.8391 60.6796 46.3246 60.805 46.8206 60.92C46.3813 62.5097 45.8492 64.0728 45.2269 65.6014ZM46.9473 60.3766C46.9473 60.5333 46.8629 60.6796 46.8312 60.8259C46.3351 60.7005 45.8391 60.5751 45.3535 60.4288L44.4986 60.2721L43.7281 60.0318C43.9181 59.3421 44.0975 58.6524 44.277 57.9418L44.3403 57.6388C44.4036 57.3776 44.4669 57.1163 44.5197 56.8551L45.5752 57.179C46.2401 57.3776 46.9156 57.5657 47.6017 57.7328C47.5384 57.9941 47.4856 58.2449 47.4223 58.5061C47.2851 59.1226 47.1267 59.7705 47.0001 60.4184L46.9473 60.3766ZM48.9421 49.6553C48.6783 52.0483 48.2983 54.4412 47.8022 56.8028C47.8022 57.0641 47.6967 57.3253 47.6334 57.5866C46.9579 57.4194 46.2824 57.2313 45.6174 57.0432L44.5619 56.7192C44.5619 56.4475 44.678 56.1968 44.7203 55.9251C45.1319 53.9919 45.4485 52.0378 45.6913 50.0733L46.5884 49.4986C47.4539 48.9447 48.3089 48.3805 49.1532 47.7953C49.111 48.4536 49.016 49.0806 48.9421 49.6971V49.6553ZM49.1743 47.3877C48.33 47.9834 47.475 48.5685 46.6096 49.1328L45.723 49.7076C45.8848 48.37 46.0115 47.0324 46.1029 45.6949C46.3985 45.5068 46.6834 45.3083 46.9684 45.1097C47.8058 44.5454 48.629 43.9603 49.4382 43.3542C49.3749 44.744 49.2904 46.092 49.1743 47.4295V47.3877ZM47.0001 45.0366L46.1346 45.6322C46.3035 43.3646 46.3773 41.0762 46.3773 38.7982C46.3773 36.5201 46.314 34.3257 46.1663 32.0895L47.0106 32.6642C47.8339 33.2425 48.6466 33.8276 49.4488 34.4198C49.5226 35.8827 49.5543 37.3457 49.5543 38.7982C49.5543 40.2507 49.5543 41.7658 49.4699 43.2497C48.6361 43.8558 47.8128 44.4618 47.0001 45.0366ZM56.6682 41.5569C55.1377 42.9258 53.5018 44.2215 51.8975 45.465C51.1059 46.0606 50.3037 46.6563 49.491 47.231C49.6176 45.8725 49.7021 44.5245 49.776 43.1661C51.3697 41.9748 52.9424 40.7313 54.42 39.4147L54.9689 38.934C55.2327 39.1743 55.5177 39.4147 55.7816 39.6655C56.2671 40.1253 56.7421 40.5955 57.217 41.0657C57.0165 41.2329 56.8371 41.4001 56.6471 41.5569H56.6682ZM57.9031 40.4178L57.3542 40.9194C56.8793 40.4387 56.3938 39.9581 55.9082 39.4983L55.1166 38.7773L55.6655 38.2757L55.8871 38.0771C56.3938 37.6069 56.8793 37.1367 57.3648 36.6455L57.4703 36.75L57.8081 37.0531L57.9031 37.1471C58.4836 37.68 59.0324 38.1921 59.5813 38.7668C59.0324 39.3729 58.473 39.8849 57.9031 40.4178ZM67.7189 24.8793C67.7189 25.0987 67.719 25.3286 67.6556 25.5481C67.5894 25.9814 67.4977 26.4105 67.3812 26.8334C67.1534 27.7076 66.8497 28.5606 66.4735 29.3831C65.7049 31.0263 64.7639 32.5849 63.666 34.0331C62.5713 35.497 61.387 36.8929 60.1196 38.213L59.7713 38.5683C59.2224 38.0144 58.7158 37.5233 58.1036 36.9381L57.5548 36.4574C59.2955 34.7207 60.8615 32.8203 62.2305 30.7833C63.1449 29.4404 63.8561 27.9724 64.3415 26.4258C64.5651 25.6403 64.6788 24.8281 64.6792 24.012C64.6783 23.1768 64.4567 22.3564 64.0364 21.6323C63.6161 20.9082 63.0117 20.3056 62.2833 19.8844C61.5679 19.4691 60.7968 19.156 59.9929 18.9544C58.3943 18.5969 56.7524 18.4667 55.1166 18.5677C52.6535 18.715 50.2109 19.1 47.8233 19.7172L47.6756 19.0693C47.5173 18.411 47.3589 17.7631 47.1795 17.1152C47.1795 17.0003 47.1162 16.8853 47.074 16.7704L48.0344 16.5405C48.9316 16.3524 49.8287 16.1539 50.7259 16.018C52.5345 15.6999 54.3669 15.5321 56.2038 15.5164C57.118 15.5132 58.0314 15.5725 58.9374 15.6941C59.8418 15.7995 60.7329 15.9956 61.5972 16.2793C63.3437 16.8037 64.8937 17.8292 66.0513 19.226C67.1665 20.6545 67.7582 22.4158 67.7295 24.221V24.5553L67.7189 24.8793Z" fill="#0077B6"/>
<path d="M45.1213 57.848C44.9313 58.6631 44.7202 59.4468 44.4986 60.2201L44.2769 61.0142C41.8599 68.8933 38.1869 73.8568 34.0178 73.8568C29.8486 73.8568 26.1756 68.9351 23.7797 61.1083C23.6953 60.8575 23.6319 60.5963 23.558 60.3455V60.2305L24.2652 60.0215L24.4657 59.9588L25.1624 59.7289C25.1669 59.7706 25.1669 59.8127 25.1624 59.8543C25.2257 60.1051 25.3101 60.3559 25.384 60.6067C27.4949 67.6602 30.6086 72.1953 34.0072 72.1953C37.4058 72.1953 40.5194 67.5871 42.6409 60.5649C42.7148 60.3037 42.7993 60.0424 42.8731 59.7812C42.8721 59.7638 42.8721 59.7463 42.8731 59.7289C43.0948 58.9557 43.2953 58.1615 43.4853 57.3464L44.2664 57.5868H44.3297L45.1213 57.848Z" fill="#0077B6"/>
<path d="M55.2643 58.9348C55.31 59.2009 55.3771 59.4629 55.4649 59.7185C53.8504 59.6749 52.2415 59.5107 50.6519 59.2273C49.9025 59.0915 49.1426 58.9243 48.3721 58.7467L47.6333 58.5586H47.4539C46.6939 58.3705 45.9234 58.1615 45.1318 57.9316L44.3508 57.6913H44.2874L43.5064 57.4614C42.4509 57.1165 41.3955 56.7403 40.34 56.3328C39.5695 56.0402 38.799 55.7372 38.0074 55.4132L37.1314 55.0371L36.8886 54.9326C35.9492 54.525 34.9993 54.107 34.0599 53.6577L33.1206 53.1979L32.1918 52.7486C30.9463 52.1216 29.6903 51.4528 28.4343 50.7527L27.5371 50.2511L26.6611 49.7391C25.4262 49.0181 24.2124 48.2762 23.0303 47.5133L22.2703 47.0013L21.9009 46.6878L21.141 46.1758C20.2649 45.5802 19.41 44.9741 18.5762 44.368C18.5228 44.3392 18.4732 44.3042 18.4284 44.2635L17.6157 43.6679C16.9402 43.1559 16.2753 42.6229 15.6314 42.1214C14.7448 41.4003 13.8793 40.6793 13.0561 39.9478L12.5283 39.4671L12.3595 39.3209L11.8212 38.8193C11.209 38.255 10.6391 37.6907 10.0797 37.1264L9.99521 37.0324L9.45692 36.4786C8.90808 35.9038 8.40145 35.3291 7.89483 34.7648C3.16632 29.2474 1.56201 24.4824 3.40908 21.3266C5.25615 18.1709 10.2169 17.1468 17.4046 18.453C18.1434 18.5888 18.9034 18.756 19.6844 18.9337L20.4021 19.1113L20.6027 19.1636C21.3521 19.3517 22.1226 19.5607 22.9036 19.7905L23.558 19.9995L23.8746 20.0936C23.8219 20.313 23.7691 20.5325 23.7269 20.7415L23.653 21.0549C23.6002 21.2744 23.558 21.4938 23.5158 21.7133L23.1991 21.6192L22.5342 21.4102C21.7531 21.1803 20.9827 20.9714 20.2333 20.7833L20.0222 20.731L19.2939 20.5638C18.5445 20.3862 17.8057 20.2399 17.0774 20.104C15.3379 19.7718 13.5715 19.5969 11.8001 19.5816C8.2748 19.5816 5.82611 20.4593 4.83396 22.1731C3.39852 24.6287 4.97117 28.8295 9.14028 33.6676C9.61173 34.2249 10.1184 34.7788 10.6602 35.3291C10.829 35.5172 11.019 35.7053 11.1984 35.8934L11.304 35.9874C11.8528 36.5622 12.4333 37.1264 13.035 37.6907L13.5838 38.1819L13.7421 38.3281L14.2699 38.7984C15.1037 39.5298 15.9586 40.2509 16.8663 40.9719L17.5102 41.4839L18.2912 42.09L18.4495 42.2049C19.2622 42.8215 20.1066 43.4275 20.9615 44.0336L21.7109 44.5457L21.9748 44.7233C22.2176 44.9009 22.4709 45.0681 22.7242 45.2353C23.8746 46.0086 25.0673 46.761 26.2917 47.4924C26.9355 47.8791 27.5793 48.2657 28.2443 48.6419C28.9092 49.0181 29.5636 49.3838 30.2286 49.7496C31.4846 50.4288 32.7406 51.0662 33.986 51.6723C34.2921 51.829 34.5982 51.9649 34.9149 52.1112H34.9676L35.907 52.5501C36.8569 52.9785 37.7963 53.386 38.7357 53.7622L38.9995 53.8667L39.8756 54.222L40.6144 54.5041C41.6699 54.9221 42.7253 55.2983 43.7808 55.6431L44.5513 55.8835H44.6146L45.4062 56.1343C46.1873 56.3746 46.9578 56.5732 47.7177 56.7612L47.9077 56.8135L48.6465 56.9911C49.3959 57.1688 50.1347 57.3255 50.8525 57.4509C52.2476 57.7067 53.6577 57.8743 55.0743 57.9525C55.0709 58.2112 55.0885 58.4698 55.1271 58.7258C55.1271 58.7258 55.2538 58.893 55.2643 58.9348Z" fill="#03045E"/>
<path d="M64.9432 55.643C64.7908 55.3636 64.6142 55.0979 64.4154 54.8488C64.386 54.8057 64.3504 54.767 64.3099 54.7339C64.1203 54.5078 63.9081 54.3012 63.6766 54.1173C64.1304 51.1601 61.724 46.8967 57.3438 42.3302C57.196 42.163 57.0377 42.0062 56.8688 41.8391L56.6366 41.5987C56.0983 41.0658 55.5811 40.5538 54.9584 39.979L54.3884 39.3729L54.2723 39.2685L54.8212 38.7878L54.9795 38.6415L55.5284 38.1399L55.655 38.2548L56.2144 38.7669C56.7949 39.3102 57.3543 39.8118 57.8821 40.3866L58.1037 40.6164C58.262 40.7836 58.4098 40.9508 58.5681 41.1076C63.8877 46.7608 66.4208 52.0588 64.9432 55.643Z" fill="#03045E"/>
<path d="M60.1513 34.7333C59.6658 35.308 59.0958 35.8723 58.5998 36.447L58.1037 36.959L57.9031 37.1576L57.3649 36.656L57.2171 36.5202L56.6682 36.0395C56.7296 35.9648 56.7966 35.895 56.8688 35.8305L57.3649 35.3184C57.8926 34.7646 58.4203 34.2108 58.8742 33.657C63.0961 28.7874 64.6265 24.5867 63.191 22.1624C62.1356 20.386 59.6974 19.55 56.3094 19.55C53.7546 19.6088 51.2152 19.9595 48.7417 20.595L48.0556 20.7621L47.739 20.8457C47.0001 21.0338 46.2613 21.2324 45.5014 21.4623L44.752 21.6922L44.5937 21.7444L43.8654 21.9743C42.8099 22.3191 41.7544 22.7058 40.699 23.1133L39.9602 23.3954L39.1474 23.7298L38.7464 23.897C37.8387 24.2732 36.9204 24.6598 35.981 25.0883L35.1789 25.4645L34.8411 25.6108L34.0495 25.9869C32.8041 26.593 31.5481 27.2305 30.292 27.9097C29.6271 28.2754 28.9622 28.6411 28.3078 29.0173C27.6534 29.3935 26.999 29.7802 26.3551 30.1668C25.1308 30.8983 23.9381 31.6506 22.7877 32.4239L22.0594 32.9255L21.7533 33.124L21.0145 33.6256C20.1595 34.2317 19.3257 34.8378 18.513 35.4543L18.3336 35.5901L17.5631 36.1858L16.9192 36.6978C16.0115 37.4188 15.1566 38.1398 14.3228 38.8609L13.7739 39.3624L13.6578 39.4669L13.0773 39.9894C12.4757 40.5537 11.9058 41.118 11.3569 41.6823L11.2303 41.8077L10.7025 42.351C10.1748 42.9049 9.64705 43.4587 9.18264 44.0125C4.96076 48.882 3.44088 53.0828 4.87632 55.5071C6.31176 57.9314 10.7658 58.7256 17.1092 57.597C17.8375 57.4716 18.5763 57.3149 19.3257 57.1372L20.1173 56.9387H20.2017C20.9828 56.7401 21.7638 56.5311 22.566 56.2908C22.8088 56.2281 23.041 56.1445 23.2837 56.0714L23.4948 55.9982C23.5581 56.2699 23.6004 56.5311 23.6637 56.7819V56.8551C23.7165 57.1163 23.7798 57.3776 23.8431 57.6388L23.632 57.7015L22.9249 57.9209C22.1227 58.1613 21.3311 58.3703 20.5501 58.5584H20.4762L19.6846 58.7569C18.9035 58.9346 18.1436 59.1017 17.4048 59.2376C15.5741 59.5816 13.7162 59.7634 11.853 59.781C7.6311 59.781 4.72856 58.6211 3.40922 56.364C1.5727 53.2291 3.16646 48.4432 7.89497 42.9258C8.38048 42.3615 8.95044 41.7868 9.45706 41.212L9.9848 40.6686L10.1115 40.5432C10.6603 39.979 11.2303 39.4147 11.8319 38.8504L12.3913 38.3488L12.5179 38.2339L13.0668 37.7323C13.89 37.0008 14.7555 36.2798 15.6421 35.5588C16.286 35.0363 16.9509 34.5138 17.6264 34.0122L18.418 33.4271L18.608 33.2912C19.4313 32.6851 20.2756 32.0895 21.1517 31.4939L21.9011 31.0028L22.2071 30.7938C22.4605 30.637 22.7032 30.4698 22.946 30.3026C24.1281 29.5398 25.3419 28.7979 26.5768 28.0769L27.4528 27.5648L28.35 27.0633C29.606 26.3631 30.862 25.6944 32.1075 25.0674L32.8885 24.6807L33.2368 24.5136L34.0284 24.1269C34.9572 23.688 35.8755 23.2805 36.7937 22.8834L37.1948 22.7162L37.997 22.3609C38.7886 22.037 39.5591 21.734 40.3296 21.4414C41.385 21.0234 42.4405 20.6576 43.496 20.3128L44.2243 20.0934L44.3931 20.0411L45.1214 19.8112C45.8919 19.5813 46.6307 19.3828 47.3696 19.1947L47.6967 19.1216L48.3722 18.9439C56.4149 17.0943 62.5472 17.7736 64.637 21.3473C66.4841 24.4509 64.8798 29.2159 60.1513 34.7333Z" fill="#F9AD48"/>
<path d="M29.4159 7.33436C29.5426 7.52245 29.6693 7.7001 29.8065 7.86729C27.7485 10.6146 26.2468 13.7301 25.384 17.042L25.1941 17.7108C25.1941 17.8153 25.1413 17.9094 25.1096 18.0034L24.7508 17.8885L24.4658 17.7944L24.1491 17.6899L23.6847 17.5541L23.5053 17.5018C23.5286 17.4064 23.5568 17.3122 23.5897 17.2197C23.6531 17.0002 23.7058 16.7808 23.7797 16.5614C25.1307 12.1203 26.8934 8.61966 28.9304 6.41479C29.0254 6.63424 29.1204 6.84323 29.2365 7.05222C29.2905 7.1498 29.3504 7.24402 29.4159 7.33436Z" fill="#0077B6"/>
<path d="M47.1795 38.7983V39.8432C47.1795 41.2748 47.1162 42.6855 47.0423 44.0231L46.979 45.0053C46.979 45.0053 46.979 45.0785 46.979 45.1098L46.9156 46.1548C46.8312 47.1998 46.7362 48.1716 46.6201 49.1538C46.6201 49.2688 46.6201 49.3942 46.6201 49.5196C46.6201 49.8226 46.5568 50.1257 46.5146 50.4287C46.409 51.2647 46.2929 52.0902 46.1557 52.9052C45.9763 54.0338 45.7757 55.131 45.5435 56.1969L44.7519 55.9461H44.6886L43.8337 55.7057C44.0553 54.6608 44.2559 53.5322 44.4353 52.4037L44.5619 51.6095C44.5619 51.3169 44.6358 51.0034 44.678 50.7108C44.678 50.5959 44.678 50.4809 44.678 50.366C44.8153 49.3837 44.9314 48.391 45.0264 47.367C45.0264 47.0326 45.0263 46.6877 45.1108 46.322C45.1159 46.2944 45.1159 46.266 45.1108 46.2384C45.1108 45.904 45.1741 45.5801 45.1952 45.1934C45.2902 43.8245 45.3535 42.4243 45.3958 41.0136C45.3958 40.2612 45.3958 39.5089 45.3958 38.746C45.3958 37.9832 45.3958 37.2517 45.3958 36.5098C45.3958 35.0887 45.2902 33.6884 45.1952 32.33C45.1952 32.0374 45.1952 31.7343 45.1213 31.4418V31.1283C45.1213 30.8252 45.1213 30.5117 45.0475 30.2191C44.9525 29.1742 44.8364 28.2233 44.7097 27.2515L44.6992 26.8335C44.6992 26.5409 44.6253 26.2587 44.5936 25.9766L44.4669 25.2033C44.2875 24.0748 44.087 22.9671 43.8653 21.8908C43.8126 21.6714 43.7703 21.4519 43.7176 21.2325C43.7176 21.128 43.7176 21.0235 43.6437 20.919C43.6437 20.6996 43.5487 20.4697 43.4959 20.2502C43.3165 19.4665 43.1159 18.7037 42.9049 17.9618L42.8415 17.7319C42.7782 17.4915 42.7043 17.2512 42.6304 17.0108C41.7736 13.7051 40.2751 10.596 38.2186 7.85699C38.3616 7.68277 38.4954 7.50141 38.6196 7.31361L38.778 7.05237C38.9046 6.84347 39.0106 6.62302 39.0946 6.39404C41.1317 8.58846 42.8943 12.0891 44.2453 16.5197C44.3192 16.7496 44.3825 16.9899 44.4564 17.2303L44.5197 17.4602C44.7308 18.2021 44.9314 18.9545 45.1213 19.7486C45.1741 19.9576 45.2269 20.1875 45.2691 20.407L45.343 20.7205C45.343 20.9399 45.4485 21.1489 45.5013 21.3788C45.723 22.4237 45.9235 23.5418 46.1029 24.6809C46.2401 25.4855 46.3562 26.311 46.4618 27.1365C46.4618 27.4291 46.5357 27.7217 46.5673 28.0143C46.5673 28.1606 46.5673 28.2964 46.5673 28.4427C46.6729 29.4145 46.7679 30.3968 46.8523 31.4104C46.8523 31.7134 46.8523 32.0165 46.9156 32.3195C46.9104 32.4205 46.9104 32.5216 46.9156 32.6226C46.9156 32.9256 46.9156 33.2182 46.9156 33.5212C46.9895 34.911 47.0317 36.3217 47.0529 37.7011L47.1795 38.7983Z" fill="#0077B6"/>
<path d="M38.1341 4.4085C38.1332 4.73578 38.0943 5.06187 38.018 5.38032C37.9613 5.61315 37.8836 5.84047 37.7858 6.05954C37.7858 6.15359 37.7014 6.24764 37.6486 6.34168C37.5452 6.53613 37.4252 6.72142 37.2897 6.89551C36.9043 7.39193 36.4088 7.79401 35.8415 8.0707C35.2742 8.34739 34.6502 8.49129 34.0178 8.49129C33.3854 8.49129 32.7614 8.34739 32.1941 8.0707C31.6267 7.79401 31.1312 7.39193 30.7458 6.89551C30.6082 6.7267 30.488 6.54466 30.387 6.35213C30.3314 6.25425 30.2821 6.15304 30.2392 6.04909C30.1414 5.83362 30.0637 5.60977 30.007 5.38032C29.9307 5.06187 29.8918 4.73578 29.8909 4.4085C29.8884 3.63756 30.1121 2.8825 30.5347 2.23499C30.6235 2.08333 30.7259 1.93993 30.8408 1.80655C31.2292 1.34939 31.7138 0.98186 32.2608 0.729717C32.8078 0.477574 33.4039 0.346924 34.0072 0.346924C34.6106 0.346924 35.2066 0.477574 35.7536 0.729717C36.3006 0.98186 36.7853 1.34939 37.1736 1.80655C37.2946 1.9512 37.4039 2.10492 37.5008 2.26634C37.915 2.90551 38.1348 3.64911 38.1341 4.4085Z" fill="#0077B6"/>
<path d="M38.1552 32.4239C37.2681 32.3363 36.382 32.6007 35.6915 33.159C35.0009 33.7173 34.5622 34.524 34.4716 35.4021L34.3661 36.447L32.0651 36.238C31.4613 36.1759 30.851 36.2324 30.2693 36.4042C29.6876 36.5761 29.1459 36.86 28.6752 37.2395C28.2045 37.6191 27.8141 38.087 27.5265 38.6162C27.2388 39.1455 27.0595 39.7258 26.9989 40.3238C26.8843 41.5321 27.2592 42.736 28.041 43.6707C28.8228 44.6054 29.9476 45.1945 31.168 45.3083C32.3869 45.431 33.6052 45.0695 34.5552 44.3034C35.5051 43.5373 36.109 42.4292 36.2342 41.2225L36.4453 38.9445L37.5008 39.049C37.9518 39.1165 38.412 39.0925 38.8534 38.9786C39.2948 38.8646 39.7082 38.6631 40.0685 38.3862C40.4289 38.1092 40.7286 37.7627 40.9495 37.3676C41.1705 36.9725 41.308 36.5371 41.3539 36.0878C41.3997 35.6385 41.3528 35.1846 41.2161 34.7538C41.0793 34.3229 40.8556 33.9241 40.5584 33.5814C40.2613 33.2388 39.8969 32.9595 39.4874 32.7606C39.0779 32.5616 38.6319 32.4471 38.1763 32.4239H38.1552Z" fill="#0077B6"/>
<path d="M64.2043 58.4436C64.1025 59.3835 63.6556 60.2537 62.9483 60.8888L62.8533 60.9619C62.7736 61.0338 62.6889 61.1001 62.6 61.1605C61.9511 61.6132 61.1773 61.8576 60.3835 61.8606H59.9824C59.335 61.7981 58.7143 61.5735 58.1788 61.2079C57.6432 60.8422 57.2106 60.3476 56.9216 59.7707C56.8002 59.5268 56.7047 59.2712 56.6366 59.0079C56.6417 58.9662 56.6417 58.9241 56.6366 58.8825C56.5819 58.6318 56.5536 58.3761 56.5521 58.1196C56.5521 57.9942 56.5521 57.8584 56.5521 57.7225L56.7527 55.8312L55.8766 55.7371C55.1747 55.6527 54.531 55.3082 54.0753 54.7729C53.6195 54.2376 53.3855 53.5512 53.4203 52.852C53.455 52.1527 53.756 51.4925 54.2627 51.0041C54.7694 50.5157 55.4441 50.2354 56.1511 50.2197H56.4994C57.2369 50.2961 57.9136 50.6594 58.3807 51.2296C58.8478 51.7998 59.0671 52.5303 58.9903 53.2606L58.9058 54.1279L60.8162 54.316C61.7499 54.4083 62.6172 54.8358 63.2544 55.5177C63.436 55.7121 63.5953 55.9259 63.7293 56.1551C63.7649 56.205 63.7966 56.2574 63.8243 56.3118C63.964 56.5705 64.0738 56.8439 64.1515 57.1269C64.2479 57.5592 64.2658 58.0051 64.2043 58.4436Z" fill="#03045E"/>
</g>
<defs>
<clipPath id="clip0_140:3340">
<rect width="227" height="76" fill="white" transform="translate(0 0.333252)"/>
</clipPath>
</defs>
</svg>
