<svg width="140" height="128" viewBox="0 0 140 128" fill="none" xmlns="http://www.w3.org/2000/svg">
<g filter="url(#filter0_d_29:1950)">
<path fill-rule="evenodd" clip-rule="evenodd" d="M88 24C65.9086 24 48 41.9086 48 64C48 86.0914 65.9086 104 88 104C110.091 104 128 86.0914 128 64C128 41.9086 110.091 24 88 24ZM87.4108 56.3708L87.3067 54.6407C86.9946 50.1565 89.7345 46.0607 94.0699 44.4719C95.6653 43.9069 98.3705 43.8363 100.139 44.3306C100.833 44.5425 102.151 45.2486 103.087 45.8842L104.787 47.0494L106.66 46.4491C107.7 46.1314 109.087 45.6017 109.712 45.2486C110.301 44.9309 110.822 44.7543 110.822 44.8603C110.822 45.4605 109.538 47.5084 108.463 48.6383C107.006 50.2271 107.423 50.3684 110.371 49.3091C112.14 48.7089 112.174 48.7089 111.827 49.3797C111.619 49.7328 110.544 50.9686 109.4 52.0985C107.457 54.0404 107.353 54.2523 107.353 55.8765C107.353 58.3834 106.174 63.609 104.995 66.469C102.81 71.8359 98.1277 77.3793 93.4456 80.1687C86.8559 84.0879 78.0812 85.0765 70.6938 82.7815C68.2313 82.0047 64 80.0274 64 79.6744C64 79.5684 65.2833 79.4272 66.844 79.3919C70.1041 79.3213 73.3643 78.4033 76.1389 76.7791L78.0118 75.6492L75.8615 74.9077C72.8094 73.8485 70.0695 71.4122 69.3758 69.1171C69.1677 68.3757 69.2371 68.3404 71.1793 68.3404L73.1909 68.305L71.4915 67.493C69.4799 66.469 67.6417 64.7389 66.7399 62.9735C66.081 61.7024 65.2486 58.4893 65.4914 58.2421C65.5607 58.1362 66.2891 58.3481 67.1214 58.6305C69.5145 59.5132 69.8267 59.3014 68.4394 57.8184C65.8382 55.135 65.0405 51.1452 66.2891 47.3672L66.8787 45.6723L69.1677 47.9674C73.8499 52.5928 79.3644 55.3469 85.6767 56.159L87.4108 56.3708Z" fill="#55ACEE"/>
</g>
<defs>
<filter id="filter0_d_29:1950" x="44" y="20" width="96" height="96" filterUnits="userSpaceOnUse" color-interpolation-filters="sRGB">
<feFlood flood-opacity="0" result="BackgroundImageFix"/>
<feColorMatrix in="SourceAlpha" type="matrix" values="0 0 0 0 0 0 0 0 0 0 0 0 0 0 0 0 0 0 127 0" result="hardAlpha"/>
<feOffset dx="4" dy="4"/>
<feGaussianBlur stdDeviation="4"/>
<feColorMatrix type="matrix" values="0 0 0 0 0.333333 0 0 0 0 0.67451 0 0 0 0 0.933333 0 0 0 0.2 0"/>
<feBlend mode="normal" in2="BackgroundImageFix" result="effect1_dropShadow_29:1950"/>
<feBlend mode="normal" in="SourceGraphic" in2="effect1_dropShadow_29:1950" result="shape"/>
</filter>
</defs>
</svg>
